<svg width="1848" height="133" viewBox="0 0 1848 133" fill="none" xmlns="http://www.w3.org/2000/svg">
<g filter="url(#filter0_d)">
<path d="M20 42.5234C20 42.5234 27 44.5 34.5 50C42 55.5 50.5 66 83 71.5C115.5 77 140.533 44.0084 200.8 43.8212C261.067 44.0084 321.333 50.247 381.6 63.7848C441.867 77.073 502.133 97.0365 562.4 93.73C622.667 90.174 682.933 63.9719 743.2 53.803C803.467 44.0084 863.733 50.247 924 47.1277C984.267 44.0084 1044.53 30.2835 1104.8 33.8395C1165.07 37.1459 1225.33 57.1095 1285.6 63.7848C1345.87 70.2105 1430.96 74.0746 1503.28 65.1732C1570.9 56.8504 1579.94 49.4272 1612.12 37.1249C1681.07 10.7689 1738.32 31.2765 1775.93 37.1249L1828 42.5235V117H1797.87C1767.73 117 1707.47 117 1647.2 117C1586.93 117 1526.67 117 1466.4 117C1406.13 117 1345.87 117 1285.6 117C1225.33 117 1165.07 117 1104.8 117C1044.53 117 984.267 117 924 117C863.733 117 803.467 117 743.2 117C682.933 117 622.667 117 562.4 117C502.133 117 441.867 117 381.6 117C321.333 117 261.067 117 200.8 117C140.533 117 80.2667 117 50.1333 117H20V42.5234Z" fill="#1566A5"/>
</g>
<defs>
<filter id="filter0_d" x="0" y="0" width="1848" height="133" filterUnits="userSpaceOnUse" color-interpolation-filters="sRGB">
<feFlood flood-opacity="0" result="BackgroundImageFix"/>
<feColorMatrix in="SourceAlpha" type="matrix" values="0 0 0 0 0 0 0 0 0 0 0 0 0 0 0 0 0 0 127 0"/>
<feOffset dy="-4"/>
<feGaussianBlur stdDeviation="10"/>
<feColorMatrix type="matrix" values="0 0 0 0 0 0 0 0 0 0 0 0 0 0 0 0 0 0 0.25 0"/>
<feBlend mode="normal" in2="BackgroundImageFix" result="effect1_dropShadow"/>
<feBlend mode="normal" in="SourceGraphic" in2="effect1_dropShadow" result="shape"/>
</filter>
</defs>
</svg>
