<svg width="1920" height="322" viewBox="0 0 1920 322" fill="none" xmlns="http://www.w3.org/2000/svg">
<path d="M0 54.0286L29.0667 91.2046C58.1333 127.824 107.333 191.381 166 228C230.5 243 264.333 170.898 323 156C381 141.659 480.833 250.916 539.5 184.5C597.367 117.249 624.333 198.159 683 212.5C740.733 227.398 814.667 143.14 873.333 180.316C930.933 216.935 989.333 158.456 1046.67 143.14C1105.47 127.824 1164 158.456 1221.33 165.417C1280 172.379 1353.17 257.473 1410.5 212.5C1469.03 168.362 1534.17 14.4441 1591.5 14.8618C1649.9 14.4441 1677.83 122.779 1736.5 122.362C1794.77 122.779 1782.5 81.3623 1807.5 20.3618C1832.5 -40.6387 1920 54.8619 1920 54.8619V321.362H1890.93C1861.87 321.362 1804 321.362 1745.33 321.362C1687.33 321.362 1629.33 321.362 1570.67 321.362C1512.67 321.362 1454.67 321.362 1396 321.362C1338.13 321.362 1280 321.362 1221.33 321.362C1163.6 321.362 1105.33 321.362 1046.67 321.362C989.067 321.362 930.667 321.362 873.333 321.362C814.533 321.362 756 321.362 698.667 321.362C640 321.362 581.333 321.362 524 321.362C465.467 321.362 406.667 321.362 349.333 321.362C290.933 321.362 233.333 321.362 174.667 321.362C116.4 321.362 58.6667 321.362 29.3333 321.362H0V54.0286Z" fill="#014282"/>
</svg>
