<svg width="1848" height="178" viewBox="0 0 1848 178" fill="none" xmlns="http://www.w3.org/2000/svg">
<g filter="url(#filter0_d)">
<path d="M1828 24L1797.87 27.2652C1767.73 30.7768 1707.47 36.9375 1647.2 53.5714C1586.93 70.2054 1526.67 96.0804 1466.4 96.2652C1406.13 96.0804 1345.87 70.2054 1285.6 53.5714C1225.33 36.9375 1160.73 44.8827 1100.46 34.8408C1040.19 25.1684 990.775 19.8973 930.509 29.9392C870.242 39.6116 803.467 50.4911 743.2 63.4286C682.933 76.3661 622.667 70.2054 562.4 60.1634C502.133 50.4911 441.867 36.9375 381.6 46.9795C321.333 56.6518 261.067 89.9197 200.8 89.7348C140.533 89.9197 80.2665 56.6518 50.1332 40.4491L20 24V162H50.1332C80.2665 162 140.533 162 200.8 162C261.067 162 321.333 162 381.6 162C441.867 162 502.133 162 562.4 162C622.667 162 682.933 162 743.2 162C803.467 162 863.733 162 924 162C984.267 162 1044.53 162 1104.8 162C1165.07 162 1225.33 162 1285.6 162C1345.87 162 1406.13 162 1466.4 162C1526.67 162 1586.93 162 1647.2 162C1707.47 162 1767.73 162 1797.87 162H1828V24Z" fill="#1C3446"/>
</g>
<defs>
<filter id="filter0_d" x="0" y="0" width="1848" height="178" filterUnits="userSpaceOnUse" color-interpolation-filters="sRGB">
<feFlood flood-opacity="0" result="BackgroundImageFix"/>
<feColorMatrix in="SourceAlpha" type="matrix" values="0 0 0 0 0 0 0 0 0 0 0 0 0 0 0 0 0 0 127 0"/>
<feOffset dy="-4"/>
<feGaussianBlur stdDeviation="10"/>
<feColorMatrix type="matrix" values="0 0 0 0 0 0 0 0 0 0 0 0 0 0 0 0 0 0 0.25 0"/>
<feBlend mode="normal" in2="BackgroundImageFix" result="effect1_dropShadow"/>
<feBlend mode="normal" in="SourceGraphic" in2="effect1_dropShadow" result="shape"/>
</filter>
</defs>
</svg>
