<svg width="1848" height="141" viewBox="0 0 1848 141" fill="none" xmlns="http://www.w3.org/2000/svg">
<g filter="url(#filter0_d)">
<path d="M20 38.9023L102 69.65C132.133 81.95 140.533 51.2 200.8 69.65C261.067 88.1 321.333 100.4 381.6 90.1372C441.867 80.0281 502.133 46.9719 562.4 36.8628C622.667 26.6 682.933 38.9 743.2 51.2C803.467 63.5 863.733 75.8 924 79.9128C984.267 83.8719 1044.53 80.0281 1104.8 75.8C1165.07 71.5719 1225.33 67.7281 1285.6 63.5C1345.87 59.2719 1406.13 55.4281 1466.4 47.0872C1526.67 38.9 1586.93 26.6 1647.2 24.5628C1707.47 22.3719 1767.73 30.8281 1797.87 34.7872L1828 38.9V125H1797.87C1767.73 125 1707.47 125 1647.2 125C1586.93 125 1526.67 125 1466.4 125C1406.13 125 1345.87 125 1285.6 125C1225.33 125 1165.07 125 1104.8 125C1044.53 125 984.267 125 924 125C863.733 125 803.467 125 743.2 125C682.933 125 622.667 125 562.4 125C502.133 125 441.867 125 381.6 125C321.333 125 261.067 125 200.8 125C140.533 125 80.2667 125 50.1333 125H20V38.9023Z" fill="#154569"/>
</g>
<defs>
<filter id="filter0_d" x="0" y="0.206055" width="1848" height="140.794" filterUnits="userSpaceOnUse" color-interpolation-filters="sRGB">
<feFlood flood-opacity="0" result="BackgroundImageFix"/>
<feColorMatrix in="SourceAlpha" type="matrix" values="0 0 0 0 0 0 0 0 0 0 0 0 0 0 0 0 0 0 127 0"/>
<feOffset dy="-4"/>
<feGaussianBlur stdDeviation="10"/>
<feColorMatrix type="matrix" values="0 0 0 0 0 0 0 0 0 0 0 0 0 0 0 0 0 0 0.25 0"/>
<feBlend mode="normal" in2="BackgroundImageFix" result="effect1_dropShadow"/>
<feBlend mode="normal" in="SourceGraphic" in2="effect1_dropShadow" result="shape"/>
</filter>
</defs>
</svg>
