<svg width="1848" height="180" viewBox="0 0 1848 180" fill="none" xmlns="http://www.w3.org/2000/svg">
<g filter="url(#filter0_d)">
<path d="M1828 24.0005L1797.87 27.313C1767.73 30.8755 1707.47 37.1255 1647.2 54.0005C1586.93 70.8755 1526.67 97.1255 1466.4 97.313C1406.13 97.1255 1345.87 70.8755 1285.6 54.0005C1225.33 37.1255 1160.73 45.1859 1100.46 34.9984C1040.19 25.1859 990.775 19.8383 930.509 30.0258C870.242 39.8383 803.467 50.8755 743.2 64.0005C682.933 77.1255 622.667 70.8755 562.4 60.688C502.133 50.8755 441.867 37.1255 381.6 47.313C321.333 57.1255 261.067 60.8754 200.8 60.6879C140.533 60.8754 119.5 24.0005 20 24.0005V164.001H50.1332C80.2665 164.001 140.533 164.001 200.8 164.001C261.067 164.001 321.333 164.001 381.6 164.001C441.867 164.001 502.133 164.001 562.4 164.001C622.667 164.001 682.933 164.001 743.2 164.001C803.467 164.001 863.733 164.001 924 164.001C984.267 164.001 1044.53 164.001 1104.8 164.001C1165.07 164.001 1225.33 164.001 1285.6 164.001C1345.87 164.001 1406.13 164.001 1466.4 164.001C1526.67 164.001 1586.93 164.001 1647.2 164.001C1707.47 164.001 1767.73 164.001 1797.87 164.001H1828V24.0005Z" fill="#014282"/>
</g>
<defs>
<filter id="filter0_d" x="0" y="0.000488281" width="1848" height="180" filterUnits="userSpaceOnUse" color-interpolation-filters="sRGB">
<feFlood flood-opacity="0" result="BackgroundImageFix"/>
<feColorMatrix in="SourceAlpha" type="matrix" values="0 0 0 0 0 0 0 0 0 0 0 0 0 0 0 0 0 0 127 0"/>
<feOffset dy="-4"/>
<feGaussianBlur stdDeviation="10"/>
<feColorMatrix type="matrix" values="0 0 0 0 0 0 0 0 0 0 0 0 0 0 0 0 0 0 0.25 0"/>
<feBlend mode="normal" in2="BackgroundImageFix" result="effect1_dropShadow"/>
<feBlend mode="normal" in="SourceGraphic" in2="effect1_dropShadow" result="shape"/>
</filter>
</defs>
</svg>
