<svg width="1920" height="355" viewBox="0 0 1920 355" fill="none" xmlns="http://www.w3.org/2000/svg">
<path d="M0 273.391V95.6622C22.7047 95.6622 99.6631 218.801 144.545 179.887C189.558 140.973 244.868 121.516 291.069 108.504C335.95 95.9787 360.371 9.6867 406.573 55.5323C451.322 100.891 509.536 104.175 554.417 123.632C600.223 143.089 736.583 62.5853 781.464 36.6832C827.138 10.2946 837.566 160.795 882.448 127.961C927.857 95.1272 924.689 134.893 969.57 127.961C1014.85 121.516 1086.39 63.1933 1131.28 95.6622C1176.29 127.645 1214.44 4.70093 1260.64 36.6834C1305.52 69.1523 1331.26 100.891 1377.46 55.5323C1422.21 9.6867 1467.23 134.893 1512.11 127.961C1557.91 121.516 1603.19 25.7385 1648.07 25.7385C1693.74 25.7385 1802.52 93.8141 1847.4 93.8141C1892.81 93.8141 1897.56 -31.4164 1920 7.49765V355H1897.43C1874.72 355 1828.92 355 1784.04 355C1739.02 355 1694.27 355 1648.07 355C1603.19 355 1558.31 355 1512.11 355C1467.36 355 1422.34 355 1377.46 355C1331.66 355 1286.38 355 1241.5 355C1195.83 355 1150.42 355 1105.53 355C1060.12 355 1014.45 355 969.57 355C924.293 355 878.487 355 833.606 355C788.593 355 743.843 355 697.642 355C652.76 355 607.879 355 561.677 355C516.928 355 471.915 355 427.033 355C381.228 355 335.95 355 291.069 355C245.396 355 199.986 355 155.105 355C109.695 355 64.022 355 41.5813 355H0V273.391Z" fill="#1C3446"/>
</svg>
