<svg width="1848" height="154" viewBox="0 0 1848 154" fill="none" xmlns="http://www.w3.org/2000/svg">
<g filter="url(#filter0_d)">
<path d="M20 34.1913L39 36C103 43.8087 166.733 87.0236 227 72C287.267 56.9764 321.333 19.4805 381.6 25.2117C441.867 31.1655 502.133 48.9712 562.4 57.8741C622.667 66.777 682.933 66.777 743.2 63.8279C803.467 60.6562 863.733 55.092 924 66.777C984.267 78.462 1044.53 108.509 1104.8 102.388C1165.07 96.2677 1225.33 55.092 1285.6 51.9203C1345.87 48.9712 1406.13 84.5827 1466.4 93.4856C1526.67 102.388 1586.93 84.5827 1647.2 60.8232C1707.47 37.2862 1748.81 34.1892 1790.03 34.1891L1828 34.1892V138H1797.87C1767.73 138 1707.47 138 1647.2 138C1586.93 138 1526.67 138 1466.4 138C1406.13 138 1345.87 138 1285.6 138C1225.33 138 1165.07 138 1104.8 138C1044.53 138 984.267 138 924 138C863.733 138 803.467 138 743.2 138C682.933 138 622.667 138 562.4 138C502.133 138 441.867 138 381.6 138C321.333 138 261.067 138 200.8 138C140.533 138 80.2667 138 50.1333 138H20V34.1913Z" fill="#2986C8"/>
</g>
<defs>
<filter id="filter0_d" x="0" y="0.621094" width="1848" height="153.379" filterUnits="userSpaceOnUse" color-interpolation-filters="sRGB">
<feFlood flood-opacity="0" result="BackgroundImageFix"/>
<feColorMatrix in="SourceAlpha" type="matrix" values="0 0 0 0 0 0 0 0 0 0 0 0 0 0 0 0 0 0 127 0"/>
<feOffset dy="-4"/>
<feGaussianBlur stdDeviation="10"/>
<feColorMatrix type="matrix" values="0 0 0 0 0 0 0 0 0 0 0 0 0 0 0 0 0 0 0.25 0"/>
<feBlend mode="normal" in2="BackgroundImageFix" result="effect1_dropShadow"/>
<feBlend mode="normal" in="SourceGraphic" in2="effect1_dropShadow" result="shape"/>
</filter>
</defs>
</svg>
