<svg width="1920" height="297" viewBox="0 0 1920 297" fill="none" xmlns="http://www.w3.org/2000/svg">
<path d="M0 108.3C45.4667 65.9735 23.3333 54.8561 70 19.4748C115.333 -15.9066 192.315 140.84 278 115.245C323.9 101.535 330.167 26.3964 375.5 40.811C421.767 55.2256 538.106 138.487 591 94.2786C680.5 19.4748 764.833 101.748 810.166 108.3C856.033 114.852 902.166 143.681 947.5 150.234C993.233 156.786 1039.5 143.681 1084.83 115.245C1130.3 87.3334 1175.5 45.3999 1222.17 10.4117C1267.5 -24.0523 1301.33 36.0639 1348 64.5001C1393.2 92.412 1450.17 143.288 1495.5 150.234C1541.77 157.703 1587.5 30.9853 1632.83 17.488C1678.97 3.46647 1710.67 66.3667 1756 94.2786C1801.87 122.715 1869.5 137.779 1894.5 124.001C1919.5 110.223 1920 108.309 1920 108.309V297.001H1884.7C1861.77 297.001 1815.5 297.001 1770.17 297.001C1724.7 297.001 1679.5 297.001 1632.83 297.001C1587.5 297.001 1542.17 297.001 1495.5 297.001C1450.3 297.001 1404.83 297.001 1359.5 297.001C1313.23 297.001 1267.5 297.001 1222.17 297.001C1176.03 297.001 1130.17 297.001 1084.83 297.001C1038.97 297.001 992.833 297.001 947.5 297.001C901.766 297.001 855.5 297.001 810.166 297.001C764.7 297.001 719.5 297.001 672.833 297.001C627.5 297.001 582.166 297.001 535.5 297.001C490.3 297.001 444.833 297.001 399.5 297.001C353.233 297.001 307.5 297.001 262.166 297.001C216.033 297.001 170.166 297.001 124.833 297.001C78.9662 297.001 32.8329 297.001 10.1662 297.001H0L0 108.3Z" fill="#154569"/>
</svg>
