<svg width="1848" height="206" viewBox="0 0 1848 206" fill="none" xmlns="http://www.w3.org/2000/svg">
<g filter="url(#filter0_d)">
<path d="M20 84.5626L50.1333 81.0821C80.2667 77.3389 140.533 70.7719 200.8 81.0821C261.067 91.7862 321.333 119.368 381.6 119.565C441.867 119.368 502.133 91.7862 562.4 91.5892C622.667 91.7862 682.933 119.368 743.2 109.057C803.467 98.3532 863.733 49.7576 924 46.0144C984.267 42.5339 1044.53 84.5626 1104.8 95.0697C1165.07 105.577 1225.33 84.5626 1285.6 63.5482C1345.87 42.5339 1406.13 21.5196 1466.4 25.0001C1526.67 28.7432 1586.93 56.3246 1647.2 67.0287C1707.47 77.3389 1767.73 70.7719 1797.87 67.0287L1828 63.5482V190H1797.87C1767.73 190 1707.47 190 1647.2 190C1586.93 190 1526.67 190 1466.4 190C1406.13 190 1345.87 190 1285.6 190C1225.33 190 1165.07 190 1104.8 190C1044.53 190 984.267 190 924 190C863.733 190 803.467 190 743.2 190C682.933 190 622.667 190 562.4 190C502.133 190 441.867 190 381.6 190C321.333 190 261.067 190 200.8 190C140.533 190 80.2667 190 50.1333 190H20V84.5626Z" fill="#161F26"/>
</g>
<defs>
<filter id="filter0_d" x="0" y="0.619873" width="1848" height="205.38" filterUnits="userSpaceOnUse" color-interpolation-filters="sRGB">
<feFlood flood-opacity="0" result="BackgroundImageFix"/>
<feColorMatrix in="SourceAlpha" type="matrix" values="0 0 0 0 0 0 0 0 0 0 0 0 0 0 0 0 0 0 127 0"/>
<feOffset dy="-4"/>
<feGaussianBlur stdDeviation="10"/>
<feColorMatrix type="matrix" values="0 0 0 0 0 0 0 0 0 0 0 0 0 0 0 0 0 0 0.25 0"/>
<feBlend mode="normal" in2="BackgroundImageFix" result="effect1_dropShadow"/>
<feBlend mode="normal" in="SourceGraphic" in2="effect1_dropShadow" result="shape"/>
</filter>
</defs>
</svg>
