<svg width="1848" height="191" viewBox="0 0 1848 191" fill="none" xmlns="http://www.w3.org/2000/svg">
<g filter="url(#filter0_d)">
<path d="M20 27.0012L50.1333 30.4794C80.2667 34.22 140.533 40.7825 200.8 58.5012C261.067 76.22 321.333 103.783 381.6 103.979C441.867 103.783 502.133 76.22 562.4 58.5012C622.667 40.7825 687.273 49.2459 747.539 38.549C807.806 28.2459 857.225 22.6309 917.491 33.3278C977.758 43.6309 1044.53 55.22 1104.8 69.0012C1165.07 82.7825 1225.33 76.22 1285.6 65.5231C1345.87 55.22 1406.13 40.7825 1466.4 51.4793C1526.67 61.7825 1586.93 97.22 1647.2 97.0232C1707.47 97.22 1719 74.5007 1724.5 67.0007C1724.5 67.0007 1764 24.0003 1789.5 24C1815 23.9997 1828 27.0012 1828 27.0012V174.001H1797.87C1767.73 174.001 1707.47 174.001 1647.2 174.001C1586.93 174.001 1526.67 174.001 1466.4 174.001C1406.13 174.001 1345.87 174.001 1285.6 174.001C1225.33 174.001 1165.07 174.001 1104.8 174.001C1044.53 174.001 984.267 174.001 924 174.001C863.733 174.001 803.467 174.001 743.2 174.001C682.933 174.001 622.667 174.001 562.4 174.001C502.133 174.001 441.867 174.001 381.6 174.001C321.333 174.001 261.067 174.001 200.8 174.001C140.533 174.001 80.2667 174.001 50.1333 174.001H20V27.0012Z" fill="#014282"/>
</g>
<defs>
<filter id="filter0_d" x="0" y="0" width="1848" height="190.001" filterUnits="userSpaceOnUse" color-interpolation-filters="sRGB">
<feFlood flood-opacity="0" result="BackgroundImageFix"/>
<feColorMatrix in="SourceAlpha" type="matrix" values="0 0 0 0 0 0 0 0 0 0 0 0 0 0 0 0 0 0 127 0"/>
<feOffset dy="-4"/>
<feGaussianBlur stdDeviation="10"/>
<feColorMatrix type="matrix" values="0 0 0 0 0 0 0 0 0 0 0 0 0 0 0 0 0 0 0.25 0"/>
<feBlend mode="normal" in2="BackgroundImageFix" result="effect1_dropShadow"/>
<feBlend mode="normal" in="SourceGraphic" in2="effect1_dropShadow" result="shape"/>
</filter>
</defs>
</svg>
