<svg width="1920" height="280" viewBox="0 0 1920 280" fill="none" xmlns="http://www.w3.org/2000/svg">
<path d="M0 210.805V60.1106C22.7047 60.1106 99.6631 164.519 144.545 131.524C189.558 98.5291 244.868 82.0317 291.069 70.9991C335.95 60.379 360.371 -12.7869 406.573 26.085C451.322 64.5444 509.536 67.3283 554.417 83.8256C600.223 100.323 736.583 32.0652 781.464 10.1031C827.138 -12.2715 837.566 115.336 882.448 87.4963C927.857 59.657 924.689 93.3737 969.57 87.4965C1014.85 82.0317 1086.39 32.5807 1131.28 60.1106C1176.29 87.2282 1214.44 -17.0143 1260.64 10.1032C1305.52 37.6332 1331.26 64.5444 1377.46 26.085C1422.21 -12.7869 1467.23 93.3737 1512.11 87.4965C1557.91 82.0317 1603.19 0.823242 1648.07 0.823242C1693.74 0.823242 1766.67 51.4499 1847.4 58.5437C1875.65 61.026 1871.5 54.5 1920 60V280H1897.43C1874.72 280 1828.92 280 1784.04 280C1739.02 280 1694.27 280 1648.07 280C1603.19 280 1558.31 280 1512.11 280C1467.36 280 1422.34 280 1377.46 280C1331.66 280 1286.38 280 1241.5 280C1195.83 280 1150.42 280 1105.53 280C1060.13 280 1014.45 280 969.57 280C924.293 280 878.487 280 833.606 280C788.593 280 743.843 280 697.642 280C652.76 280 607.879 280 561.677 280C516.928 280 471.915 280 427.033 280C381.228 280 335.95 280 291.069 280C245.396 280 199.986 280 155.105 280C109.695 280 64.022 280 41.5813 280H0V210.805Z" fill="#1566A5"/>
</svg>
