<svg width="1920" height="399" viewBox="0 0 1920 399" fill="none" xmlns="http://www.w3.org/2000/svg">
<path d="M0.000863995 82.3691C0.000863995 82.3691 17.5 114.498 53.4999 132.998C89.4999 151.498 142.336 48.9332 201.002 73.8593C259.002 99.1646 255.836 129.313 314.502 119.172C372.502 109.41 428.835 154.239 487.502 109.031C545.369 63.2543 640.002 109.41 698.669 119.172C756.402 129.313 814.668 169.688 873.335 194.993C930.935 219.919 989.335 180.113 1046.67 169.688C1105.47 159.263 1164 104.292 1221.33 109.031C1280 113.77 1368.67 225.606 1426 194.993C1484.53 164.949 1529.33 91.6872 1586.67 91.9715C1645.07 91.6872 1706.67 129.265 1726 129.265C1745.33 129.265 1787.5 34.0129 1826.5 5.00934C1865.5 -23.9942 1920 82.4147 1920 82.4147V399H0.000863995C0.000863995 399 -0.00172999 399 0.00207134 399H0.000863995V82.3691Z" fill="#161F26"/>
<path d="M0.000863995 82.3691C0.000863995 82.3691 17.5 114.498 53.4999 132.998C89.4999 151.498 142.336 48.9332 201.002 73.8593C259.002 99.1646 255.836 129.313 314.502 119.172C372.502 109.41 428.835 154.239 487.502 109.031C545.369 63.2543 640.002 109.41 698.669 119.172C756.402 129.313 814.668 169.688 873.335 194.993C930.935 219.919 989.335 180.113 1046.67 169.688C1105.47 159.263 1164 104.292 1221.33 109.031C1280 113.77 1368.67 225.606 1426 194.993C1484.53 164.949 1529.33 91.6872 1586.67 91.9715C1645.07 91.6872 1706.67 129.265 1726 129.265C1745.33 129.265 1787.5 34.0129 1826.5 5.00934C1865.5 -23.9942 1920 82.4147 1920 82.4147V399H0.000863995C0.000863995 399 -0.00172999 399 0.00207134 399H0.000863995V82.3691Z" fill="#161F26"/>
</svg>
