<svg width="1920" height="201" viewBox="0 0 1920 201" fill="none" xmlns="http://www.w3.org/2000/svg">
<path d="M0 6.00007C0 6.00007 32.5 18.0001 42.5 40.0001C52.5 62.0001 92 160.495 137.333 131.29C182.8 101.534 228 33.3601 274.667 8.48598C320 -16.3881 347.333 38.2428 394 52.7067C439.2 67.7233 502.667 42.5727 548 52.7067C594.267 62.8406 618.667 27.3098 664 27.5862C710.133 27.3098 777.333 62.8406 822.667 67.4469C868.533 72.0532 914.667 92.321 960 96.9273C1005.73 101.534 1052 92.321 1097.33 72.3296C1142.8 52.7067 1163.83 52.1839 1210.5 27.5862C1255.83 3.35695 1293.83 14.5086 1340.5 34.5C1385.7 54.123 1462.67 52.7067 1508 57.5894C1554.27 62.8406 1600 13.0923 1645.33 3.60328C1691.47 -6.25425 1737.33 23.2262 1782.67 42.8491C1828.53 62.8406 1833.51 40.942 1869 10.5001C1891.18 -8.52312 1920 6.00007 1920 6.00007V200.109H1897.2C1874.27 200.109 1828 200.109 1782.67 200.109C1737.2 200.109 1692 200.109 1645.33 200.109C1600 200.109 1554.67 200.109 1508 200.109C1462.8 200.109 1417.33 200.109 1372 200.109C1325.73 200.109 1280 200.109 1234.67 200.109C1188.53 200.109 1142.67 200.109 1097.33 200.109C1051.47 200.109 1005.33 200.109 960 200.109C914.267 200.109 868 200.109 822.667 200.109C777.2 200.109 732 200.109 685.333 200.109C640 200.109 594.667 200.109 548 200.109C502.8 200.109 457.333 200.109 412 200.109C365.733 200.109 320 200.109 274.667 200.109C228.533 200.109 182.667 200.109 137.333 200.109C91.4667 200.109 45.3333 200.109 22.6667 200.109H0V6.00007Z" fill="#0E578E"/>
</svg>
