<svg width="279" height="94" viewBox="0 0 279 94" fill="none" xmlns="http://www.w3.org/2000/svg">
<path d="M196.405 23.9391C186.537 23.9391 177.802 27.2257 172.422 32.2757C171.109 31.3256 169.645 30.5327 168.081 29.8936C166.799 22.7543 160.58 17.0481 152.542 15.5124C151.397 6.78392 142.885 1.52588e-05 132.541 1.52588e-05C121.418 1.52588e-05 112.4 7.84224 112.4 17.5151C112.4 25.8917 119.168 32.8863 128.206 34.6122C129.012 40.7639 133.483 45.9335 139.674 48.458C141.179 56.8379 149.49 63.2573 159.549 63.2573C165.435 63.2573 170.712 61.0495 174.395 57.5499C179.815 61.6453 187.667 64.2222 196.405 64.2222C212.757 64.2222 226.012 55.2043 226.012 44.08C226.012 32.9558 212.757 23.9391 196.405 23.9391Z" fill="white"/>
<path d="M225.038 77.3377C223.438 77.3377 221.858 77.34 220.293 77.3457C219.778 75.6825 218.664 74.1628 217.118 72.8664C219.081 72.8732 221.071 72.8755 223.088 72.8755C253.866 72.8755 278.817 72.2262 278.817 71.4253C278.817 70.6245 253.866 69.9751 223.088 69.9751C219.938 69.9751 216.855 69.982 213.848 69.9956C220.975 65.5277 225.56 58.5854 225.56 50.7831C225.56 37.3064 211.897 26.3804 195.042 26.3804C185.36 26.3804 176.738 29.9894 171.147 35.6124C169.932 35.0052 168.611 34.4801 167.21 34.0392C166.104 24.9131 158.489 17.8114 149.141 17.4992C146.253 7.40026 136.973 3.05176e-05 125.947 3.05176e-05C112.615 3.05176e-05 101.806 10.8076 101.806 24.1407C101.806 24.413 101.838 24.6784 101.847 24.9484C90.1465 27.2188 81.6526 34.0255 81.6526 42.0682C81.6526 42.901 81.7506 43.7178 81.926 44.5198C78.8331 42.9819 75.0601 42.0682 70.9761 42.0682C60.5087 42.0682 52.0234 48.008 52.0234 55.3353C52.0234 57.3642 52.6927 59.2792 53.8564 60.9982C51.0436 62.6079 49.0981 64.4694 48.2881 66.4823C30.7912 67.3367 19.7459 68.5842 19.7459 69.9751C19.7459 71.4185 31.6257 72.708 50.2756 73.5636C50.9211 74.2015 51.6853 74.8178 52.5624 75.4022C21.4454 75.752 0 76.4868 0 77.3377C0 78.1591 20.0339 78.8734 49.466 79.2356C44.3913 79.9397 41.3906 80.8055 41.3906 81.743C41.3906 84.0989 60.3191 86.0093 83.669 86.0093C88.7783 86.0093 93.6768 85.9182 98.2108 85.7496L98.2063 85.7872C98.2063 88.3219 100.937 90.3758 104.306 90.3758C107.674 90.3758 110.405 88.3219 110.405 85.7872C110.405 85.5365 110.358 85.295 110.307 85.0546L110.426 85.0455C111.642 85.0547 112.868 85.0603 114.109 85.0603C117.708 85.0603 121.202 85.0227 124.554 84.9521C123.354 85.262 122.653 85.6231 122.653 86.0093C122.653 87.1622 128.795 88.0974 136.37 88.0974C143.946 88.0974 150.088 87.1622 150.088 86.0093C150.088 85.2062 147.103 84.509 142.734 84.1604C149.096 83.6979 153.953 83.0873 156.566 82.3878C157.082 82.2499 157.512 82.1087 157.847 81.964C158.993 82.5028 160.238 82.9813 161.572 83.3926C162.014 88.978 168.414 93.4141 176.266 93.4141C182.817 93.4141 188.362 90.3291 190.281 86.0651C193.368 88.6807 198.233 90.3758 203.725 90.3758C209.337 90.3758 214.295 88.6067 217.368 85.8942C227.626 85.5855 235.053 84.6764 235.053 83.6033C235.053 82.6384 229.029 81.8057 220.343 81.4229L220.398 81.1905C221.928 81.1962 223.472 81.1985 225.038 81.1985C254.739 81.1985 278.817 80.3338 278.817 79.2687C278.817 78.2012 254.739 77.3377 225.038 77.3377Z" fill="#D2E5F9"/>
<path d="M207.523 76.8958L207.512 76.8604C203.339 68.984 197.223 67.0303 192.185 67.0303C187.538 67.0303 183.809 68.6901 183.361 68.8986L183.338 68.91L183.315 68.9214C180.72 58.1879 173.07 56.0849 167.472 56.0849C164.763 56.0849 162.535 56.5771 161.591 56.8231L161.386 56.879L161.352 56.8915L161.169 56.937L161.101 56.9598C151.073 51.0337 142.595 49.2566 136.032 49.2566C126.559 49.2566 121.079 52.959 120.682 53.2347L120.671 53.246L120.682 53.2233C120.967 52.5056 125.683 39.8935 103.036 30.7686L103.002 30.7583C103.002 30.7583 109.057 18.6498 117.784 18.6498C120.096 18.6498 122.593 19.4985 125.216 21.6448C137.269 31.4988 132.724 35.0406 132.359 35.3037C132.924 35.175 141.219 29.5531 147.957 29.5531C149.635 29.5531 151.215 29.9005 152.557 30.7686C160.335 35.8016 157.364 47.8679 156.886 48.3703C157.458 47.8987 162.253 44.1496 169.048 44.1496C170.781 44.1496 172.643 44.3934 174.6 44.9983C184.739 48.1311 181.322 55.2727 181.322 55.2727C181.322 55.2727 188.453 55.8206 192.862 56.9598C197.27 58.099 197.84 63.795 197.84 63.795C197.84 63.795 199.868 62.6171 201.986 62.6171C203.453 62.6171 204.962 63.1821 205.871 65.0925C208.093 69.7758 207.523 76.8958 207.523 76.8958Z" fill="#EAF3FC"/>
<path d="M120.672 53.2462L120.684 53.221V53.2342L120.672 53.2462Z" fill="white"/>
<path d="M120.763 53.1434L120.683 53.222C120.968 52.5055 125.684 39.8935 103.037 30.7685C103.778 30.8608 115.694 32.5343 120.66 40.0655C125.365 47.1957 121.447 52.3346 120.763 53.1434Z" fill="white"/>
<path d="M161.101 56.9596C136.597 42.4804 121.355 52.7674 120.683 53.2344V53.2219L120.762 53.1433C136.722 36.2604 161.101 56.9596 161.101 56.9596Z" fill="white"/>
<path d="M183.315 68.9213C179.465 52.9942 164.484 56.07 161.591 56.823C185.001 49.8284 183.315 68.9213 183.315 68.9213Z" fill="white"/>
<path d="M207.512 76.8602C199.492 61.7203 184.295 68.4644 183.361 68.8984C199.732 57.2786 207.159 75.9603 207.512 76.8602Z" fill="white"/>
<path d="M106.895 73.0989C106.895 73.0989 91.7564 58.9501 75.9888 58.9501C72.0119 58.9501 67.9992 59.8489 64.1748 62.1011C64.1748 62.1011 67.4171 56.9029 77.1577 56.9029C80.1127 56.9029 83.6647 57.3814 87.9082 58.6277C106.135 63.9853 106.895 73.0989 106.895 73.0989Z" fill="#BAD6F5"/>
<path d="M138.033 75.1869C130.614 71.2931 124.276 70.1004 119.291 70.1004C111.393 70.1004 106.896 73.0987 106.896 73.0987C110.323 69.213 114.506 67.855 118.682 67.855C128.382 67.855 138.033 75.1869 138.033 75.1869Z" fill="#BAD6F5"/>
<path d="M154.551 75.1869C150.436 72.9712 147.23 72.233 144.783 72.233C139.889 72.233 138.032 75.1869 138.032 75.1869C138.728 71.9584 140.796 70.883 143.243 70.883C148.137 70.883 154.551 75.1869 154.551 75.1869Z" fill="#BAD6F5"/>
</svg>
