<svg width="241" height="98" viewBox="0 0 241 98" fill="none" xmlns="http://www.w3.org/2000/svg">
<path d="M62.1365 79.6594C62.6615 79.5881 63.1316 79.5141 63.567 79.4396C63.7376 79.5495 63.9326 79.6578 64.1359 79.7639C63.507 79.728 62.839 79.6927 62.1365 79.6594ZM190.786 73.4319C183.728 73.4319 177.386 74.9214 172.918 77.2874C169.702 76.6387 165.813 76.2554 161.619 76.2554C160.06 76.2554 158.549 76.3132 157.091 76.4135C154.778 75.2415 150.253 74.3654 144.778 74.0936L144.805 73.9745C144.805 72.8352 143.056 71.8781 140.638 71.5259C141.258 70.6841 141.603 69.7881 141.603 68.8574C141.603 64.0562 132.692 60.1636 121.701 60.1636C119.539 60.1636 117.462 60.3185 115.512 60.5973C114.613 58.382 111.227 56.7322 107.175 56.7322C102.437 56.7322 98.5964 58.9845 98.5964 61.7651C98.5964 63.6143 100.302 65.2271 102.836 66.101C102.173 66.9685 101.799 67.8923 101.799 68.8574L101.801 68.8768C101.422 68.8655 101.042 68.8574 100.655 68.8574C92.8301 68.8574 86.4867 71.1548 86.4727 73.9949C84.1233 73.6378 81.4142 73.4319 78.5226 73.4319C74.1047 73.4319 70.1038 73.9086 67.1834 74.6795C65.1493 74.2613 62.4502 74.0045 59.4782 74.0045C53.6492 74.0045 48.8495 74.9847 48.1401 76.2526C46.1354 76.2049 44.0412 76.177 41.8697 76.177C28.3479 76.177 17.386 77.1754 17.386 78.4074C17.386 78.7286 18.1479 79.0337 19.4926 79.3094C7.93247 79.5555 0 80.0573 0 80.6379C0 81.4588 15.8756 82.1246 35.4578 82.1246C50.4719 82.1246 63.2963 81.7333 68.468 81.1804C71.2308 81.7702 74.7196 82.1246 78.5226 82.1246C86.3903 82.1246 92.9421 80.6159 94.3993 78.6177C96.2882 78.9554 98.4065 79.1516 100.655 79.1516C105.839 79.1516 110.362 78.1373 112.835 76.6318C115.508 77.2123 118.511 77.5496 121.701 77.5496C122.405 77.5496 123.098 77.5319 123.783 77.502C123.63 77.7228 123.532 77.948 123.532 78.1785C123.532 80.4845 131.418 82.3536 141.146 82.3536C141.31 82.3536 141.471 82.3482 141.634 82.3482C141.965 85.5245 150.774 88.0733 161.619 88.0733C163.402 88.0733 165.122 87.9967 166.766 87.8674C168.947 93.4564 178.865 97.6813 190.786 97.6813C204.306 97.6813 215.264 92.2526 215.264 85.556C215.264 78.8605 204.306 73.4319 190.786 73.4319Z" fill="#D2E5F9"/>
<path d="M218.188 75.8067C217.653 75.8067 217.145 75.8207 216.623 75.8207C217.612 74.6673 218.188 73.3088 218.188 71.8676C218.188 68.642 215.388 65.8696 211.421 64.7162C211.792 64.015 212.012 63.2739 212.012 62.5068C212.012 58.8131 207.345 55.7672 201.319 55.313C197.805 49.1914 189.803 44.3613 179.715 42.2874C179.372 38.2246 173.964 35.0004 167.307 35.0004C165.564 35.0004 163.917 35.22 162.407 35.6181C159.772 31.7475 155.901 28.7964 151.385 27.2592C149.066 11.8315 135.752 7.62939e-06 119.679 7.62939e-06C105.885 7.62939e-06 94.1218 8.71442 89.6062 20.944C88.3844 20.0806 86.9432 19.5714 85.3786 19.5714C81.1371 19.5714 77.6922 23.3199 77.6922 27.9304C77.6922 30.6755 78.8997 33.0926 80.7666 34.6161C79.7372 36.6887 79.1469 39.0083 79.1469 41.4652C79.1469 42.3423 79.2428 43.2084 79.3801 44.0457C78.7491 43.9633 78.1036 43.9221 77.4312 43.9221C73.0116 43.9221 69.2644 45.7188 67.8511 48.2183C63.8568 49.3698 60.4392 51.1006 57.9273 53.228C50.5975 53.5711 44.9014 55.8632 44.5855 58.6893C41.0995 60.1181 38.8894 62.2735 38.8894 64.6754C38.8894 64.8402 38.9172 65.0047 38.9447 65.1543C34.0581 66.0191 30.6545 67.9681 30.6545 70.2467C30.6545 70.9481 30.9971 71.6193 31.5875 72.238C24.67 72.7035 20.0166 73.5559 20.0166 74.5301C20.0166 75.4775 24.3129 76.2994 30.8191 76.7815C34.5117 77.042 38.9028 77.2066 43.6387 77.2066C54.5785 77.2066 63.7468 76.3681 66.4368 75.2163C70.1984 76.478 74.5215 77.2066 79.1469 77.2066C93.4216 77.2066 104.993 70.3701 104.993 61.9303C104.993 61.4484 104.951 60.9695 104.869 60.5026C109.302 62.807 114.34 64.1249 119.679 64.1249C122.74 64.1249 125.691 63.6868 128.491 62.8911C130.371 64.8948 132.636 66.5269 135.148 67.6951C139.073 76.7262 152.579 83.3831 168.625 83.3831C170.848 83.3831 173.031 83.2459 175.144 82.9977L175.117 83.3285C175.117 90.5618 184.176 96.4225 195.362 96.4225C202.664 96.4225 209.074 93.9235 212.629 90.164C214.51 88.1871 215.594 85.8526 215.608 83.3558C216.459 83.3698 217.31 83.3831 218.188 83.3831C230.788 83.3831 241 81.6814 241 79.5952C241 77.5074 230.788 75.8067 218.188 75.8067Z" fill="white"/>
<path d="M195.363 96.4225C184.176 96.4225 175.117 90.5618 175.117 83.3285L175.145 82.9977C173.031 83.2459 170.848 83.3831 168.625 83.3831C152.58 83.3831 139.074 76.7262 135.148 67.6951C132.636 66.5269 130.372 64.8948 128.491 62.8911C125.691 63.6868 122.74 64.1249 119.679 64.1249C114.34 64.1249 109.303 62.807 104.869 60.5026C104.952 60.9695 104.993 61.4484 104.993 61.9303C104.993 70.3701 93.4218 77.2066 79.1471 77.2066C74.5217 77.2066 70.1987 76.478 66.437 75.2163C63.747 76.3681 54.5787 77.2066 43.639 77.2066C38.9031 77.2066 34.5119 77.042 30.8193 76.7815C33.3174 74.1993 37.5584 70.4799 41.786 69.7539C42.6417 69.6054 43.4443 69.5412 44.1928 69.5412C49.2569 69.5412 51.8609 72.4991 51.8609 72.4991C51.8609 72.4991 50.7892 58.2465 63.0152 58.2465C63.4692 58.2465 63.9417 58.2652 64.4333 58.3065C75.9356 59.2662 74.2745 66.8153 73.4371 69.2324C74.0289 67.9696 75.6862 65.5087 79.5734 65.5087C80.3754 65.5087 81.2735 65.6143 82.2767 65.8556C86.4083 66.8577 87.8629 69.301 88.3433 71.3045C88.4254 68.0382 89.2912 63.2601 93.4904 63.1105C93.6834 63.1035 93.8712 63.0997 94.0529 63.0997C95.2689 63.0997 96.2425 63.2531 97.0183 63.4809C95.4672 61.1342 94.2315 57.277 95.783 51.4438C98.7475 40.2436 107.45 38.1848 114.532 37.7181C114.955 37.6907 115.363 37.6783 115.755 37.6783C121.959 37.6783 124.604 40.9684 128.258 45.2672C130.481 47.8875 130.948 52.3771 130.948 55.7399C131.614 55.3641 132.629 55.1206 134.143 55.1206C136.438 55.1206 139.875 55.6783 144.962 57.1671C165.029 63.0284 157.301 76.0126 157.095 76.3681C157.397 76.1402 162.229 72.5212 169.019 72.5212C171.199 72.5212 173.58 72.8942 176.078 73.8716C185.233 77.4527 184.862 84.3306 184.149 86.3481C184.839 85.6399 186.445 84.5348 189.076 84.5348C190.733 84.5348 192.796 84.9728 195.294 86.2247C202.939 90.039 197.833 94.39 196.502 95.3931C198.091 94.3529 205.691 89.512 210.295 89.512C211.218 89.512 212.02 89.7056 212.629 90.164C209.074 93.9235 202.665 96.4225 195.363 96.4225Z" fill="#F2F7FD"/>
<path d="M142.347 41.5201C142.347 41.5201 151.955 37.4024 159.847 40.1475C167.739 42.8927 168.082 53.8729 168.082 53.8729C168.082 53.8729 162.592 37.574 142.347 41.5201Z" fill="#D2E5F9"/>
<path d="M182.152 67.7701C182.152 67.7701 185.909 48.5833 168.083 53.8729C168.083 53.8729 179.839 51.1198 182.152 67.7701Z" fill="#D2E5F9"/>
<path d="M129.65 8.74977C129.65 8.74977 144.577 14.24 145.092 25.3921C145.606 36.5442 142.347 41.5198 142.347 41.5198C142.347 41.5198 149.896 18.3577 129.65 8.74977Z" fill="#D2E5F9"/>
<path d="M95.3358 44.265C91.8304 44.265 88.9883 41.4224 88.9883 37.9169C88.9883 34.41 91.8304 31.5688 95.3358 31.5688C95.6699 31.5688 95.9976 31.5935 96.3176 31.6443C96.8184 31.9545 97.4028 32.1425 98.029 32.1658C100.189 33.1788 101.685 35.3735 101.685 37.9169C101.685 41.4224 98.8418 44.265 95.3358 44.265Z" fill="#F2F7FD"/>
<path d="M98.167 32.1687C98.1209 32.1687 98.0754 32.1687 98.0292 32.166C97.4953 31.9161 96.9205 31.7377 96.3179 31.6444C95.3169 31.024 94.6504 29.9149 94.6504 28.6522C94.6504 26.71 96.2251 25.1343 98.167 25.1343C100.11 25.1343 101.685 26.71 101.685 28.6522C101.685 30.5944 100.11 32.1687 98.167 32.1687Z" fill="#F2F7FD"/>
<path d="M98.0297 32.1658C97.4035 32.1424 96.8191 31.9544 96.3184 31.6442C96.9209 31.7375 97.4957 31.916 98.0297 32.1658Z" fill="#E9F2FC"/>
</svg>
