<svg width="243" height="82" viewBox="0 0 243 82" fill="none" xmlns="http://www.w3.org/2000/svg">
<path d="M171.175 20.8638C162.575 20.8638 154.962 23.7282 150.273 28.1295C149.129 27.3015 147.853 26.6105 146.49 26.0535C145.373 19.8312 139.953 14.858 132.947 13.5197C131.949 5.9124 124.531 -4.19617e-05 115.516 -4.19617e-05C105.821 -4.19617e-05 97.9619 6.83477 97.9619 15.2651C97.9619 22.5656 103.86 28.6617 111.737 30.1659C112.44 35.5273 116.337 40.0329 121.732 42.2331C123.043 49.5365 130.287 55.1312 139.054 55.1312C144.183 55.1312 148.783 53.2071 151.993 50.157C156.716 53.7263 163.56 55.9722 171.175 55.9722C185.426 55.9722 196.979 48.1127 196.979 38.4175C196.979 28.7223 185.426 20.8638 171.175 20.8638Z" fill="white"/>
<path d="M196.129 67.403C194.735 67.403 193.358 67.405 191.994 67.41C191.545 65.9604 190.574 64.6359 189.227 63.5061C190.938 63.512 192.672 63.514 194.431 63.514C221.254 63.514 243 62.9481 243 62.2501C243 61.5521 221.254 60.9862 194.431 60.9862C191.685 60.9862 188.998 60.9922 186.377 61.0041C192.589 57.1101 196.585 51.0596 196.585 44.2596C196.585 32.5141 184.677 22.9916 169.987 22.9916C161.549 22.9916 154.034 26.137 149.161 31.0377C148.103 30.5085 146.951 30.0508 145.73 29.6666C144.766 21.7128 138.13 15.5234 129.982 15.2513C127.465 6.44967 119.378 6.86646e-05 109.768 6.86646e-05C98.1484 6.86646e-05 88.7282 9.41927 88.7282 21.0397C88.7282 21.2769 88.756 21.5083 88.7639 21.7436C78.5663 23.7224 71.1636 29.6547 71.1636 36.6642C71.1636 37.39 71.249 38.1019 71.4019 38.8008C68.7063 37.4605 65.4179 36.6642 61.8585 36.6642C52.7358 36.6642 45.3405 41.841 45.3405 48.227C45.3405 49.9953 45.9238 51.6643 46.938 53.1625C44.4866 54.5654 42.791 56.1877 42.085 57.9421C26.8358 58.6867 17.2094 59.7739 17.2094 60.9862C17.2094 62.2441 27.563 63.3681 43.8172 64.1137C44.3798 64.6697 45.0458 65.2068 45.8102 65.7162C18.6905 66.021 0 66.6614 0 67.403C0 68.1189 17.4603 68.7414 43.1117 69.0571C38.6888 69.6707 36.0736 70.4253 36.0736 71.2424C36.0736 73.2956 52.5706 74.9606 72.9209 74.9606C77.3739 74.9606 81.6432 74.8812 85.5947 74.7343L85.5908 74.767C85.5908 76.9761 87.9706 78.7662 90.9065 78.7662C93.8424 78.7662 96.2223 76.9761 96.2223 74.767C96.2223 74.5486 96.1815 74.3381 96.1369 74.1286L96.2411 74.1207C97.3005 74.1286 98.3688 74.1336 99.451 74.1336C102.587 74.1336 105.633 74.1008 108.554 74.0393C107.508 74.3093 106.897 74.624 106.897 74.9606C106.897 75.9654 112.25 76.7805 118.852 76.7805C125.455 76.7805 130.807 75.9654 130.807 74.9606C130.807 74.2607 128.206 73.653 124.398 73.3492C129.944 72.9461 134.176 72.4139 136.454 71.8043C136.904 71.6842 137.278 71.5611 137.57 71.435C138.569 71.9046 139.654 72.3216 140.816 72.68C141.202 77.548 146.779 81.4142 153.623 81.4142C159.332 81.4142 164.165 78.7255 165.837 75.0093C168.528 77.2889 172.768 78.7662 177.555 78.7662C182.446 78.7662 186.767 77.2243 189.445 74.8603C198.385 74.5913 204.858 73.799 204.858 72.8637C204.858 72.0228 199.608 71.297 192.038 70.9634L192.085 70.7608C193.419 70.7658 194.765 70.7678 196.129 70.7678C222.015 70.7678 243 70.0142 243 69.0859C243 68.1556 222.015 67.403 196.129 67.403Z" fill="#D2E5F9"/>
<path d="M180.865 67.0177L180.855 66.9869C177.218 60.1223 171.888 58.4196 167.497 58.4196C163.447 58.4196 160.197 59.8662 159.807 60.0479L159.787 60.0578L159.767 60.0677C157.505 50.713 150.838 48.8802 145.959 48.8802C143.598 48.8802 141.656 49.3091 140.833 49.5236L140.654 49.5722L140.625 49.5832L140.466 49.6229L140.406 49.6427C131.666 44.4779 124.277 42.9291 118.557 42.9291C110.302 42.9291 105.525 46.1558 105.18 46.3961L105.17 46.406L105.18 46.3862C105.428 45.7607 109.538 34.7688 89.8003 26.816L89.7705 26.8071C89.7705 26.8071 95.0475 16.254 102.654 16.254C104.668 16.254 106.845 16.9937 109.131 18.8642C119.636 27.4524 115.674 30.5392 115.356 30.7686C115.849 30.6564 123.078 25.7566 128.951 25.7566C130.413 25.7566 131.79 26.0595 132.96 26.816C139.739 31.2024 137.15 41.7188 136.733 42.1566C137.231 41.7456 141.41 38.4781 147.332 38.4781C148.842 38.4781 150.466 38.6906 152.171 39.2178C161.008 41.9481 158.029 48.1723 158.029 48.1723C158.029 48.1723 164.245 48.6499 168.087 49.6427C171.929 50.6356 172.426 55.5999 172.426 55.5999C172.426 55.5999 174.193 54.5732 176.039 54.5732C177.317 54.5732 178.633 55.0657 179.425 56.7307C181.361 60.8124 180.865 67.0177 180.865 67.0177Z" fill="#EAF3FC"/>
<path d="M105.17 46.406L105.18 46.3845V46.3958L105.17 46.406Z" fill="white"/>
<path d="M105.25 46.3166L105.18 46.3851C105.428 45.7606 109.539 34.7687 89.8008 26.816C90.4461 26.8964 100.831 28.3549 105.16 34.9186C109.261 41.1329 105.845 45.6117 105.25 46.3166Z" fill="white"/>
<path d="M140.406 49.6428C119.05 37.0236 105.765 45.9891 105.18 46.3962V46.3853L105.249 46.3168C119.159 31.6026 140.406 49.6428 140.406 49.6428Z" fill="white"/>
<path d="M159.767 60.0677C156.411 46.1866 143.355 48.8674 140.833 49.5236C161.236 43.4275 159.767 60.0677 159.767 60.0677Z" fill="white"/>
<path d="M180.855 66.9869C173.865 53.7919 160.621 59.6696 159.807 60.0479C174.074 49.9208 180.547 66.2026 180.855 66.9869Z" fill="white"/>
<path d="M93.1632 63.7086C93.1632 63.7086 79.9692 51.3774 66.2271 51.3774C62.761 51.3774 59.2638 52.1607 55.9307 54.1236C55.9307 54.1236 58.7564 49.5932 67.2457 49.5932C69.8212 49.5932 72.9169 50.0102 76.6153 51.0964C92.501 55.7658 93.1632 63.7086 93.1632 63.7086Z" fill="#BAD6F5"/>
<path d="M120.301 65.5283C113.834 62.1347 108.311 61.0952 103.966 61.0952C97.0829 61.0952 93.1631 63.7084 93.1631 63.7084C96.1506 60.3218 99.7964 59.1383 103.435 59.1383C111.889 59.1383 120.301 65.5283 120.301 65.5283Z" fill="#BAD6F5"/>
<path d="M134.697 65.5283C131.111 63.5972 128.317 62.9539 126.184 62.9539C121.919 62.9539 120.301 65.5283 120.301 65.5283C120.907 62.7146 122.709 61.7773 124.842 61.7773C129.107 61.7773 134.697 65.5283 134.697 65.5283Z" fill="#BAD6F5"/>
</svg>
