<svg width="241" height="80" viewBox="0 0 241 80" fill="none" xmlns="http://www.w3.org/2000/svg">
<path d="M166.19 43.5111C162.982 43.5111 159.956 44.0861 157.283 45.0987C156.734 44.3175 156.09 43.6041 155.339 42.9788C151.032 39.3851 144.547 39.5788 138.665 42.8589C139.942 37.2425 138.738 31.8524 134.927 28.6721C133.165 27.2034 131.033 26.3861 128.733 26.1329C126.593 22.5871 123.436 19.726 119.666 17.9489C118.172 7.79414 109.427 -7.62939e-05 98.856 -7.62939e-05C95.238 -7.62939e-05 91.8321 0.913643 88.8588 2.52312C85.7153 0.931244 81.9138 -7.62939e-05 77.818 -7.62939e-05C66.9976 -7.62939e-05 58.226 6.49734 58.226 14.512C58.226 15.8256 58.4658 17.0972 58.9075 18.3077C49.099 19.1015 41.4648 25.2544 41.4648 32.7309C41.4648 40.7465 50.2373 47.2439 61.0577 47.2439C71.8789 47.2439 80.6514 40.7465 80.6514 32.7309C80.6514 32.2934 80.6195 31.86 80.5683 31.4325C82.7084 35.1887 85.9685 38.2216 89.8983 40.0742C91.3091 49.6665 99.1947 57.1472 108.973 57.9469C109.245 58.2294 109.521 58.5085 109.826 58.7642C114.133 62.3562 120.619 62.1625 126.501 58.8824C125.224 64.4988 126.427 69.8897 130.239 73.0692C136.063 77.9278 145.871 75.8757 152.781 68.6004C156.287 71.0389 161.001 72.5361 166.19 72.5361C177.011 72.5361 185.783 66.0387 185.783 58.024C185.783 50.0085 177.011 43.5111 166.19 43.5111Z" fill="white"/>
<path d="M38.6994 45.5631C27.8782 45.5631 19.1074 52.0597 19.1074 60.0752C19.1074 68.0899 27.8782 74.5873 38.6994 74.5873C49.5206 74.5873 58.2923 68.0899 58.2923 60.0752C58.2923 52.0597 49.5206 45.5631 38.6994 45.5631Z" fill="white"/>
<path d="M185.532 63.5406C186.216 62.8331 186.728 62.0997 187.058 61.346C187.498 61.367 187.951 61.3787 188.417 61.3787C192.118 61.3787 195.118 60.6746 195.118 59.807C195.118 58.9394 192.118 58.2352 188.417 58.2352C188.049 58.2352 187.69 58.2436 187.338 58.257C185.64 51.4595 168.857 46.1206 148.391 46.1206C144.275 46.1206 140.31 46.3369 136.584 46.7376C139.213 45.2597 140.922 42.9092 140.922 40.2519C140.922 36.3321 137.219 33.0629 132.298 32.3118C128.838 26.6066 122.444 22.6063 114.984 22.0179C111.936 11.133 101.16 3.08894 88.3333 3.08894C75.5363 3.08894 64.7805 11.0969 61.704 21.9441C44.6042 22.0866 30.8206 29.7232 30.8206 39.1286C30.8206 43.8816 34.3413 48.1836 40.0315 51.296C27.1749 53.3875 18.291 57.853 18.291 63.0251C18.291 64.0394 18.6439 65.0252 19.2902 65.9733C8.50759 66.1619 0 68.3347 0 70.9886C0 73.7658 9.31485 76.0182 20.8058 76.0182C27.2865 76.0182 33.0747 75.3015 36.8896 74.1791C42.6167 75.3459 49.3144 76.0182 56.4749 76.0182C63.5667 76.0182 70.2016 75.3577 75.8917 74.2118C79.6245 75.3745 83.7245 76.0182 88.029 76.0182C89.0584 76.0182 90.0744 75.9788 91.0778 75.9076C93.1927 78.2992 98.4965 80 104.721 80C110.11 80 114.807 78.7233 117.346 76.8288C119.27 77.471 122.857 77.9043 126.974 77.9043C131.33 77.9043 135.092 77.4198 136.919 76.7157C139.288 77.4416 142.881 77.9043 146.906 77.9043C152.148 77.9043 156.65 77.1172 158.677 75.9889C204.591 75.6821 240.536 72.9041 240.536 69.5208C240.536 66.8342 217.864 64.5298 185.532 63.5406Z" fill="#D2E5F9"/>
<path d="M129.326 64.7319C128.557 49.3782 120.494 45.9195 113.388 45.9195C108.111 45.9195 103.361 47.8266 102.518 48.1837L102.401 48.2348L102.384 48.2432L102.376 48.2348C95.4084 41.5807 89.5145 39.3249 84.7263 39.3249C74.6529 39.3249 69.474 49.307 69.474 49.307L69.4657 49.291L69.4238 49.2491L69.2729 49.0899L69.0717 48.8878C68.9795 48.7881 68.8789 48.6875 68.7775 48.5953L68.6861 48.5115C67.116 47.0721 63.2449 44.1986 57.3837 44.1986C53.1052 44.1986 47.7654 45.7284 41.4843 50.4646L41.4675 50.4814C41.4675 50.4814 37.7456 35.9542 50.4202 34.5543C50.4202 34.5543 53.412 24.0701 60.9397 24.0701C62.0143 24.0701 63.1803 24.2838 64.4436 24.7717C64.4436 24.7717 65.5426 16.2801 74.5204 14.6622C76.5348 14.2967 78.3329 14.1131 79.9625 14.1131C85.5973 14.1131 89.2345 16.3136 92.9539 20.8654C97.5728 26.5153 94.6305 30.4971 94.4125 30.7821C94.5533 30.7008 95.571 30.14 97.5041 30.14C100.151 30.14 104.517 31.1903 110.708 35.9626C110.708 35.9626 112.337 33.7269 115.431 33.7269C116.979 33.7269 118.892 34.2861 121.153 35.9626C127.767 40.8665 125.973 46.5826 125.889 46.8517C125.926 46.8106 126.267 46.4795 127.326 46.4795C128.664 46.4795 131.147 47.0059 135.613 49.307C141.037 52.1076 142.428 57.2965 142.747 60.5071C142.906 62.0906 142.806 63.1979 142.788 63.3144C141.052 62.7478 139.377 62.5315 137.834 62.5315C133.063 62.5315 129.55 64.597 129.335 64.7235L129.326 64.7319Z" fill="#ECF4FC"/>
<path d="M68.6862 48.5114C65.9702 46.0209 56.372 39.2402 41.4844 50.4646C42.0795 49.8443 55.7265 35.8787 68.6862 48.5114Z" fill="white"/>
<path d="M102.376 48.2347C80.7483 27.5798 69.4736 49.3069 69.4736 49.3069C81.0333 20.2115 101.948 47.6639 102.376 48.2347Z" fill="white"/>
<path d="M129.335 64.7235L129.326 64.7319C127.985 37.9744 104.497 47.3454 102.518 48.1837C115.301 42.2245 122.217 43.2891 125.881 46.8592C131.673 52.484 129.41 64.3203 129.335 64.7235Z" fill="white"/>
<path d="M151.942 70.0129C148.942 66.291 145.773 64.2867 142.789 63.3144C135.681 60.9932 129.62 64.5558 129.335 64.7235C134.683 59.7182 139.192 59.1901 142.747 60.507C148.481 62.6194 151.717 69.51 151.942 70.0129Z" fill="white"/>
<path d="M188.005 72.905C188.005 72.905 177.491 66.4638 166.92 66.4638C164.916 66.4638 162.909 66.6951 160.971 67.2467C160.971 67.2467 165.205 65.079 170.596 65.079C172.978 65.079 175.586 65.5023 178.155 66.7228C186.538 70.7046 188.005 72.905 188.005 72.905Z" fill="#ECF4FC"/>
<path d="M164.429 61.0643C164.429 61.0643 161.088 51.1988 151.532 51.1988C149.989 51.1988 148.286 51.4553 146.406 52.053C146.406 52.053 149.497 50.3362 153.287 50.3362C155.419 50.3362 157.773 50.8785 159.923 52.5769C165.896 57.2921 164.429 61.0643 164.429 61.0643Z" fill="#ECF4FC"/>
</svg>
