<svg width="264" height="80" viewBox="0 0 264 80" fill="none" xmlns="http://www.w3.org/2000/svg">
<path d="M222.032 64.0398C222.032 67.9984 212.332 71.2064 200.365 71.2064C188.399 71.2064 178.699 67.9984 178.699 64.0398C178.699 60.0824 188.399 56.8731 200.365 56.8731C212.332 56.8731 222.032 60.0824 222.032 64.0398Z" fill="#D2E5F9"/>
<path d="M227.211 58.8519C227.211 62.3265 210.565 65.1439 190.032 65.1439C169.499 65.1439 152.854 62.3265 152.854 58.8519C152.854 55.3785 169.499 52.5625 190.032 52.5625C210.565 52.5625 227.211 55.3785 227.211 58.8519Z" fill="#ADCFF7"/>
<path d="M150.032 27.4479C147.679 22.4306 139.089 18.7066 128.825 18.7066C126.936 18.7066 125.113 18.8453 123.365 19.0826C123.372 18.9573 123.401 18.8333 123.401 18.7066C123.401 15.3706 120.683 12.3746 116.365 10.2733C117 9.3426 117.365 8.30527 117.365 7.2066C117.365 3.2266 112.705 -3.8147e-05 106.957 -3.8147e-05C101.209 -3.8147e-05 96.5493 3.2266 96.5493 7.2066L96.5707 7.51461C86.888 8.69861 79.6653 13.2546 79.6653 18.7066L79.6774 18.8253C73.1974 19.2906 67.628 21.2426 64.2507 24.0133C62.3333 23.7093 60.304 23.5413 58.1987 23.5413C47.2613 23.5413 38.296 27.9533 37.3547 33.5759C35.72 32.7626 33.7214 32.28 31.556 32.28C26.052 32.28 21.5894 35.3693 21.5894 39.18C21.5894 42.992 26.052 46.0813 31.556 46.0813C36.1747 46.0813 40.048 43.9026 41.1774 40.9506C44.976 43.7399 51.176 45.5653 58.1987 45.5653C65.18 45.5653 71.3467 43.7613 75.1507 40.9986C77.4947 41.4493 80.0147 41.708 82.6547 41.708C86.728 41.708 90.5267 41.1119 93.7907 40.0933C94.948 45.8706 104.239 50.3746 115.533 50.3746C121.881 50.3746 127.581 48.9426 131.576 46.6706C135.571 48.9426 141.269 50.3746 147.619 50.3746C159.696 50.3746 169.487 45.2253 169.487 38.8733C169.487 32.9519 160.972 28.0799 150.032 27.4479Z" fill="white"/>
<path d="M200.365 42.4598C192.081 42.4598 185.365 45.6865 185.365 49.6665C185.365 53.6479 192.081 56.8732 200.365 56.8732C208.649 56.8732 215.365 53.6479 215.365 49.6665C215.365 45.6865 208.649 42.4598 200.365 42.4598Z" fill="white"/>
<path d="M148.284 49.6666C148.284 60.4146 139.572 69.1266 128.825 69.1266C118.077 69.1266 109.365 60.4146 109.365 49.6666C109.365 38.92 118.077 30.2066 128.825 30.2066C139.572 30.2066 148.284 38.92 148.284 49.6666Z" fill="#D2E5F9"/>
<path d="M123.038 55.0398C123.038 63.9691 106.393 71.2064 85.8598 71.2064C65.3265 71.2064 48.6812 63.9691 48.6812 55.0398C48.6812 46.1118 65.3265 38.8731 85.8598 38.8731C106.393 38.8731 123.038 46.1118 123.038 55.0398Z" fill="#D2E5F9"/>
<path d="M226.531 52.3001C206.103 54.3814 189.83 58.8707 190.18 62.3267C190.195 62.4561 190.239 62.5828 190.298 62.7054C183.503 61.4561 173.758 60.6721 162.93 60.6721C147.48 60.6721 134.234 62.2654 128.62 64.5361C121.974 63.4828 113.043 62.8361 103.216 62.8361C95.5443 62.8361 88.4163 63.2294 82.495 63.9028C82.591 63.5721 82.655 63.2374 82.655 62.8961C82.655 58.9201 75.9683 55.6015 67.039 54.7828C82.427 54.0108 93.6576 51.6041 93.6576 48.7508C93.6576 45.2761 77.0123 42.4601 56.479 42.4601C35.947 42.4601 19.3003 45.2761 19.3003 48.7508C19.3003 51.0241 26.4296 53.0147 37.111 54.1214C32.075 55.6281 28.7816 58.0881 28.7816 60.8734C28.7816 65.4641 37.691 69.1854 48.6816 69.1854C49.031 69.1854 49.3696 69.1721 49.7136 69.1641C53.2083 70.4334 57.7603 71.2067 62.755 71.2067C64.4376 71.2067 66.063 71.1108 67.6243 70.9468C71.051 72.8668 79.755 74.3988 90.8843 75.0614C96.1363 77.4574 109.763 79.1654 125.751 79.1654C145.534 79.1654 161.7 76.5507 162.856 73.2521L162.93 73.2534C183.463 73.2534 200.108 70.4361 200.108 66.9614C200.108 66.4388 199.724 65.9308 199.011 65.4441C205.938 66.1468 216.303 65.9881 227.806 64.8174C248.232 62.7361 264.312 56.6641 263.96 53.2081C263.608 49.7521 246.958 50.2201 226.531 52.3001Z" fill="#ADCFF7"/>
<path d="M263.96 53.2079C263.96 57.4412 239.781 60.8732 209.955 60.8732C180.128 60.8732 155.949 57.4412 155.949 53.2079C155.949 48.9745 180.128 45.5412 209.955 45.5412C239.781 45.5412 263.96 48.9745 263.96 53.2079Z" fill="#D2E5F9"/>
<path d="M103.216 41.7079C103.216 48.0586 86.9093 53.2079 66.7933 53.2079C46.6773 53.2079 30.3706 48.0586 30.3706 41.7079C30.3706 35.3559 46.6773 30.2065 66.7933 30.2065C86.9093 30.2065 103.216 35.3559 103.216 41.7079Z" fill="#D2E5F9"/>
<path d="M37.552 43.7185C37.552 46.3945 29.1453 48.5638 18.776 48.5638C8.40534 48.5638 0 46.3945 0 43.7185C0 41.0425 8.40534 38.8732 18.776 38.8732C29.1453 38.8732 37.552 41.0425 37.552 43.7185Z" fill="#D2E5F9"/>
<path d="M154.469 65.5401C154.469 71.8001 140.397 76.8734 123.039 76.8734C105.68 76.8734 91.6094 71.8001 91.6094 65.5401C91.6094 59.2814 105.68 54.2067 123.039 54.2067C140.397 54.2067 154.469 59.2814 154.469 65.5401Z" fill="#D2E5F9"/>
<path d="M190.032 50.3746C190.032 60.316 176.2 68.3746 159.136 68.3746C142.072 68.3746 128.239 60.316 128.239 50.3746C128.239 40.4333 142.072 32.3746 159.136 32.3746C176.2 32.3746 190.032 40.4333 190.032 50.3746Z" fill="#D2E5F9"/>
<path d="M203.763 50.3746C200.964 50.3746 198.328 50.6719 195.983 51.1866C197.219 50.1279 197.929 48.9306 197.929 47.6586C197.929 43.3946 190.093 39.9373 180.429 39.9373C170.764 39.9373 162.929 43.3946 162.929 47.6586C162.929 51.9226 170.764 55.3786 180.429 55.3786C183.228 55.3786 185.864 55.0826 188.209 54.5666C186.973 55.6253 186.263 56.8226 186.263 58.0959C186.263 62.3599 194.097 65.8173 203.763 65.8173C213.427 65.8173 221.263 62.3599 221.263 58.0959C221.263 53.8319 213.427 50.3746 203.763 50.3746Z" fill="#ADCFF7"/>
<path d="M200.366 39.9373C200.366 45.3106 191.136 49.6666 179.751 49.6666C168.366 49.6666 159.136 45.3106 159.136 39.9373C159.136 34.5639 168.366 30.2066 179.751 30.2066C191.136 30.2066 200.366 34.5639 200.366 39.9373Z" fill="#D2E5F9"/>
<path d="M125.3 40.5492C125.3 40.5492 139.48 32.4305 149.154 53.2372C149.154 53.2372 140.863 38.3812 125.3 40.5492Z" fill="white"/>
<path d="M76.0317 34.4291C76.0317 34.4291 88.5184 35.0958 91.6091 37.3185C94.6984 39.5398 91.1437 47.8092 80.6984 48.5638C80.6984 48.5638 105.365 39.5398 76.0317 34.4291Z" fill="white"/>
<path d="M111.144 49.7958C111.144 49.7958 120.699 48.0972 129.588 50.3745C138.477 52.6519 140.255 56.8732 140.255 56.8732C140.255 56.8732 134.921 50.7185 111.144 49.7958Z" fill="white"/>
<path d="M109.365 9.98515C109.365 9.98515 118.699 10.2065 120.255 17.0958C121.811 23.9852 111.144 29.0958 111.144 29.0958C111.144 29.0958 127.811 15.5398 109.365 9.98515Z" fill="#D2E5F9"/>
<path d="M104.255 16.6518C103.44 15.8958 117.588 23.3185 111.144 30.2065C104.698 37.0958 94.9932 34.4292 94.9932 34.4292C94.9932 34.4292 122.699 33.7625 104.255 16.6518Z" fill="#D2E5F9"/>
</svg>
