<svg width="116" height="51" viewBox="0 0 116 51" fill="none" xmlns="http://www.w3.org/2000/svg">
<path d="M26.14 36.9517C25.8829 36.7863 25.5949 36.6243 25.2864 36.4649C25.7157 36.4417 26.1408 36.404 26.5522 36.3346C26.3748 36.5317 26.2394 36.7374 26.14 36.9517ZM70.3337 39.9599C66.9895 39.9599 64.4586 40.211 62.568 40.6421C60.4811 39.0137 55.8521 37.5019 50.0371 37.4102C49.2075 36.74 47.9407 36.0869 46.3389 35.5384C47.7179 35.7672 49.1432 35.8889 50.6027 35.8889C62.5569 35.8889 72.2466 27.855 72.2466 17.9449C72.2466 8.03401 62.5569 3.8147e-06 50.6027 3.8147e-06C41.2455 3.8147e-06 33.2758 4.92461 30.2555 11.8179C24.3196 13.2234 19.875 17.5421 19.3187 22.7941C17.0844 24.1516 15.6198 26.3251 15.5735 28.7883C15.1012 28.6666 14.6015 28.5997 14.0822 28.5997C11.2273 28.5997 8.91331 30.5701 8.91331 32.9998C8.91331 33.0975 8.92277 33.1943 8.92963 33.2912C8.08543 32.7804 7.05523 32.4762 5.94021 32.4762C3.39392 32.4762 1.28386 34.0437 0.855333 36.1058C0.257113 36.644 0 37.261 0 37.9244C0 40.0696 1.99178 43.0264 10.2632 43.0264C10.8134 43.0264 11.355 43.0179 11.8898 43.0033C12.2292 43.0144 12.5661 43.0264 12.9295 43.0264C19.3916 43.0264 24.8818 41.9637 26.9825 40.4767C28.2903 41.8686 31.0072 43.0264 36.1838 43.0264C37.1471 43.0264 38.0872 43.0016 39.0009 42.9561C39.9633 44.6805 42.6382 46.3244 48.8046 46.3244C52.2577 46.3244 55.4279 46.0184 57.9613 45.5093C58.5647 47.8482 61.363 50.4587 69.5529 50.4587C79.0062 50.4587 86.669 48.413 86.669 45.8907C86.669 43.3675 79.7861 39.9599 70.3337 39.9599Z" fill="#D2E5F9"/>
<path d="M99.4046 16.9979C94.9788 16.9979 90.9901 18.2886 88.1404 20.3541C87.9159 16.5359 84.3488 13.4985 79.971 13.4985C77.9844 13.4985 76.1631 14.1242 74.7439 15.1638C71.5976 6.32677 63.1625 1.90735e-05 53.2456 1.90735e-05C40.6427 1.90735e-05 30.4259 10.2169 30.4259 22.8189C30.4259 23.8585 30.5021 24.8801 30.6375 25.8829C28.3587 26.8436 26.6069 28.4103 25.7764 30.2898C24.5217 30.1021 23.1504 29.9967 21.7123 29.9967C15.7549 29.9967 10.9271 31.7717 10.9271 33.9606L10.946 34.1011C10.1772 34.0111 9.34074 33.9606 8.46313 33.9606C4.73582 33.9606 1.71387 34.8476 1.71387 35.943C1.71387 37.0374 4.73582 37.9244 8.46313 37.9244C11.0428 37.9244 13.2832 37.4993 14.4188 36.8745C16.3394 37.5242 18.8952 37.9244 21.7123 37.9244C23.7358 37.9244 25.6221 37.7162 27.2411 37.3596C29.1694 39.3557 32.3105 40.6601 35.8673 40.6601C36.8391 40.6601 37.7751 40.5547 38.6681 40.3739C42.6217 43.6607 47.7022 45.6379 53.2456 45.6379C56.4981 45.6379 59.5895 44.9531 62.3886 43.7267C65.63 46.9792 70.8366 49.0995 76.7271 49.0995C85.4672 49.0995 92.7222 44.4474 94.2297 38.317C95.8513 38.7155 97.5885 38.9426 99.4046 38.9426C108.058 38.9426 115.072 34.03 115.072 27.9698C115.072 21.9105 108.058 16.9979 99.4046 16.9979Z" fill="white"/>
<path d="M58.3934 3.42828C58.162 3.35372 72.6349 5.14237 71.3494 17.2842C71.3494 17.2842 71.7205 7.71352 58.3934 3.42828Z" fill="#D2E5F9"/>
<path d="M79.3493 26.4261C79.3493 26.4261 83.6345 17.1408 71.3496 17.284C71.3496 17.284 81.3488 16.7124 79.3493 26.4261Z" fill="#D2E5F9"/>
<path d="M94.5315 25.2299C94.5315 25.2299 90.2745 18.706 83.4541 21.8513C83.4541 21.8513 87.8602 19.1765 94.5315 25.2299Z" fill="#D2E5F9"/>
<path d="M50.0371 37.41C50.0371 37.41 59.5726 41.0131 66.9604 37.7906C74.349 34.5681 73.0634 26.4261 73.0634 26.4261C73.0634 26.4261 70.5771 42.6809 50.0371 37.41Z" fill="#D2E5F9"/>
<path d="M47.21 16.4271C47.21 16.4271 47.6385 12.4272 54.2086 14.4276C60.7796 16.4271 58.3901 21.8513 58.3901 21.8513C58.3901 21.8513 57.7799 11.9987 47.21 16.4271Z" fill="#D2E5F9"/>
<path d="M66.9601 23.8551C66.9601 23.8551 65.5717 17.2772 58.3896 21.8513C58.3896 21.8513 64.2861 18.9982 66.9601 23.8551Z" fill="#D2E5F9"/>
<path d="M37.925 25.2297C38.0082 25.9445 33.783 13.4273 47.2103 16.4269C47.2103 16.4269 36.7826 15.4628 37.925 25.2297Z" fill="#D2E5F9"/>
</svg>
