<svg width="290" height="320" viewBox="0 0 290 320" fill="none" xmlns="http://www.w3.org/2000/svg">
<path fill-rule="evenodd" clip-rule="evenodd" d="M385.888 -149.872C437.227 -153.923 503.562 -144.734 539.198 -106.364C575.661 -67.1045 538.378 -13.5328 555.756 33.0288C573.352 80.174 659.957 121.752 639.804 163.189C617.793 208.447 527.037 177.694 475.732 197.571C444.02 209.857 433.007 245.124 400.409 255.935C365.013 267.674 324.552 266.242 284.448 261.007C237.542 254.885 169.666 261.89 148.132 223.008C122.473 176.68 207.302 138.613 189.932 90.3543C172.66 42.3675 77.917 32.942 62.3641 -15.2823C48.6585 -57.7789 78.2592 -107.469 121.54 -121.705C168.216 -137.058 225.223 -80.1813 276.176 -85.6104C322.731 -90.5709 338.974 -146.17 385.888 -149.872Z" fill="#120A59"/>
<path d="M263.457 58.2978C263.676 52.3743 262.899 46.5226 260.54 41.0104C258.511 36.2641 253.49 33.5702 248.91 33.5665C234.37 33.5438 232.521 55.1323 223.266 63.4591C220.437 66.002 217.276 68.0733 214.6 70.82C204.718 80.9502 209.169 99.7053 218.243 108.59C224.54 114.752 234.436 118.257 242.196 113.435C246.248 110.922 249.323 106.742 251.514 102.158C254.623 95.657 256.628 88.1565 258.839 81.2257C261.193 73.8497 263.166 66.1718 263.457 58.2978Z" fill="#161F26"/>
<path d="M265.831 86.983C261.289 71.5669 255.294 71.8084 255.294 71.8084L260.138 104.633C262.943 103.776 266.595 101.867 269.396 100.98C268.467 96.1058 266.95 90.7785 265.831 86.983Z" fill="#D22538"/>
<path d="M288.785 139.558L272.181 125.387C272.181 125.387 270.51 112.163 268.274 100.434C265.472 101.316 262.944 103.776 260.139 104.633L264.361 130.907L286.123 143.471L292.27 152.307L293.668 143.233L288.785 139.558Z" fill="#F48C7F"/>
<path d="M218.004 249.014C218.004 249.014 216.98 256.982 215.218 259.552C214.626 260.416 213.545 261.506 212.836 263.068C211.732 265.494 212.343 269.108 213.157 271.101C213.575 272.123 213.128 272.119 214.08 272.451C216.898 273.425 219.897 271.783 221.097 268.754C221.768 267.064 222.356 264.807 222.474 261.966C222.775 254.73 224.782 251.051 224.782 251.051L218.004 249.014Z" fill="#F7A491"/>
<path d="M248.837 252.659C248.837 252.659 249.469 261.643 248.956 264.563C248.681 266.129 247.15 269.347 247.852 270.818C248.555 272.29 249.357 272.656 249.357 272.656L267.557 272.988C268.549 273.003 267.894 272.29 267.094 271.629C265.786 270.55 264.73 269.837 260.551 267.57C260.278 267.423 259.286 266.713 258.928 266.468C258.02 265.849 257.109 264.868 256.324 263.891C255.018 262.258 254.903 254.346 254.903 254.346L248.837 252.659Z" fill="#F7A491"/>
<path d="M263.062 133.224C263.062 133.224 265.354 147.81 263.849 157.374C262.344 166.938 255.121 255.594 255.121 255.594L247.095 256.099C247.095 256.099 245.413 219.069 245.714 213.919C246.015 208.769 248.397 200.151 248.397 200.151L247.597 170.251L257.726 130.971L263.062 133.224Z" fill="#161F26"/>
<path d="M239.471 130.153C239.471 130.153 233.152 140.822 231.647 149.651C230.142 158.48 232.751 185.61 229.857 197.182C228.289 203.441 222.351 213.115 221.448 221.208C220.545 229.301 217.003 250.497 217.003 250.497L225.026 252.281L243.671 199.34L258.296 151.488L262.043 126.844L239.471 130.153Z" fill="#161F26"/>
<path d="M244.588 69.458C244.588 69.458 236.22 68.8619 232.91 72.9065C229.599 76.9548 240.253 108.964 240.855 114.114C241.457 119.264 237.787 132.956 237.787 132.956C237.787 132.956 257.444 137.393 263.062 133.224C263.062 133.224 263.664 96.189 263.062 92.5104C262.46 88.8318 257.444 73.8723 256.24 72.4009C255.036 70.9294 244.588 69.458 244.588 69.458Z" fill="#D22538"/>
<path d="M247.374 56.9207C247.374 56.9207 247.331 57.1962 247.253 57.664C246.88 59.9202 245.443 67.4056 244.472 69.4618C243.3 71.952 248.488 79.8788 253.482 78.9129C254.969 78.6224 252.225 71.6275 252.357 70.8842C252.609 69.4656 252.952 67.5301 253.302 65.5456C253.499 64.425 253.7 63.2894 253.887 62.2217C254.422 59.1883 254.857 56.7095 254.857 56.7095L247.374 56.9207Z" fill="#F7A491"/>
<path d="M247.252 57.6641C247.33 57.1962 247.373 56.9208 247.373 56.9208L254.857 56.7095C254.857 56.7095 254.421 59.1883 253.887 62.2217C253.7 63.2819 253.501 64.4138 253.304 65.5268C252.149 65.3344 250.942 64.7043 249.732 63.5158C248.412 62.2217 247.547 60.6673 247.025 59.0035C247.117 58.4715 247.194 58.015 247.252 57.6641Z" fill="#E38B76"/>
<path d="M252.411 37.845C252.411 37.845 248.883 37.3885 246.672 40.5954C244.462 43.8024 242.079 53.7176 247.571 59.109C253.063 64.5005 258.49 58.396 259.294 51.9255C260.099 45.4549 260.412 37.6111 252.411 37.845Z" fill="#F7A491"/>
<path d="M260.919 51.8311C260.263 53.2611 259.163 54.0534 258.461 53.6006C257.759 53.1479 257.722 51.6199 258.377 50.1899C259.033 48.7638 260.133 47.9715 260.835 48.4242C261.537 48.877 261.574 50.4012 260.919 51.8311Z" fill="#F7A491"/>
<path d="M252.806 36.7847C252.806 36.7847 248.094 46.2132 244.723 46.6509C241.352 47.0847 240.909 52.0952 240.909 52.0952C240.909 52.0952 242.114 40.5501 245.451 38.3241C248.789 36.0981 252.806 36.7847 252.806 36.7847Z" fill="#161F26"/>
<path d="M221.644 267.161C217.272 268.056 214.362 265.188 212.849 263.041C211.737 265.471 211.195 269.101 212.013 271.1C212.732 272.862 214.837 272.809 216.493 272.881C218.245 272.953 219.6 271.862 220.469 270.15C220.875 269.353 221.294 268.357 221.644 267.161Z" fill="#120A59"/>
<path d="M258.926 266.467C254.112 267.852 250.555 266.909 248.564 266.011C248.051 267.641 247.37 269.69 247.731 270.867C248.173 272.312 248.802 272.64 249.358 272.655C253.754 272.787 265.462 272.961 268.815 273.01C269.283 273.017 269.541 272.406 269.24 272.002C268.409 270.889 259.284 266.713 258.926 266.467Z" fill="#120A59"/>
<path d="M245.605 49.0203C245.879 50.6955 245.328 52.2311 244.374 52.4499C243.419 52.6687 242.424 51.4916 242.149 49.8164C241.875 48.1413 242.427 46.6057 243.381 46.3868C244.335 46.1642 245.331 47.3452 245.605 49.0203Z" fill="#F7A491"/>
<path d="M251.11 54.8192L255.364 55.0342C255.364 55.0342 255.193 56.8377 253.32 56.8037C251.035 56.7622 251.11 54.8192 251.11 54.8192Z" fill="white"/>
<path d="M274.587 94.3027C274.888 93.3368 270.698 92.5596 270.475 91.5862C270.252 90.609 275.765 90.5336 275.963 89.6771C276.327 88.1001 269.92 89.3451 270.046 88.6056C270.172 87.8699 276.722 86.2212 276.014 84.9535C275.306 83.6858 269.382 87.4549 269.202 86.5985C269.023 85.7382 274.994 83.648 274.887 81.7616C274.83 80.7542 265.087 86.7833 263.957 86.2363C262.827 85.6892 265.173 80.958 264.273 80.2524C263.373 79.5507 260.791 89.8733 260.171 90.2167C259.552 90.56 246.388 98.966 241.705 100.302C241.136 98.5472 239.907 96.1816 239.405 94.5215C236.777 96.6117 234.826 97.6644 232.114 99.5697C234.079 105.078 236.876 111.111 238.245 111.805C242.412 113.91 258.532 98.9509 261.75 96.3929C264.97 93.8311 266.813 94.6611 268.991 93.85C271.168 93.0426 274.286 95.2648 274.587 94.3027Z" fill="#F7A491"/>
<path d="M231.552 102.214C231.552 102.214 227.944 84.3875 228.57 79.2148C229.196 74.0422 234.69 69.2242 238.497 71.0088C242.303 72.8009 244.029 97.6869 244.029 97.6869L231.552 102.214Z" fill="#D22538"/>
</svg>
