<svg width="1920" height="777" viewBox="0 0 1920 777" fill="none" xmlns="http://www.w3.org/2000/svg">
<g clip-path="url(#clip0)">
<g opacity="0.2">
<mask id="path-1-inside-1" fill="white">
<path d="M1030.84 1734.69L929.565 1558.27L1031.79 1381.9H1229.86L1332.08 1558.25L1230.75 1734.69H1030.84ZM1917 611.028V938.599L1910.52 949.766H1707.78L1606.41 774.804L1706.09 602.662H1912.1L1917 611.028ZM-3 1118.85V826.243L13.6572 797.571H213.088L314.521 972.573L214.065 1145.88H12.7681L-3 1118.85ZM-3 436.006L13.6572 407.354H213.949L315.242 580.872L213.228 756.879H13.6572L-3 728.228V436.006ZM354.007 -176.834H552.677L653.946 -3.3239L552.677 170.166H349.858L250.603 0.122899L354.007 -176.834ZM1369.87 1147.45L1267.29 970.474L1367.44 797.691H1570.16L1671.53 972.573L1570.16 1147.45H1369.87ZM691.469 1147.45L590.1 972.573L691.469 797.691H893.579L993.435 969.972L890.563 1147.45H691.469ZM353.194 952.231L251.793 777.233L353.274 602.467H552.636L653.986 777.349L552.636 952.231H353.194ZM1031.02 599.921H1230.63L1332.47 775.629L1231.65 949.566H1029.4C990.149 881.837 968.14 843.865 928.884 776.136L1031.02 599.921ZM892.037 754.577H691.469L590.1 579.695L690.745 406.086H892.886L993.815 578.981L892.037 754.577ZM1231.5 557.981H1030.15L929.966 385.149L1030.9 212.234H1231.43L1331.67 385.177L1231.5 557.981ZM552.681 212.23L653.95 385.74L552.681 559.23H351.604L249.826 383.617L349.858 212.226L552.681 212.23ZM353.166 992.919H552.641L654.01 1167.8L553.482 1341.21H352.369L252.197 1167.07L353.166 992.919ZM929.585 1167.8L1032.42 990.377H1229.23L1331.74 1167.24L1231.59 1340.02H1029.42L929.585 1167.8ZM1570.17 754.577H1368.4L1266.62 578.981L1367.48 406.205H1570.36L1671.19 580.298L1570.17 754.577ZM993.07 191.258L892.153 364.141H690.697L590.156 191.88L691.425 18.3902H892.149L993.07 191.258ZM691.469 1188.15H893.651L993.835 1360.99L892.065 1537.75H691.393L590.104 1363.01L691.469 1188.15ZM1368.34 1537.75L1266.9 1361.58L1367.44 1188.15H1570.16L1671.53 1363.01L1570.24 1537.75H1368.34ZM1671.54 190.631L1570.96 364.141H1368.28L1267.37 191.258L1367.59 19.5831H1571.8L1643.54 142.344L1671.54 190.631ZM1330.84 -2.48217L1230.7 170.286H1030.17L929.585 -2.01939L1030.92 -175.461H1230.66L1330.84 -2.48217ZM1917 223.197V550.888L1912.27 559.134H1706.78L1606.8 386.665L1707.8 212.054H1910.52L1917 223.197ZM-3 28.2879L2.75934 18.3543H206.904L307.572 191.725L206.203 366.667H3.46425L-3 355.52V28.2879ZM-3 1510.33V1215.59L12.7361 1188.21H213.188L314.144 1362.36L213.12 1537.75H12.8843L-3 1510.33ZM250.559 1561.78L353.314 1383.35H553.353L654.026 1558.12L552.697 1734.69H349.838L250.559 1561.78ZM1368.28 1578.58H1570.13L1659.12 1733.46H1279.38L1368.28 1578.58ZM1707.78 1342.84L1606.41 1167.86L1707.78 992.899H1910.52L1917 1004.06V1331.68L1910.52 1342.84H1707.78ZM1917 -164.179V160.193L1910.52 171.359H1707.74L1680.49 124.699L1606.85 -2.33854L1707.74 -175.326H1910.52L1917 -164.179ZM1572.73 -24.9383H1366.74L1276.82 -179H1661.94L1572.73 -24.9383ZM983.622 -179L892.177 -22.3373H691.369L599.833 -179H983.622ZM-3 -179H303.871L213.136 -23.55H12.8923L-3 -50.969V-179ZM-3 1733.45V1589.92L2.6432 1580.05H206.988L295.104 1733.45H-3ZM691.389 1578.58H892.125L981.151 1733.46H602.488L691.389 1578.58ZM1917 1724.37L1910.34 1735.9H1707.6L1606.4 1559.65L1707.81 1383.53H1910.43L1917 1395.02L1917 1724.37Z"/>
</mask>
<path d="M1030.84 1734.69L929.565 1558.27L1031.79 1381.9H1229.86L1332.08 1558.25L1230.75 1734.69H1030.84ZM1917 611.028V938.599L1910.52 949.766H1707.78L1606.41 774.804L1706.09 602.662H1912.1L1917 611.028ZM-3 1118.85V826.243L13.6572 797.571H213.088L314.521 972.573L214.065 1145.88H12.7681L-3 1118.85ZM-3 436.006L13.6572 407.354H213.949L315.242 580.872L213.228 756.879H13.6572L-3 728.228V436.006ZM354.007 -176.834H552.677L653.946 -3.3239L552.677 170.166H349.858L250.603 0.122899L354.007 -176.834ZM1369.87 1147.45L1267.29 970.474L1367.44 797.691H1570.16L1671.53 972.573L1570.16 1147.45H1369.87ZM691.469 1147.45L590.1 972.573L691.469 797.691H893.579L993.435 969.972L890.563 1147.45H691.469ZM353.194 952.231L251.793 777.233L353.274 602.467H552.636L653.986 777.349L552.636 952.231H353.194ZM1031.02 599.921H1230.63L1332.47 775.629L1231.65 949.566H1029.4C990.149 881.837 968.14 843.865 928.884 776.136L1031.02 599.921ZM892.037 754.577H691.469L590.1 579.695L690.745 406.086H892.886L993.815 578.981L892.037 754.577ZM1231.5 557.981H1030.15L929.966 385.149L1030.9 212.234H1231.43L1331.67 385.177L1231.5 557.981ZM552.681 212.23L653.95 385.74L552.681 559.23H351.604L249.826 383.617L349.858 212.226L552.681 212.23ZM353.166 992.919H552.641L654.01 1167.8L553.482 1341.21H352.369L252.197 1167.07L353.166 992.919ZM929.585 1167.8L1032.42 990.377H1229.23L1331.74 1167.24L1231.59 1340.02H1029.42L929.585 1167.8ZM1570.17 754.577H1368.4L1266.62 578.981L1367.48 406.205H1570.36L1671.19 580.298L1570.17 754.577ZM993.07 191.258L892.153 364.141H690.697L590.156 191.88L691.425 18.3902H892.149L993.07 191.258ZM691.469 1188.15H893.651L993.835 1360.99L892.065 1537.75H691.393L590.104 1363.01L691.469 1188.15ZM1368.34 1537.75L1266.9 1361.58L1367.44 1188.15H1570.16L1671.53 1363.01L1570.24 1537.75H1368.34ZM1671.54 190.631L1570.96 364.141H1368.28L1267.37 191.258L1367.59 19.5831H1571.8L1643.54 142.344L1671.54 190.631ZM1330.84 -2.48217L1230.7 170.286H1030.17L929.585 -2.01939L1030.92 -175.461H1230.66L1330.84 -2.48217ZM1917 223.197V550.888L1912.27 559.134H1706.78L1606.8 386.665L1707.8 212.054H1910.52L1917 223.197ZM-3 28.2879L2.75934 18.3543H206.904L307.572 191.725L206.203 366.667H3.46425L-3 355.52V28.2879ZM-3 1510.33V1215.59L12.7361 1188.21H213.188L314.144 1362.36L213.12 1537.75H12.8843L-3 1510.33ZM250.559 1561.78L353.314 1383.35H553.353L654.026 1558.12L552.697 1734.69H349.838L250.559 1561.78ZM1368.28 1578.58H1570.13L1659.12 1733.46H1279.38L1368.28 1578.58ZM1707.78 1342.84L1606.41 1167.86L1707.78 992.899H1910.52L1917 1004.06V1331.68L1910.52 1342.84H1707.78ZM1917 -164.179V160.193L1910.52 171.359H1707.74L1680.49 124.699L1606.85 -2.33854L1707.74 -175.326H1910.52L1917 -164.179ZM1572.73 -24.9383H1366.74L1276.82 -179H1661.94L1572.73 -24.9383ZM983.622 -179L892.177 -22.3373H691.369L599.833 -179H983.622ZM-3 -179H303.871L213.136 -23.55H12.8923L-3 -50.969V-179ZM-3 1733.45V1589.92L2.6432 1580.05H206.988L295.104 1733.45H-3ZM691.389 1578.58H892.125L981.151 1733.46H602.488L691.389 1578.58ZM1917 1724.37L1910.34 1735.9H1707.6L1606.4 1559.65L1707.81 1383.53H1910.43L1917 1395.02L1917 1724.37Z" stroke="white" mask="url(#path-1-inside-1)"/>
</g>
</g>
<defs>
<clipPath id="clip0">
<rect width="1920" height="777" fill="white"/>
</clipPath>
</defs>
</svg>
