<svg width="1735" height="425" viewBox="0 0 1735 425" fill="none" xmlns="http://www.w3.org/2000/svg">
<g clip-path="url(#clip0)">
<path opacity="0.5" d="M495.353 58.3603L496.089 58.42L491 51.7281L492.901 51.3099L502.65 56.4483L511.541 54.0583L509.456 53.2218L511.541 52.6244L515.159 53.2816L535.27 48.6212C535.27 48.6212 537.846 48.5614 538.827 49.3382C538.827 49.3382 540.114 49.2784 539.992 50.1747C539.992 50.1747 539.44 51.3696 537.907 51.8476L525.092 55.1338C525.153 55.3131 525.153 55.4923 525.092 55.7911C525.092 55.7911 524.663 56.0898 524.111 56.0898C524.111 56.0898 524.356 56.747 524.233 57.0458C524.233 57.0458 522.946 57.5835 521.352 57.6433L521.229 57.4043L520.064 57.5835C520.064 57.5835 518.654 57.703 517.857 56.986L506.145 59.9735L495.17 60.571C495.17 60.571 494.434 60.6307 494.188 60.332C494.188 60.332 494.495 59.6747 495.108 59.2565L494.066 58.7188L495.353 58.3603Z" fill="white"/>
<line opacity="0.2" x1="104.894" y1="146.511" x2="471.893" y2="66.5115" stroke="white" stroke-dasharray="2 2"/>
<path opacity="0.25" d="M535.5 65.1895C543.332 63.5169 559.571 51.4062 558.187 44.9249C556.802 38.4437 536.832 37.0169 529 38.6895" stroke="white" stroke-width="0.3"/>
<path opacity="0.25" d="M536.347 62.479C542.789 61.1031 556.148 51.1406 555.009 45.8091C553.871 40.4775 537.442 39.3038 531 40.6797" stroke="white" stroke-width="0.3"/>
<path opacity="0.25" d="M536.168 59.6409C541.19 58.5684 551.603 50.8027 550.715 46.6468C549.828 42.4908 537.022 41.5759 532 42.6484" stroke="white" stroke-width="0.3"/>
<path d="M189.45 61.4977C189.45 63.547 187.784 65.209 185.725 65.209C183.669 65.209 182 63.547 182 61.4977C182 59.4484 183.669 57.7864 185.725 57.7864C187.784 57.7864 189.45 59.4484 189.45 61.4977Z" fill="#FFFEF3"/>
<path d="M636.453 75.4459C636.453 77.4952 634.785 79.1572 632.725 79.1572C630.668 79.1572 629 77.4952 629 75.4459C629 73.3939 630.668 71.7346 632.725 71.7346C634.785 71.7346 636.453 73.3939 636.453 75.4459Z" fill="#FFFEF3"/>
<path d="M265.448 127.251C265.448 129.303 263.783 130.965 261.724 130.965C259.668 130.965 258 129.303 258 127.251C258 125.202 259.668 123.542 261.724 123.542C263.783 123.542 265.448 125.202 265.448 127.251Z" fill="#FFFEF3"/>
<path d="M1597.45 129.247C1597.45 131.296 1595.78 132.958 1593.73 132.958C1591.67 132.958 1590 131.296 1590 129.247C1590 127.197 1591.67 125.535 1593.73 125.535C1595.78 125.535 1597.45 127.197 1597.45 129.247Z" fill="#FFFEF3"/>
<path opacity="0.5" d="M386 250.572C386 251.947 384.88 253.062 383.5 253.062C382.12 253.062 381 251.947 381 250.572C381 249.196 382.12 248.081 383.5 248.081C384.88 248.081 386 249.196 386 250.572Z" fill="#FFFEF3"/>
<path d="M1268.45 82.4202C1268.45 84.4695 1266.78 86.1289 1264.73 86.1289C1262.67 86.1289 1261 84.4695 1261 82.4202C1261 80.3682 1262.67 78.709 1264.73 78.709C1266.78 78.709 1268.45 80.3682 1268.45 82.4202Z" fill="#FFFEF3"/>
<path d="M1523.45 65.483C1523.45 67.5324 1521.78 69.1943 1519.73 69.1943C1517.67 69.1943 1516 67.5324 1516 65.483C1516 63.4337 1517.67 61.7716 1519.73 61.7716C1521.78 61.7716 1523.45 63.4337 1523.45 65.483Z" fill="#FFFEF3"/>
<path d="M60.3221 350.482C60.3221 351.483 59.5082 352.295 58.5044 352.295C57.4994 352.295 56.6855 351.483 56.6855 350.482C56.6855 349.482 57.4994 348.67 58.5044 348.67C59.5082 348.67 60.3221 349.482 60.3221 350.482Z" fill="#FFFEF3"/>
<path d="M413.639 115.393C413.639 116.393 412.824 117.205 411.819 117.205C410.815 117.205 410 116.393 410 115.393C410 114.392 410.815 113.58 411.819 113.58C412.824 113.58 413.639 114.392 413.639 115.393Z" fill="#FFFEF3"/>
<path d="M792.385 115.309C792.385 116.31 791.573 117.119 790.566 117.119C789.562 117.119 788.75 116.31 788.75 115.309C788.75 114.309 789.562 113.497 790.566 113.497C791.573 113.497 792.385 114.309 792.385 115.309Z" fill="#FFFEF3"/>
<path d="M1341.34 183.676C1341.34 184.677 1340.52 185.486 1339.52 185.486C1338.52 185.486 1337.7 184.677 1337.7 183.676C1337.7 182.676 1338.52 181.864 1339.52 181.864C1340.52 181.864 1341.34 182.676 1341.34 183.676Z" fill="#FFFEF3"/>
<path d="M1137.84 156.613C1137.84 157.614 1137.02 158.426 1136.02 158.426C1135.01 158.426 1134.2 157.614 1134.2 156.613C1134.2 155.613 1135.01 154.801 1136.02 154.801C1137.02 154.801 1137.84 155.613 1137.84 156.613Z" fill="#FFFEF3"/>
<path d="M1491.83 253.078C1491.83 254.078 1491.02 254.891 1490.01 254.891C1489.01 254.891 1488.19 254.078 1488.19 253.078C1488.19 252.077 1489.01 251.265 1490.01 251.265C1491.02 251.265 1491.83 252.077 1491.83 253.078Z" fill="#FFFEF3"/>
<path d="M1683.64 52.6249C1683.64 53.6254 1682.82 54.4375 1681.82 54.4375C1680.81 54.4375 1680 53.6254 1680 52.6249C1680 51.6245 1680.81 50.8122 1681.82 50.8122C1682.82 50.8122 1683.64 51.6245 1683.64 52.6249Z" fill="#FFFEF3"/>
<path d="M1034.37 93.5556C1034.37 94.556 1033.56 95.3682 1032.55 95.3682C1031.55 95.3682 1030.73 94.556 1030.73 93.5556C1030.73 92.5551 1031.55 91.7456 1032.55 91.7456C1033.56 91.7456 1034.37 92.5551 1034.37 93.5556Z" fill="#FFFEF3"/>
<path d="M1738.4 251.445C1738.4 252.446 1737.58 253.258 1736.58 253.258C1735.57 253.258 1734.76 252.446 1734.76 251.445C1734.76 250.445 1735.57 249.635 1736.58 249.635C1737.58 249.635 1738.4 250.445 1738.4 251.445Z" fill="#FFFEF3"/>
<path d="M857.565 49.3338C857.565 50.3369 856.75 51.1465 855.746 51.1465C854.742 51.1465 853.927 50.3369 853.927 49.3338C853.927 48.3333 854.742 47.5238 855.746 47.5238C856.75 47.5238 857.565 48.3333 857.565 49.3338Z" fill="#FFFEF3"/>
<path d="M701.363 423.242C701.363 424.242 700.548 425.055 699.544 425.055C698.54 425.055 697.725 424.242 697.725 423.242C697.725 422.242 698.54 421.429 699.544 421.429C700.548 421.429 701.363 422.242 701.363 423.242Z" fill="#FFFEF3"/>
<path d="M463.172 356.021C463.172 357.022 462.36 357.834 461.355 357.834C460.349 357.834 459.536 357.022 459.536 356.021C459.536 355.021 460.349 354.209 461.355 354.209C462.36 354.209 463.172 355.021 463.172 356.021Z" fill="#FFFEF3"/>
<path d="M674.636 18.7499C674.636 19.7504 673.823 20.5625 672.819 20.5625C671.812 20.5625 671 19.7504 671 18.7499C671 17.7495 671.812 16.9372 672.819 16.9372C673.823 16.9372 674.636 17.7495 674.636 18.7499Z" fill="#FFFEF3"/>
<g filter="url(#filter0_d)">
<ellipse cx="11.1348" cy="140.452" rx="11.1348" ry="11.0937" fill="url(#paint0_radial)"/>
</g>
<g filter="url(#filter1_d)">
<ellipse cx="316.184" cy="36.0506" rx="15.1837" ry="15.1277" fill="url(#paint1_radial)"/>
</g>
<g filter="url(#filter2_d)">
<ellipse cx="157.086" cy="341.819" rx="7.08575" ry="7.0596" fill="url(#paint2_radial)"/>
</g>
<g filter="url(#filter3_d)">
<ellipse cx="828.02" cy="167.682" rx="8.09799" ry="8.06812" fill="url(#paint3_radial)"/>
</g>
<g filter="url(#filter4_d)">
<ellipse cx="1016.12" cy="10.0851" rx="10.1225" ry="10.0851" fill="url(#paint4_radial)"/>
</g>
<g filter="url(#filter5_d)">
<ellipse cx="1106.39" cy="346.19" rx="7.08575" ry="7.05963" fill="url(#paint5_radial)"/>
</g>
<g filter="url(#filter6_d)">
<ellipse cx="1664.11" cy="255.166" rx="9.11023" ry="9.07668" fill="url(#paint6_radial)"/>
</g>
<g filter="url(#filter7_d)">
<ellipse cx="1552.13" cy="338.88" rx="11.1348" ry="11.0937" fill="url(#paint7_radial)"/>
</g>
</g>
<defs>
<filter id="filter0_d" x="-1" y="128.358" width="24.2695" height="24.1873" filterUnits="userSpaceOnUse" color-interpolation-filters="sRGB">
<feFlood flood-opacity="0" result="BackgroundImageFix"/>
<feColorMatrix in="SourceAlpha" type="matrix" values="0 0 0 0 0 0 0 0 0 0 0 0 0 0 0 0 0 0 127 0"/>
<feOffset/>
<feGaussianBlur stdDeviation="0.5"/>
<feColorMatrix type="matrix" values="0 0 0 0 1 0 0 0 0 1 0 0 0 0 1 0 0 0 0.05 0"/>
<feBlend mode="normal" in2="BackgroundImageFix" result="effect1_dropShadow"/>
<feBlend mode="normal" in="SourceGraphic" in2="effect1_dropShadow" result="shape"/>
</filter>
<filter id="filter1_d" x="300" y="19.9229" width="32.3675" height="32.2555" filterUnits="userSpaceOnUse" color-interpolation-filters="sRGB">
<feFlood flood-opacity="0" result="BackgroundImageFix"/>
<feColorMatrix in="SourceAlpha" type="matrix" values="0 0 0 0 0 0 0 0 0 0 0 0 0 0 0 0 0 0 127 0"/>
<feOffset/>
<feGaussianBlur stdDeviation="0.5"/>
<feColorMatrix type="matrix" values="0 0 0 0 1 0 0 0 0 1 0 0 0 0 1 0 0 0 0.05 0"/>
<feBlend mode="normal" in2="BackgroundImageFix" result="effect1_dropShadow"/>
<feBlend mode="normal" in="SourceGraphic" in2="effect1_dropShadow" result="shape"/>
</filter>
<filter id="filter2_d" x="149" y="333.76" width="16.1715" height="16.1192" filterUnits="userSpaceOnUse" color-interpolation-filters="sRGB">
<feFlood flood-opacity="0" result="BackgroundImageFix"/>
<feColorMatrix in="SourceAlpha" type="matrix" values="0 0 0 0 0 0 0 0 0 0 0 0 0 0 0 0 0 0 127 0"/>
<feOffset/>
<feGaussianBlur stdDeviation="0.5"/>
<feColorMatrix type="matrix" values="0 0 0 0 1 0 0 0 0 1 0 0 0 0 1 0 0 0 0.05 0"/>
<feBlend mode="normal" in2="BackgroundImageFix" result="effect1_dropShadow"/>
<feBlend mode="normal" in="SourceGraphic" in2="effect1_dropShadow" result="shape"/>
</filter>
<filter id="filter3_d" x="818.922" y="158.614" width="18.196" height="18.1362" filterUnits="userSpaceOnUse" color-interpolation-filters="sRGB">
<feFlood flood-opacity="0" result="BackgroundImageFix"/>
<feColorMatrix in="SourceAlpha" type="matrix" values="0 0 0 0 0 0 0 0 0 0 0 0 0 0 0 0 0 0 127 0"/>
<feOffset/>
<feGaussianBlur stdDeviation="0.5"/>
<feColorMatrix type="matrix" values="0 0 0 0 1 0 0 0 0 1 0 0 0 0 1 0 0 0 0.05 0"/>
<feBlend mode="normal" in2="BackgroundImageFix" result="effect1_dropShadow"/>
<feBlend mode="normal" in="SourceGraphic" in2="effect1_dropShadow" result="shape"/>
</filter>
<filter id="filter4_d" x="1005" y="-1" width="22.245" height="22.1703" filterUnits="userSpaceOnUse" color-interpolation-filters="sRGB">
<feFlood flood-opacity="0" result="BackgroundImageFix"/>
<feColorMatrix in="SourceAlpha" type="matrix" values="0 0 0 0 0 0 0 0 0 0 0 0 0 0 0 0 0 0 127 0"/>
<feOffset/>
<feGaussianBlur stdDeviation="0.5"/>
<feColorMatrix type="matrix" values="0 0 0 0 1 0 0 0 0 1 0 0 0 0 1 0 0 0 0.05 0"/>
<feBlend mode="normal" in2="BackgroundImageFix" result="effect1_dropShadow"/>
<feBlend mode="normal" in="SourceGraphic" in2="effect1_dropShadow" result="shape"/>
</filter>
<filter id="filter5_d" x="1098.3" y="338.13" width="16.1715" height="16.1193" filterUnits="userSpaceOnUse" color-interpolation-filters="sRGB">
<feFlood flood-opacity="0" result="BackgroundImageFix"/>
<feColorMatrix in="SourceAlpha" type="matrix" values="0 0 0 0 0 0 0 0 0 0 0 0 0 0 0 0 0 0 127 0"/>
<feOffset/>
<feGaussianBlur stdDeviation="0.5"/>
<feColorMatrix type="matrix" values="0 0 0 0 1 0 0 0 0 1 0 0 0 0 1 0 0 0 0.05 0"/>
<feBlend mode="normal" in2="BackgroundImageFix" result="effect1_dropShadow"/>
<feBlend mode="normal" in="SourceGraphic" in2="effect1_dropShadow" result="shape"/>
</filter>
<filter id="filter6_d" x="1654" y="245.089" width="20.2205" height="20.1534" filterUnits="userSpaceOnUse" color-interpolation-filters="sRGB">
<feFlood flood-opacity="0" result="BackgroundImageFix"/>
<feColorMatrix in="SourceAlpha" type="matrix" values="0 0 0 0 0 0 0 0 0 0 0 0 0 0 0 0 0 0 127 0"/>
<feOffset/>
<feGaussianBlur stdDeviation="0.5"/>
<feColorMatrix type="matrix" values="0 0 0 0 1 0 0 0 0 1 0 0 0 0 1 0 0 0 0.05 0"/>
<feBlend mode="normal" in2="BackgroundImageFix" result="effect1_dropShadow"/>
<feBlend mode="normal" in="SourceGraphic" in2="effect1_dropShadow" result="shape"/>
</filter>
<filter id="filter7_d" x="1540" y="326.786" width="24.2695" height="24.1874" filterUnits="userSpaceOnUse" color-interpolation-filters="sRGB">
<feFlood flood-opacity="0" result="BackgroundImageFix"/>
<feColorMatrix in="SourceAlpha" type="matrix" values="0 0 0 0 0 0 0 0 0 0 0 0 0 0 0 0 0 0 127 0"/>
<feOffset/>
<feGaussianBlur stdDeviation="0.5"/>
<feColorMatrix type="matrix" values="0 0 0 0 1 0 0 0 0 1 0 0 0 0 1 0 0 0 0.05 0"/>
<feBlend mode="normal" in2="BackgroundImageFix" result="effect1_dropShadow"/>
<feBlend mode="normal" in="SourceGraphic" in2="effect1_dropShadow" result="shape"/>
</filter>
<radialGradient id="paint0_radial" cx="0" cy="0" r="1" gradientUnits="userSpaceOnUse" gradientTransform="translate(11.1348 140.452) rotate(90) scale(6.6562 6.68085)">
<stop stop-color="white"/>
<stop offset="1" stop-color="white" stop-opacity="0.03"/>
</radialGradient>
<radialGradient id="paint1_radial" cx="0" cy="0" r="1" gradientUnits="userSpaceOnUse" gradientTransform="translate(316.184 36.0506) rotate(90) scale(9.07664 9.11025)">
<stop stop-color="white"/>
<stop offset="1" stop-color="white" stop-opacity="0.03"/>
</radialGradient>
<radialGradient id="paint2_radial" cx="0" cy="0" r="1" gradientUnits="userSpaceOnUse" gradientTransform="translate(157.086 341.819) rotate(90) scale(4.23576 4.25145)">
<stop stop-color="white"/>
<stop offset="1" stop-color="white" stop-opacity="0.03"/>
</radialGradient>
<radialGradient id="paint3_radial" cx="0" cy="0" r="1" gradientUnits="userSpaceOnUse" gradientTransform="translate(828.02 167.682) rotate(90) scale(4.84087 4.8588)">
<stop stop-color="white"/>
<stop offset="1" stop-color="white" stop-opacity="0.03"/>
</radialGradient>
<radialGradient id="paint4_radial" cx="0" cy="0" r="1" gradientUnits="userSpaceOnUse" gradientTransform="translate(1016.12 10.0851) rotate(90) scale(6.05109 6.0735)">
<stop stop-color="white"/>
<stop offset="1" stop-color="white" stop-opacity="0.03"/>
</radialGradient>
<radialGradient id="paint5_radial" cx="0" cy="0" r="1" gradientUnits="userSpaceOnUse" gradientTransform="translate(1106.39 346.19) rotate(90) scale(4.23578 4.25145)">
<stop stop-color="white"/>
<stop offset="1" stop-color="white" stop-opacity="0.03"/>
</radialGradient>
<radialGradient id="paint6_radial" cx="0" cy="0" r="1" gradientUnits="userSpaceOnUse" gradientTransform="translate(1664.11 255.166) rotate(90) scale(5.44601 5.46614)">
<stop stop-color="white"/>
<stop offset="1" stop-color="white" stop-opacity="0.03"/>
</radialGradient>
<radialGradient id="paint7_radial" cx="0" cy="0" r="1" gradientUnits="userSpaceOnUse" gradientTransform="translate(1552.13 338.88) rotate(90) scale(6.65622 6.68086)">
<stop stop-color="white"/>
<stop offset="1" stop-color="white" stop-opacity="0.03"/>
</radialGradient>
<clipPath id="clip0">
<rect width="1735" height="425" fill="white"/>
</clipPath>
</defs>
</svg>
