<svg width="1920" height="1972" viewBox="0 0 1920 1972" fill="none" xmlns="http://www.w3.org/2000/svg">
<path opacity="0.1" fill-rule="evenodd" clip-rule="evenodd" d="M1912.38 137.146C2050.24 159.683 2182.53 216.979 2272.26 268.674C2360.36 319.43 2390.69 370.196 2393.68 414.428C2396.47 455.782 2352.14 485.424 2288.44 508.121C2225.04 530.712 2156.61 560.172 2032.22 543.224C1908.42 526.357 1818.34 462.113 1696.54 427.477C1586.42 396.157 1450.18 394.156 1363.86 353.149C1277.67 312.205 1295.97 271.974 1289.98 234.338C1284.35 198.91 1266.06 157.364 1330.36 142.634C1392.87 128.315 1524.17 161.493 1611.59 160.669C1725.49 159.595 1777.43 115.086 1912.38 137.146Z" fill="#120A59"/>
<path opacity="0.1" fill-rule="evenodd" clip-rule="evenodd" d="M740.739 216.848C822.355 223.729 930.389 244.674 994.401 283.869C1059.9 323.974 1009.68 361.293 1045.87 403.684C1082.52 446.606 1228.85 498.675 1203.93 529.278C1176.72 562.703 1025.67 518.851 946.933 525.204C898.269 529.13 886.908 556.405 836.559 558.921C781.886 561.654 716.737 552.366 651.481 539.971C575.156 525.474 467.547 517.755 426.059 480.951C376.626 437.099 475.836 432.412 439.352 388.604C403.074 345.043 279.475 308.055 245.911 264.639C216.334 226.38 254.928 190.769 321.8 187.526C393.916 184.029 495.513 242.965 576.264 248.617C650.044 253.781 666.158 210.56 740.739 216.848Z" fill="#D22538"/>
<path opacity="0.1" fill-rule="evenodd" clip-rule="evenodd" d="M2302.17 950.39C2417.42 1040.79 2382.69 1126.73 2367.19 1206.25C2352 1284.16 2339.33 1369 2215.84 1393.08C2090.12 1417.59 1907.59 1381.88 1739.7 1328.6C1581.62 1278.44 1442.82 1201.41 1340.78 1115.39C1240.3 1030.69 1191.98 944.413 1192.14 866.998C1192.3 782.082 1205.29 688.399 1341.66 670.624C1475.35 653.196 1660.49 734.966 1828.84 784.002C1995.7 832.602 2188.57 861.291 2302.17 950.39Z" fill="#D22538"/>
<path opacity="0.1" fill-rule="evenodd" clip-rule="evenodd" d="M-385.059 1326.14C-359.478 1167.07 -175.31 1032.13 -23.3081 905.381C125.608 781.209 283.476 645.554 461.099 620.577C641.93 595.149 783.6 673.441 879.266 778.466C969.339 877.35 992.509 1017.47 959.712 1167.97C927.416 1316.17 834.683 1461.02 703.267 1586.08C559.117 1723.27 385.901 1873.18 204.698 1886.52C27.0455 1899.6 -39.4203 1746.59 -142.791 1648.37C-245.241 1551.02 -410.27 1482.91 -385.059 1326.14Z" fill="#120A59"/>
</svg>
