<svg width="154" height="41" viewBox="0 0 154 41" fill="none" xmlns="http://www.w3.org/2000/svg">
<path d="M42.0742 33.6273L42.07 33.6432L42.0668 33.6593C41.3575 37.2808 37.5244 40.2578 33.6856 40.2578C31.7905 40.2578 30.2905 39.5305 29.3496 38.3917C28.4108 37.2555 27.9925 35.666 28.3421 33.865C29.0614 31.0517 31.5812 28.5507 34.476 27.5983L35.7533 27.1781L34.5117 26.6617C32.3403 25.7587 31.0557 23.508 31.6378 20.7313C32.3551 17.9182 34.8742 15.414 37.7715 14.4622L39.0508 14.0419L37.8073 13.5254C35.6341 12.6227 34.3497 10.3666 34.934 7.5877C35.7702 3.94428 39.4943 0.975342 43.3211 0.975342C45.217 0.975342 46.7487 1.70476 47.7046 2.84564C48.6581 3.98386 49.0733 5.57235 48.6626 7.36889L48.6624 7.36885L48.66 7.38079C48.0658 10.3062 45.5599 12.7984 42.5529 13.6295L41.1129 14.0275L42.5024 14.5764C44.7794 15.476 45.9527 17.8397 45.365 20.5108L45.365 20.5108L45.3633 20.5191C44.7725 23.4413 42.2644 25.9354 39.2554 26.7666L37.9108 27.1381L39.1852 27.7054C41.5144 28.7422 42.7698 31.0036 42.0742 33.6273Z" fill="white" stroke="#120A59"/>
<path fill-rule="evenodd" clip-rule="evenodd" d="M36.1236 1.27661H17.997L6.25873 15.5701H12.6489L2.99936 27.7542H9.65047L0 39.6868H26.6036C24.5158 38.4438 23.3415 36.2091 23.9957 33.4743C24.6473 30.489 27.3856 27.8785 30.645 26.8843C28.0362 25.8892 26.6036 23.4048 27.3856 20.4203C28.0362 17.4367 30.7764 14.8247 34.0358 13.8313C31.4279 12.837 29.9926 10.3492 30.7764 7.36555C31.2965 4.75597 33.3843 2.39611 36.1236 1.27661Z" fill="#120A59"/>
<path fill-rule="evenodd" clip-rule="evenodd" d="M43.7285 41.0001H148.371L152.099 25.636H47.5858L43.7285 41.0001Z" fill="#D22538"/>
<path fill-rule="evenodd" clip-rule="evenodd" d="M59.6983 27.9196L54.1195 33.1349L57.2893 38.7127H57.1616H54.1195L51.5845 33.499L50.3188 38.7127H50.1921H47.5312L50.1921 27.9196H52.9806L51.84 32.4059L56.4025 27.9196H59.6983ZM65.6551 27.676V29.7392C65.0209 29.8605 64.6413 30.1024 64.2616 30.4665C63.7526 31.0734 63.3747 31.6802 63.1201 32.2845C62.9933 32.6511 62.8657 33.0135 62.7388 33.2554C62.7388 33.6187 62.7388 33.9836 62.7388 34.2272C62.7388 35.0768 62.8656 35.6819 63.2478 36.169C63.5006 36.6511 64.134 36.8947 64.8941 36.8947C65.1495 36.8947 65.4023 36.8947 65.6551 36.8947V38.9563C65.2754 38.9563 65.0209 39.0785 64.6412 39.0785H64.5135C62.9933 39.0785 61.8518 38.7127 61.2186 38.1075C60.4593 37.4999 60.0779 36.7725 59.8251 36.046C59.8251 35.8024 59.6983 35.5588 59.6983 35.3186V33.9836C59.6983 33.7417 59.8251 33.6187 59.8251 33.3785C60.0779 31.9221 60.8372 30.5879 61.9795 29.3751C62.8656 28.405 64.1348 27.799 65.6551 27.676ZM77.1906 31.1931L75.2881 38.7127H75.1622H72.5014L75.2881 27.9196H79.219L79.8515 35.0768L84.0351 27.9196H88.0903L85.4286 38.7127H85.174H82.64L84.5416 31.1931L80.2319 38.7127H80.106H77.9499L77.1906 31.1931ZM65.6551 38.9563V36.8947C66.1641 36.7725 66.6688 36.5306 66.9233 36.169C67.4289 35.5588 67.8104 34.9529 68.064 34.3494C68.19 33.9836 68.3168 33.6187 68.4428 33.2554C68.4428 32.893 68.5713 32.6511 68.5713 32.4059C68.5713 31.5572 68.4427 30.9512 68.1899 30.5879C67.8103 30.2247 67.5567 29.9827 67.1762 29.8605C67.0502 29.7392 66.9233 29.7392 66.7965 29.7392C66.5411 29.7392 66.4161 29.6187 66.2883 29.6187C66.0364 29.7392 65.7819 29.7392 65.6551 29.7392V27.676C65.9096 27.5555 66.2883 27.5554 66.6688 27.5554H66.7965C68.1899 27.5554 69.3305 27.9196 70.2175 28.6477C71.1053 29.3751 71.6127 30.4665 71.4867 32.0409C71.4867 32.2845 71.4867 32.4058 71.4867 32.6511C71.4867 32.7716 71.4867 33.0135 71.3581 33.1349C71.1054 34.5896 70.4712 36.046 69.3306 37.258C68.4428 38.2289 67.1762 38.8366 65.6551 38.9563ZM100.387 37.6221L100.131 38.7127C100.259 38.7127 100.387 38.7127 100.387 38.7127V37.6221ZM100.387 27.9196V29.0135L98.1048 38.7127H97.8511H95.3153L97.4706 29.9827H93.4146L91.2602 38.7127H91.1325H88.4716L91.1325 27.9196H100.387ZM100.387 29.0135L100.767 27.9196H100.387V29.0135ZM100.387 38.7127V37.6221L100.641 36.6512H101.273C102.16 36.6512 102.793 36.2879 103.174 35.5588C103.555 34.8331 103.933 33.9837 104.188 33.0136L105.456 27.9196H113.949L111.159 38.7127H111.033H108.371L110.526 29.9827H107.609L106.595 33.7418C106.595 34.1042 106.47 34.3494 106.344 34.7126C106.218 35.0767 106.09 35.5588 105.834 35.9254C105.456 36.6511 104.948 37.258 104.188 37.8657C103.555 38.4725 102.542 38.8365 101.273 38.8365H101.146C101.019 38.8365 100.766 38.8366 100.641 38.7127H100.387ZM125.737 37.987L125.61 38.7127H125.737V37.987ZM125.737 27.9196V28.5247L125.355 29.9827H119.274L118.636 32.164H124.088L123.581 34.2272H118.131L117.624 36.6512H123.836L123.454 38.7127H123.202H114.329L116.99 27.9196H125.737ZM125.737 28.5247L125.863 27.9196H125.737V28.5247ZM125.737 38.7127V37.987L128.271 27.9196H131.06L129.919 32.4059L134.481 27.9196H137.779L132.202 33.1349L135.37 38.7127H135.243H132.202L129.666 33.499L128.398 38.7127H128.143H125.737ZM138.411 29.9827L138.918 27.9196H148.297L147.791 29.9827H144.495L142.341 38.7127H142.214H139.552L141.707 29.9827H138.411Z" fill="white"/>
<path fill-rule="evenodd" clip-rule="evenodd" d="M61.0943 6.74462L60.326 9.65974H61.0943V13.8359C60.326 13.8359 59.4306 13.8359 59.3035 13.8359L58.0248 19.156H58.4063C58.9202 19.156 60.1997 19.0284 61.0943 19.0284V23.4623C59.6884 23.7149 58.0247 23.7148 56.1049 23.7148H47.5312L48.5548 19.5352H49.8335C50.2176 19.5352 50.4745 19.4067 50.7297 19.2809C50.9849 19.1559 51.1139 18.7732 51.2419 18.2699L54.1852 6.23771C54.315 5.73088 54.315 5.35166 54.1852 5.22583C54.0563 5.09912 53.8001 4.97152 53.4186 4.97152H52.1382L53.1617 0.668701H61.0943V6.74462ZM61.0943 9.65974H64.0384C65.9564 9.52954 67.4939 9.90877 68.6445 10.2889C69.925 10.7984 70.6914 11.5595 71.2053 12.6972C71.5877 13.71 71.5877 14.9745 71.2053 16.6235C70.8194 18.1422 70.3091 19.2809 69.4137 20.2946C68.6445 21.1798 67.621 21.941 66.3423 22.4469C65.0619 22.9537 62.6308 23.3321 61.2215 23.4623H61.0943V19.0274C61.3495 19.0274 61.4784 19.0275 61.6064 18.9017C62.1195 18.9017 62.6309 18.6474 63.015 18.2699C63.5263 17.888 63.7832 17.3811 63.9103 16.6235C64.1647 15.7339 64.1647 14.7237 63.7832 14.3427C63.2693 13.9626 62.6309 13.8359 61.7363 13.8359H61.0943V9.65974ZM74.1486 0.668701L72.3561 8.13754H67.2378L67.7499 5.3517H61.3494L61.0943 6.74462V0.668701H74.1486Z" fill="#120A59"/>
<path fill-rule="evenodd" clip-rule="evenodd" d="M86.695 15.7736V12.319H84.5424L86.695 8.86254V0.668701H81.4993L79.9781 4.89202H80.6123C81.3715 4.89202 83.0186 4.89202 83.1463 5.02102C83.2731 5.02102 83.2731 5.14909 83.2731 5.40444C83.1463 5.53166 83.0187 5.91868 82.6425 6.42937C81.6261 7.83949 74.1472 19.4871 74.1472 19.4871H71.3586L70.3447 23.7148H82.0066L82.8936 19.4871H80.2308L82.0066 15.7736H86.695ZM86.695 23.7148H85.6822L86.695 20.0013V23.7148ZM98.8633 0.668701L97.9763 4.63663H95.0618L96.4561 17.568C96.5847 18.3376 96.5846 18.8465 96.7097 19.1045C96.7097 19.3599 97.0894 19.4871 97.7236 19.4871H98.2309L97.3439 23.7148H86.695V20.0013L86.8228 19.4871L89.4837 19.2335V15.7736H86.695V12.319H88.9772V5.5317L88.8512 5.40444L86.695 8.86254V0.668701H98.8633Z" fill="#120A59"/>
<path fill-rule="evenodd" clip-rule="evenodd" d="M130.704 0.668701L129.368 5.15102H126.753L123.281 19.4354H125.731L124.689 23.6058H112.501L113.617 19.4354H116.056L119.622 5.15102H113.907C113.398 6.91898 112.885 9.77493 111.992 12.493C111.354 14.3951 110.843 16.0233 110.331 17.2472C109.309 19.9653 107.652 22.1396 105.222 23.2267C103.69 24.0436 101.137 23.9849 98.3223 23.9849L99.3544 19.4354C100.12 19.5705 101.625 19.5695 102.263 19.4354C103.925 19.0246 104.711 17.7931 105.605 14.532C106.755 10.8591 107.52 6.91898 108.033 5.15102H105.222L106.627 0.668701H130.704Z" fill="#120A59"/>
<path fill-rule="evenodd" clip-rule="evenodd" d="M131.946 0.668701H154L151.847 9.93954H147.03L148.171 4.91541H145.382L141.578 19.4681H144.875L143.732 23.7148H129.917L131.058 19.4681L134.607 19.3375L138.41 4.78654L135.621 4.91541L134.227 9.93954H129.284L131.946 0.668701Z" fill="#120A59"/>
</svg>
