<svg width="233" height="94" viewBox="0 0 233 94" fill="none" xmlns="http://www.w3.org/2000/svg">
<path fill-rule="evenodd" clip-rule="evenodd" d="M57 20.0044H35L12 40.0044H28L5 60.0044H23L0 80.0044H41C37.7215 78.1106 36.6546 74.206 37.682 70.0395C38.7051 65.4913 41.8815 61.5191 47 60.0044C42.9032 58.4883 41.7773 54.6984 43.0053 50.1516C44.027 45.606 47.8815 41.5178 53 40.0044C48.9047 38.4896 47.0992 34.808 48.33 30.2624C49.1468 26.2867 52.6983 21.71 57 20.0044Z" fill="white"/>
<path fill-rule="evenodd" clip-rule="evenodd" d="M61 80.0044H213.565L219 58.0044H66.6238L61 80.0044Z" fill="white" stroke="white" stroke-width="0.00017334"/>
<path d="M78.6393 20.4767L106.889 20.4396L105.153 26.6514L84.9527 26.6779L83.014 33.612L92.714 33.5993C96.9474 33.5938 99.9262 34.4402 101.651 36.1388C103.408 37.8373 103.838 40.2916 102.941 43.5019C101.998 46.8726 100.034 49.4906 97.0463 51.3557C94.0591 53.2209 90.3155 54.1565 85.8155 54.1624L69.2155 54.1841L78.6393 20.4767ZM86.981 48.3845C89.0477 48.3818 90.7387 47.9945 92.0541 47.2226C93.3785 46.4186 94.2516 45.2622 94.6734 43.7534C95.4991 40.8 93.7786 39.3261 89.512 39.3317L81.412 39.3423L78.881 48.3952L86.981 48.3845ZM132.556 46.8807L116.306 46.902L111.187 54.1291L102.887 54.14L127.91 20.4121L135.91 20.4016L142.137 54.0885L133.637 54.0996L132.556 46.8807ZM131.662 40.9611L129.72 28.0633L120.562 40.9757L131.662 40.9611ZM188.695 20.3323L179.271 54.0398L171.271 54.0503L178.918 26.6991L166.918 26.7148L164.702 33.7456C163.198 38.529 161.712 42.4139 160.244 45.4003C158.785 48.3545 157.081 50.6352 155.132 52.2423C153.226 53.8172 150.939 54.6064 148.273 54.6099C147.173 54.6114 145.889 54.4366 144.421 54.0855L146.765 47.4878C147.163 47.6156 147.628 47.6792 148.161 47.6785C150.095 47.676 151.75 46.5827 153.127 44.3988C154.513 42.1827 155.961 38.7311 157.471 34.0439L161.795 20.3676L188.695 20.3323ZM223.409 26.6407L212.209 26.6554L204.562 54.0066L196.562 54.0171L204.209 26.6659L193.059 26.6805L194.836 20.3243L225.186 20.2845L223.409 26.6407Z" fill="white"/>
<path d="M75.4721 69.8852L71.6321 69.8818L69.7047 77.3409L67.9767 77.3394L72.1797 61.0736L73.9077 61.0751L72.0224 68.3715L75.8624 68.3748L83.4357 61.0833L85.3557 61.085L77.0742 68.9801L81.5127 77.351L79.4727 77.3493L75.4721 69.8852ZM91.5509 77.4991C89.8869 77.4977 88.4669 77.1401 87.2911 76.4263C86.1352 75.6971 85.3354 74.7047 84.8916 73.4493C84.4638 72.1939 84.4521 70.7838 84.8564 69.2192C85.2607 67.6546 86.0009 66.2452 87.0772 64.9911C88.1694 63.737 89.4796 62.7542 91.0077 62.0428C92.5558 61.3158 94.1619 60.9531 95.8259 60.9545C97.4899 60.956 98.8938 61.3136 100.038 62.0273C101.198 62.741 101.997 63.7334 102.437 65.0043C102.881 66.2598 102.901 67.6698 102.496 69.2344C102.092 70.799 101.342 72.2161 100.246 73.4858C99.1534 74.7399 97.8432 75.7227 96.3151 76.4341C94.8029 77.1456 93.2149 77.5006 91.5509 77.4991ZM91.9471 75.9655C93.2751 75.9667 94.5492 75.6811 95.7693 75.1088C96.9934 74.5211 98.0416 73.7163 98.9137 72.6944C99.7899 71.657 100.392 70.5032 100.72 69.2329C101.049 67.9626 101.041 66.816 100.697 65.7931C100.357 64.7546 99.7253 63.9484 98.8015 63.3743C97.8816 62.7847 96.7576 62.4893 95.4296 62.4882C94.1016 62.487 92.8176 62.7803 91.5775 63.368C90.3574 63.9403 89.3012 64.7451 88.409 65.7825C87.5368 66.8044 86.9366 67.9505 86.6084 69.2207C86.2802 70.491 86.2859 71.6454 86.6257 72.6838C86.9856 73.7068 87.6254 74.513 88.5453 75.1026C89.4852 75.6767 90.6191 75.9644 91.9471 75.9655ZM126.284 61.1202L122.081 77.386L120.377 77.3845L123.739 64.3719L114.311 75.3108L113.471 75.31L109.681 64.4295L106.337 77.3724L104.633 77.371L108.836 61.1052L110.3 61.1065L114.48 73.1726L124.82 61.119L126.284 61.1202ZM146.081 61.1373L141.878 77.403L140.126 77.4015L143.945 62.6229L133.313 62.6138L129.494 77.3924L127.742 77.3909L131.945 61.1251L146.081 61.1373ZM164.668 61.1533L160.465 77.4191L158.713 77.4175L162.532 62.6389L154.42 62.632L152.823 68.0692C152.162 70.3154 151.502 72.1277 150.842 73.5061C150.202 74.8691 149.489 75.8911 148.705 76.5722C147.925 77.2378 147.031 77.5702 146.023 77.5693C145.591 77.5689 145.157 77.5143 144.721 77.4055L145.261 75.872C145.517 75.9342 145.773 75.9654 146.029 75.9656C146.733 75.9662 147.371 75.6956 147.944 75.1538C148.532 74.612 149.084 73.7758 149.6 72.6451C150.12 71.4989 150.663 69.9887 151.227 68.1143L153.268 61.1435L164.668 61.1533ZM178.397 75.947L178.013 77.4342L166.133 77.4239L170.336 61.1582L181.856 61.1681L181.472 62.6553L171.728 62.6469L170.233 68.4328L178.921 68.4403L178.542 69.9042L169.854 69.8967L168.293 75.9383L178.397 75.947ZM189.449 69.9834L185.609 69.98L183.681 77.4391L181.953 77.4376L186.156 61.1718L187.884 61.1733L185.999 68.4697L189.839 68.473L197.412 61.1815L199.332 61.1832L191.051 69.0783L195.489 77.4492L193.449 77.4475L189.449 69.9834ZM212.889 62.6823L206.985 62.6772L203.166 77.4558L201.414 77.4543L205.233 62.6757L199.329 62.6706L199.713 61.1835L213.273 61.1952L212.889 62.6823Z" fill="url(#paint0_linear)"/>
<path d="M52.991 32.9145C52.2114 28.8057 55.2087 23.8909 59.8564 22.0211C64.5041 20.1512 68.8091 22.1281 69.5887 26.237C69.9828 28.3139 69.488 30.9364 68.2967 33.285C67.1078 35.6291 65.2568 37.6394 62.9927 38.5503C60.7286 39.4612 58.4314 39.1198 56.5847 37.997C54.7343 36.872 53.3851 34.9915 52.991 32.9145Z" stroke="white"/>
<path d="M46.991 53.9145C46.2114 49.8057 49.2087 44.8909 53.8564 43.0211C58.5041 41.1512 62.8091 43.1281 63.5887 47.237C63.9828 49.3139 63.488 51.9364 62.2967 54.285C61.1078 56.6291 59.2568 58.6394 56.9927 59.5503C54.7286 60.4612 52.4314 60.1198 50.5847 58.997C48.7343 57.872 47.3851 55.9915 46.991 53.9145Z" stroke="white"/>
<path d="M41.991 73.9145C41.2114 69.8057 44.2087 64.8909 48.8564 63.0211C53.5041 61.1512 57.8091 63.1281 58.5887 67.237C58.9828 69.3139 58.488 71.9364 57.2967 74.285C56.1078 76.6291 54.2568 78.6394 51.9927 79.5503C49.7286 80.4612 47.4314 80.1198 45.5847 78.997C43.7343 77.872 42.3851 75.9915 41.991 73.9145Z" stroke="white"/>
<defs>
<linearGradient id="paint0_linear" x1="261.289" y1="12.1916" x2="248.571" y2="95.893" gradientUnits="userSpaceOnUse">
<stop stop-color="#014282"/>
<stop offset="0.2257" stop-color="#0E578E"/>
<stop offset="0.5946" stop-color="#0E578E"/>
<stop offset="1" stop-color="#1566A5"/>
</linearGradient>
</defs>
</svg>
