<svg width="164" height="44" viewBox="0 0 164 44" fill="none" xmlns="http://www.w3.org/2000/svg">
<g clip-path="url(#clip0)">
<path d="M44.9862 35.8131L44.9833 35.8243L44.981 35.8357C44.2078 39.7804 40.0446 43.0051 35.8725 43.0051C33.8037 43.0051 32.1508 42.2105 31.1101 40.9519C30.0712 39.6954 29.6167 37.9461 29.9999 35.9808C30.7812 32.9186 33.5165 30.2104 36.655 29.1788L37.5487 28.885L36.6795 28.5238C34.2781 27.5259 32.8715 25.0396 33.5099 22.0048C34.2895 18.9433 37.0237 16.2323 40.1646 15.2013L41.0596 14.9076L40.1891 14.5463C37.7861 13.5489 36.3802 11.0574 37.0198 8.02142C37.9283 4.06168 41.9695 0.841309 46.1337 0.841309C48.2027 0.841309 49.889 1.63774 50.9458 2.89813C52.0007 4.15625 52.4529 5.90511 52.0039 7.86714L52.0038 7.86707L52.0021 7.87552C51.3543 11.0617 48.6295 13.7634 45.3662 14.6646L44.3589 14.9428L45.3315 15.3267C47.8532 16.3221 49.1345 18.934 48.4926 21.8492H48.4926L48.4914 21.8551C47.8472 25.0382 45.1199 27.7418 41.8545 28.6431L40.914 28.9027L41.8063 29.2995C44.3644 30.4373 45.7512 32.9304 44.9862 35.8131Z" stroke="white"/>
<path fill-rule="evenodd" clip-rule="evenodd" d="M38.4691 1.34497H19.1656L6.66511 16.5538H13.4703L3.19411 29.5182H10.2771L0 42.215H28.331C26.1077 40.8924 24.8571 38.5146 25.5538 35.6046C26.2476 32.4281 29.1637 29.6505 32.6348 28.5926C29.8566 27.5338 28.331 24.8903 29.1638 21.7147C29.8566 18.54 32.7747 15.7606 36.2458 14.7037C33.4686 13.6457 31.94 10.9985 32.7747 7.82388C33.3286 5.04715 35.5519 2.53616 38.4691 1.34497Z" fill="white"/>
<path fill-rule="evenodd" clip-rule="evenodd" d="M158.005 43.6117H46.5669L50.6746 27.2637H161.975L158.005 43.6117ZM57.6338 35.2439L63.5748 29.6946H60.0649L55.2061 34.4683L56.4209 29.6946H53.4513L50.6177 41.179H53.4513H53.5863L54.9342 35.6314L57.6338 41.179H60.8734H61.0094L57.6338 35.2439ZM68.4344 32.4047C68.8387 32.0173 69.2428 31.7599 69.9182 31.6307H69.9184C70.0534 31.6307 70.3245 31.6307 70.5929 31.5026C70.649 31.5026 70.7048 31.5245 70.7702 31.5503C70.8628 31.5867 70.9746 31.6307 71.134 31.6307C71.2689 31.6307 71.4039 31.6307 71.5381 31.7599C71.9436 31.8899 72.2135 32.1474 72.6176 32.5339C72.8868 32.9204 73.0238 33.5651 73.0238 34.4683C73.0238 34.586 72.9959 34.7031 72.9653 34.8315C72.928 34.9877 72.8868 35.1607 72.8868 35.3722L72.8635 35.4393C72.737 35.8036 72.6099 36.1695 72.4834 36.5363C72.2135 37.1784 71.8073 37.8231 71.2689 38.4724C70.9977 38.8571 70.4607 39.1145 69.9182 39.2446H69.108C68.2985 39.2446 67.624 38.9854 67.3547 38.4724C66.9477 37.954 66.8127 37.3102 66.8127 36.4062V35.3722C66.9478 35.1149 67.0837 34.7292 67.2188 34.3391C67.4898 33.6961 67.8923 33.0504 68.4344 32.4047ZM69.3785 41.5032C69.5473 41.4706 69.7161 41.4381 69.9182 41.4381C71.5381 41.3108 72.8868 40.6642 73.8327 39.6311C75.0472 38.3414 75.7225 36.7918 75.9917 35.2439C76.1287 35.1148 76.1287 34.8574 76.1287 34.7292V34.0799C76.263 32.4047 75.7225 31.2434 74.7773 30.4694C73.8327 29.6946 72.6176 29.3071 71.134 29.3071H70.9977C70.5929 29.3071 70.1894 29.3072 69.9182 29.4354C68.2994 29.5664 66.9477 30.2112 66.0041 31.2434C64.7876 32.5339 63.979 33.9535 63.7099 35.5031C63.7099 35.6307 63.6762 35.7272 63.6425 35.8239C63.6087 35.9209 63.5748 36.0181 63.5748 36.147V37.5675C63.5748 37.6949 63.6083 37.8232 63.642 37.9519C63.6759 38.0814 63.7099 38.2115 63.7099 38.3414C63.979 39.1145 64.3852 39.8884 65.1937 40.535C65.8682 41.179 67.0837 41.5682 68.7027 41.5682H68.8386C69.0407 41.5682 69.2096 41.5357 69.3785 41.5032ZM80.1768 41.179L82.203 33.1778L83.0112 41.179H85.3079H85.4414L90.0314 33.1778L88.0059 41.179H90.7047H90.9759L93.8103 29.6946H89.4916L85.0366 37.3102L84.3633 29.6946H80.1768L77.2089 41.179H80.0426H80.1768ZM106.633 41.179L106.905 40.0185L107.175 38.9854H107.849C108.793 38.9854 109.468 38.5988 109.873 37.8231C110.279 37.051 110.682 36.1471 110.953 35.1149L112.304 29.6946H121.348L118.376 41.179H118.243H115.408L117.702 31.8899H114.597L113.517 35.8897C113.517 36.1976 113.432 36.4259 113.329 36.7022C113.303 36.772 113.276 36.8448 113.249 36.9228C113.224 36.9937 113.2 37.0688 113.174 37.1467C113.06 37.4939 112.929 37.8945 112.706 38.2132C112.304 38.9853 111.763 39.6311 110.953 40.2777C110.279 40.9234 109.201 41.3107 107.849 41.3107H107.714C107.579 41.3107 107.309 41.3107 107.175 41.179H106.905H106.633ZM104.475 41.179L106.905 30.8587L107.309 29.6946H106.905H97.0501L94.2165 41.179H97.0501H97.1858L99.4804 31.8899H103.8L101.504 41.179H104.205H104.475ZM133.766 41.179L133.902 40.4067L136.6 29.6946H139.57L138.355 34.4683L143.213 29.6946H146.725L140.786 35.2439L144.16 41.179H144.025H140.786L138.085 35.6314L136.735 41.179H136.463H133.902H133.766ZM133.495 31.8899L133.902 30.3385L134.035 29.6946H133.902H124.587L121.753 41.179H131.202H131.47L131.877 38.9854H125.262L125.801 36.4062H131.605L132.145 34.2109H126.339L127.019 31.8899H133.495ZM147.939 29.6946L147.398 31.8899H150.909L148.614 41.179H151.448H151.584L153.877 31.8899H157.388L157.926 29.6946H147.939Z" fill="white"/>
<path d="M46.5669 43.6117L46.5672 43.6118H46.5669V43.6117ZM158.005 43.6117V43.6121L158.005 43.6117L158.005 43.6117ZM50.6746 27.2637V27.2633L50.6746 27.2637L50.6746 27.2637ZM161.975 27.2637L161.974 27.2636H161.975V27.2637ZM63.5748 29.6946L63.5747 29.6945H63.5748V29.6946ZM57.6338 35.2439L57.6335 35.2436L57.6337 35.244L57.6338 35.2439ZM60.0649 29.6946V29.6945L60.0648 29.6945L60.0649 29.6946ZM55.2061 34.4683L55.2062 34.4683L55.2062 34.4683L55.2061 34.4683ZM56.4209 29.6946L56.4206 29.6945H56.4209V29.6946ZM53.4513 29.6946V29.6942L53.4512 29.6946L53.4513 29.6946ZM50.6177 41.179L50.618 41.179H50.6177V41.179ZM53.5863 41.179V41.1793L53.5864 41.179L53.5863 41.179ZM54.9342 35.6314L54.9341 35.6314L54.9341 35.6314L54.9342 35.6314ZM57.6338 41.179L57.6336 41.179H57.6338V41.179ZM61.0094 41.179V41.1788L61.0095 41.1789L61.0094 41.179ZM69.9182 31.6307V31.6307L69.9182 31.6307L69.9182 31.6307ZM68.4344 32.4047L68.4344 32.4047L68.4344 32.4047L68.4344 32.4047ZM70.5929 31.5026V31.5025L70.5928 31.5025L70.5929 31.5026ZM70.7702 31.5503L70.7701 31.5504L70.7702 31.5503ZM71.5381 31.7599L71.5381 31.76L71.5381 31.76L71.5381 31.7599ZM72.6176 32.5339L72.6177 32.5338L72.6177 32.5338L72.6176 32.5339ZM72.9653 34.8315L72.9652 34.8315L72.9653 34.8315ZM72.8868 35.3722L72.8869 35.3722V35.3722H72.8868ZM72.8635 35.4393L72.8636 35.4393L72.8635 35.4393ZM72.4834 36.5363L72.4835 36.5363L72.4835 36.5363L72.4834 36.5363ZM71.2689 38.4724L71.2689 38.4723L71.2689 38.4723L71.2689 38.4724ZM69.9182 39.2446V39.2447L69.9182 39.2446L69.9182 39.2446ZM67.3547 38.4724L67.3548 38.4724L67.3548 38.4723L67.3547 38.4724ZM66.8127 35.3722L66.8126 35.3722V35.3722H66.8127ZM67.2188 34.3391L67.2187 34.3391L67.2187 34.3391L67.2188 34.3391ZM69.9182 41.4381V41.4382H69.9182L69.9182 41.4381ZM69.3785 41.5032L69.3785 41.5032L69.3785 41.5032ZM73.8327 39.6311L73.8327 39.631L73.8327 39.631L73.8327 39.6311ZM75.9917 35.2439L75.9917 35.2438L75.9916 35.2439L75.9917 35.2439ZM76.1287 34.0799L76.1287 34.0799V34.0799H76.1287ZM74.7773 30.4694L74.7772 30.4695L74.7773 30.4694ZM69.9182 29.4354L69.9182 29.4355L69.9182 29.4355L69.9182 29.4354ZM66.0041 31.2434L66.0042 31.2435L66.0042 31.2435L66.0041 31.2434ZM63.7099 35.5031L63.7098 35.5031V35.5031H63.7099ZM63.6425 35.8239L63.6424 35.8239L63.6425 35.8239ZM63.642 37.9519L63.6421 37.9518L63.642 37.9519ZM63.7099 38.3414H63.7098L63.7098 38.3415L63.7099 38.3414ZM65.1937 40.535L65.1938 40.535L65.1938 40.535L65.1937 40.535ZM82.203 33.1778L82.2029 33.1778L82.2029 33.1778L82.203 33.1778ZM80.1768 41.179V41.1793L80.1769 41.179L80.1768 41.179ZM83.0112 41.179L83.0103 41.179H83.0112V41.179ZM85.4414 41.179V41.1791L85.4415 41.179L85.4414 41.179ZM90.0314 33.1778L90.0313 33.1778L90.0313 33.1778L90.0314 33.1778ZM88.0059 41.179L88.0063 41.179H88.0059V41.179ZM90.9759 41.179V41.1793L90.976 41.179L90.9759 41.179ZM93.8103 29.6946L93.8099 29.6945H93.8103V29.6946ZM89.4916 29.6946V29.6944L89.4916 29.6946L89.4916 29.6946ZM85.0366 37.3102L85.0367 37.3102L85.0367 37.3102L85.0366 37.3102ZM84.3633 29.6946L84.3643 29.6945H84.3633V29.6946ZM80.1768 29.6946V29.6943L80.1768 29.6946L80.1768 29.6946ZM77.2089 41.179L77.2093 41.179H77.2089V41.179ZM106.905 40.0185L106.905 40.0185V40.0185L106.905 40.0185ZM106.633 41.179L106.634 41.179H106.633V41.179ZM107.175 38.9854V38.985L107.175 38.9854L107.175 38.9854ZM109.873 37.8231L109.873 37.823L109.873 37.8231ZM110.953 35.1149L110.954 35.1149V35.1149L110.953 35.1149ZM112.304 29.6946V29.6942L112.303 29.6946L112.304 29.6946ZM121.348 29.6946L121.347 29.6945H121.348V29.6946ZM118.376 41.179V41.1793L118.376 41.179L118.376 41.179ZM115.408 41.179L115.408 41.179H115.408V41.179ZM117.702 31.8899L117.702 31.8898H117.702V31.8899ZM114.597 31.8899V31.8896L114.597 31.8899L114.597 31.8899ZM113.517 35.8897L113.517 35.8897V35.8897H113.517ZM113.329 36.7022L113.329 36.7022L113.329 36.7022ZM113.249 36.9228L113.249 36.9227L113.249 36.9228ZM113.174 37.1467L113.174 37.1467L113.174 37.1467ZM112.706 38.2132L112.706 38.2132L112.706 38.2132L112.706 38.2132ZM110.953 40.2777L110.953 40.2777L110.953 40.2777L110.953 40.2777ZM107.175 41.179L107.175 41.1789H107.175V41.179ZM106.905 30.8587L106.905 30.8586V30.8586L106.905 30.8587ZM104.475 41.179V41.1793L104.475 41.179L104.475 41.179ZM107.309 29.6946L107.309 29.6945H107.309V29.6946ZM97.0501 29.6946V29.6942L97.0501 29.6946L97.0501 29.6946ZM94.2165 41.179L94.2168 41.179H94.2165V41.179ZM97.1858 41.179V41.1793L97.1859 41.179L97.1858 41.179ZM99.4804 31.8899V31.8896L99.4803 31.8899L99.4804 31.8899ZM103.8 31.8899L103.799 31.8898H103.8V31.8899ZM101.504 41.179L101.505 41.179H101.504V41.179ZM133.902 40.4067L133.902 40.4067V40.4067L133.902 40.4067ZM133.766 41.179L133.767 41.179H133.766V41.179ZM136.6 29.6946V29.6943L136.6 29.6946L136.6 29.6946ZM139.57 29.6946L139.569 29.6945H139.57V29.6946ZM138.355 34.4683L138.355 34.4683L138.355 34.4683L138.355 34.4683ZM143.213 29.6946V29.6945L143.213 29.6945L143.213 29.6946ZM146.725 29.6946L146.725 29.6945H146.725V29.6946ZM140.786 35.2439L140.785 35.2436L140.785 35.244L140.786 35.2439ZM144.16 41.179V41.1788L144.16 41.1789L144.16 41.179ZM140.786 41.179L140.785 41.179H140.786V41.179ZM138.085 35.6314L138.085 35.6314L138.085 35.6314L138.085 35.6314ZM136.735 41.179V41.1793L136.735 41.179L136.735 41.179ZM133.902 30.3385L133.902 30.3386V30.3386L133.902 30.3385ZM133.495 31.8899V31.8903L133.495 31.89L133.495 31.8899ZM134.035 29.6946L134.035 29.6945H134.035V29.6946ZM124.587 29.6946V29.6942L124.587 29.6946L124.587 29.6946ZM121.753 41.179L121.753 41.179H121.753V41.179ZM131.47 41.179V41.1794L131.47 41.179L131.47 41.179ZM131.877 38.9854L131.877 38.9853H131.877V38.9854ZM125.262 38.9854L125.262 38.9855H125.262V38.9854ZM125.801 36.4062V36.4058L125.801 36.4062L125.801 36.4062ZM131.605 36.4062V36.4066L131.605 36.4062L131.605 36.4062ZM132.145 34.2109L132.145 34.2108H132.145V34.2109ZM126.339 34.2109L126.339 34.211H126.339V34.2109ZM127.019 31.8899V31.8896L127.019 31.8899L127.019 31.8899ZM147.398 31.8899L147.398 31.89H147.398V31.8899ZM147.939 29.6946V29.6942L147.938 29.6946L147.939 29.6946ZM150.909 31.8899L150.908 31.8898H150.909V31.8899ZM148.614 41.179L148.614 41.179H148.614V41.179ZM151.584 41.179V41.1793L151.584 41.179L151.584 41.179ZM153.877 31.8899V31.8896L153.877 31.8899L153.877 31.8899ZM157.388 31.8899V31.8903L157.388 31.89L157.388 31.8899ZM157.926 29.6946L157.926 29.6945H157.926V29.6946ZM46.5669 43.6118H158.005V43.6116H46.5669V43.6118ZM50.6746 27.2637L46.5668 43.6117L46.567 43.6117L50.6747 27.2637L50.6746 27.2637ZM161.975 27.2636H50.6746V27.2638H161.975V27.2636ZM158.005 43.6117L161.975 27.2637L161.974 27.2637L158.005 43.6117L158.005 43.6117ZM63.5747 29.6945L57.6337 35.2439L57.6338 35.244L63.5748 29.6947L63.5747 29.6945ZM60.0649 29.6947H63.5748V29.6945H60.0649V29.6947ZM55.2062 34.4683L60.065 29.6947L60.0648 29.6945L55.2061 34.4682L55.2062 34.4683ZM56.4208 29.6946L55.2061 34.4682L55.2062 34.4683L56.421 29.6946L56.4208 29.6946ZM53.4513 29.6947H56.4209V29.6945H53.4513V29.6947ZM50.6178 41.179L53.4514 29.6946L53.4512 29.6946L50.6176 41.1789L50.6178 41.179ZM53.4513 41.1789H50.6177V41.179H53.4513V41.1789ZM53.5863 41.1789H53.4513V41.179H53.5863V41.1789ZM54.9341 35.6314L53.5862 41.1789L53.5864 41.179L54.9343 35.6314L54.9341 35.6314ZM57.6338 41.1789L54.9343 35.6314L54.9341 35.6314L57.6337 41.179L57.6338 41.1789ZM60.8734 41.1789H57.6338V41.179H60.8734V41.1789ZM61.0094 41.1789H60.8734V41.179H61.0094V41.1789ZM57.6337 35.244L61.0093 41.179L61.0095 41.1789L57.6338 35.2439L57.6337 35.244ZM69.9182 31.6307C69.2428 31.7598 68.8386 32.0172 68.4344 32.4047L68.4345 32.4048C68.8387 32.0174 69.2429 31.76 69.9182 31.6308L69.9182 31.6307ZM69.9184 31.6307H69.9182V31.6308H69.9184V31.6307ZM70.5928 31.5025C70.3245 31.6307 70.0534 31.6307 69.9184 31.6307V31.6308C70.0534 31.6308 70.3245 31.6308 70.5929 31.5027L70.5928 31.5025ZM70.7702 31.5502C70.7048 31.5245 70.649 31.5025 70.5929 31.5025V31.5027C70.649 31.5027 70.7048 31.5246 70.7701 31.5504L70.7702 31.5502ZM71.134 31.6307C70.9746 31.6307 70.8628 31.5866 70.7702 31.5502L70.7701 31.5504C70.8627 31.5868 70.9746 31.6308 71.134 31.6308V31.6307ZM71.5382 31.7598C71.4039 31.6307 71.2689 31.6307 71.134 31.6307V31.6308C71.2689 31.6308 71.4038 31.6308 71.5381 31.7599L71.5382 31.7598ZM72.6177 32.5338C72.2136 32.1473 71.9437 31.8899 71.5381 31.7598L71.5381 31.76C71.9436 31.89 72.2134 32.1474 72.6176 32.5339L72.6177 32.5338ZM73.0239 34.4683C73.0239 33.5651 72.8869 32.9203 72.6177 32.5338L72.6175 32.5339C72.8867 32.9204 73.0237 33.5651 73.0237 34.4683H73.0239ZM72.9654 34.8315C72.996 34.7031 73.0239 34.586 73.0239 34.4683H73.0237C73.0237 34.586 72.9958 34.7031 72.9652 34.8315L72.9654 34.8315ZM72.8869 35.3722C72.8869 35.1607 72.9281 34.9877 72.9654 34.8315L72.9652 34.8315C72.928 34.9877 72.8867 35.1606 72.8867 35.3722H72.8869ZM72.8636 35.4393L72.8869 35.3722L72.8867 35.3722L72.8634 35.4392L72.8636 35.4393ZM72.4835 36.5363C72.6099 36.1696 72.737 35.8036 72.8636 35.4393L72.8634 35.4392C72.7369 35.8036 72.6098 36.1695 72.4833 36.5362L72.4835 36.5363ZM71.269 38.4725C71.8074 37.8231 72.2136 37.1784 72.4835 36.5363L72.4833 36.5362C72.2134 37.1783 71.8072 37.823 71.2689 38.4723L71.269 38.4725ZM69.9182 39.2446C70.4607 39.1146 70.9977 38.8572 71.269 38.4724L71.2689 38.4723C70.9976 38.857 70.4607 39.1144 69.9182 39.2445L69.9182 39.2446ZM69.108 39.2446H69.9182V39.2445H69.108V39.2446ZM67.3547 38.4724C67.6239 38.9855 68.2985 39.2446 69.108 39.2446V39.2445C68.2985 39.2445 67.624 38.9853 67.3548 38.4724L67.3547 38.4724ZM66.8126 36.4062C66.8126 37.3102 66.9476 37.9541 67.3547 38.4725L67.3548 38.4723C66.9478 37.954 66.8128 37.3102 66.8128 36.4062H66.8126ZM66.8126 35.3722V36.4062H66.8128V35.3722H66.8126ZM67.2187 34.3391C67.0836 34.7292 66.9477 35.1148 66.8126 35.3722L66.8128 35.3723C66.9479 35.1149 67.0838 34.7292 67.2188 34.3391L67.2187 34.3391ZM68.4344 32.4047C67.8922 33.0504 67.4897 33.6961 67.2187 34.3391L67.2188 34.3392C67.4899 33.6961 67.8923 33.0505 68.4345 32.4048L68.4344 32.4047ZM69.9182 41.4381C69.7161 41.4381 69.5473 41.4706 69.3784 41.5031L69.3785 41.5032C69.5473 41.4707 69.7162 41.4382 69.9182 41.4382V41.4381ZM73.8327 39.631C72.8867 40.6641 71.5381 41.3107 69.9182 41.4381L69.9182 41.4382C71.5382 41.3109 72.8868 40.6642 73.8328 39.6311L73.8327 39.631ZM75.9916 35.2439C75.7225 36.7918 75.0471 38.3414 73.8327 39.631L73.8328 39.6311C75.0472 38.3415 75.7226 36.7918 75.9918 35.2439L75.9916 35.2439ZM76.1287 34.7292C76.1287 34.7933 76.1287 34.8897 76.1115 34.9862C76.0944 35.0827 76.0602 35.1793 75.9917 35.2439L75.9918 35.244C76.0603 35.1794 76.0946 35.0827 76.1117 34.9862C76.1288 34.8897 76.1288 34.7933 76.1288 34.7292H76.1287ZM76.1287 34.0799V34.7292H76.1288V34.0799H76.1287ZM74.7772 30.4695C75.7225 31.2435 76.2629 32.4047 76.1287 34.0799L76.1288 34.0799C76.2631 32.4046 75.7226 31.2434 74.7773 30.4694L74.7772 30.4695ZM71.134 29.3072C72.6176 29.3072 73.8327 29.6947 74.7772 30.4695L74.7773 30.4694C73.8328 29.6945 72.6176 29.307 71.134 29.307V29.3072ZM70.9977 29.3072H71.134V29.307H70.9977V29.3072ZM69.9182 29.4355C70.0538 29.3714 70.2225 29.3393 70.4079 29.3233C70.5932 29.3072 70.7953 29.3072 70.9977 29.3072V29.307C70.7953 29.307 70.5932 29.3071 70.4078 29.3231C70.2225 29.3392 70.0538 29.3712 69.9182 29.4353L69.9182 29.4355ZM66.0042 31.2435C66.9478 30.2112 68.2994 29.5665 69.9182 29.4355L69.9182 29.4353C68.2993 29.5663 66.9477 30.2111 66.0041 31.2433L66.0042 31.2435ZM63.7099 35.5031C63.9791 33.9535 64.7877 32.5339 66.0042 31.2435L66.0041 31.2433C64.7875 32.5338 63.979 33.9534 63.7098 35.5031L63.7099 35.5031ZM63.6426 35.8239C63.6763 35.7272 63.7099 35.6307 63.7099 35.5031H63.7098C63.7098 35.6307 63.6761 35.7272 63.6424 35.8239L63.6426 35.8239ZM63.5749 36.147C63.5749 36.0181 63.6087 35.921 63.6426 35.8239L63.6424 35.8239C63.6086 35.9209 63.5747 36.0181 63.5747 36.147H63.5749ZM63.5749 37.5675V36.147H63.5747V37.5675H63.5749ZM63.6421 37.9518C63.6084 37.8231 63.5749 37.6949 63.5749 37.5675H63.5747C63.5747 37.6949 63.6082 37.8232 63.6419 37.9519L63.6421 37.9518ZM63.7099 38.3414C63.7099 38.2114 63.6759 38.0814 63.6421 37.9518L63.6419 37.9519C63.6758 38.0815 63.7098 38.2115 63.7098 38.3414H63.7099ZM65.1938 40.535C64.3852 39.8884 63.9791 39.1145 63.7099 38.3414L63.7098 38.3415C63.979 39.1146 64.3851 39.8885 65.1937 40.5351L65.1938 40.535ZM68.7027 41.5681C67.0837 41.5681 65.8682 41.1789 65.1938 40.535L65.1937 40.5351C65.8681 41.179 67.0837 41.5683 68.7027 41.5683V41.5681ZM68.8386 41.5681H68.7027V41.5683H68.8386V41.5681ZM69.3784 41.5031C69.2096 41.5356 69.0407 41.5681 68.8386 41.5681V41.5683C69.0407 41.5683 69.2096 41.5358 69.3785 41.5032L69.3784 41.5031ZM82.2029 33.1778L80.1768 41.1789L80.1769 41.179L82.203 33.1778L82.2029 33.1778ZM83.0113 41.1789L82.2031 33.1778L82.2029 33.1778L83.0111 41.179L83.0113 41.1789ZM85.3079 41.1789H83.0112V41.179H85.3079V41.1789ZM85.4414 41.1789H85.3079V41.179H85.4414V41.1789ZM90.0313 33.1778L85.4414 41.1789L85.4415 41.179L90.0314 33.1778L90.0313 33.1778ZM88.006 41.179L90.0315 33.1778L90.0313 33.1778L88.0059 41.1789L88.006 41.179ZM90.7047 41.1789H88.0059V41.179H90.7047V41.1789ZM90.9759 41.1789H90.7047V41.179H90.9759V41.1789ZM93.8102 29.6946L90.9758 41.1789L90.976 41.179L93.8104 29.6946L93.8102 29.6946ZM89.4916 29.6947H93.8103V29.6945H89.4916V29.6947ZM85.0367 37.3102L89.4917 29.6947L89.4916 29.6946L85.0366 37.3101L85.0367 37.3102ZM84.3633 29.6946L85.0365 37.3102L85.0367 37.3102L84.3634 29.6946L84.3633 29.6946ZM80.1768 29.6947H84.3633V29.6945H80.1768V29.6947ZM77.209 41.179L80.1769 29.6946L80.1768 29.6946L77.2088 41.1789L77.209 41.179ZM80.0426 41.1789H77.2089V41.179H80.0426V41.1789ZM80.1768 41.1789H80.0426V41.179H80.1768V41.1789ZM106.905 40.0185L106.633 41.1789L106.634 41.179L106.905 40.0186L106.905 40.0185ZM106.905 40.0186L107.175 38.9854L107.175 38.9854L106.905 40.0185L106.905 40.0186ZM107.175 38.9855H107.849V38.9853H107.175V38.9855ZM107.849 38.9855C108.321 38.9855 108.726 38.8888 109.063 38.6952C109.401 38.5016 109.671 38.211 109.873 37.8231L109.873 37.823C109.67 38.2109 109.4 38.5015 109.063 38.6951C108.726 38.8887 108.321 38.9853 107.849 38.9853V38.9855ZM109.873 37.8231C110.279 37.051 110.682 36.1471 110.954 35.1149L110.953 35.1149C110.681 36.1471 110.279 37.051 109.873 37.823L109.873 37.8231ZM110.954 35.1149L112.304 29.6946L112.303 29.6946L110.953 35.1149L110.954 35.1149ZM112.304 29.6947H121.348V29.6945H112.304V29.6947ZM121.348 29.6946L118.376 41.1789L118.376 41.179L121.348 29.6946L121.348 29.6946ZM118.376 41.1789H118.243V41.179H118.376V41.1789ZM118.243 41.1789H115.408V41.179H118.243V41.1789ZM115.408 41.179L117.702 31.89L117.702 31.8899L115.408 41.1789L115.408 41.179ZM117.702 31.8898H114.597V31.89H117.702V31.8898ZM114.597 31.8899L113.517 35.8897L113.517 35.8898L114.597 31.89L114.597 31.8899ZM113.517 35.8897C113.517 36.1976 113.432 36.4259 113.329 36.7022L113.329 36.7022C113.432 36.426 113.517 36.1976 113.517 35.8897H113.517ZM113.329 36.7022C113.303 36.772 113.276 36.8448 113.249 36.9227L113.249 36.9228C113.276 36.8448 113.303 36.772 113.329 36.7022L113.329 36.7022ZM113.249 36.9227C113.224 36.9937 113.199 37.0688 113.174 37.1466L113.174 37.1467C113.2 37.0689 113.224 36.9937 113.249 36.9228L113.249 36.9227ZM113.174 37.1466C113.06 37.4939 112.929 37.8945 112.706 38.2132L112.706 38.2133C112.929 37.8946 113.06 37.4939 113.174 37.1467L113.174 37.1466ZM112.706 38.2132C112.303 38.9853 111.763 39.6311 110.953 40.2777L110.954 40.2778C111.763 39.6312 112.304 38.9854 112.706 38.2133L112.706 38.2132ZM110.953 40.2777C110.279 40.9233 109.201 41.3107 107.849 41.3107V41.3108C109.201 41.3108 110.28 40.9235 110.954 40.2778L110.953 40.2777ZM107.849 41.3107H107.714V41.3108H107.849V41.3107ZM107.714 41.3107C107.646 41.3107 107.545 41.3107 107.444 41.2942C107.343 41.2777 107.242 41.2448 107.175 41.1789L107.175 41.179C107.242 41.2449 107.343 41.2779 107.444 41.2944C107.545 41.3108 107.646 41.3108 107.714 41.3108V41.3107ZM107.175 41.1789H106.905V41.179H107.175V41.1789ZM106.633 41.179H106.905V41.1789H106.633V41.179ZM106.905 30.8586L104.475 41.1789L104.475 41.179L106.905 30.8587L106.905 30.8586ZM106.905 30.8587L107.31 29.6946L107.309 29.6946L106.905 30.8586L106.905 30.8587ZM107.309 29.6945H106.905V29.6947H107.309V29.6945ZM97.0501 29.6947H106.905V29.6945H97.0501V29.6947ZM94.2166 41.179L97.0502 29.6946L97.0501 29.6946L94.2164 41.1789L94.2166 41.179ZM97.0501 41.1789H94.2165V41.179H97.0501V41.1789ZM97.1858 41.1789H97.0501V41.179H97.1858V41.1789ZM99.4803 31.8899L97.1857 41.1789L97.1859 41.179L99.4805 31.89L99.4803 31.8899ZM103.8 31.8898H99.4804V31.89H103.8V31.8898ZM101.505 41.179L103.8 31.89L103.8 31.8899L101.504 41.1789L101.505 41.179ZM104.205 41.1789H101.504V41.179H104.205V41.1789ZM104.475 41.1789H104.205V41.179H104.475V41.1789ZM133.902 40.4067L133.766 41.1789L133.766 41.179L133.902 40.4067L133.902 40.4067ZM133.902 40.4067L136.6 29.6946L136.6 29.6946L133.902 40.4067L133.902 40.4067ZM136.6 29.6947H139.57V29.6945H136.6V29.6947ZM139.57 29.6946L138.355 34.4682L138.355 34.4683L139.57 29.6946L139.57 29.6946ZM138.355 34.4683L143.213 29.6947L143.213 29.6945L138.355 34.4682L138.355 34.4683ZM143.213 29.6947H146.725V29.6945H143.213V29.6947ZM146.725 29.6945L140.785 35.2439L140.786 35.244L146.725 29.6947L146.725 29.6945ZM140.785 35.244L144.16 41.179L144.16 41.1789L140.786 35.2439L140.785 35.244ZM144.16 41.1789H144.025V41.179H144.16V41.1789ZM144.025 41.1789H140.786V41.179H144.025V41.1789ZM140.786 41.1789L138.086 35.6314L138.085 35.6314L140.785 41.179L140.786 41.1789ZM138.085 35.6314L136.735 41.1789L136.735 41.179L138.086 35.6314L138.085 35.6314ZM136.735 41.1789H136.463V41.179H136.735V41.1789ZM136.463 41.1789H133.902V41.179H136.463V41.1789ZM133.766 41.179H133.902V41.1789H133.766V41.179ZM133.902 30.3385L133.495 31.8899L133.495 31.89L133.902 30.3386L133.902 30.3385ZM133.902 30.3386L134.035 29.6946L134.035 29.6946L133.902 30.3385L133.902 30.3386ZM134.035 29.6945H133.902V29.6947H134.035V29.6945ZM124.587 29.6947H133.902V29.6945H124.587V29.6947ZM121.753 41.179L124.587 29.6946L124.587 29.6946L121.752 41.1789L121.753 41.179ZM131.202 41.1789H121.753V41.179H131.202V41.1789ZM131.47 41.1789H131.202V41.179H131.47V41.1789ZM131.877 38.9854L131.47 41.1789L131.47 41.179L131.877 38.9854L131.877 38.9854ZM125.262 38.9855H131.877V38.9853H125.262V38.9855ZM125.801 36.4062L125.262 38.9854L125.262 38.9854L125.801 36.4062L125.801 36.4062ZM131.605 36.4061H125.801V36.4063H131.605V36.4061ZM132.145 34.2109L131.605 36.4062L131.605 36.4062L132.146 34.2109L132.145 34.2109ZM126.339 34.211H132.145V34.2108H126.339V34.211ZM127.019 31.8899L126.339 34.2109L126.339 34.2109L127.019 31.89L127.019 31.8899ZM133.495 31.8898H127.019V31.89H133.495V31.8898ZM147.398 31.89L147.939 29.6946L147.938 29.6946L147.398 31.8899L147.398 31.89ZM150.909 31.8898H147.398V31.89H150.909V31.8898ZM148.614 41.179L150.909 31.89L150.908 31.8899L148.614 41.1789L148.614 41.179ZM151.448 41.1789H148.614V41.179H151.448V41.1789ZM151.584 41.1789H151.448V41.179H151.584V41.1789ZM153.877 31.8899L151.584 41.1789L151.584 41.179L153.877 31.89L153.877 31.8899ZM157.388 31.8898H153.877V31.89H157.388V31.8898ZM157.926 29.6946L157.388 31.8899L157.388 31.89L157.926 29.6946L157.926 29.6946ZM147.939 29.6947H157.926V29.6945H147.939V29.6947Z" fill="white"/>
<path fill-rule="evenodd" clip-rule="evenodd" d="M65.0614 7.16327L64.2432 10.2651H65.0614V14.7087C64.2432 14.7087 63.2897 14.7087 63.1543 14.7087L61.7926 20.3695H62.1988C62.7461 20.3695 64.1088 20.2337 65.0614 20.2337V24.9516C63.5643 25.2203 61.7925 25.2202 59.748 25.2202H50.6177L51.7077 20.773H53.0694C53.4785 20.773 53.752 20.6363 54.0238 20.5024C54.2956 20.3694 54.4329 19.9622 54.5693 19.4266L57.7036 6.6239C57.8419 6.08461 57.8419 5.68111 57.7036 5.54721C57.5664 5.41239 57.2937 5.27662 56.8874 5.27662H55.5238L56.6137 0.698242H65.0614V7.16327ZM65.0614 10.2651H68.1967C70.2393 10.1266 71.8765 10.53 73.102 10.9346C74.4652 11.4766 75.2818 12.2865 75.8291 13.4971C76.236 14.5748 76.236 15.9202 75.8291 17.6748C75.4181 19.2908 74.8749 20.5024 73.9206 21.581C73.102 22.5229 72.0121 23.3328 70.6503 23.8712C69.2864 24.4104 66.6977 24.8131 65.1969 24.9516H65.0614V20.2327C65.3332 20.2327 65.4704 20.2328 65.6068 20.0989C66.1532 20.0989 66.6977 19.8283 67.1068 19.4266C67.6513 19.0203 67.9249 18.481 68.0603 17.6748C68.3311 16.7282 68.3312 15.6534 67.9249 15.248C67.3776 14.8435 66.6978 14.7087 65.7451 14.7087H65.0614V10.2651ZM78.9631 0.698242L77.0546 8.64537H71.6039L72.1491 5.68115H65.3331L65.0614 7.16327V0.698242H78.9631Z" fill="white"/>
<path fill-rule="evenodd" clip-rule="evenodd" d="M92.3257 16.7704V13.0947H90.0332L92.3257 9.41684V0.698242H86.7926L85.1727 5.19204H85.8481C86.6563 5.19204 88.4105 5.19203 88.5468 5.32929C88.6818 5.32929 88.6818 5.46557 88.6818 5.73726C88.5468 5.87264 88.4105 6.28444 88.0105 6.82783C86.9276 8.32822 78.9635 20.7218 78.9635 20.7218H75.9936L74.9141 25.2202H87.3331L88.2776 20.7218H85.4419L87.3331 16.7704H92.3257ZM92.3257 25.2202H91.2469L92.3257 21.269V25.2202ZM105.285 0.698242L104.34 4.92028H101.236L102.721 18.6798C102.858 19.4987 102.858 20.0402 102.991 20.3147C102.991 20.5864 103.395 20.7218 104.071 20.7218H104.611L103.666 25.2202H92.3257V21.269L92.4621 20.7218L95.2957 20.452V16.7704H92.3257V13.0947H94.756V5.87268L94.6217 5.73726L92.3257 9.41684V0.698242H105.285Z" fill="white"/>
<path fill-rule="evenodd" clip-rule="evenodd" d="M139.192 0.698242L137.769 5.46762H134.985L131.287 20.6668H133.897L132.786 25.1042H119.807L120.995 20.6668H123.593L127.39 5.46762H121.305C120.762 7.34884 120.216 10.3876 119.265 13.2798C118.586 15.3037 118.041 17.0361 117.496 18.3385C116.408 21.2306 114.643 23.5442 112.056 24.7008C110.424 25.5701 107.705 25.5076 104.708 25.5076L105.807 20.6668C106.622 20.8105 108.225 20.8095 108.904 20.6668C110.674 20.2297 111.511 18.9193 112.463 15.4493C113.688 11.5413 114.503 7.34884 115.049 5.46762H112.056L113.552 0.698242H139.192Z" fill="white"/>
<path fill-rule="evenodd" clip-rule="evenodd" d="M140.514 0.698242H164L161.706 10.5628H156.577L157.792 5.21691H154.822L150.772 20.7016H154.282L153.065 25.2202H138.353L139.568 20.7016L143.347 20.5626L147.397 5.07979L144.427 5.21691L142.942 10.5628H137.679L140.514 0.698242Z" fill="white"/>
</g>
<defs>
<clipPath id="clip0">
<rect width="164" height="44" fill="white"/>
</clipPath>
</defs>
</svg>
