<svg width="237" height="63" viewBox="0 0 237 63" fill="none" xmlns="http://www.w3.org/2000/svg">
<path d="M65.0108 51.2779L65.0066 51.2939L65.0033 51.3102C63.8859 56.9583 57.8695 61.5754 51.8403 61.5754C48.8507 61.5754 46.4621 60.4377 44.9581 58.6356C43.4568 56.8366 42.8 54.3319 43.3537 51.5179C44.4828 47.1335 48.4357 43.2558 52.9711 41.7787L54.2626 41.358L53.0066 40.8409C49.5362 39.4121 47.5036 35.8521 48.4261 31.5068C49.5527 27.1234 53.504 23.2417 58.0429 21.7655L59.3363 21.3449L58.0784 20.8276C54.6057 19.3996 52.574 15.8322 53.4983 11.4852C54.8113 5.81558 60.6512 1.20459 66.669 1.20459C69.659 1.20459 72.0959 2.34494 73.6231 4.14958C75.1476 5.95098 75.801 8.45503 75.1522 11.2643L75.1521 11.2642L75.1496 11.2763C74.2135 15.8384 70.2758 19.7067 65.5599 20.9971L64.1043 21.3953L65.5097 21.945C69.154 23.3703 71.0056 27.11 70.078 31.2841L70.0779 31.2841L70.0762 31.2925C69.1453 35.8501 65.204 39.7212 60.4851 41.0117L59.126 41.3834L60.4154 41.9515C64.1122 43.5806 66.1163 47.1504 65.0108 51.2779Z" fill="url(#paint0_linear)" stroke="white"/>
<path fill-rule="evenodd" clip-rule="evenodd" d="M55.5925 1.92578H27.6966L9.6319 23.7021H19.4662L4.61588 42.2647H14.8516L0 60.4442H40.9417C37.7288 58.5505 35.9215 55.1459 36.9284 50.9794C37.931 46.4312 42.1451 42.4542 47.1612 40.9394C43.1464 39.4234 40.9417 35.6384 42.1452 31.0915C43.1465 26.546 47.3635 22.5664 52.3796 21.053C48.3662 19.5382 46.1572 15.7479 47.3634 11.2024C48.1639 7.22663 51.3769 3.63135 55.5925 1.92578Z" fill="white"/>
<path fill-rule="evenodd" clip-rule="evenodd" d="M67.2949 62.444H228.336L234.073 39.0366H73.2311L67.2949 62.444Z" fill="white" stroke="white" stroke-width="0.00017334"/>
<path fill-rule="evenodd" clip-rule="evenodd" d="M91.873 42.5174L83.2875 50.463L88.1657 58.9609H87.9692H83.2875L79.3863 51.0178L77.4384 58.9609H77.2433H73.1484L77.2433 42.5174H81.5348L79.7793 49.3524L86.8008 42.5174H91.873ZM101.04 42.1463V45.2896C100.064 45.4745 99.48 45.8431 98.8958 46.3978C98.1123 47.3223 97.5307 48.2468 97.139 49.1675C96.9438 49.726 96.7474 50.2782 96.5522 50.6467C96.5522 51.2001 96.5522 51.7561 96.5522 52.1272C96.5522 53.4215 96.7473 54.3434 97.3355 55.0856C97.7246 55.8201 98.6993 56.1912 99.8691 56.1912C100.262 56.1912 100.651 56.1912 101.04 56.1912V59.332C100.456 59.332 100.064 59.5182 99.4799 59.5182H99.2834C96.9438 59.5182 95.1872 58.9609 94.2126 58.0389C93.0441 57.1131 92.4572 56.005 92.0682 54.8981C92.0682 54.5271 91.873 54.156 91.873 53.79V51.7561C91.873 51.3876 92.0682 51.2001 92.0682 50.8341C92.4572 48.6153 93.6257 46.5827 95.3837 44.735C96.7473 43.257 98.7006 42.3338 101.04 42.1463ZM118.793 47.5047L115.865 58.9609H115.671H111.576L115.865 42.5174H121.915L122.888 53.4215L129.326 42.5174H135.567L131.471 58.9609H131.079H127.179L130.106 47.5047L123.473 58.9609H123.28H119.961L118.793 47.5047ZM101.04 59.332V56.1912C101.824 56.005 102.6 55.6364 102.992 55.0856C103.77 54.1559 104.357 53.2328 104.747 52.3134C104.941 51.7561 105.136 51.2001 105.33 50.6467C105.33 50.0946 105.528 49.726 105.528 49.3524C105.528 48.0593 105.33 47.1361 104.941 46.5827C104.357 46.0293 103.967 45.6607 103.381 45.4745C103.187 45.2896 102.992 45.2896 102.797 45.2896C102.404 45.2896 102.211 45.1061 102.015 45.1061C101.627 45.2897 101.235 45.2896 101.04 45.2896V42.1463C101.432 41.9627 102.015 41.9626 102.6 41.9626H102.797C104.941 41.9626 106.697 42.5174 108.062 43.6268C109.428 44.735 110.209 46.3977 110.015 48.7964C110.015 49.1674 110.015 49.3523 110.015 49.726C110.015 49.9096 110.015 50.2781 109.817 50.463C109.428 52.6793 108.452 54.8981 106.697 56.7446C105.33 58.2238 103.381 59.1497 101.04 59.332ZM154.491 57.2994L154.098 58.9609C154.294 58.9609 154.491 58.9609 154.491 58.9609V57.2994ZM154.491 42.5174V44.1841L150.979 58.9609H150.588H146.686L150.003 45.6607H143.761L140.445 58.9609H140.249H136.154L140.249 42.5174H154.491ZM154.491 44.1841L155.075 42.5174H154.491V44.1841ZM154.491 58.9609V57.2994L154.881 55.8201H155.854C157.219 55.8201 158.194 55.2666 158.78 54.1559C159.366 53.0504 159.948 51.7562 160.341 50.2783L162.292 42.5174H175.362L171.068 58.9609H170.875H166.778L170.094 45.6607H165.606L164.046 51.3877C164.046 51.9398 163.853 52.3133 163.658 52.8668C163.464 53.4215 163.268 54.1559 162.874 54.7145C162.292 55.82 161.511 56.7447 160.341 57.6705C159.367 58.595 157.808 59.1496 155.854 59.1496H155.659C155.464 59.1496 155.075 59.1496 154.881 58.9609H154.491ZM193.504 57.8552L193.308 58.9609H193.504V57.8552ZM193.504 42.5174V43.4394L192.916 45.6607H183.558L182.575 48.9839H190.966L190.185 52.1272H181.798L181.018 55.8201H190.578L189.99 58.9609H189.602H175.947L180.043 42.5174H193.504ZM193.504 43.4394L193.697 42.5174H193.504V43.4394ZM193.504 58.9609V57.8552L197.403 42.5174H201.695L199.939 49.3524L206.96 42.5174H212.035L203.452 50.463L208.328 58.9609H208.133H203.452L199.55 51.0178L197.599 58.9609H197.206H193.504ZM213.008 45.6607L213.789 42.5174H228.222L227.444 45.6607H222.371L219.057 58.9609H218.861H214.765L218.081 45.6607H213.008Z" fill="url(#paint1_linear)"/>
<path fill-rule="evenodd" clip-rule="evenodd" d="M94.0213 10.2565L92.839 14.6977H94.0213V21.0602C92.839 21.0602 91.461 21.0602 91.2653 21.0602L89.2975 29.1654H89.8846C90.6755 29.1654 92.6447 28.971 94.0213 28.971V35.7262C91.8578 36.1109 89.2974 36.1108 86.3429 36.1108H73.1484L74.7236 29.7431H76.6914C77.2826 29.7431 77.6779 29.5474 78.0707 29.3557C78.4634 29.1653 78.6619 28.5822 78.859 27.8154L83.3885 9.48422C83.5883 8.71205 83.5883 8.13431 83.3885 7.9426C83.1901 7.74956 82.796 7.55516 82.2089 7.55516H80.2384L81.8134 0.999756H94.0213V10.2565ZM94.0213 14.6977H98.5522C101.504 14.4994 103.87 15.0771 105.641 15.6563C107.611 16.4324 108.791 17.592 109.582 19.3254C110.17 20.8684 110.17 22.7949 109.582 25.3071C108.988 27.6209 108.203 29.3557 106.824 30.9001C105.641 32.2487 104.066 33.4083 102.098 34.1792C100.127 34.9513 96.386 35.5278 94.2171 35.7262H94.0213V28.9696C94.4141 28.9696 94.6124 28.9697 94.8095 28.778C95.5991 28.778 96.386 28.3905 96.9772 27.8154C97.7641 27.2336 98.1594 26.4614 98.3551 25.3071C98.7465 23.9518 98.7466 22.4128 98.1595 21.8323C97.3686 21.2532 96.3861 21.0602 95.0094 21.0602H94.0213V14.6977ZM114.111 0.999756L111.353 12.3786H103.476L104.264 8.13437H94.414L94.0213 10.2565V0.999756H114.111Z" fill="white"/>
<path fill-rule="evenodd" clip-rule="evenodd" d="M133.422 24.0122V18.7492H130.109L133.422 13.4832V0.999756H125.426L123.085 7.43405H124.061C125.229 7.43405 127.764 7.43404 127.961 7.63057C128.156 7.63057 128.156 7.8257 128.156 8.21471C127.961 8.40855 127.764 8.99818 127.186 9.77621C125.621 11.9245 114.112 29.6698 114.112 29.6698H109.82L108.26 36.1108H126.207L127.572 29.6698H123.474L126.207 24.0122H133.422ZM133.422 36.1108H131.863L133.422 30.4533V36.1108ZM152.149 0.999756L150.784 7.04495H146.298L148.444 26.7461C148.642 27.9186 148.642 28.6939 148.834 29.087C148.834 29.476 149.419 29.6698 150.395 29.6698H151.175L149.81 36.1108H133.422V30.4533L133.619 29.6698L137.714 29.2835V24.0122H133.422V18.7492H136.934V8.40861L136.74 8.21471L133.422 13.4832V0.999756H152.149Z" fill="white"/>
<path fill-rule="evenodd" clip-rule="evenodd" d="M201.15 0.999756L199.093 7.82864H195.069L189.726 29.5911H193.497L191.892 35.9447H173.136L174.853 29.5911H178.607L184.094 7.82864H175.3C174.516 10.5222 173.727 14.8732 172.352 19.0142C171.371 21.9121 170.584 24.3926 169.796 26.2574C168.224 30.3984 165.673 33.711 161.934 35.3671C159.576 36.6117 155.647 36.5223 151.315 36.5223L152.904 29.5911C154.081 29.7969 156.398 29.7954 157.38 29.5911C159.938 28.9652 161.147 27.089 162.523 22.1206C164.293 16.525 165.471 10.5222 166.259 7.82864H161.934L164.096 0.999756H201.15Z" fill="white"/>
<path fill-rule="evenodd" clip-rule="evenodd" d="M203.059 0.999756H237L233.685 15.124H226.273L228.029 7.46967H223.737L217.883 29.6409H222.956L221.198 36.1108H199.936L201.693 29.6409L207.154 29.4419L213.006 7.27334L208.715 7.46967L206.569 15.124H198.963L203.059 0.999756Z" fill="white"/>
<defs>
<linearGradient id="paint0_linear" x1="83.8491" y1="-118.06" x2="-11.9427" y2="-60.8613" gradientUnits="userSpaceOnUse">
<stop stop-color="#014282"/>
<stop offset="0.2257" stop-color="#0E578E"/>
<stop offset="0.5946" stop-color="#0E578E"/>
<stop offset="1" stop-color="#1566A5"/>
</linearGradient>
<linearGradient id="paint1_linear" x1="265.297" y1="7.98934" x2="258.97" y2="69.5924" gradientUnits="userSpaceOnUse">
<stop stop-color="#014282"/>
<stop offset="0.2257" stop-color="#0E578E"/>
<stop offset="0.5946" stop-color="#0E578E"/>
<stop offset="1" stop-color="#1566A5"/>
</linearGradient>
</defs>
</svg>
