<svg width="294" height="219" viewBox="0 0 294 219" fill="none" xmlns="http://www.w3.org/2000/svg">
<path opacity="0.2" d="M215.585 136.586C206.287 140.47 186.687 149.293 164.553 161.283L78.8855 162.908L71.9961 167.616L136.032 173.779C130.441 176.861 105.522 194.466 105.522 194.466L74.2367 193.959C73.9645 193.959 73.7133 194.001 73.4829 194.128C71.9543 194.825 72.1427 197.104 73.797 197.505L93.7742 202.508C93.146 203.395 92.9157 204.26 93.1879 205.147C93.5439 206.244 96.1196 206.413 100.119 205.907L111.218 212.218C112.286 212.83 113.584 212.894 114.694 212.366C116.201 211.669 117.102 210.086 116.934 208.44L116.327 202.466L170.416 182.603L198.518 216.799C199.733 218.276 201.89 218.572 203.46 217.474C204.612 216.651 205.219 215.258 204.989 213.843C203.544 204.788 198.309 171.943 197.974 169.03C197.911 168.46 197.827 167.996 197.702 167.616C205.198 163.478 211.397 159.848 214.768 157.631C222.37 152.629 234.348 144.903 232.463 140.006C230.264 134.264 222.328 133.779 215.585 136.586Z" fill="url(#paint0_linear)"/>
<path d="M4.35869 137.832L0.652216 139.753C-0.0806993 140.133 0.0240069 141.23 0.819744 141.441L47.0144 154.55L75.3049 137.642L10.3686 136.439C8.29548 136.396 6.22238 136.882 4.35869 137.832Z" fill="url(#paint1_linear)"/>
<path d="M47.6635 154.128L1.46889 141.019C0.798798 140.829 0.610352 140.006 1.02916 139.541L0.652216 139.731C-0.0806993 140.111 0.0240069 141.209 0.819744 141.42L47.0144 154.529L75.3049 137.621H75.2631L47.6635 154.128Z" fill="white"/>
<path d="M57.2949 148.006L57.5043 148.301L75.3246 137.663L10.3883 136.459C8.29421 136.417 6.24202 136.903 4.37832 137.852L0.483398 139.858L57.2949 148.006Z" fill="url(#paint2_linear)"/>
<path d="M83.2199 92.1526C83.2199 92.1526 77.566 97.6408 78.1942 98.2741C78.8224 98.9073 89.502 93.4191 89.502 93.4191L83.2199 92.1526Z" fill="url(#paint3_linear)"/>
<path d="M177.535 119.699C177.535 119.699 171.881 125.187 172.51 125.821C173.138 126.454 183.818 120.966 183.818 120.966L177.535 119.699Z" fill="url(#paint4_linear)"/>
<path d="M182.834 126.243C182.834 126.243 177.18 131.731 177.808 132.364C178.437 132.998 189.116 127.509 189.116 127.509L182.834 126.243Z" fill="url(#paint5_linear)"/>
<path d="M195.126 140.681C195.126 140.681 189.472 146.169 190.1 146.803C190.729 147.436 201.408 141.948 201.408 141.948L195.126 140.681Z" fill="url(#paint6_linear)"/>
<path d="M201.073 148.428C201.073 148.428 195.42 153.916 196.048 154.549C196.676 155.183 207.356 149.694 207.356 149.694L201.073 148.428Z" fill="url(#paint7_linear)"/>
<path d="M112.703 96.5854C112.703 96.5854 107.049 102.074 107.678 102.707C108.306 103.34 118.985 97.852 118.985 97.852L112.703 96.5854Z" fill="url(#paint8_linear)"/>
<path d="M63.5783 89.4719C63.5783 89.4719 57.9244 94.9601 58.5526 95.5934C59.1808 96.2267 69.8604 90.7384 69.8604 90.7384L63.5783 89.4719Z" fill="url(#paint9_linear)"/>
<path d="M8.35805 82.1259L12.7765 78.7063C14.7239 77.1865 17.1111 76.3422 19.5612 76.2999L183.232 72.7959L137.959 101.947L9.426 86.1365C7.47854 85.8832 6.78751 83.3502 8.35805 82.1259Z" fill="url(#paint10_linear)"/>
<path d="M138.231 101.208L9.69798 85.3977C8.3578 85.2289 7.62487 84.0046 7.79239 82.8436C7.08042 84.1312 7.81335 85.9254 9.44671 86.1365L137.979 101.947L183.253 72.7959L182.31 72.817L138.231 101.208Z" fill="white"/>
<path d="M160.554 87.4032L183.254 72.7749L19.583 76.2789C17.112 76.3422 14.7458 77.1655 12.7983 78.6853L9.65723 81.1128L160.554 87.4032Z" fill="url(#paint11_linear)"/>
<path d="M123.006 100.596L122.462 99.9417L130.796 92.8914L8.31543 82.5482L8.37825 81.7039L131.864 92.1315C132.032 92.1526 132.178 92.2582 132.22 92.427C132.262 92.5959 132.22 92.7648 132.094 92.8703L123.006 100.596Z" fill="#D1D3D4"/>
<path d="M57.7766 139.689C57.7766 139.689 94.1083 115.456 101.647 110.665C109.185 105.873 236.901 25.5971 249.193 23.3385C261.485 21.0798 261.213 25.3016 266.804 25.0271C272.395 24.7527 279.033 27.0536 278.531 33.4495C277.882 41.4707 264.375 53.8615 247.539 66.1467C230.054 78.8963 168.866 116.702 135.759 131.773C98.0242 148.956 42.532 165.716 40.2913 157.821C38.5952 151.932 47.1598 146.718 57.7766 139.689Z" fill="url(#paint12_linear)"/>
<path d="M57.7766 139.689C57.7766 139.689 94.1083 115.456 101.647 110.665C109.185 105.873 236.901 25.5971 249.193 23.3385C261.485 21.0798 261.213 25.3016 266.804 25.0271C272.395 24.7527 279.033 27.0536 278.531 33.4495C277.882 41.4707 264.375 53.8615 247.539 66.1467C230.054 78.8963 168.866 116.702 135.759 131.773C98.0242 148.956 42.532 165.716 40.2913 157.821C38.5952 151.932 47.1598 146.718 57.7766 139.689Z" fill="url(#paint13_radial)"/>
<path d="M162.816 49.0488C162.46 49.0488 162.125 48.8588 161.915 48.5422C161.622 48.0356 161.769 47.4023 162.271 47.0857C233.553 3.68644 240.044 2.50436 245.259 1.53337C254.598 -0.17643 261.676 0.224636 268.691 2.86321C278.344 3.0954 287.202 6.87384 293.003 13.2275C293.401 13.6497 293.359 14.3252 292.94 14.7262C292.521 15.1273 291.851 15.1062 291.453 14.6629C285.988 8.68918 277.611 5.16405 268.461 4.97407L268.105 4.91075C261.404 2.35661 254.64 1.97665 245.635 3.62312C240.589 4.5519 234.286 5.71287 163.339 48.901C163.193 48.9855 163.004 49.0488 162.816 49.0488Z" fill="url(#paint14_radial)"/>
<path d="M57.7766 139.689C57.7766 139.689 94.1083 115.456 101.647 110.665C109.185 105.873 236.901 25.5971 249.193 23.3385C261.485 21.0798 261.213 25.3016 266.804 25.0271C272.395 24.7527 279.033 27.0536 278.531 33.4495C277.882 41.4707 264.375 53.8615 247.539 66.1467C230.054 78.8963 168.866 116.702 135.759 131.773C98.0242 148.956 42.532 165.716 40.2913 157.821C38.5952 151.932 47.1598 146.718 57.7766 139.689Z" fill="url(#paint15_linear)"/>
<path d="M143.842 127.087C143.842 127.087 165.892 122.908 197.177 102.559C228.148 82.4216 228.316 76.8067 228.316 76.8067C228.316 76.8067 221.489 74.7591 193.471 94.0524C169.913 110.264 143.842 127.087 143.842 127.087Z" fill="url(#paint16_linear)"/>
<path d="M143.842 127.087C143.842 127.087 165.892 122.908 197.177 102.559C228.148 82.4216 228.316 76.8067 228.316 76.8067C228.316 76.8067 221.489 74.7591 193.471 94.0524C169.913 110.264 143.842 127.087 143.842 127.087Z" fill="url(#paint17_linear)"/>
<path d="M174.081 115.689C173.243 114.486 173.474 112.839 174.626 111.953C182.248 106.021 208.57 85.5668 211.962 83.7725C215.941 81.6617 218.244 81.6617 218.873 88.2053C219.417 93.968 228.715 159.89 230.955 175.827C231.248 177.959 230.411 180.091 228.736 181.421L226.642 183.088C224.924 184.461 222.412 184.102 221.134 182.307L174.081 115.689Z" fill="url(#paint18_linear)"/>
<path d="M228.903 180.45L226.809 182.117C225.092 183.489 222.579 183.131 221.302 181.336L174.228 114.739C173.892 114.274 173.746 113.725 173.725 113.198C173.432 114.021 173.516 114.95 174.06 115.71L221.134 182.307C222.412 184.102 224.903 184.46 226.642 183.088L228.736 181.421C230.055 180.386 230.851 178.846 230.997 177.22C230.683 178.466 229.95 179.605 228.903 180.45Z" fill="white"/>
<path d="M52.1026 141.357C53.3172 143.109 55.5788 143.742 57.5053 142.856C62.1122 140.787 70.4046 136.924 75.3465 133.99C82.4663 129.768 87.7852 124.808 87.7852 124.808C87.7852 124.808 81.6078 125.779 77.5453 125.293C70.5512 124.491 46.9932 112.438 41.3183 109.715C40.711 109.42 40.02 109.42 39.4127 109.715L34.7849 111.91C33.5285 112.501 33.1097 114.085 33.9054 115.245L52.1026 141.357Z" fill="white"/>
<path d="M52.8555 142.771C53.8397 144.185 55.6825 144.713 57.2531 143.995C61.6924 141.99 70.5293 137.916 75.7225 134.855C82.8422 130.633 88.1611 125.673 88.1611 125.673C88.1611 125.673 81.9837 126.644 77.9213 126.158C70.9272 125.356 47.3691 113.303 41.6942 110.58C41.087 110.285 40.396 110.285 39.7887 110.58L35.1608 112.776C33.9044 113.367 33.4856 114.95 34.2814 116.111L52.8555 142.771Z" fill="url(#paint19_linear)"/>
<path d="M78.885 144.185L80.979 167.447C81.1047 168.84 80.3718 170.17 79.1363 170.803L75.2832 172.809C74.4037 173.273 73.3358 173.21 72.4982 172.682L48.291 157.083C48.291 157.083 56.039 152.228 64.6455 148.428C73.2102 144.607 78.885 144.185 78.885 144.185Z" fill="url(#paint20_linear)"/>
<path d="M231.624 115.435C230.786 114.95 229.132 114.696 226.284 116.406C224.253 117.631 221.279 120.48 221.258 120.48C221.174 120.544 221.132 120.586 221.112 120.628C220.693 120.945 220.441 121.536 220.441 122.317C220.441 124.111 221.698 126.285 223.247 127.193C224.001 127.636 224.671 127.678 225.174 127.425C225.216 127.425 225.279 127.404 225.341 127.362C225.341 127.362 229.53 126.243 231.414 124.997C234.199 123.161 234.744 121.831 234.744 120.839C234.744 118.876 233.341 116.448 231.624 115.435Z" fill="url(#paint21_linear)"/>
<path d="M231.624 115.435C230.786 114.95 229.132 114.696 226.284 116.406C224.253 117.631 221.279 120.48 221.258 120.48C221.174 120.544 221.132 120.586 221.112 120.628C220.693 120.945 220.441 121.536 220.441 122.317C220.441 124.111 221.698 126.285 223.247 127.193C224.001 127.636 224.671 127.678 225.174 127.425C225.216 127.425 225.279 127.404 225.341 127.362C225.341 127.362 229.53 126.243 231.414 124.997C234.199 123.161 234.744 121.831 234.744 120.839C234.744 118.876 233.341 116.448 231.624 115.435Z" fill="url(#paint22_radial)"/>
<path d="M220.421 122.992L229.803 116.807L218.6 118.074L220.421 122.992Z" fill="url(#paint23_linear)"/>
<path d="M220.693 123.267L230.074 117.082L218.871 118.348L220.693 123.267Z" fill="url(#paint24_linear)"/>
<path d="M234.431 142.497C233.594 142.011 231.939 141.758 229.091 143.468C227.06 144.692 224.087 147.541 224.066 147.541C223.982 147.605 223.94 147.647 223.919 147.689C223.5 148.006 223.249 148.597 223.249 149.378C223.249 151.172 224.505 153.346 226.055 154.254C226.809 154.697 227.479 154.74 227.982 154.486C228.023 154.486 228.086 154.465 228.149 154.423C228.149 154.423 232.337 153.304 234.222 152.059C237.007 150.222 237.551 148.892 237.551 147.9C237.551 145.916 236.148 143.489 234.431 142.497Z" fill="url(#paint25_linear)"/>
<path d="M234.431 142.497C233.594 142.011 231.939 141.758 229.091 143.468C227.06 144.692 224.087 147.541 224.066 147.541C223.982 147.605 223.94 147.647 223.919 147.689C223.5 148.006 223.249 148.597 223.249 149.378C223.249 151.172 224.505 153.346 226.055 154.254C226.809 154.697 227.479 154.74 227.982 154.486C228.023 154.486 228.086 154.465 228.149 154.423C228.149 154.423 232.337 153.304 234.222 152.059C237.007 150.222 237.551 148.892 237.551 147.9C237.551 145.916 236.148 143.489 234.431 142.497Z" fill="url(#paint26_radial)"/>
<path d="M223.228 150.032L232.609 143.848L221.406 145.114L223.228 150.032Z" fill="url(#paint27_linear)"/>
<path d="M223.501 150.307L232.882 144.122L221.679 145.388L223.501 150.307Z" fill="url(#paint28_linear)"/>
<path d="M226.872 182.92L228.756 181.421C230.431 180.091 231.29 177.959 230.976 175.827C228.735 159.911 219.438 93.968 218.893 88.2053C218.265 81.6617 215.962 81.6617 211.983 83.7725C210.014 84.828 200.298 92.1526 191.021 99.2873L226.872 182.92Z" fill="url(#paint29_linear)"/>
<path d="M75.1373 172.893L79.137 170.824C80.3725 170.191 81.1054 168.861 80.9797 167.468L78.8857 144.206C78.8857 144.206 73.2318 144.628 64.6252 148.428C62.8243 149.23 61.0444 150.074 59.3691 150.919L75.1373 172.893Z" fill="url(#paint30_linear)"/>
<path d="M261.443 26.0193C261.234 27.8558 260.459 28.8268 260.459 28.8268L261.925 32.0564C261.925 32.0564 265.234 29.4178 265.129 26.146C265.108 25.6605 264.94 25.2594 264.71 24.9006C262.909 24.5628 261.674 23.7185 259.643 23.1697C260.522 23.8663 261.548 24.9428 261.443 26.0193Z" fill="url(#paint31_linear)"/>
<path d="M224.609 183.764L186.162 111.15L176.3 117.652L175.839 116.955L186.079 110.2C186.183 110.137 186.309 110.116 186.414 110.137C186.518 110.158 186.623 110.243 186.686 110.348L225.342 183.384L224.609 183.764Z" fill="white"/>
<path d="M79.5137 132.66C79.3043 132.639 74.2576 132.048 67.7242 128.882C57.6937 124.006 41.2554 112.734 41.0879 112.628L41.5695 111.931C41.737 112.037 58.1334 123.288 68.1011 128.122C74.488 131.225 79.5556 131.816 79.6184 131.837L79.5137 132.66Z" fill="white"/>
<path d="M57.0862 143.637L35.4966 115.119C35.4128 115.013 35.3919 114.887 35.4128 114.76C35.4338 114.633 35.5176 114.528 35.6432 114.486L38.3236 113.198C38.4911 113.114 38.6796 113.156 38.8052 113.282L63.9338 140.259L63.3265 140.829L38.4074 114.063L36.4598 114.992L57.7354 143.109L57.0862 143.637Z" fill="white"/>
<path d="M43.7472 158.455C43.7472 159.721 42.8468 160.249 41.7579 159.595C40.669 158.961 39.7686 157.399 39.7686 156.133C39.7686 154.866 40.669 154.36 41.7579 154.993C42.8678 155.647 43.7472 157.188 43.7472 158.455Z" fill="url(#paint32_linear)"/>
<path d="M43.0351 158.286C43.0351 159.214 42.386 159.594 41.5693 159.13C40.7736 158.666 40.1035 157.526 40.1035 156.597C40.1035 155.668 40.7526 155.288 41.5693 155.753C42.365 156.217 43.0351 157.336 43.0351 158.286Z" fill="#939598"/>
<path d="M251.218 28.5213C254.082 33.4719 224.983 55.9073 186.245 78.6089C147.507 101.311 113.779 115.702 110.915 110.751C108.052 105.8 137.151 83.3651 175.888 60.6634C214.626 37.9617 248.355 23.5706 251.218 28.5213Z" fill="url(#paint33_radial)"/>
<path opacity="0.5" d="M161.94 105.571C163.108 107.736 145.943 119.401 123.608 131.597C101.272 143.792 82.22 151.922 81.0514 149.756C79.8828 147.591 97.0482 135.926 119.383 123.731C141.719 111.535 160.771 103.406 161.94 105.571Z" fill="url(#paint34_radial)"/>
<path opacity="0.5" d="M272.489 41.7768C273.736 43.9039 257.067 56.2508 235.249 69.3792C213.432 82.4865 194.736 91.4033 193.467 89.2963C192.22 87.1693 208.889 74.8223 230.707 61.6939C252.525 48.5656 271.22 39.6699 272.489 41.7768Z" fill="url(#paint35_radial)"/>
<path opacity="0.5" d="M228.19 175.932C225.761 176.312 220.61 156.112 216.673 130.823C212.736 105.535 211.501 84.7011 213.909 84.3212C216.338 83.9412 221.489 104.142 225.426 129.43C229.363 154.718 230.598 175.553 228.19 175.932Z" fill="url(#paint36_radial)"/>
<path opacity="0.2" d="M78.885 144.185L59.3476 164.196L48.291 157.083C48.291 157.083 56.039 152.228 64.6455 148.428C73.2102 144.607 78.885 144.185 78.885 144.185Z" fill="black"/>
<path d="M80.9797 167.447L78.8856 144.185L80.9168 166.624C81.0425 168.017 80.3095 169.347 79.0741 169.98L75.221 171.985C74.3415 172.45 73.2736 172.386 72.436 171.859L48.9198 156.703C48.5429 156.935 48.3125 157.083 48.3125 157.083L72.5197 172.682C73.3573 173.231 74.4253 173.273 75.3048 172.809L79.1578 170.803C80.3724 170.17 81.1053 168.84 80.9797 167.447Z" fill="white"/>
<path opacity="0.2" d="M211.334 84.2579C207.983 86.031 182.08 106.148 174.583 111.995C173.452 112.881 173.222 114.507 174.039 115.668L175.295 117.441L213.993 83.1392C213.218 83.3502 212.318 83.7302 211.334 84.2579Z" fill="black"/>
<defs>
<linearGradient id="paint0_linear" x1="157.517" y1="235.468" x2="150.954" y2="148.349" gradientUnits="userSpaceOnUse">
<stop stop-color="white"/>
<stop offset="1"/>
</linearGradient>
<linearGradient id="paint1_linear" x1="32.8341" y1="150.07" x2="33.924" y2="146.286" gradientUnits="userSpaceOnUse">
<stop stop-color="white"/>
<stop offset="0.9999" stop-color="#1566A5"/>
<stop offset="1" stop-color="#014282"/>
</linearGradient>
<linearGradient id="paint2_linear" x1="93.2172" y1="113.536" x2="87.3091" y2="154.688" gradientUnits="userSpaceOnUse">
<stop stop-color="#014282"/>
<stop offset="0.2257" stop-color="#0E578E"/>
<stop offset="0.5946" stop-color="#0E578E"/>
<stop offset="1" stop-color="#1566A5"/>
</linearGradient>
<linearGradient id="paint3_linear" x1="78.1322" y1="95.2353" x2="89.4991" y2="95.2353" gradientUnits="userSpaceOnUse">
<stop stop-color="#B086CC"/>
<stop offset="1" stop-color="#8969C3"/>
</linearGradient>
<linearGradient id="paint4_linear" x1="186.533" y1="107.754" x2="177.851" y2="125.362" gradientUnits="userSpaceOnUse">
<stop stop-color="#014282"/>
<stop offset="0.2257" stop-color="#0E578E"/>
<stop offset="0.5946" stop-color="#0E578E"/>
<stop offset="1" stop-color="#1566A5"/>
</linearGradient>
<linearGradient id="paint5_linear" x1="191.831" y1="114.298" x2="183.15" y2="131.906" gradientUnits="userSpaceOnUse">
<stop stop-color="#014282"/>
<stop offset="0.2257" stop-color="#0E578E"/>
<stop offset="0.5946" stop-color="#0E578E"/>
<stop offset="1" stop-color="#1566A5"/>
</linearGradient>
<linearGradient id="paint6_linear" x1="204.123" y1="128.736" x2="195.442" y2="146.344" gradientUnits="userSpaceOnUse">
<stop stop-color="#014282"/>
<stop offset="0.2257" stop-color="#0E578E"/>
<stop offset="0.5946" stop-color="#0E578E"/>
<stop offset="1" stop-color="#1566A5"/>
</linearGradient>
<linearGradient id="paint7_linear" x1="210.071" y1="136.483" x2="201.39" y2="154.091" gradientUnits="userSpaceOnUse">
<stop stop-color="#014282"/>
<stop offset="0.2257" stop-color="#0E578E"/>
<stop offset="0.5946" stop-color="#0E578E"/>
<stop offset="1" stop-color="#1566A5"/>
</linearGradient>
<linearGradient id="paint8_linear" x1="107.619" y1="99.6757" x2="118.986" y2="99.6757" gradientUnits="userSpaceOnUse">
<stop stop-color="#B086CC"/>
<stop offset="1" stop-color="#8969C3"/>
</linearGradient>
<linearGradient id="paint9_linear" x1="58.4999" y1="92.5616" x2="69.8665" y2="92.5616" gradientUnits="userSpaceOnUse">
<stop stop-color="#B086CC"/>
<stop offset="1" stop-color="#8969C3"/>
</linearGradient>
<linearGradient id="paint10_linear" x1="91.8969" y1="95.4038" x2="92.9875" y2="89.4531" gradientUnits="userSpaceOnUse">
<stop offset="0.0101" stop-color="white"/>
<stop offset="1" stop-color="#014282"/>
</linearGradient>
<linearGradient id="paint11_linear" x1="224.756" y1="44.4664" x2="220.814" y2="96.0376" gradientUnits="userSpaceOnUse">
<stop stop-color="#014282"/>
<stop offset="0.2257" stop-color="#0E578E"/>
<stop offset="0.5946" stop-color="#0E578E"/>
<stop offset="1" stop-color="#1566A5"/>
</linearGradient>
<linearGradient id="paint12_linear" x1="150.584" y1="79.4409" x2="171.738" y2="114.697" gradientUnits="userSpaceOnUse">
<stop offset="0.0101" stop-color="#C1A1D5"/>
<stop offset="0.0488" stop-color="#C8ABDA"/>
<stop offset="0.1149" stop-color="#DAC6E6"/>
<stop offset="0.1998" stop-color="#F7F2F9"/>
<stop offset="0.2222" stop-color="white"/>
<stop offset="0.2513" stop-color="#F9F5FB"/>
<stop offset="0.3001" stop-color="#E9DBF2"/>
<stop offset="0.3586" stop-color="#D1B4E3"/>
<stop offset="0.4264" stop-color="#B395D6"/>
<stop offset="0.4949" stop-color="#9C7DCB"/>
<stop offset="0.5583" stop-color="#8E6EC5"/>
<stop offset="0.6111" stop-color="#8969C3"/>
<stop offset="0.8354" stop-color="#9471C5"/>
<stop offset="1" stop-color="#9F79C8"/>
</linearGradient>
<radialGradient id="paint13_radial" cx="0" cy="0" r="1" gradientUnits="userSpaceOnUse" gradientTransform="translate(112.482 7.01327) scale(163.893 165.209)">
<stop offset="0.2222" stop-color="white"/>
<stop offset="0.5731" stop-color="#FEFDFE"/>
<stop offset="0.7112" stop-color="#FAF6FC"/>
<stop offset="0.8118" stop-color="#F2EAF7"/>
<stop offset="0.8942" stop-color="#E7D9F1"/>
<stop offset="0.9646" stop-color="#DAC2E8"/>
<stop offset="1" stop-color="#D1B4E3"/>
</radialGradient>
<radialGradient id="paint14_radial" cx="0" cy="0" r="1" gradientUnits="userSpaceOnUse" gradientTransform="translate(227.536 24.7739) scale(67.222 67.7617)">
<stop stop-color="#1566A5"/>
<stop offset="1" stop-color="white" stop-opacity="0"/>
</radialGradient>
<linearGradient id="paint15_linear" x1="160.087" y1="80.2488" x2="176.206" y2="110.262" gradientUnits="userSpaceOnUse">
<stop stop-color="white"/>
<stop offset="0.536458" stop-color="#0E578E"/>
<stop offset="0.588542" stop-color="#1566A5"/>
<stop offset="1" stop-color="#014282"/>
</linearGradient>
<linearGradient id="paint16_linear" x1="171.914" y1="79.7899" x2="189.947" y2="107.527" gradientUnits="userSpaceOnUse">
<stop offset="0.1212" stop-color="#E8CFF7"/>
<stop offset="0.5808" stop-color="#B086CC"/>
<stop offset="0.8937" stop-color="#9471C5"/>
<stop offset="1" stop-color="#8969C3"/>
</linearGradient>
<linearGradient id="paint17_linear" x1="181.092" y1="92.2077" x2="188.502" y2="106.42" gradientUnits="userSpaceOnUse">
<stop stop-color="#0C5696"/>
<stop offset="0.494792" stop-color="#1566A5"/>
<stop offset="1" stop-color="#0D5797"/>
</linearGradient>
<linearGradient id="paint18_linear" x1="199.821" y1="149.529" x2="205.76" y2="145.244" gradientUnits="userSpaceOnUse">
<stop offset="0.0101" stop-color="white"/>
<stop offset="1" stop-color="#014282"/>
</linearGradient>
<linearGradient id="paint19_linear" x1="101.139" y1="44.6475" x2="49.4563" y2="135.73" gradientUnits="userSpaceOnUse">
<stop stop-color="#014282"/>
<stop offset="0.2257" stop-color="#0E578E"/>
<stop offset="0.5946" stop-color="#0E578E"/>
<stop offset="1" stop-color="#1566A5"/>
</linearGradient>
<linearGradient id="paint20_linear" x1="62.3651" y1="163.601" x2="66.1612" y2="158.759" gradientUnits="userSpaceOnUse">
<stop stop-color="white"/>
<stop offset="1" stop-color="#014282"/>
</linearGradient>
<linearGradient id="paint21_linear" x1="224.654" y1="116.714" x2="230.515" y2="126.139" gradientUnits="userSpaceOnUse">
<stop offset="0.0101" stop-color="#C1A1D5"/>
<stop offset="0.0488" stop-color="#C8ABDA"/>
<stop offset="0.1149" stop-color="#DAC6E6"/>
<stop offset="0.1998" stop-color="#F7F2F9"/>
<stop offset="0.2222" stop-color="white"/>
<stop offset="0.2513" stop-color="#F9F5FB"/>
<stop offset="0.3001" stop-color="#E9DBF2"/>
<stop offset="0.3586" stop-color="#D1B4E3"/>
<stop offset="0.4264" stop-color="#B395D6"/>
<stop offset="0.4949" stop-color="#9C7DCB"/>
<stop offset="0.5583" stop-color="#8E6EC5"/>
<stop offset="0.6111" stop-color="#8969C3"/>
<stop offset="0.755" stop-color="#9471C6"/>
<stop offset="1" stop-color="#B086CC"/>
</linearGradient>
<radialGradient id="paint22_radial" cx="0" cy="0" r="1" gradientUnits="userSpaceOnUse" gradientTransform="translate(223.037 114.728) scale(11.9459 12.0418)">
<stop offset="0.2222" stop-color="white"/>
<stop offset="0.8309" stop-color="#0E5998"/>
<stop offset="0.8954" stop-color="#115F9E"/>
<stop offset="0.9521" stop-color="#13629F"/>
<stop offset="1" stop-color="#125E99"/>
</radialGradient>
<linearGradient id="paint23_linear" x1="225.18" y1="112.013" x2="222.888" y2="124.485" gradientUnits="userSpaceOnUse">
<stop offset="0.0101" stop-color="white"/>
<stop offset="0.1479" stop-color="#F9F5FB"/>
<stop offset="0.3792" stop-color="#E9DBF2"/>
<stop offset="0.6566" stop-color="#D1B4E3"/>
<stop offset="0.6664" stop-color="#CFB2E2"/>
<stop offset="0.7902" stop-color="#BE9AD6"/>
<stop offset="0.9046" stop-color="#B48BCF"/>
<stop offset="1" stop-color="#B086CC"/>
</linearGradient>
<linearGradient id="paint24_linear" x1="232.753" y1="105.113" x2="223.972" y2="122.647" gradientUnits="userSpaceOnUse">
<stop stop-color="#014282"/>
<stop offset="0.2257" stop-color="#0E578E"/>
<stop offset="0.5946" stop-color="#0E578E"/>
<stop offset="1" stop-color="#1566A5"/>
</linearGradient>
<linearGradient id="paint25_linear" x1="227.461" y1="143.761" x2="233.321" y2="153.185" gradientUnits="userSpaceOnUse">
<stop offset="0.0101" stop-color="#C1A1D5"/>
<stop offset="0.0488" stop-color="#C8ABDA"/>
<stop offset="0.1149" stop-color="#DAC6E6"/>
<stop offset="0.1998" stop-color="#F7F2F9"/>
<stop offset="0.2222" stop-color="white"/>
<stop offset="0.2513" stop-color="#F9F5FB"/>
<stop offset="0.3001" stop-color="#E9DBF2"/>
<stop offset="0.3586" stop-color="#D1B4E3"/>
<stop offset="0.4264" stop-color="#B395D6"/>
<stop offset="0.4949" stop-color="#9C7DCB"/>
<stop offset="0.5583" stop-color="#8E6EC5"/>
<stop offset="0.6111" stop-color="#8969C3"/>
<stop offset="0.755" stop-color="#9471C6"/>
<stop offset="1" stop-color="#B086CC"/>
</linearGradient>
<radialGradient id="paint26_radial" cx="0" cy="0" r="1" gradientUnits="userSpaceOnUse" gradientTransform="translate(225.844 141.774) scale(11.9457 12.0416)">
<stop offset="0.2222" stop-color="white"/>
<stop offset="0.8954" stop-color="#D6C2E3"/>
<stop offset="0.9521" stop-color="#C4A7D7"/>
<stop offset="1" stop-color="#B089C9"/>
</radialGradient>
<linearGradient id="paint27_linear" x1="227.986" y1="139.059" x2="225.694" y2="151.531" gradientUnits="userSpaceOnUse">
<stop offset="0.0101" stop-color="white"/>
<stop offset="0.1479" stop-color="#F9F5FB"/>
<stop offset="0.3792" stop-color="#E9DBF2"/>
<stop offset="0.6566" stop-color="#D1B4E3"/>
<stop offset="0.6664" stop-color="#CFB2E2"/>
<stop offset="0.7902" stop-color="#BE9AD6"/>
<stop offset="0.9046" stop-color="#B48BCF"/>
<stop offset="1" stop-color="#B086CC"/>
</linearGradient>
<linearGradient id="paint28_linear" x1="228.617" y1="137.36" x2="226.326" y2="149.832" gradientUnits="userSpaceOnUse">
<stop stop-color="#E2D1EE"/>
<stop offset="0.0558" stop-color="#DFCCEC"/>
<stop offset="0.2889" stop-color="#D5BAE5"/>
<stop offset="0.4596" stop-color="#D1B4E3"/>
<stop offset="0.5411" stop-color="#C8A6DD"/>
<stop offset="0.7113" stop-color="#B88ED4"/>
<stop offset="0.8687" stop-color="#AE7FCE"/>
<stop offset="1" stop-color="#AB7ACC"/>
</linearGradient>
<linearGradient id="paint29_linear" x1="240.607" y1="-111.772" x2="109.489" y2="-54.1593" gradientUnits="userSpaceOnUse">
<stop stop-color="#014282"/>
<stop offset="0.2257" stop-color="#0E578E"/>
<stop offset="0.5946" stop-color="#0E578E"/>
<stop offset="1" stop-color="#1566A5"/>
</linearGradient>
<linearGradient id="paint30_linear" x1="86.1636" y1="88.6923" x2="36.1611" y2="130.243" gradientUnits="userSpaceOnUse">
<stop stop-color="#014282"/>
<stop offset="0.2257" stop-color="#0E578E"/>
<stop offset="0.5946" stop-color="#0E578E"/>
<stop offset="1" stop-color="#1566A5"/>
</linearGradient>
<linearGradient id="paint31_linear" x1="259.651" y1="27.6287" x2="265.138" y2="27.6287" gradientUnits="userSpaceOnUse">
<stop stop-color="#25054D"/>
<stop offset="1" stop-color="#45108A"/>
</linearGradient>
<linearGradient id="paint32_linear" x1="40.8378" y1="157.586" x2="47.1273" y2="155.718" gradientUnits="userSpaceOnUse">
<stop stop-color="#B086CC"/>
<stop offset="0.3939" stop-color="#AD84CB"/>
<stop offset="0.6532" stop-color="#A47DC9"/>
<stop offset="0.873" stop-color="#9672C6"/>
<stop offset="1" stop-color="#8969C3"/>
</linearGradient>
<radialGradient id="paint33_radial" cx="0" cy="0" r="1" gradientUnits="userSpaceOnUse" gradientTransform="translate(174.266 72.7943) rotate(150.791) scale(101.654 3.01167)">
<stop stop-color="white"/>
<stop offset="1" stop-color="white" stop-opacity="0"/>
</radialGradient>
<radialGradient id="paint34_radial" cx="0" cy="0" r="1" gradientUnits="userSpaceOnUse" gradientTransform="translate(121.495 127.664) rotate(46.0036) scale(1.95407 38.0673)">
<stop stop-color="white"/>
<stop offset="1" stop-color="white" stop-opacity="0"/>
</radialGradient>
<radialGradient id="paint35_radial" cx="0" cy="0" r="1" gradientUnits="userSpaceOnUse" gradientTransform="translate(232.978 65.5364) rotate(61.6503) scale(2.26447 39.3559)">
<stop stop-color="white"/>
<stop offset="1" stop-color="white" stop-opacity="0"/>
</radialGradient>
<radialGradient id="paint36_radial" cx="0" cy="0" r="1" gradientUnits="userSpaceOnUse" gradientTransform="translate(221.05 130.127) rotate(82.6578) scale(39.7536 2.57543)">
<stop stop-color="white"/>
<stop offset="1" stop-color="white" stop-opacity="0"/>
</radialGradient>
</defs>
</svg>
