<svg width="127" height="34" viewBox="0 0 127 34" fill="none" xmlns="http://www.w3.org/2000/svg">
<path d="M34.6124 27.3171L34.6082 27.333L34.605 27.3491C34.0288 30.291 30.9068 32.7199 27.7793 32.7199C26.2396 32.7199 25.0285 32.1297 24.271 31.2129C23.5157 30.2986 23.1753 29.0159 23.4582 27.5549C24.0439 25.2683 26.097 23.2279 28.4585 22.4509L29.7358 22.0307L28.4942 21.5143C26.745 20.7868 25.705 18.9745 26.1759 16.7244C26.7598 14.4377 28.8124 12.3944 31.1762 11.6179L32.4554 11.1976L31.2119 10.6811C29.4611 9.95385 28.4212 8.13662 28.8945 5.8842C29.5751 2.92025 32.6102 0.5 35.7255 0.5C37.266 0.5 38.5034 1.09224 39.2732 2.01102C40.0407 2.92714 40.378 4.20859 40.045 5.66539L40.0448 5.66536L40.0424 5.6773C39.5596 8.05383 37.5203 10.0858 35.0686 10.7634L33.6286 11.1614L35.0181 11.7103C36.8506 12.4343 37.8021 14.3375 37.3254 16.5039L37.3253 16.5039L37.3237 16.5122C36.8437 18.886 34.8026 20.9195 32.3492 21.5973L31.0046 21.9687L32.279 22.536C34.1638 23.375 35.1741 25.1984 34.6124 27.3171Z" fill="url(#paint0_linear)" stroke="url(#paint1_linear)"/>
<path fill-rule="evenodd" clip-rule="evenodd" d="M29.7902 0.660889H14.8417L5.16142 12.4484H10.4313L2.47349 22.4963H7.9585L0 32.3368H21.9393C20.2176 31.3117 19.2492 29.4688 19.7887 27.2135C20.326 24.7516 22.5842 22.5988 25.2721 21.7789C23.1207 20.9582 21.9393 18.9094 22.5842 16.4482C23.1208 13.9877 25.3805 11.8336 28.0685 11.0144C25.9178 10.1945 24.7341 8.14279 25.3805 5.68228C25.8094 3.53023 27.5312 1.58411 29.7902 0.660889Z" fill="url(#paint2_linear)"/>
<path fill-rule="evenodd" clip-rule="evenodd" d="M36.0615 33.4196H122.358L125.432 20.7493H39.2425L36.0615 33.4196Z" fill="url(#paint3_linear)"/>
<path fill-rule="evenodd" clip-rule="evenodd" d="M49.2311 22.6326L44.6304 26.9335L47.2445 31.5334H47.1392H44.6304L42.5399 27.2338L41.4961 31.5334H41.3916H39.1973L41.3916 22.6326H43.6912L42.7505 26.3323L46.5131 22.6326H49.2311ZM54.1435 22.4317V24.1332C53.6205 24.2332 53.3075 24.4327 52.9944 24.733C52.5746 25.2334 52.2629 25.7339 52.053 26.2322C51.9484 26.5346 51.8432 26.8335 51.7386 27.0329C51.7386 27.3325 51.7386 27.6335 51.7386 27.8343C51.7386 28.5349 51.8431 29.034 52.1583 29.4357C52.3668 29.8333 52.8891 30.0342 53.516 30.0342C53.7266 30.0342 53.9351 30.0342 54.1435 30.0342V31.7343C53.8305 31.7343 53.6205 31.835 53.3074 31.835H53.2021C51.9484 31.835 51.0071 31.5334 50.4848 31.0343C49.8587 30.5332 49.5442 29.9334 49.3357 29.3342C49.3357 29.1334 49.2311 28.9325 49.2311 28.7344V27.6335C49.2311 27.434 49.3357 27.3325 49.3357 27.1344C49.5442 25.9333 50.1703 24.8331 51.1124 23.8329C51.8431 23.0329 52.8898 22.5332 54.1435 22.4317ZM63.6566 25.3322L62.0877 31.5334H61.9838H59.7895L62.0877 22.6326H65.3294L65.8509 28.5349L69.3011 22.6326H72.6453L70.4502 31.5334H70.2403H68.1506L69.7188 25.3322L66.1647 31.5334H66.0609H64.2828L63.6566 25.3322ZM54.1435 31.7343V30.0342C54.5633 29.9334 54.9795 29.7339 55.1894 29.4357C55.6064 28.9325 55.9209 28.4328 56.1301 27.9351C56.234 27.6335 56.3386 27.3325 56.4425 27.0329C56.4425 26.7341 56.5485 26.5346 56.5485 26.3323C56.5485 25.6324 56.4424 25.1327 56.2339 24.8331C55.9209 24.5335 55.7117 24.334 55.398 24.2333C55.2941 24.1332 55.1894 24.1332 55.0848 24.1332C54.8742 24.1332 54.7711 24.0338 54.6658 24.0338C54.458 24.1332 54.2481 24.1332 54.1435 24.1332V22.4317C54.3534 22.3323 54.6657 22.3323 54.9795 22.3323H55.0848C56.2339 22.3323 57.1746 22.6326 57.906 23.2331C58.6382 23.8329 59.0566 24.733 58.9527 26.0313C58.9527 26.2322 58.9527 26.3323 58.9527 26.5345C58.9527 26.6339 58.9527 26.8334 58.8467 26.9335C58.6382 28.1332 58.1153 29.3342 57.1746 30.3337C56.4425 31.1344 55.3979 31.6356 54.1435 31.7343ZM82.786 30.634L82.5753 31.5334C82.6806 31.5334 82.786 31.5334 82.786 31.5334V30.634ZM82.786 22.6326V23.5347L80.904 31.5334H80.6948H78.6036L80.381 24.334H77.0361L75.2594 31.5334H75.1541H72.9598L75.1541 22.6326H82.786ZM82.786 23.5347L83.099 22.6326H82.786V23.5347ZM82.786 31.5334V30.634L82.9951 29.8333H83.5167C84.2481 29.8333 84.7704 29.5337 85.0842 28.9325C85.3987 28.334 85.7103 27.6335 85.9209 26.8335L86.9661 22.6326H93.9704L91.6693 31.5334H91.5654H89.3704L91.1471 24.334H88.7421L87.906 27.434C87.906 27.7329 87.8029 27.9351 87.6983 28.2346C87.5944 28.5349 87.4891 28.9325 87.2785 29.2348C86.9661 29.8333 86.5478 30.3338 85.9209 30.8349C85.3987 31.3353 84.5634 31.6355 83.5167 31.6355H83.4121C83.3075 31.6355 83.099 31.6356 82.9951 31.5334H82.786ZM103.692 30.9349L103.587 31.5334H103.692V30.9349ZM103.692 22.6326V23.1316L103.377 24.334H98.3619L97.8354 26.1329H102.332L101.913 27.8343H97.4191L97.0008 29.8333H102.124L101.809 31.5334H101.601H94.2835L96.4785 22.6326H103.692ZM103.692 23.1316L103.795 22.6326H103.692V23.1316ZM103.692 31.5334V30.9349L105.781 22.6326H108.081L107.14 26.3323L110.903 22.6326H113.622L109.023 26.9335L111.635 31.5334H111.531H109.023L106.932 27.2338L105.886 31.5334H105.676H103.692ZM114.144 24.334L114.562 22.6326H122.296L121.879 24.334H119.161L117.385 31.5334H117.28H115.085L116.862 24.334H114.144Z" fill="white"/>
<path fill-rule="evenodd" clip-rule="evenodd" d="M50.3824 5.17008L49.7488 7.57411H50.3824V11.0181C49.7488 11.0181 49.0104 11.0181 48.9055 11.0181L47.851 15.4054H48.1656C48.5895 15.4054 49.6446 15.3002 50.3824 15.3002V18.9567C49.223 19.165 47.851 19.165 46.2678 19.165H39.1973L40.0413 15.7182H41.0958C41.4126 15.7182 41.6245 15.6122 41.8349 15.5084C42.0454 15.4054 42.1518 15.0897 42.2574 14.6747L44.6846 4.75205C44.7917 4.33407 44.7917 4.02134 44.6846 3.91757C44.5783 3.81308 44.3671 3.70785 44.0525 3.70785H42.9965L43.8405 0.159424H50.3824V5.17008V5.17008ZM50.3824 7.57411H52.8103C54.392 7.46673 55.66 7.77947 56.6089 8.09295C57.6648 8.51309 58.2969 9.14076 58.7207 10.079C59.036 10.9143 59.036 11.9571 58.7207 13.3169C58.4025 14.5694 57.9816 15.5085 57.2431 16.3444C56.6088 17.0744 55.7648 17.7021 54.7103 18.1194C53.6543 18.5373 51.6495 18.8494 50.4872 18.9567H50.3824V15.2994C50.5928 15.2994 50.6991 15.2995 50.8047 15.1957C51.2278 15.1957 51.6495 14.986 51.9663 14.6747C52.388 14.3597 52.5998 13.9417 52.7047 13.3169C52.9144 12.5833 52.9145 11.7503 52.5999 11.4361C52.176 11.1226 51.6495 11.0181 50.9118 11.0181H50.3824V7.57411V7.57411ZM61.1479 0.159424L59.6697 6.31879H55.4488L55.8711 4.02137H50.5928L50.3824 5.17008V0.159424H61.1479V0.159424Z" fill="url(#paint4_linear)"/>
<path fill-rule="evenodd" clip-rule="evenodd" d="M71.4954 12.616V9.76715H69.7202L71.4954 6.91668V0.159424H67.2106L65.9561 3.64229H66.4791C67.1052 3.64229 68.4635 3.64229 68.5689 3.74867C68.6735 3.74867 68.6735 3.85429 68.6735 4.06487C68.5689 4.16979 68.4636 4.48895 68.1534 4.9101C67.3152 6.07299 61.1475 15.6785 61.1475 15.6785H58.8478L58.0117 19.165H67.6289L68.3604 15.6785H66.1645L67.6289 12.616H71.4954ZM71.4954 19.165H70.6601L71.4954 16.1025V19.165ZM81.5303 0.159424L80.7988 3.43167H78.3953L79.5451 14.0959C79.6512 14.7305 79.6511 15.1502 79.7543 15.363C79.7543 15.5735 80.0674 15.6785 80.5904 15.6785H81.0087L80.2772 19.165H71.4954V16.1025L71.6007 15.6785L73.7951 15.4694V12.616H71.4954V9.76715H73.3775V4.16982L73.2736 4.06487L71.4954 6.91668V0.159424H81.5303Z" fill="url(#paint5_linear)"/>
<path fill-rule="evenodd" clip-rule="evenodd" d="M107.789 0.159424L106.687 3.85588H104.53L101.667 15.6359H103.688L102.828 19.0751H92.7771L93.6969 15.6359H95.7087L98.6491 3.85588H93.9367C93.5165 5.31388 93.0934 7.6691 92.3569 9.91062C91.8312 11.4792 91.4095 12.8219 90.9871 13.8313C90.1445 16.0728 88.7777 17.866 86.774 18.7624C85.5104 19.4361 83.4054 19.3877 81.084 19.3877L81.9352 15.6359C82.5662 15.7472 83.8076 15.7465 84.3339 15.6359C85.7044 15.2971 86.3523 14.2815 87.0896 11.5921C88.0383 8.56319 88.6694 5.31388 89.0918 3.85588H86.774L87.9329 0.159424H107.789Z" fill="url(#paint6_linear)"/>
<path fill-rule="evenodd" clip-rule="evenodd" d="M108.812 0.159424H127L125.224 7.80485H121.252L122.193 3.66158H119.893L116.756 15.6628H119.474L118.532 19.165H107.139L108.08 15.6628L111.007 15.5551L114.143 3.5553L111.843 3.66158L110.693 7.80485H106.617L108.812 0.159424V0.159424Z" fill="url(#paint7_linear)"/>
<defs>
<linearGradient id="paint0_linear" x1="44.9317" y1="-64.2868" x2="-6.67075" y2="-33.7836" gradientUnits="userSpaceOnUse">
<stop stop-color="#014282"/>
<stop offset="0.2257" stop-color="#0E578E"/>
<stop offset="0.5946" stop-color="#0E578E"/>
<stop offset="1" stop-color="#1566A5"/>
</linearGradient>
<linearGradient id="paint1_linear" x1="44.9317" y1="-64.2868" x2="-6.67075" y2="-33.7836" gradientUnits="userSpaceOnUse">
<stop stop-color="#014282"/>
<stop offset="0.2257" stop-color="#0E578E"/>
<stop offset="0.5946" stop-color="#0E578E"/>
<stop offset="1" stop-color="#1566A5"/>
</linearGradient>
<linearGradient id="paint2_linear" x1="36.9123" y1="-60.638" x2="-19.2133" y2="-2.4507" gradientUnits="userSpaceOnUse">
<stop stop-color="#014282"/>
<stop offset="0.2257" stop-color="#0E578E"/>
<stop offset="0.5946" stop-color="#0E578E"/>
<stop offset="1" stop-color="#1566A5"/>
</linearGradient>
<linearGradient id="paint3_linear" x1="146.8" y1="-3.79587" x2="141.107" y2="40.4359" gradientUnits="userSpaceOnUse">
<stop offset="0.0354" stop-color="#B11F6A"/>
<stop offset="0.2257" stop-color="#D41773"/>
<stop offset="0.5946" stop-color="#D41773"/>
<stop offset="1" stop-color="#EE3395"/>
</linearGradient>
<linearGradient id="paint4_linear" x1="66.3958" y1="-36.6199" x2="33.658" y2="5.06126" gradientUnits="userSpaceOnUse">
<stop stop-color="#014282"/>
<stop offset="0.2257" stop-color="#0E578E"/>
<stop offset="0.5946" stop-color="#0E578E"/>
<stop offset="1" stop-color="#1566A5"/>
</linearGradient>
<linearGradient id="paint5_linear" x1="87.153" y1="-36.6199" x2="55.0174" y2="7.21696" gradientUnits="userSpaceOnUse">
<stop stop-color="#014282"/>
<stop offset="0.2257" stop-color="#0E578E"/>
<stop offset="0.5946" stop-color="#0E578E"/>
<stop offset="1" stop-color="#1566A5"/>
</linearGradient>
<linearGradient id="paint6_linear" x1="114.173" y1="-37.0525" x2="82.9537" y2="10.7421" gradientUnits="userSpaceOnUse">
<stop stop-color="#014282"/>
<stop offset="0.2257" stop-color="#0E578E"/>
<stop offset="0.5946" stop-color="#0E578E"/>
<stop offset="1" stop-color="#1566A5"/>
</linearGradient>
<linearGradient id="paint7_linear" x1="131.873" y1="-36.6199" x2="98.6424" y2="2.66654" gradientUnits="userSpaceOnUse">
<stop stop-color="#014282"/>
<stop offset="0.2257" stop-color="#0E578E"/>
<stop offset="0.5946" stop-color="#0E578E"/>
<stop offset="1" stop-color="#1566A5"/>
</linearGradient>
</defs>
</svg>
