<svg width="528" height="170" viewBox="0 0 528 170" fill="none" xmlns="http://www.w3.org/2000/svg">
<path d="M231.813 101.059H196.536V112.91H231.813V101.059Z" fill="white"/>
<path d="M267.09 101.059H231.814V112.91H267.09V101.059Z" fill="#161F26"/>
<path d="M302.366 101.059H267.089V112.91H302.366V101.059Z" fill="#D7DBDC"/>
<path d="M337.643 101.059H302.366V112.91H337.643V101.059Z" fill="#1566A5"/>
<path d="M231.813 89.2071H196.536V101.059H231.813V89.2071Z" fill="#014282"/>
<path d="M267.09 89.2071H231.814V101.059H267.09V89.2071Z" fill="#153955"/>
<path d="M302.366 89.2071H267.089V101.059H302.366V89.2071Z" fill="#1566A5"/>
<path d="M337.643 89.2071H302.366V101.059H337.643V89.2071Z" fill="white"/>
<path d="M372.921 89.2071H337.644V101.059H372.921V89.2071Z" fill="#154569"/>
<path d="M231.813 77.3555H196.536V89.207H231.813V77.3555Z" fill="white"/>
<path d="M267.09 77.3555H231.814V89.207H267.09V77.3555Z" fill="#697273"/>
<path d="M302.366 77.3555H267.089V89.207H302.366V77.3555Z" fill="#154569"/>
<path d="M337.643 77.3555H302.366V89.207H337.643V77.3555Z" fill="#1566A5"/>
<path d="M443.472 77.5164H408.195V89.3679H443.472V77.5164Z" fill="white"/>
<path d="M443.472 65.6667H408.195V77.5164H443.472V65.6667Z" fill="#014282"/>
<path d="M372.921 77.3555H337.644V89.207H372.921V77.3555Z" fill="#1C3446"/>
<path d="M231.813 65.5058H196.536V77.3555H231.813V65.5058Z" fill="#1C3446"/>
<path d="M72.4152 101.059H37.1387V112.91H72.4152V101.059Z" fill="#444D77"/>
<path d="M302.366 65.5058H267.089V77.3555H302.366V65.5058Z" fill="#014282"/>
<path d="M337.643 65.5058H302.366V77.3555H337.643V65.5058Z" fill="white"/>
<path d="M372.921 65.5058H337.644V77.3555H372.921V65.5058Z" fill="#154569"/>
<path d="M231.813 53.6543H196.536V65.5059H231.813V53.6543Z" fill="#0E578E"/>
<path d="M72.4152 89.2071H37.1387V101.059H72.4152V89.2071Z" fill="#AD3226"/>
<path d="M302.366 53.6543H267.089V65.5059H302.366V53.6543Z" fill="white"/>
<path d="M337.643 53.6543H302.366V65.5059H337.643V53.6543Z" fill="#1C3446"/>
<path d="M372.921 53.6543H337.644V65.5059H372.921V53.6543Z" fill="#1566A5"/>
<path d="M72.4152 77.3555H37.1387V89.207H72.4152V77.3555Z" fill="white"/>
<path d="M408.195 77.3555H372.92V89.207H408.195V77.3555Z" fill="#014282"/>
<path d="M408.195 65.5058H372.92V77.3555H408.195V65.5058Z" fill="#1566A5"/>
<path d="M408.195 53.6543H372.92V65.5059H408.195V53.6543Z" fill="#1C3446"/>
<path d="M337.643 41.8028H302.366V53.6543H337.643V41.8028Z" fill="#0E578E"/>
<path d="M372.921 41.8028H337.644V53.6543H372.921V41.8028Z" fill="white"/>
<path d="M107.692 101.059H72.415V112.91H107.692V101.059Z" fill="#161F26"/>
<path d="M107.692 89.2071H72.415V101.059H107.692V89.2071Z" fill="#154569"/>
<path d="M107.692 77.3555H72.415V89.207H107.692V77.3555Z" fill="#1C3446"/>
<path d="M107.692 65.5058H72.415V77.3555H107.692V65.5058Z" fill="#014282"/>
<path d="M107.692 53.6543H72.415V65.5059H107.692V53.6543Z" fill="white"/>
<path d="M72.4152 65.5058H37.1387V77.3555H72.4152V65.5058Z" fill="#154569"/>
<path d="M131.616 110.787H150.636V62.6795H131.616V110.787Z" fill="#161F26"/>
<path d="M150.635 32.062H138.322L132.819 54.2427H150.635V32.062Z" fill="#161F26"/>
<path d="M150.635 43.9263H155.949V24.6409H150.635V43.9263Z" fill="#161F26"/>
<path d="M182.51 40.0233H146.439V43.9263H187.554L186.125 41.8989C185.298 40.7225 183.949 40.0233 182.51 40.0233Z" fill="#161F26"/>
<path d="M147.664 72.8123H142.735V67.8844H147.664V72.8123Z" fill="white"/>
<path d="M121.298 110.787H119.006V63.9374H121.298V110.787Z" fill="#161F26"/>
<path d="M150.635 54.2424H132.819V62.6792H150.635V54.2424Z" fill="white"/>
<path d="M113.203 63.4507C112.975 63.4507 112.79 63.2657 112.79 63.0363V55.4745C112.79 55.2451 112.975 55.0601 113.203 55.0601C113.432 55.0601 113.617 55.2451 113.617 55.4745V63.0363C113.617 63.2657 113.432 63.4507 113.203 63.4507Z" fill="#161F26"/>
<path d="M119.321 63.4507C119.093 63.4507 118.907 63.2657 118.907 63.0363V55.4745C118.907 55.2451 119.093 55.0601 119.321 55.0601C119.55 55.0601 119.735 55.2451 119.735 55.4745V63.0363C119.735 63.2657 119.55 63.4507 119.321 63.4507Z" fill="#161F26"/>
<path d="M125.439 63.4507C125.21 63.4507 125.025 63.2657 125.025 63.0363V55.4745C125.025 55.2451 125.21 55.0601 125.439 55.0601C125.667 55.0601 125.853 55.2451 125.853 55.4745V63.0363C125.853 63.2657 125.667 63.4507 125.439 63.4507Z" fill="#161F26"/>
<path d="M131.557 63.4507C131.328 63.4507 131.143 63.2657 131.143 63.0363V55.4745C131.143 55.2451 131.328 55.0601 131.557 55.0601C131.785 55.0601 131.971 55.2451 131.971 55.4745V63.0363C131.971 63.2657 131.785 63.4507 131.557 63.4507Z" fill="#161F26"/>
<path d="M137.674 63.4507C137.446 63.4507 137.261 63.2657 137.261 63.0363V55.4745C137.261 55.2451 137.446 55.0601 137.674 55.0601C137.903 55.0601 138.088 55.2451 138.088 55.4745V63.0363C138.088 63.2657 137.903 63.4507 137.674 63.4507Z" fill="#161F26"/>
<path d="M143.792 63.4507C143.564 63.4507 143.378 63.2657 143.378 63.0363V55.4745C143.378 55.2451 143.564 55.0601 143.792 55.0601C144.02 55.0601 144.206 55.2451 144.206 55.4745V63.0363C144.206 63.2657 144.02 63.4507 143.792 63.4507Z" fill="#161F26"/>
<path d="M150.635 58.5266H113.203C112.975 58.5266 112.79 58.3398 112.79 58.1123C112.79 57.8829 112.975 57.6979 113.203 57.6979H150.635C150.863 57.6979 151.049 57.8829 151.049 58.1123C151.049 58.3398 150.863 58.5266 150.635 58.5266Z" fill="#161F26"/>
<path d="M150.635 61.105H113.203C112.975 61.105 112.79 60.92 112.79 60.6906C112.79 60.4631 112.975 60.2763 113.203 60.2763H150.635C150.863 60.2763 151.049 60.4631 151.049 60.6906C151.049 60.92 150.863 61.105 150.635 61.105Z" fill="#161F26"/>
<path d="M150.635 56.1606H111.758C111.38 56.1606 111.07 55.8517 111.07 55.4744C111.07 55.0952 111.38 54.7863 111.758 54.7863H150.635C151.014 54.7863 151.323 55.0952 151.323 55.4744C151.323 55.8517 151.014 56.1606 150.635 56.1606Z" fill="#161F26"/>
<path d="M111.758 65.1948H150.636V62.6781H111.758V65.1948Z" fill="#161F26"/>
<path d="M150.635 110.787H179.163V43.9259H150.635V110.787Z" fill="#161F26"/>
<path d="M157.409 51.2627H152.479V46.333H157.409V51.2627Z" fill="white"/>
<path d="M163.483 51.2627H158.554V46.333H163.483V51.2627Z" fill="white"/>
<path d="M174.833 56.5364H169.903V46.333H174.833V56.5364Z" fill="white"/>
<path d="M150.635 45.0305H179.163V43.925H150.635V45.0305Z" fill="white"/>
<path d="M131.616 66.2695H150.636V65.1965H131.616V66.2695Z" fill="white"/>
<path d="M153.293 25.053C153.065 25.053 152.879 24.8699 152.879 24.6405V1.40362C152.879 1.17425 153.065 0.991127 153.293 0.991127C153.521 0.991127 153.706 1.17425 153.706 1.40362V24.6405C153.706 24.8699 153.521 25.053 153.293 25.053Z" fill="#161F26"/>
<path d="M157.408 25.053H148.927C148.698 25.053 148.513 24.8699 148.513 24.6405C148.513 24.413 148.698 24.228 148.927 24.228H157.408C157.637 24.228 157.822 24.413 157.822 24.6405C157.822 24.8699 157.637 25.053 157.408 25.053Z" fill="#161F26"/>
<path d="M158.556 15.9136H153.293C153.065 15.9136 152.879 15.7305 152.879 15.5011C152.879 15.2736 153.065 15.0904 153.293 15.0904H158.556C158.784 15.0904 158.97 15.2736 158.97 15.5011C158.97 15.7305 158.784 15.9136 158.556 15.9136Z" fill="#161F26"/>
<path d="M153.056 3.93042H150.535C150.29 3.93042 150.091 3.73066 150.091 3.48649C150.091 3.24047 150.29 3.04067 150.535 3.04067H153.056C153.301 3.04067 153.499 3.24047 153.499 3.48649C153.499 3.73066 153.301 3.93042 153.056 3.93042Z" fill="#161F26"/>
<path d="M153.056 8.66577H149.651C149.405 8.66577 149.207 8.46597 149.207 8.21995C149.207 7.97393 149.405 7.77602 149.651 7.77602H153.056C153.301 7.77602 153.499 7.97393 153.499 8.21995C153.499 8.46597 153.301 8.66577 153.056 8.66577Z" fill="#161F26"/>
<path d="M153.056 13.7454H148.957C148.711 13.7454 148.513 13.5475 148.513 13.3014C148.513 13.0554 148.711 12.8575 148.957 12.8575H153.056C153.301 12.8575 153.499 13.0554 153.499 13.3014C153.499 13.5475 153.301 13.7454 153.056 13.7454Z" fill="#161F26"/>
<path d="M150.635 25.7153H155.923V25.0535H150.635V25.7153Z" fill="white"/>
<path d="M484.119 164.119L488.001 169.365H108.141L57.8032 150.847L22.8425 137.987C10.0133 133.278 1.48047 121.041 1.48047 107.383V107.146H309.641C327.121 107.146 344.424 103.472 360.393 96.3599L365.252 94.2271C381.221 87.1166 398.524 83.4429 416.004 83.4429H526.517L484.237 139.055C481.572 142.551 480.149 146.668 480.001 150.847C479.824 155.497 481.187 160.209 484.119 164.119Z" fill="#161F26"/>
<path d="M309.641 108.626H1.48127C0.662595 108.626 0 107.964 0 107.146C0 106.327 0.662595 105.664 1.48127 105.664H309.641C327.035 105.664 343.91 102.08 359.791 95.008L364.657 92.8715C380.913 85.6333 398.192 81.9615 416.007 81.9615H526.518C527.336 81.9615 528 82.6237 528 83.4432C528 84.2608 527.336 84.9248 526.518 84.9248H416.007C398.612 84.9248 381.738 88.5097 365.856 95.5814L360.989 97.7179C344.733 104.956 327.455 108.626 309.641 108.626Z" fill="white"/>
<path d="M488.003 169.365H108.142L57.8047 150.847H480.003C479.825 155.497 481.188 160.209 484.12 164.119L488.003 169.365Z" fill="#161F26"/>
<path d="M57.8038 150.847H480.002L480.505 147.144H47.7305L57.8038 150.847Z" fill="white"/>
<path d="M471.354 102.231C471.354 103.613 470.233 104.732 468.851 104.732C467.47 104.732 466.351 103.613 466.351 102.231C466.351 100.85 467.47 99.7304 468.851 99.7304C470.233 99.7304 471.354 100.85 471.354 102.231Z" fill="white"/>
</svg>
