<svg width="1072" height="771" viewBox="0 0 1072 771" fill="none" xmlns="http://www.w3.org/2000/svg">
<g opacity="0.05">
<path d="M678.456 662.548C662.699 679.138 647.791 689.838 636.007 698.29C497.535 797.648 333.682 768.686 298.859 761.613C247.434 751.169 148.034 730.98 76.1706 646.468C-32.5541 518.61 -15.6236 317.175 68.7101 184.201C84.1364 159.878 165.621 24.8842 331.239 3.23492C431.467 -9.86609 548.302 16.5554 632.912 87.4403C810.518 236.239 797.873 536.832 678.456 662.548Z" fill="#004080"/>
</g>
<g opacity="0.25">
<path d="M836.954 64.8883C822.431 56.5578 819.452 57.0962 820.88 54.1069C821.786 52.2068 824.101 53.1042 823.834 53.0981C829.027 55.5737 834.175 58.2721 839.138 61.1191C840.207 61.7318 840.582 63.0687 839.978 64.1147C839.402 65.1049 838.092 65.5258 836.954 64.8883ZM778.563 39.3397C778.849 38.1637 780.045 37.4582 781.237 37.7614C786.789 39.1602 792.363 40.7879 797.807 42.6075C800.606 43.5421 799.241 47.6826 796.446 46.748C791.114 44.9655 785.651 43.3688 780.21 42.001C779.002 41.6977 778.283 40.497 778.563 39.3397ZM872.993 90.7093C860.427 79.6246 857.428 79.5751 859.444 76.9571C860.179 75.9978 861.568 75.8307 862.554 76.5672C867.13 80.0145 871.629 83.6846 875.925 87.4723C878.132 89.4157 875.207 92.6589 872.993 90.7093ZM734.243 33.2867C734.278 32.0798 735.299 31.1453 736.526 31.201C742.227 31.4547 748.005 31.9313 753.694 32.6306C756.623 32.9958 756.136 37.3282 753.22 36.9692C747.649 36.2884 741.992 35.818 736.402 35.5705C735.178 35.521 734.208 34.4997 734.243 33.2867ZM691.042 37.9162C690.397 37.6191 689.901 37.0249 689.767 36.2884C689.548 35.0939 690.352 33.9737 691.558 33.7756C697.179 32.8782 702.909 32.185 708.591 31.7208C709.813 31.6156 710.903 32.513 711.024 33.7199C711.145 34.9206 710.254 35.979 709.034 36.078C703.469 36.536 697.853 37.2168 692.346 38.0956C691.888 38.1699 691.436 38.1019 691.042 37.9162ZM648.15 49.3536C647.644 49.1246 647.225 48.71 647.002 48.1592C646.544 47.0266 647.095 45.764 648.233 45.3307C653.54 43.3193 658.99 41.4935 664.431 39.8967C665.604 39.5563 666.847 40.2185 667.219 41.3759C667.585 42.5332 666.936 43.7525 665.766 44.0991C660.433 45.6587 655.091 47.4474 649.89 49.4217C649.308 49.6445 648.681 49.6012 648.15 49.3536ZM607.7 68.3604C607.019 67.3454 607.299 65.99 608.32 65.3401C613.083 62.3074 618.024 59.4171 623.014 56.7682C625.583 55.4066 627.745 59.2562 625.176 60.624C620.289 63.2296 615.443 66.0518 610.778 69.0288C609.757 69.6786 608.377 69.3816 607.7 68.3604ZM573.507 96.0876C572.635 95.2211 572.626 93.8348 573.489 92.993C577.503 89.0568 581.732 85.2319 586.058 81.6175C588.282 79.7607 591.187 83.1214 588.965 84.9781C584.726 88.5121 580.582 92.2627 576.648 96.1185C575.786 96.9665 574.378 96.9479 573.507 96.0876ZM545.258 127.175C548.353 122.497 551.679 117.892 555.144 113.473C556.932 111.195 560.454 113.918 558.677 116.184C555.282 120.51 552.023 125.028 548.992 129.608C547.396 132.022 543.667 129.577 545.258 127.175ZM524.824 166.433C526.895 161.185 529.213 155.924 531.637 150.979C532.936 148.318 536.894 150.391 535.643 152.935C533.231 157.867 530.995 162.942 528.969 168.079C528.527 169.2 527.241 169.738 526.096 169.28C524.94 168.822 524.387 167.541 524.824 166.433ZM512.915 209.088C513.853 203.549 515.027 197.979 516.405 192.539C516.7 191.375 517.905 190.676 519.096 190.991C522.336 191.858 520.062 193.56 517.297 209.881C517.095 211.069 515.952 211.855 514.741 211.632C513.515 211.409 512.716 210.258 512.915 209.088Z" fill="#004080"/>
<path d="M898.144 116.91C893.436 111.108 890.406 109.04 892.669 107.116C893.591 106.331 894.994 106.434 895.807 107.362C900.917 113.17 903.517 115.524 901.266 117.283C900.596 117.81 898.918 117.855 898.144 116.91Z" fill="#004080"/>
<path d="M946.224 280.022C945.361 279.624 944.811 278.709 944.929 277.742C945.289 274.882 945.588 271.99 945.83 269.14C945.925 267.936 946.997 267.058 948.22 267.177C949.443 267.3 950.354 268.367 950.254 269.572C950.012 272.483 949.704 275.432 949.344 278.349C949.192 279.543 948.082 280.378 946.868 280.212C946.641 280.179 946.423 280.113 946.224 280.022Z" fill="#004080"/>
<path d="M935.128 325.898C934.081 325.415 933.557 324.223 933.95 323.149C935.985 317.567 937.795 311.848 939.334 306.162C939.645 304.997 940.864 304.325 942.051 304.654C943.238 304.993 943.942 306.193 943.63 307.358C942.055 313.162 940.209 318.993 938.133 324.693C937.723 325.826 936.45 326.394 935.299 325.97C935.24 325.947 935.182 325.925 935.128 325.898ZM913.889 367.983C910.969 366.124 913.907 365.239 922.202 349.592C923.547 347.056 927.505 349.118 926.151 351.672C923.317 357.012 920.221 362.287 916.949 367.351C916.29 368.376 914.9 368.637 913.889 367.983ZM883.533 404.192C881.091 401.751 884.183 401.516 895.795 388.125C897.686 385.941 901.089 388.816 899.194 391C895.236 395.568 891.02 400.027 886.674 404.242C885.808 405.081 884.404 405.068 883.533 404.192ZM846.692 433.632C846.309 433.456 845.975 433.176 845.731 432.797C845.072 431.763 845.379 430.418 846.417 429.786C851.503 426.69 856.517 423.342 861.319 419.83C862.294 419.117 863.689 419.325 864.433 420.304C865.174 421.279 864.984 422.651 864.005 423.36C859.108 426.943 853.99 430.364 848.795 433.519C848.141 433.92 847.351 433.938 846.692 433.632ZM803.551 453.747C803.023 453.503 802.589 453.056 802.373 452.474C801.958 451.332 802.558 450.087 803.709 449.698C809.377 447.78 815.032 445.596 820.511 443.217C821.631 442.735 822.944 443.236 823.458 444.341C823.968 445.452 823.481 446.738 822.362 447.225C816.77 449.653 811.002 451.883 805.216 453.841C804.657 454.031 804.061 453.981 803.551 453.747ZM756.853 464.037C756.167 463.721 755.662 463.08 755.558 462.29C755.404 461.094 756.266 460.011 757.48 459.88C763.456 459.235 769.472 458.332 775.371 457.19C776.576 456.96 777.754 457.736 778.006 458.919C778.264 460.106 777.501 461.257 776.3 461.487C770.28 462.651 764.137 463.572 758.04 464.231C757.62 464.276 757.21 464.204 756.853 464.037ZM708.831 463.942C707.985 463.549 707.438 462.669 707.531 461.712C707.648 460.512 708.732 459.65 709.954 459.785C715.963 460.458 722.059 460.882 728.075 461.049C729.306 461.085 730.285 462.092 730.272 463.301C730.26 464.506 729.255 465.458 728.028 465.422C721.887 465.251 715.665 464.817 709.53 464.136C709.283 464.109 709.044 464.041 708.831 463.942ZM593.026 415.773C588.219 411.919 583.511 407.812 579.035 403.565C578.144 402.721 578.104 401.335 578.947 400.469C581.323 398.032 581.701 401.092 595.795 412.397C596.754 413.169 596.912 414.545 596.148 415.48C595.382 416.409 593.987 416.545 593.026 415.773ZM660.606 450.741C661.681 447.528 663.442 450.163 680.877 454.536C682.073 454.83 682.807 456.026 682.524 457.199C682.241 458.368 681.046 459.072 679.854 458.774C673.885 457.281 667.888 455.511 662.027 453.526C660.854 453.124 660.228 451.874 660.606 450.741ZM634.121 441.954C628.582 439.214 623.091 436.213 617.799 433.036C616.747 432.399 616.397 431.05 617.024 430.021C618.788 427.128 619.844 430.035 636.058 438.05C637.164 438.592 637.626 439.909 637.088 440.988C636.156 442.874 633.855 441.94 634.121 441.954Z" fill="#004080"/>
<path d="M558.545 381.307C553.701 375.268 551.216 372.808 553.549 371.154C555.976 369.435 557.053 372.446 562.011 378.629C562.779 379.583 562.625 380.957 561.667 381.698C560.71 382.438 559.312 382.261 558.545 381.307Z" fill="#004080"/>
<path d="M735.212 216.85C718.677 214.347 703.048 225.386 700.737 242.076C698.457 258.521 710.213 273.964 726.945 276.487C743.677 279.021 759.143 267.706 761.42 251.261C763.703 234.796 751.912 219.374 735.212 216.85ZM726.493 279.736L726.516 279.747L726.493 279.736ZM694.132 241.08C696.908 221.06 715.739 207.277 736.112 210.362C756.482 213.448 770.801 232.242 768.025 252.263C765.249 272.283 746.418 286.061 726.045 282.98C705.669 279.895 691.356 261.095 694.132 241.08Z" fill="#004080"/>
<path d="M692.504 331.484C687.48 329.173 682.656 326.444 678.128 323.347C676.764 322.411 676.303 320.679 676.955 319.264C677.031 319.092 677.126 318.93 677.234 318.774C678.268 317.287 680.344 316.936 681.861 317.972C687.073 321.531 692.701 324.572 698.59 327.012C742.952 345.364 793.415 325.954 812.879 283.713C813.375 282.638 813.852 281.541 814.31 280.432C832.731 235.658 810.431 184.394 765.013 165.597C719.656 146.832 667.688 167.524 649.293 212.17C638.358 238.755 644.937 257.574 643.681 260.304C642.323 263.256 637.868 262.582 637.35 259.368C634.529 241.807 636.749 223.237 644.648 206.088C678.742 132.112 787.237 135.136 819.757 210.901C829.764 234.215 830.024 259.819 820.488 282.989C819.995 284.186 819.477 285.373 818.939 286.548C809.057 308.002 791.549 324.622 769.268 333.59C745.775 343.047 719.79 342.858 696.1 333.06C694.892 332.559 693.69 332.03 692.504 331.484Z" fill="#004080"/>
<path d="M975.941 91.7577C975.533 98.0283 980.307 103.459 986.571 103.867C996.64 104.518 1002.56 92.5859 995.871 84.9724C989.222 77.4003 976.597 81.6242 975.941 91.7577ZM986.417 106.281L986.429 106.287L986.417 106.281ZM971.114 91.4442C971.687 82.4938 979.402 75.7144 988.364 76.2941C997.314 76.8738 1004.09 84.5879 1003.51 93.5443C1002.93 102.477 995.196 109.274 986.258 108.694C977.325 108.115 970.534 100.377 971.114 91.4442Z" fill="#004080"/>
<path d="M905.832 116.774C905.203 114.687 904.66 112.543 904.197 110.41C904.008 109.536 904.563 108.678 905.438 108.489C907.627 108.021 907.313 110.468 908.925 115.853C909.177 116.705 908.691 117.609 907.839 117.86C906.987 118.118 906.089 117.632 905.832 116.774Z" fill="#004080"/>
<path d="M995.162 9.42886C995.263 8.54875 996.061 7.90923 996.947 8.01054C1001.35 8.51074 1005.75 9.35286 1010 10.5242C1012.05 11.0814 1011.2 14.203 1009.14 13.6331C1005.05 12.5061 1000.83 11.6956 996.586 11.2144C995.681 11.1068 995.067 10.2963 995.162 9.42886ZM962.224 14.1776C961.825 13.994 961.496 13.6394 961.357 13.1835C961.097 12.3351 961.572 11.4297 962.427 11.1701C966.65 9.87207 971.019 8.90333 975.394 8.28915C976.28 8.16885 977.097 8.78304 977.218 9.66314C977.344 10.5432 976.73 11.36 975.844 11.4866C971.633 12.0755 967.435 13.0063 963.37 14.2536C962.978 14.3739 962.572 14.3359 962.224 14.1776ZM932.434 30.5703C932.225 30.4753 932.035 30.336 931.883 30.1524C931.3 29.4749 931.376 28.4619 932.054 27.8793C935.416 25.0048 939.031 22.3708 942.792 20.0534C943.552 19.5848 944.546 19.8254 945.008 20.5789C945.477 21.3387 945.243 22.3328 944.483 22.8013C940.867 25.0301 937.391 27.5627 934.156 30.3296C933.656 30.7539 932.985 30.8236 932.434 30.5703ZM911.588 57.4545C910.786 57.0683 910.456 56.0995 910.844 55.3018C912.777 51.3255 915.044 47.4758 917.578 43.8414C918.803 42.0939 921.445 43.9428 920.224 45.6903C917.785 49.1854 915.604 52.8894 913.747 56.7137C913.06 58.1193 911.394 57.4482 911.588 57.4545ZM902.382 88.9229C902.56 84.649 903.073 80.1915 903.963 75.734C904.383 73.6383 907.543 74.2841 907.127 76.3672C904.818 87.9162 906.621 90.7211 903.925 90.6071C903.028 90.5691 902.344 89.8093 902.382 88.9229Z" fill="#004080"/>
<path d="M1033.67 25.0717C1028.8 21.7189 1026.66 21.3679 1027.75 19.4878C1028.19 18.717 1029.17 18.4412 1029.95 18.8987C1031.84 19.9891 1033.7 21.1736 1035.51 22.4208C1036.24 22.9221 1036.42 23.9249 1035.92 24.6644C1035.42 25.3851 1034.42 25.5856 1033.67 25.0717Z" fill="#004080"/>
<path d="M1068.46 82.0526C1067.71 76.1603 1066.53 74.3463 1068.67 73.9077C1069.54 73.7239 1070.39 74.2871 1070.58 75.1585C1071.02 77.2866 1071.38 79.468 1071.66 81.6436C1071.77 82.5268 1071.15 83.333 1070.26 83.4457C1069.38 83.5583 1068.57 82.9359 1068.46 82.0526Z" fill="#004080"/>
<path d="M1066.03 114.783C1069.23 103.483 1067.63 100.723 1070.3 101.051C1071.19 101.155 1071.82 101.962 1071.71 102.843C1071.18 107.177 1070.31 111.487 1069.14 115.659C1068.9 116.517 1068 117.013 1067.15 116.771C1066.29 116.529 1065.79 115.641 1066.03 114.783ZM1051.17 146.176C1049.08 144.481 1052.2 143.652 1058.07 133.562C1059.14 131.718 1061.94 133.337 1060.86 135.181C1058.67 138.938 1056.18 142.557 1053.44 145.939C1052.88 146.631 1051.86 146.735 1051.17 146.176ZM1024.94 166.949C1023.68 164.58 1026.87 165.03 1036.22 158.04C1037.94 156.767 1039.87 159.348 1038.16 160.627C1034.67 163.232 1030.95 165.583 1027.12 167.617C1026.33 168.038 1025.36 167.738 1024.94 166.949ZM992.662 175.736C992.587 174.849 993.25 174.071 994.137 173.996C1005.85 173.033 1007.86 170.579 1008.49 173.189C1008.7 174.059 1008.17 174.929 1007.3 175.137C1003.08 176.157 998.741 176.854 994.402 177.211C993.509 177.286 992.737 176.623 992.662 175.736ZM959.512 171.149C960.353 168.602 962.261 171.224 973.756 173.143C975.854 173.489 975.329 176.675 973.22 176.324C968.927 175.603 964.652 174.549 960.538 173.183C959.702 172.912 959.224 172.002 959.512 171.149Z" fill="#004080"/>
<path d="M941.334 164.005C939.496 162.818 937.69 161.549 935.95 160.232C935.245 159.695 935.104 158.681 935.646 157.971C936.996 156.187 938.352 158.242 943.08 161.289C943.833 161.772 944.05 162.769 943.562 163.523C943.074 164.282 942.071 164.477 941.334 164.005Z" fill="#004080"/>
<path d="M967.639 126.947C966.312 126.186 966.038 124.688 966.671 123.592C967.341 122.435 968.833 122.045 969.977 122.709C972.12 123.951 974.428 124.974 976.815 125.747C977.338 125.808 989.631 130.716 1003.61 123.58C1031.33 109.375 1028.05 68.4587 998.375 58.8934C981.302 53.3831 963.03 61.6941 955.705 77.5978C948.32 93.6171 956.667 101.947 951.559 103.128C950.256 103.432 948.959 102.622 948.655 101.319C947.023 94.2991 947.339 86.944 949.568 80.0516C956.308 59.1186 978.861 47.5136 999.861 54.2842C1022.46 61.5724 1033.99 87.1205 1023.86 109.119C1015.69 126.855 995.13 136.737 975.329 130.35C972.65 129.486 970.056 128.341 967.639 126.947Z" fill="#004080"/>
<path d="M511.251 247.276C510.482 246.92 509.945 246.154 509.942 245.264C509.931 242.343 509.981 239.373 510.092 236.437C510.137 235.226 511.167 234.301 512.394 234.371C515.366 234.509 514.353 237.415 514.384 245.324C514.389 246.535 513.398 247.498 512.171 247.484C511.843 247.479 511.532 247.405 511.251 247.276Z" fill="#004080"/>
</g>
<path d="M631.688 524.362C631.33 523.678 630.316 523.787 630.109 524.531C629.345 527.286 627.493 532.093 623.607 533.798C623.41 533.885 623.225 533.971 623.046 534.06C622.869 533.531 622.867 532.917 623.289 532.272C624.498 530.424 622.318 527.904 622.318 527.904C622.318 527.904 622.171 530.124 620.484 531.522C619.03 532.726 618.33 535.407 619.325 537.607C621.427 545.777 624.578 556.583 612.308 564.476C600.04 572.37 582.763 549.578 582.763 549.578L591.338 576.764C591.338 576.764 604.576 586.533 619.969 572.796C635.366 559.062 625.162 539.076 625.162 539.076C625.162 539.076 636.905 534.339 631.688 524.362Z" fill="url(#paint0_linear)"/>
<path d="M580.616 509.635C580.616 509.635 584.17 493.691 565.905 497.912C565.905 497.912 557.04 496.465 556.589 504.832C556.589 504.832 550.874 508.596 555.058 515.837C555.058 515.837 538.076 509.278 530.677 524.164C523.277 539.05 530.078 547.24 537.208 549.375C537.208 549.375 531.431 552.275 534.167 558.823C536.9 565.374 550.748 569.991 558.929 562.025C558.929 562.025 582.206 565.101 581.74 548.661C581.74 548.661 592.565 541.67 581.195 528.081C569.825 514.495 580.616 509.635 580.616 509.635Z" fill="#161F26"/>
<path d="M581.617 546.592C577.947 545.493 567.261 543.461 557.097 552.841C555.373 554.431 554.67 556.849 555.284 559.113C558.013 569.163 565.216 598.857 558.901 611.704C558.901 611.704 570.03 623.973 582.172 614.085C582.172 614.085 587.62 590.342 594.754 579.919C599.683 572.722 586.9 552.896 583.667 548.104C583.177 547.381 582.454 546.844 581.617 546.592Z" fill="#D22538"/>
<path d="M571.485 526.623C571.485 526.623 566.057 541.975 565.65 548.75C565.65 548.75 571.648 551.477 577.301 546.873C577.301 546.873 577.894 531.538 578.751 528.793L571.485 526.623Z" fill="url(#paint1_linear)"/>
<path d="M579.025 505.69C579.025 505.69 593.222 525.556 584.734 531.327C576.249 537.099 566.143 522.98 566.143 522.98C566.143 522.98 562.849 512.106 566.293 508.416C569.739 504.728 579.025 505.69 579.025 505.69Z" fill="url(#paint2_linear)"/>
<path d="M572.453 500.943C572.453 500.943 578.975 502.488 579.889 505.44C580.803 508.389 570.64 511.125 567.792 511.259L565.498 523.167C565.498 523.167 558.715 511.965 561.404 505.497C564.089 499.026 572.453 500.943 572.453 500.943Z" fill="#161F26"/>
<path d="M568.895 521.519C568.895 521.519 563.368 515.12 561.171 519.292C558.973 523.463 566.145 526.595 568.627 524.547L568.895 521.519Z" fill="url(#paint3_linear)"/>
<path d="M596.347 663.937C596.305 665.014 598.199 673.565 599.227 678.125C599.643 679.96 599.354 681.88 598.419 683.514L562.748 743.546C562.318 744.273 562.003 745.059 561.813 745.882C561.158 748.699 559.802 755.604 560.512 761.884L562.356 765.717L554.375 763.905L552.639 742.475L554.898 741.097C556.851 739.906 558.371 738.128 559.241 736.014C562.466 728.179 570.475 708.237 572.54 698.517C574.888 687.471 587.152 678.499 587.152 678.499L584.999 673.405L596.347 663.937Z" fill="url(#paint4_linear)"/>
<path d="M545.51 756.53C545.51 756.53 549.819 749.698 550.325 747.038C550.833 744.379 552.244 739.682 554.9 741.097C554.9 741.097 556.153 754.016 555.722 759.064C555.29 764.112 561.429 763.95 561.429 763.95C561.429 763.95 563.12 764.188 564.359 765.426C565.215 766.281 564.602 767.765 563.395 767.844C561.386 767.973 558.196 768.006 554.846 767.36C553.675 767.133 552.808 766.137 552.736 764.947L551.851 750.076L546.416 756.941L545.51 756.53Z" fill="#161F26"/>
<path d="M575.038 673.499C575.038 673.499 573.782 727.199 573.611 734.825C573.44 742.453 574.816 759.354 582.461 764.406L579.134 766.868C579.134 766.868 574.976 763.335 570.915 756.535C566.352 748.894 564.972 747.499 564.972 747.499L566.486 744.398C567.148 743.04 567.344 741.505 567.037 740.025C565.389 732.028 559.876 705.431 558.373 699.702C556.597 692.942 556.471 683.912 562.647 676.353C568.82 668.796 575.038 673.499 575.038 673.499Z" fill="url(#paint5_linear)"/>
<path d="M567.979 769.289C567.741 769.292 567.541 769.121 567.507 768.887C567.251 767.097 566.193 759.919 565.328 758.06C564.333 755.933 561.09 746.974 565.328 746.214C565.328 746.214 575.863 761.606 577.886 763.681C579.909 765.757 582.462 764.407 582.462 764.407C582.462 764.407 584.43 764.988 585.917 766.887C586.623 767.791 585.967 769.118 584.818 769.128L577.723 769.196C575.661 769.216 573.806 767.965 573.04 766.051C571.792 762.931 569.646 758.355 567.145 756.324L568.444 768.768C568.474 769.045 568.257 769.286 567.979 769.289Z" fill="#161F26"/>
<path d="M583.854 608.296C583.854 608.296 582.256 613.392 584.712 621.786L599.951 675.005C600.19 675.841 599.738 676.716 598.918 677.01C594.361 678.646 579.376 683.27 558.921 681.86C557.891 681.789 557.025 681.06 556.803 680.051C555.455 673.985 550.856 653.285 549.91 649.031C546.302 632.824 542.272 615.348 559.995 604.78C568.163 608.278 575.781 610.339 583.854 608.296Z" fill="#161F26"/>
<path d="M555.642 554.846C555.642 554.846 538.303 569.255 534 588.946C529.698 608.636 559.338 610.73 559.338 610.73C559.338 610.73 563.361 606.236 568.138 607.839C572.915 609.442 568.507 599.997 562.918 600.022C557.33 600.047 559.92 604.466 552.011 600.885C544.309 597.396 539.549 586.605 559.201 570.249C560.341 569.302 561.249 568.092 561.797 566.717C565.614 557.105 562.585 550.805 555.642 554.846Z" fill="url(#paint6_linear)"/>
<path d="M385.147 687.92C383.62 690.18 377.55 741.344 376.601 760.241C376.536 761.519 377.558 762.584 378.838 762.584C379.941 762.584 380.88 761.781 381.051 760.69L392.152 689.548L385.147 687.92Z" fill="#161F26"/>
<path d="M433.946 687.92C435.474 690.18 441.543 741.344 442.493 760.241C442.557 761.519 441.535 762.584 440.256 762.584C439.152 762.584 438.213 761.781 438.043 760.69L426.941 689.548L433.946 687.92Z" fill="#161F26"/>
<path d="M375.966 683.927L375.96 684.484C375.924 688.498 379.382 691.79 383.712 691.865L435.026 692.737C439.293 692.81 442.851 689.726 443.058 685.774L443.085 685.264C443.301 681.143 439.801 677.671 435.35 677.59L384.014 676.671C379.62 676.592 376.003 679.853 375.966 683.927Z" fill="#004080"/>
<path d="M465.139 755.347C456.378 755.347 452.501 754.595 450.768 753.91C451.105 755.35 452.386 756.484 454.005 756.484H485.003C486.047 756.484 486.707 755.486 486.457 754.581C482.923 754.866 475.419 755.347 465.139 755.347Z" fill="#161F26"/>
<path d="M486.457 754.581C486.406 754.399 486.332 754.219 486.202 754.054C483.841 751.039 479.098 746.304 472.646 746.395C463.193 746.528 459.898 747.554 452.553 746.454L450.819 752.197C450.644 752.783 450.64 753.367 450.767 753.91C452.501 754.595 456.378 755.347 465.139 755.347C475.419 755.347 482.923 754.865 486.457 754.581Z" fill="#161F26"/>
<path d="M454.68 740.264L452.553 747.498C452.553 747.498 457.264 749.642 461.41 747.92L462.223 741.653L454.68 740.264Z" fill="url(#paint7_linear)"/>
<path d="M518.926 750.792C512.095 756.28 508.605 758.125 506.826 758.679C507.985 759.584 509.692 759.663 510.955 758.648L535.119 739.232C535.932 738.579 535.823 737.391 535.064 736.845C532.487 739.278 526.938 744.353 518.926 750.792Z" fill="#161F26"/>
<path d="M535.065 736.845C534.913 736.736 534.744 736.642 534.54 736.595C530.819 735.735 524.17 735.034 519.197 739.145C511.912 745.168 509.982 748.028 503.569 751.774L505.799 757.316C506.027 757.881 506.389 758.337 506.827 758.679C508.606 758.125 512.096 756.28 518.927 750.792C526.939 744.353 532.488 739.278 535.065 736.845Z" fill="#161F26"/>
<path d="M409.178 657.842C409.178 657.842 461.638 662.126 472.4 667.192C483.16 672.257 463.617 743.26 463.617 743.26C463.617 743.26 460.688 744.671 454.168 742.644C454.168 742.644 460.853 690.246 455.879 678.885L399.079 669.594L409.178 657.842Z" fill="black"/>
<path d="M498.357 741.801C498.844 742.245 503.569 751.774 503.569 751.774C503.569 751.774 508.829 750.637 509.902 747.308L505.169 738.707L498.357 741.801Z" fill="url(#paint8_linear)"/>
<path d="M377.582 657.404C377.582 657.404 375.873 661.516 375.943 666.984C376.039 674.544 382.117 680.677 389.668 681.055L451.682 683.882C452.992 683.943 454.1 684.849 454.429 686.119C455.885 691.756 463.009 709.065 497.829 743.605C498.755 744.524 500.198 744.681 501.301 743.984L506.258 740.853C506.778 740.524 506.945 739.841 506.633 739.311L470.524 677.651C468.628 674.521 465.58 672.26 462.033 671.353L409.178 657.842L377.582 657.404Z" fill="#161F26"/>
<path d="M438.698 561.084C438.698 561.084 432.054 572.83 425.281 578.522L439.281 586.332C439.281 586.332 442.436 573.898 449.644 570.256L438.698 561.084Z" fill="url(#paint9_linear)"/>
<path d="M376.456 657.842C376.456 657.842 393.198 661.923 409.178 657.842C409.178 657.842 431.539 627.782 440.19 619.601C440.19 619.601 453.99 641.375 484.702 644.461L486.415 640.634C486.415 640.634 461.965 629.361 454.437 612.042C446.909 594.723 443.886 587.336 437.038 582.819C432.773 580.003 430.219 578.082 428.899 577.031C428.177 576.456 427.179 576.392 426.391 576.872C419.123 581.302 384.925 604.724 376.456 657.842Z" fill="#D22538"/>
<path d="M439.281 619.179C438.959 619.179 438.64 619.032 438.429 618.758C433.097 611.806 430.128 604.143 430.004 603.821C429.792 603.267 430.068 602.648 430.622 602.433C431.177 602.221 431.797 602.497 432.009 603.051C432.039 603.128 434.998 610.754 440.133 617.451C440.494 617.921 440.405 618.595 439.934 618.956C439.74 619.107 439.509 619.179 439.281 619.179Z" fill="white"/>
<path d="M482.854 638.635L486.312 637.713L496.808 635.282C498.072 634.991 499.401 635.215 500.499 635.906L509.524 641.583L484.6 641.541L482.854 638.635Z" fill="url(#paint10_linear)"/>
<path d="M449.245 543.472C449.245 543.472 455.701 554.203 456.821 560.135C457.942 566.068 459.74 569.775 452.989 571.889C446.238 574.002 439.964 571.328 436.026 565.79C436.026 565.79 429.877 557.268 430.49 553.367C431.104 549.466 449.245 543.472 449.245 543.472Z" fill="url(#paint11_linear)"/>
<path d="M437.824 561.199L438.698 561.085C438.698 561.085 434.126 554.176 437.117 552.461C440.109 550.748 452.298 546.544 454.416 541.743C456.457 537.115 453.405 531.885 449.723 530.794C449.49 530.725 449.245 530.864 449.16 531.092L448.944 531.675C448.796 532.073 448.238 532.09 448.067 531.7C447.905 531.331 447.375 531.314 447.209 531.683C446.556 533.119 444.601 535.576 438.739 537.476C430.42 540.173 425.239 544.365 425.877 550.277C425.917 550.65 425.545 550.909 425.201 550.756C424.521 550.457 423.49 550.409 422.293 551.72C420.211 553.997 421.842 558.976 427.527 562.5C427.797 562.666 427.845 563.047 427.604 563.254C426.753 563.982 425.557 565.608 429.403 567.054C433.338 568.536 435.485 568.034 436.279 567.717C436.492 567.63 436.614 567.408 436.57 567.184L435.56 562.004C435.507 561.736 435.692 561.481 435.962 561.444L437.824 561.199Z" fill="#161F26"/>
<path d="M438.183 562.263C438.183 562.263 435.334 555.241 432.342 557.707C429.35 560.177 435.108 565.634 437.765 565.561L438.183 562.263Z" fill="url(#paint12_linear)"/>
<path d="M483.37 644.987C483.412 644.99 483.451 644.99 483.493 644.99L537.094 644.937C538.418 644.935 539.491 643.863 539.49 642.539C539.488 641.217 538.408 640.123 537.088 640.148L483.487 640.201C482.163 640.202 481.089 641.276 481.091 642.598C481.092 643.88 482.103 644.924 483.37 644.987Z" fill="#004080"/>
<path d="M557.848 592.498C557.831 592.534 557.812 592.571 557.795 592.609L535.242 641.233C534.685 642.435 535.204 643.86 536.405 644.415C537.605 644.974 539.051 644.456 539.587 643.246L562.139 594.623C562.696 593.421 562.177 591.996 560.977 591.439C559.814 590.9 558.441 591.375 557.848 592.498Z" fill="#004080"/>
<path d="M694.24 747.686C694.24 747.686 694.831 750.967 695.065 754.863C695.163 756.523 693.934 757.965 692.279 758.126C686.515 758.685 673.395 759.716 665.019 758.508C663.847 758.339 663.378 756.898 664.246 756.089C667.703 752.872 676.043 746.612 689.772 745.243L694.24 747.686Z" fill="#161F26"/>
<path d="M697.106 740.29L694.192 747.432C693.793 748.41 692.8 749.019 691.749 748.908C691.035 748.834 690.191 748.697 689.369 748.447C687.725 747.949 686.797 746.205 687.289 744.559L689.489 737.203L697.106 740.29Z" fill="url(#paint13_linear)"/>
<path d="M746.924 753.374C746.924 753.374 741.089 758.257 738.814 764.519C738.192 766.242 739.512 768.057 741.346 768.057H753.351C755.108 768.057 756.456 766.475 756.151 764.744C755.388 760.42 753.18 753.393 746.924 753.374Z" fill="#161F26"/>
<path d="M754.153 747.021C754.153 747.021 752.974 752.237 752.068 755.686C751.903 756.311 751.236 756.654 750.627 756.437C748.81 755.787 747.331 755.499 746.256 755.644C745.761 755.71 745.325 755.297 745.317 754.795L745.207 746.13L754.153 747.021Z" fill="url(#paint14_linear)"/>
<path d="M723.12 629.631L687.627 737.91C687.627 737.91 694.435 742.367 697.681 742.181L739.837 655.163C739.837 655.163 747.213 708.781 743.639 747.274L755.712 748.196C755.712 748.196 775.347 649.825 760.475 616.133L723.12 629.631Z" fill="#161F26"/>
<path d="M739.61 654.228C739.623 654.228 739.636 654.226 739.652 654.225C739.839 654.2 739.973 654.029 739.949 653.841L738.572 642.908C738.548 642.72 738.38 642.589 738.188 642.611C737.999 642.634 737.866 642.806 737.89 642.994L739.268 653.926C739.29 654.1 739.439 654.228 739.61 654.228Z" fill="black"/>
<path d="M716.466 534.352C716.466 534.352 745.223 536.906 741.154 557.395C741.154 557.395 757.05 587.308 764.481 622.545C764.723 623.691 763.957 624.81 762.802 625.008L714.913 633.208C713.592 633.433 712.318 632.61 711.983 631.311L700.539 587.091L696.081 607.651L681.915 603.96L693.841 543.545C693.841 543.545 695.506 534.73 716.466 534.352Z" fill="#004080"/>
<path d="M700.297 585.114C700.321 585.114 700.348 585.111 700.374 585.106C700.566 585.063 700.687 584.873 700.646 584.679L696.655 566.35C696.612 566.159 696.425 566.038 696.231 566.079C696.039 566.12 695.915 566.312 695.959 566.503L699.95 584.832C699.986 585 700.134 585.114 700.297 585.114Z" fill="#11569A"/>
<path d="M703.186 639.654C704.694 638.826 706.46 638.596 708.131 639.012L711.464 639.841C712.171 640.018 712.873 639.53 712.954 638.804L716.401 608.115C720.714 610.164 726.933 609.918 728.985 609.769L721.05 645.948H693.278L703.186 639.654Z" fill="url(#paint15_linear)"/>
<path d="M629.402 573.088L630.242 570.3C630.726 568.693 631.911 567.396 633.467 566.77L648.648 560.665C648.648 560.665 648.876 558.717 645.44 557.396C642.004 556.072 642.807 552.224 642.807 552.224C642.807 552.224 647.502 554.365 654.375 557.761C658.307 559.703 660.511 563.134 661.681 565.715L696.08 607.652L692.042 610.426C686.731 614.076 679.426 612.283 676.41 606.59L657.775 570.856C648.418 573.666 638.951 574.204 629.402 573.088Z" fill="url(#paint16_linear)"/>
<path d="M707.151 514.791L715.994 539.544C715.994 539.544 708.162 545.665 702.446 543.596L697.99 529.405C697.99 529.405 701.395 512.067 707.151 514.791Z" fill="url(#paint17_linear)"/>
<path d="M680.752 505.9C680.752 506.282 689.273 530.019 689.273 530.019L702.722 524.866L697.989 501.168C697.989 501.168 680.752 499.515 680.752 505.9Z" fill="url(#paint18_linear)"/>
<path d="M695.633 506.941L699.1 519.221C699.145 519.377 699.169 519.537 699.169 519.701C699.169 520.7 698.922 524.147 695.411 523.68C692.226 523.254 689.314 522.912 687.461 523.786C686.629 524.177 686.231 525.134 686.543 525.998C687.317 528.156 689.151 532.983 691.387 536.935C691.84 537.734 692.835 538.046 693.671 537.665C696.2 536.516 701.458 533.943 705.207 530.882C705.714 530.467 705.956 529.813 705.835 529.17C705.246 526.03 703.489 516.474 703.413 513.738C703.341 511.167 706.224 509.205 707.493 508.467C707.909 508.227 708.206 507.829 708.319 507.361C708.715 505.706 709.054 501.962 704.281 501.138C703.282 500.965 702.628 500.01 702.834 499.015C703.237 497.036 703.106 494.126 699.35 493.055C695.532 491.963 693.129 494.262 691.907 496.024C691.412 496.736 690.489 496.969 689.697 496.615C689.247 496.415 688.703 496.402 688.116 496.897C687.329 497.563 686.127 497.36 685.548 496.506C684.435 494.868 682.413 493.233 678.986 494.339C672.911 496.306 673.203 503.311 675.428 507.121C677.657 510.929 684.125 508.423 687.186 505.899C689.512 503.981 693.055 505.129 694.621 505.787C695.116 505.998 695.487 506.423 695.633 506.941Z" fill="#161F26"/>
<path d="M704.632 518.222C704.632 518.222 701.036 511.417 703.413 509.283C705.791 507.146 709.818 507.496 709.712 512.816C709.578 519.433 704.632 518.222 704.632 518.222Z" fill="url(#paint19_linear)"/>
<path d="M726.193 610.229C728.155 610.229 729.557 610.081 729.707 610.064L729.963 610.035L740.433 561.217C740.475 561.025 740.353 560.835 740.16 560.795C739.965 560.753 739.778 560.876 739.736 561.068L729.373 609.379C727.816 609.517 719.496 610.069 715.104 606.957L724.171 564.544L722.278 560.977C722.187 560.801 721.971 560.737 721.798 560.827C721.621 560.921 721.557 561.137 721.648 561.311L723.421 564.648L714.311 607.257L714.489 607.394C717.664 609.778 722.778 610.229 726.193 610.229Z" fill="#11569A"/>
<path d="M435.537 762.324C435.308 762.324 435.075 762.265 434.852 762.143C433.971 761.657 433.564 760.35 433.943 759.224L470.362 650.891C470.741 649.765 471.761 649.245 472.643 649.729C473.525 650.213 473.931 651.52 473.552 652.648L437.133 760.979C436.85 761.819 436.21 762.324 435.537 762.324Z" fill="#505050"/>
<path d="M476.565 762.324C475.893 762.324 475.252 761.821 474.969 760.979L438.55 652.648C438.171 651.52 438.578 650.213 439.459 649.729C440.339 649.243 441.361 649.763 441.74 650.891L478.159 759.224C478.539 760.35 478.132 761.657 477.25 762.143C477.027 762.265 476.795 762.324 476.565 762.324Z" fill="#505050"/>
<path d="M682.705 762.324C682.475 762.324 682.243 762.265 682.021 762.143C681.138 761.657 680.732 760.35 681.11 759.224L717.529 650.891C717.91 649.765 718.928 649.245 719.81 649.729C720.693 650.213 721.099 651.52 720.719 652.648L684.302 760.979C684.019 761.82 683.378 762.324 682.705 762.324Z" fill="#505050"/>
<path d="M723.734 762.323C723.061 762.323 722.421 761.821 722.137 760.979L685.719 652.647C685.34 651.52 685.747 650.213 686.627 649.729C687.507 649.243 688.531 649.763 688.91 650.891L725.328 759.224C725.707 760.35 725.3 761.657 724.42 762.143C724.196 762.265 723.963 762.323 723.734 762.323Z" fill="#505050"/>
<path d="M736.501 644.625C736.671 644.013 736.441 643.378 735.869 642.897C735.3 642.414 734.45 642.136 733.553 642.136H430.029C428.85 642.136 427.754 642.555 427.118 643.246C426.484 643.939 426.399 644.808 426.893 645.553L430.182 650.516C430.935 651.652 432.567 652.379 434.363 652.379H731.469C733.142 652.379 734.577 651.553 734.895 650.411L736.501 644.625Z" fill="#505050"/>
<path d="M645.412 518.761C645.412 518.761 581.059 486.966 602.106 463.556C623.151 440.146 662.385 449.503 664.372 474.142C666.362 498.783 618.607 493.003 645.412 518.761Z" fill="#004080"/>
<path d="M606.897 469.605C606.897 469.963 607.189 470.254 607.547 470.254H635.945C636.306 470.254 636.595 469.963 636.595 469.605C636.595 469.247 636.306 468.955 635.945 468.955H607.547C607.189 468.955 606.897 469.247 606.897 469.605Z" fill="white"/>
<path d="M644.379 470.254H652.808C653.166 470.254 653.454 469.963 653.454 469.605C653.454 469.247 653.166 468.955 652.808 468.955H644.379C644.021 468.955 643.729 469.247 643.729 469.605C643.729 469.963 644.021 470.254 644.379 470.254Z" fill="white"/>
<path d="M605.941 475.354C605.941 475.714 606.233 476.003 606.59 476.003H617.254C617.613 476.003 617.902 475.714 617.902 475.354C617.902 474.997 617.613 474.706 617.254 474.706H606.59C606.233 474.706 605.941 474.997 605.941 475.354Z" fill="white"/>
<path d="M632.252 475.354C632.252 475.714 632.543 476.003 632.9 476.003H651.851C652.208 476.003 652.499 475.714 652.499 475.354C652.499 474.997 652.208 474.706 651.851 474.706H632.9C632.543 474.706 632.252 474.997 632.252 475.354Z" fill="white"/>
<path d="M605.634 481.751H633.983C634.339 481.751 634.632 481.462 634.632 481.102C634.632 480.745 634.339 480.454 633.983 480.454H605.634C605.275 480.454 604.986 480.745 604.986 481.102C604.986 481.462 605.275 481.751 605.634 481.751Z" fill="white"/>
<path d="M641.082 481.751H650.896C651.254 481.751 651.543 481.462 651.543 481.102C651.543 480.745 651.254 480.454 650.896 480.454H641.082C640.724 480.454 640.433 480.745 640.433 481.102C640.433 481.462 640.724 481.751 641.082 481.751Z" fill="white"/>
<defs>
<linearGradient id="paint0_linear" x1="769.632" y1="369.065" x2="705.055" y2="472.561" gradientUnits="userSpaceOnUse">
<stop stop-color="#FEBBBA"/>
<stop offset="1" stop-color="#FF928E"/>
</linearGradient>
<linearGradient id="paint1_linear" x1="679.685" y1="451.614" x2="667.905" y2="425.453" gradientUnits="userSpaceOnUse">
<stop stop-color="#FEBBBA"/>
<stop offset="1" stop-color="#FF928E"/>
</linearGradient>
<linearGradient id="paint2_linear" x1="705.048" y1="357.838" x2="679.564" y2="413.011" gradientUnits="userSpaceOnUse">
<stop stop-color="#FEBBBA"/>
<stop offset="1" stop-color="#FF928E"/>
</linearGradient>
<linearGradient id="paint3_linear" x1="679.031" y1="370.139" x2="654.469" y2="423.316" gradientUnits="userSpaceOnUse">
<stop stop-color="#FEBBBA"/>
<stop offset="1" stop-color="#FF928E"/>
</linearGradient>
<linearGradient id="paint4_linear" x1="589.659" y1="782.688" x2="670.614" y2="636.567" gradientUnits="userSpaceOnUse">
<stop stop-color="#FEBBBA"/>
<stop offset="1" stop-color="#FF928E"/>
</linearGradient>
<linearGradient id="paint5_linear" x1="660.236" y1="684.152" x2="544.548" y2="722.361" gradientUnits="userSpaceOnUse">
<stop stop-color="#FEBBBA"/>
<stop offset="1" stop-color="#FF928E"/>
</linearGradient>
<linearGradient id="paint6_linear" x1="595.222" y1="559.435" x2="710.38" y2="388.692" gradientUnits="userSpaceOnUse">
<stop stop-color="#FEBBBA"/>
<stop offset="1" stop-color="#FF928E"/>
</linearGradient>
<linearGradient id="paint7_linear" x1="452.553" y1="744.427" x2="462.223" y2="744.427" gradientUnits="userSpaceOnUse">
<stop stop-color="#FEBBBA"/>
<stop offset="1" stop-color="#FF928E"/>
</linearGradient>
<linearGradient id="paint8_linear" x1="498.357" y1="745.241" x2="509.903" y2="745.241" gradientUnits="userSpaceOnUse">
<stop stop-color="#FEBBBA"/>
<stop offset="1" stop-color="#FF928E"/>
</linearGradient>
<linearGradient id="paint9_linear" x1="461.965" y1="525.998" x2="468.881" y2="508.558" gradientUnits="userSpaceOnUse">
<stop stop-color="#FEBBBA"/>
<stop offset="1" stop-color="#FF928E"/>
</linearGradient>
<linearGradient id="paint10_linear" x1="482.854" y1="638.371" x2="509.523" y2="638.371" gradientUnits="userSpaceOnUse">
<stop stop-color="#FEBBBA"/>
<stop offset="1" stop-color="#FF928E"/>
</linearGradient>
<linearGradient id="paint11_linear" x1="494.09" y1="468.55" x2="461.219" y2="501.336" gradientUnits="userSpaceOnUse">
<stop stop-color="#FEBBBA"/>
<stop offset="1" stop-color="#FF928E"/>
</linearGradient>
<linearGradient id="paint12_linear" x1="480.454" y1="480.558" x2="449.073" y2="511.857" gradientUnits="userSpaceOnUse">
<stop stop-color="#FEBBBA"/>
<stop offset="1" stop-color="#FF928E"/>
</linearGradient>
<linearGradient id="paint13_linear" x1="951.085" y1="687.018" x2="955.461" y2="652.809" gradientUnits="userSpaceOnUse">
<stop stop-color="#FEBBBA"/>
<stop offset="1" stop-color="#FF928E"/>
</linearGradient>
<linearGradient id="paint14_linear" x1="1154.66" y1="677.371" x2="1159.54" y2="639.182" gradientUnits="userSpaceOnUse">
<stop stop-color="#FEBBBA"/>
<stop offset="1" stop-color="#FF928E"/>
</linearGradient>
<linearGradient id="paint15_linear" x1="1072.19" y1="450.043" x2="1007.57" y2="450.043" gradientUnits="userSpaceOnUse">
<stop stop-color="#FEBBBA"/>
<stop offset="1" stop-color="#FF928E"/>
</linearGradient>
<linearGradient id="paint16_linear" x1="957.708" y1="406.036" x2="846.399" y2="406.036" gradientUnits="userSpaceOnUse">
<stop stop-color="#FEBBBA"/>
<stop offset="1" stop-color="#FF928E"/>
</linearGradient>
<linearGradient id="paint17_linear" x1="1033.07" y1="318.033" x2="992.357" y2="276.264" gradientUnits="userSpaceOnUse">
<stop stop-color="#FEBBBA"/>
<stop offset="1" stop-color="#FF928E"/>
</linearGradient>
<linearGradient id="paint18_linear" x1="952.419" y1="269.19" x2="1001.54" y2="334.168" gradientUnits="userSpaceOnUse">
<stop stop-color="#FEBBBA"/>
<stop offset="1" stop-color="#FF928E"/>
</linearGradient>
<linearGradient id="paint19_linear" x1="1037.02" y1="311.405" x2="996.927" y2="270.274" gradientUnits="userSpaceOnUse">
<stop stop-color="#FEBBBA"/>
<stop offset="1" stop-color="#FF928E"/>
</linearGradient>
</defs>
</svg>
