<svg width="159" height="126" viewBox="0 0 159 126" fill="none" xmlns="http://www.w3.org/2000/svg">
<path d="M136.222 83.9711C136.285 83.9711 136.348 83.95 136.39 83.8867L137.646 82.1558C138.023 81.6492 138.212 81.037 138.212 80.4037V76.8575C138.212 75.4854 137.29 74.3033 135.971 73.9656L134.086 73.4801C133.982 73.459 133.856 73.5223 133.835 73.6279C133.814 73.7334 133.877 73.8601 133.982 73.8812L135.866 74.3667C136.997 74.6622 137.772 75.6754 137.772 76.8364V80.3826C137.772 80.9315 137.604 81.4592 137.29 81.9025L136.034 83.6334C135.971 83.7178 135.992 83.8656 136.076 83.9289C136.138 83.9711 136.18 83.9711 136.222 83.9711Z" fill="url(#paint0_linear)"/>
<path d="M137.247 81.3958L138.273 80.8047C138.713 80.5514 139.09 79.8337 139.09 79.2427V76.1397C139.09 75.5276 138.713 75.2532 138.273 75.5276L137.247 76.1186C136.808 76.3719 136.431 77.0896 136.431 77.6807V80.7836C136.431 81.3746 136.787 81.6491 137.247 81.3958Z" fill="url(#paint1_linear)"/>
<path d="M137.247 76.1186L138.273 75.5275C138.525 75.3798 138.755 75.4009 138.902 75.5697C138.797 75.5697 138.671 75.5908 138.546 75.6542L137.52 76.2452C137.08 76.4985 136.703 77.2162 136.703 77.8073V80.9102C136.703 81.1635 136.766 81.3535 136.891 81.4801C136.619 81.459 136.431 81.2057 136.431 80.7624V77.6595C136.431 77.0684 136.787 76.3719 137.247 76.1186Z" fill="url(#paint2_radial)"/>
<path opacity="0.0182" d="M2.97705 56.9521C2.51636 57.2265 2.16035 57.5432 1.90906 57.8809C1.46931 58.5142 1.40646 59.253 1.7415 59.9918C2.01373 60.6884 2.85135 61.5116 3.83555 62.0815L56.082 93.0056L108.328 123.951C109.04 124.373 110.087 124.795 110.946 124.985C112.433 125.344 114.024 125.407 115.427 125.133C116.118 124.985 116.705 124.711 117.291 124.479C117.333 124.457 118.317 123.909 118.338 123.887L144.095 108.964C144.555 108.689 144.911 108.373 145.163 108.035C145.603 107.402 145.665 106.663 145.33 105.924C145.058 105.227 144.22 104.404 143.236 103.834L90.9898 72.9102L38.7433 41.965C38.0313 41.5429 36.9843 41.1207 36.1258 40.9307C34.639 40.5719 33.0476 40.5085 31.6445 40.783C30.9535 40.9307 30.3671 41.2051 29.7808 41.4373C29.7389 41.4584 28.7547 42.0072 28.7338 42.0283L2.97705 56.9521Z" fill="black"/>
<path opacity="0.0364" d="M3.41861 57.1844C2.97886 57.4377 2.60193 57.7754 2.37159 58.1132C1.97372 58.7253 1.95276 59.443 2.35063 60.1818C2.58097 60.815 3.58614 61.6805 4.46564 62.2082L56.2514 92.879L108.058 123.55C108.707 123.93 109.859 124.436 110.634 124.626C112.079 125.027 113.649 125.112 115.052 124.859C115.743 124.732 116.33 124.479 116.895 124.246C116.958 124.225 117.9 123.698 117.963 123.676L143.489 108.879C143.929 108.626 144.306 108.288 144.515 107.951C144.913 107.338 144.934 106.621 144.536 105.882C144.306 105.249 143.301 104.383 142.421 103.855L90.6356 73.1847L38.8289 42.5139C38.1798 42.1339 37.028 41.6273 36.2532 41.4373C34.8084 41.0363 33.2378 40.9518 31.8348 41.2051C31.1438 41.3318 30.5575 41.5851 29.9921 41.8173C29.9292 41.8384 28.9869 42.3661 28.9241 42.3872L3.41861 57.1844Z" fill="black"/>
<path opacity="0.0545" d="M3.85677 57.4377C3.43797 57.691 3.06108 58.0077 2.85167 58.3665C2.51663 58.9576 2.51658 59.6752 2.99821 60.3718C3.20761 60.9418 4.33844 61.8705 5.13418 62.3138L56.4801 92.7102L107.868 123.128C108.454 123.465 109.711 124.056 110.402 124.225C111.805 124.648 113.375 124.753 114.778 124.542C115.448 124.436 116.056 124.183 116.621 123.972C116.726 123.93 117.605 123.465 117.689 123.402L142.985 108.753C143.404 108.499 143.781 108.183 143.99 107.824C144.325 107.233 144.325 106.515 143.844 105.819C143.634 105.249 142.503 104.32 141.708 103.877L90.3617 73.4803L38.9739 43.0628C38.3876 42.725 37.1311 42.134 36.4401 41.9651C35.0371 41.543 33.4666 41.4374 32.0636 41.6485C31.3935 41.7541 30.7862 42.0074 30.2208 42.2185C30.1161 42.2607 29.2366 42.725 29.1529 42.7884L3.85677 57.4377Z" fill="black"/>
<path opacity="0.0727" d="M4.29727 57.6699C3.8994 57.9021 3.50153 58.2398 3.31306 58.5986C3.0199 59.1686 3.06181 59.8652 3.60626 60.5406C3.79472 61.0261 5.07209 62.0182 5.76312 62.4193L56.6484 92.5623L107.597 122.727C108.099 123.022 109.481 123.698 110.089 123.845C111.45 124.289 112.999 124.436 114.423 124.246C115.093 124.141 115.701 123.93 116.266 123.719C116.412 123.676 117.208 123.233 117.334 123.17L142.421 108.647C142.818 108.415 143.216 108.077 143.405 107.718C143.698 107.148 143.656 106.452 143.112 105.776C142.923 105.291 141.646 104.299 140.955 103.898L90.0694 73.7546L39.1213 43.5904C38.6187 43.2949 37.2366 42.6194 36.6293 42.4717C35.2682 42.0284 33.7187 41.8806 32.2947 42.0706C31.6246 42.155 31.0173 42.3872 30.4519 42.5983C30.3054 42.6405 29.5096 43.0838 29.384 43.1472L4.29727 57.6699Z" fill="black"/>
<path opacity="0.0909" d="M4.73471 57.9232C4.33684 58.1554 3.95989 58.4931 3.79236 58.8519C3.56202 59.3796 3.62482 60.0762 4.23209 60.7517C4.39962 61.1739 5.82359 62.2082 6.40992 62.5459L56.8555 92.4146L107.364 122.325C107.804 122.579 109.29 123.36 109.814 123.465C111.133 123.93 112.683 124.12 114.086 123.951C114.756 123.866 115.363 123.655 115.929 123.465C116.117 123.402 116.85 123.022 116.996 122.938L141.853 108.542C142.251 108.309 142.628 107.972 142.795 107.613C143.025 107.085 142.963 106.389 142.355 105.713C142.188 105.291 140.764 104.257 140.178 103.919L89.732 74.0501L39.2236 44.1392C38.7839 43.8859 37.2971 43.1049 36.7736 42.9994C35.4543 42.535 33.9047 42.345 32.5017 42.5139C31.8316 42.5983 31.2244 42.8094 30.659 42.9994C30.4705 43.0627 29.7376 43.4426 29.591 43.5271L4.73471 57.9232Z" fill="black"/>
<path opacity="0.1091" d="M5.19619 58.1764C4.81926 58.3875 4.42139 58.7252 4.27481 59.1052C4.08634 59.6118 4.19104 60.2873 4.86114 60.9416C4.98678 61.3005 6.57823 62.3981 7.05986 62.6725L57.0447 92.2879L107.113 121.945C107.469 122.157 109.082 123.022 109.521 123.106C110.799 123.613 112.328 123.803 113.752 123.676C114.422 123.613 115.029 123.423 115.573 123.233C115.804 123.17 116.474 122.811 116.641 122.726L141.267 108.457C141.644 108.246 142.042 107.908 142.189 107.528C142.377 107.022 142.272 106.346 141.602 105.692C141.477 105.333 139.885 104.235 139.404 103.961L89.4187 74.3456L39.3501 44.688C38.9941 44.4769 37.3817 43.6115 36.9419 43.527C35.6646 43.0204 34.1359 42.8093 32.7119 42.9571C32.0418 43.0204 31.4346 43.2104 30.8901 43.4004C30.6598 43.4637 29.9896 43.8226 29.8221 43.907L5.19619 58.1764Z" fill="black"/>
<path opacity="0.1273" d="M5.63642 58.4085C5.28043 58.6195 4.8616 58.9573 4.75689 59.3372C4.61031 59.8227 4.75693 60.4771 5.51078 61.1103C5.61549 61.3848 7.35354 62.5457 7.73047 62.7779L57.2756 92.1189L106.904 121.523C107.198 121.692 108.915 122.642 109.25 122.705C110.485 123.233 111.993 123.465 113.417 123.36C114.087 123.296 114.694 123.148 115.239 122.98C115.49 122.895 116.118 122.6 116.307 122.473L140.723 108.33C141.079 108.119 141.498 107.781 141.603 107.401C141.749 106.916 141.603 106.262 140.87 105.628C140.765 105.354 139.027 104.193 138.65 103.961L89.1051 74.6198L39.4762 45.2156C39.1831 45.0467 37.466 44.0968 37.1309 44.0335C35.8954 43.5058 34.3877 43.2736 32.9637 43.3791C32.2936 43.4425 31.6863 43.5902 31.1419 43.7591C30.8906 43.8435 30.2624 44.1391 30.074 44.2657L5.63642 58.4085Z" fill="black"/>
<path opacity="0.1455" d="M6.07537 58.6619C5.74033 58.8519 5.32151 59.1896 5.21681 59.5907C5.1121 60.034 5.30062 60.6883 6.1173 61.3216C6.20106 61.5327 8.08567 62.7359 8.37884 62.9047L57.4633 91.9924L106.652 121.143C106.862 121.27 108.705 122.304 108.956 122.368C110.15 122.916 111.657 123.191 113.081 123.106C113.751 123.064 114.359 122.916 114.903 122.769C115.196 122.684 115.762 122.41 115.992 122.283L140.178 108.288C140.513 108.098 140.932 107.761 141.037 107.359C141.141 106.916 140.953 106.262 140.136 105.629C140.053 105.417 138.168 104.214 137.875 104.045L88.7903 74.9577L39.6011 45.8068C39.3917 45.6801 37.5489 44.6458 37.2976 44.5825C36.104 44.0336 34.5963 43.7592 33.1724 43.8437C32.5023 43.8859 31.895 44.0336 31.3505 44.1814C31.0574 44.2658 30.492 44.5402 30.2617 44.6669L6.07537 58.6619Z" fill="black"/>
<path opacity="0.1636" d="M6.51629 58.8942C6.20218 59.0841 5.7624 59.4219 5.69958 59.823C5.63676 60.2451 5.88804 60.8784 6.7466 61.4905C6.80942 61.6383 8.8197 62.9048 9.0291 63.0103L57.6738 91.8236L106.423 120.7C106.57 120.785 108.517 121.903 108.685 121.946C109.836 122.515 111.323 122.811 112.747 122.769C113.396 122.748 114.025 122.621 114.569 122.473C114.904 122.368 115.407 122.157 115.658 122.009L139.635 108.141C139.949 107.951 140.389 107.613 140.451 107.212C140.514 106.79 140.263 106.156 139.404 105.544C139.363 105.396 137.331 104.13 137.122 104.024L88.4772 75.2111L39.7278 46.3346C39.5812 46.2501 37.6338 45.1314 37.4663 45.0892C36.3146 44.5192 34.8278 44.2237 33.4038 44.2659C32.7547 44.287 32.1264 44.4137 31.582 44.5615C31.2469 44.667 30.7444 44.8781 30.4931 45.0258L6.51629 58.8942Z" fill="black"/>
<path opacity="0.1818" d="M6.95564 59.1473C6.64154 59.3161 6.20178 59.6539 6.1599 60.076C6.11801 60.456 6.43214 61.0893 7.35352 61.6803C7.37446 61.7436 9.55228 63.0735 9.65698 63.1368L57.8409 91.6967L106.151 120.32C106.213 120.362 108.287 121.565 108.37 121.586C109.48 122.199 110.946 122.515 112.391 122.494C113.04 122.473 113.668 122.389 114.192 122.241C114.569 122.135 115.008 121.945 115.281 121.798L139.027 108.056C139.341 107.887 139.781 107.528 139.823 107.127C139.865 106.747 139.551 106.114 138.629 105.523C138.608 105.459 136.431 104.13 136.326 104.066L88.1418 75.5064L39.8321 46.8832C39.7693 46.841 37.6962 45.6378 37.6124 45.6167C36.5026 45.0045 35.0368 44.6879 33.5919 44.709C32.9428 44.7301 32.3145 44.8146 31.791 44.9623C31.4141 45.0679 30.9743 45.2578 30.7021 45.4056L6.95564 59.1473Z" fill="black"/>
<path opacity="0.2" d="M112.056 122.178C113.208 122.178 114.234 121.946 114.946 121.523L138.483 107.908C138.776 107.739 139.257 107.402 139.257 106.98C139.257 106.621 138.901 106.009 137.917 105.439L87.8486 75.781L37.78 46.1235C36.6911 45.4902 35.2462 45.1313 33.8013 45.1313C32.6496 45.1313 31.6235 45.3636 30.9115 45.7857L7.3744 59.4008C7.08123 59.5697 6.59961 59.9074 6.59961 60.3296C6.59961 60.6884 6.95563 61.3006 7.93983 61.8705L58.0085 91.5281L108.077 121.186C109.166 121.819 110.611 122.178 112.056 122.178Z" fill="black"/>
<path d="M58.3434 76.8786V82.5779L39.2666 71.4326V65.7544L58.3434 76.8786Z" fill="url(#paint3_linear)"/>
<path d="M58.3438 76.8785V82.5779L63.7045 79.5171V73.7966L58.3438 76.8785Z" fill="url(#paint4_linear)"/>
<path d="M63.7042 73.7967L58.3434 76.8786L39.2666 65.7543L44.6274 62.6514L63.7042 73.7967Z" fill="url(#paint5_linear)"/>
<path d="M3.96154 44.6248V51.8861L3.27051 51.3373V44.0759L3.96154 44.6248Z" fill="url(#paint6_linear)"/>
<path d="M3.96191 44.6248V51.8862L21.1331 42.1762V34.8938L3.96191 44.6248Z" fill="url(#paint7_linear)"/>
<path d="M21.1326 34.8938L3.96158 44.6249L3.27051 44.076L20.4416 34.345L21.1326 34.8938Z" fill="url(#paint8_linear)"/>
<path d="M7.75195 46.4823V57.311L9.59459 56.2555V45.3635L7.75195 46.4823Z" fill="url(#paint9_linear)"/>
<path d="M23.3741 60.5405C23.3741 62.398 22.7459 63.7068 21.7198 64.34C21.6989 64.3611 18.474 66.2398 18.4322 66.2609C17.3642 66.8731 18.0552 65.501 16.4219 64.5511C13.1552 62.6513 10.4958 58.0285 10.4958 54.2501C10.4958 52.3714 8.77865 52.3714 9.82567 51.7382C9.84661 51.7171 13.2809 49.8173 13.3018 49.7962C14.3698 49.2052 15.8355 49.3107 17.448 50.2606C20.7356 52.1393 23.3741 56.762 23.3741 60.5405Z" fill="url(#paint10_linear)"/>
<path d="M19.9391 62.5037C19.9391 66.2821 17.2797 67.823 14.013 65.9021C10.7463 64.0024 8.08691 59.3796 8.08691 55.6012C8.08691 51.8227 10.7463 50.2818 14.013 52.2027C17.3006 54.1024 19.9391 58.7252 19.9391 62.5037Z" fill="url(#paint11_linear)"/>
<path d="M14.3045 52.0547C12.734 51.1471 11.3101 51.0204 10.2422 51.5482C11.2264 51.2737 12.4618 51.4848 13.781 52.2447C17.0477 54.1445 19.7072 58.7673 19.7072 62.5457C19.7072 64.5088 18.9952 65.8809 17.8434 66.4508C19.2883 66.0497 20.2307 64.5933 20.2307 62.3346C20.2307 58.5773 17.5712 53.9756 14.3045 52.0547Z" fill="url(#paint12_radial)"/>
<path d="M13.9708 54.9254C11.8558 53.7011 10.1387 54.6932 10.1387 57.1207C10.1387 59.5693 11.8558 62.5456 13.9708 63.791C16.0858 65.0153 17.8028 64.0232 17.8028 61.5957C17.8028 59.1471 16.0858 56.1497 13.9708 54.9254Z" fill="url(#paint13_linear)"/>
<path d="M15.3319 62.9046C13.2169 61.6803 11.4998 58.6829 11.4998 56.2343C11.4998 55.4744 11.6673 54.8622 11.9605 54.4189C10.8716 54.5667 10.1387 55.5377 10.1387 57.1208C10.1387 59.5694 11.8558 62.5457 13.9708 63.7911C15.4366 64.6355 16.693 64.4244 17.3422 63.4112C16.7559 63.4956 16.0858 63.3268 15.3319 62.9046Z" fill="url(#paint14_linear)"/>
<path d="M16.6301 61.2371C16.6301 62.7569 15.5621 63.348 14.2638 62.5881C12.9654 61.8281 11.8975 59.9917 11.8975 58.4719C11.8975 56.9521 12.9654 56.361 14.2638 57.1209C15.5621 57.8809 16.6301 59.7384 16.6301 61.2371Z" fill="url(#paint15_linear)"/>
<path d="M16.4425 60.3717C16.4425 61.6593 15.542 62.166 14.4322 61.5116C13.3224 60.8783 12.4219 59.3163 12.4219 58.0287C12.4219 56.741 13.3224 56.2344 14.4322 56.8888C15.542 57.5432 16.4425 59.1052 16.4425 60.3717Z" fill="url(#paint16_linear)"/>
<path d="M15.8975 60.7516C15.8975 62.0392 14.9971 62.5458 13.8872 61.8915C12.7774 61.2582 11.877 59.6962 11.877 58.4086C11.877 57.1209 12.7774 56.6143 13.8872 57.2687C14.9971 57.923 15.8975 59.4851 15.8975 60.7516Z" fill="url(#paint17_linear)"/>
<path d="M36.0842 68.0973C36.0842 69.9549 35.4559 71.2636 34.4298 71.8969C34.4089 71.918 31.184 73.7967 31.1422 73.8178C30.0742 74.4299 30.7653 73.0578 29.1319 72.1079C25.8652 70.2082 23.2057 65.5854 23.2057 61.807C23.2057 59.9283 21.4886 59.9283 22.5356 59.2951C22.5566 59.274 25.9908 57.3742 26.0118 57.3531C27.0797 56.762 28.5455 56.8676 30.158 57.8175C33.4456 59.6961 36.0842 64.3189 36.0842 68.0973Z" fill="url(#paint18_linear)"/>
<path d="M32.6698 70.0605C32.6698 73.839 30.0103 75.3799 26.7436 73.459C23.4768 71.5593 20.8174 66.9365 20.8174 63.158C20.8174 59.3796 23.4768 57.8387 26.7436 59.7596C30.0103 61.6593 32.6698 66.2821 32.6698 70.0605Z" fill="url(#paint19_linear)"/>
<path d="M27.0175 59.6116C25.447 58.704 24.023 58.5773 22.9551 59.105C23.9393 58.8306 25.1748 59.0417 26.494 59.8016C29.7607 61.7014 32.4202 66.3242 32.4202 70.1026C32.4202 72.0657 31.7082 73.4378 30.5565 74.0077C32.0013 73.6067 32.9437 72.1502 32.9437 69.8915C32.9437 66.1342 30.2842 61.5114 27.0175 59.6116Z" fill="url(#paint20_radial)"/>
<path d="M26.6817 62.4825C24.5667 61.2582 22.8496 62.2503 22.8496 64.6778C22.8496 67.1264 24.5667 70.1027 26.6817 71.3481C28.7967 72.5724 30.5139 71.5803 30.5139 69.1528C30.5139 66.7042 28.7967 63.7068 26.6817 62.4825Z" fill="url(#paint21_linear)"/>
<path d="M28.0429 70.4615C25.9279 69.2372 24.2107 66.2398 24.2107 63.7912C24.2107 63.0313 24.3783 62.4191 24.6714 61.9758C23.5825 62.1236 22.8496 63.0946 22.8496 64.6777C22.8496 67.1263 24.5667 70.1027 26.6817 71.3481C28.1475 72.1924 29.404 71.9813 30.0531 70.9681C29.4877 71.0314 28.7967 70.8836 28.0429 70.4615Z" fill="url(#paint22_linear)"/>
<path d="M29.3399 68.794C29.3399 70.3138 28.272 70.9048 26.9737 70.1449C25.6754 69.385 24.6074 67.5486 24.6074 66.0288C24.6074 64.509 25.6754 63.9179 26.9737 64.6778C28.2929 65.4588 29.3399 67.2953 29.3399 68.794Z" fill="url(#paint23_linear)"/>
<path d="M29.1524 67.9284C29.1524 69.216 28.2519 69.7226 27.1421 69.0683C26.0323 68.4139 25.1318 66.8729 25.1318 65.5853C25.1318 64.2977 26.0323 63.7911 27.1421 64.4454C28.2519 65.0998 29.1524 66.6618 29.1524 67.9284Z" fill="url(#paint24_linear)"/>
<path d="M28.6075 68.3085C28.6075 69.5961 27.7071 70.1027 26.5972 69.4483C25.4874 68.8151 24.5869 67.2531 24.5869 65.9654C24.5869 64.6778 25.4874 64.1712 26.5972 64.8256C27.7071 65.4799 28.6075 67.042 28.6075 68.3085Z" fill="url(#paint25_linear)"/>
<path d="M35.6868 62.7359V73.5646L33.7812 72.4459V63.8335L7.75227 48.6987V57.311L5.84668 56.1922V45.3635L35.6868 62.7359Z" fill="url(#paint26_linear)"/>
<path d="M35.708 62.7569V73.5857L37.5508 72.5302V61.6382L35.708 62.7569Z" fill="url(#paint27_linear)"/>
<path d="M55.203 81.649L54.2396 82.2189L38.3877 73.0156L39.3719 72.4668L55.203 81.649Z" fill="url(#paint28_linear)"/>
<path d="M38.3662 67.1687V73.0369L39.3713 72.467V66.5776L38.3662 67.1687Z" fill="url(#paint29_linear)"/>
<path d="M36.9424 65.5645V73.8179L55.6841 84.7733V76.4565L36.9424 65.5645ZM38.3872 68.0975L54.2183 77.2797V82.198L38.3872 72.9525V68.0975Z" fill="url(#paint30_linear)"/>
<path d="M55.6631 76.4352V84.7731L56.8986 84.1399V75.7598L55.6631 76.4352Z" fill="url(#paint31_linear)"/>
<path d="M56.8996 75.7599L55.6641 76.4353L36.9434 65.5644L38.1788 64.8889L56.8996 75.7599Z" fill="url(#paint32_linear)"/>
<path d="M73.546 90.0505C73.546 91.9081 72.9178 93.2168 71.8917 93.8501C71.8708 93.8712 68.646 95.7498 68.6041 95.7709C67.5361 96.3831 68.2271 95.011 66.5938 94.0612C63.3271 92.1614 60.6677 87.5386 60.6677 83.7601C60.6677 81.8815 58.9505 81.8815 59.9975 81.2482C60.0185 81.2271 63.4527 79.3273 63.4737 79.3062C64.5416 78.7152 66.0075 78.8207 67.6199 79.7706C70.8866 81.6493 73.546 86.272 73.546 90.0505Z" fill="url(#paint33_linear)"/>
<path d="M70.1121 92.0137C70.1121 95.7921 67.4526 97.3331 64.1859 95.4122C60.9192 93.5124 58.2598 88.8896 58.2598 85.1112C58.2598 81.3327 60.9192 79.7918 64.1859 81.7127C67.4526 83.6125 70.1121 88.2353 70.1121 92.0137Z" fill="url(#paint34_linear)"/>
<path d="M64.4775 81.5648C62.907 80.6571 61.483 80.5304 60.415 81.0582C61.3992 80.7837 62.6347 80.9948 63.954 81.7547C67.2207 83.6545 69.8801 88.2773 69.8801 92.0557C69.8801 94.0188 69.1681 95.3909 68.0164 95.9608C69.4613 95.5597 70.4036 94.1033 70.4036 91.8446C70.4036 88.0873 67.7442 83.4857 64.4775 81.5648Z" fill="url(#paint35_radial)"/>
<path d="M64.1437 84.4356C62.0287 83.2113 60.3115 84.2034 60.3115 86.6309C60.3115 89.0795 62.0287 92.0558 64.1437 93.3012C66.2587 94.5255 67.9758 93.5334 67.9758 91.1059C67.9758 88.6573 66.2587 85.6599 64.1437 84.4356Z" fill="url(#paint36_linear)"/>
<path d="M65.5048 92.4146C63.3898 91.1903 61.6727 88.1929 61.6727 85.7443C61.6727 84.9844 61.8402 84.3722 62.1334 83.929C61.0445 84.0767 60.3115 85.0477 60.3115 86.6309C60.3115 89.0795 62.0287 92.0558 64.1437 93.3012C65.6095 94.1455 66.8659 93.9344 67.515 92.9212C66.9287 93.0057 66.2377 92.8579 65.5048 92.4146Z" fill="url(#paint37_linear)"/>
<path d="M66.8019 90.7681C66.8019 92.2879 65.7339 92.879 64.4356 92.1191C63.1373 91.3591 62.0693 89.5227 62.0693 88.0029C62.0693 86.4831 63.1373 85.892 64.4356 86.6519C65.7339 87.4119 66.8019 89.2483 66.8019 90.7681Z" fill="url(#paint38_linear)"/>
<path d="M66.6143 89.8817C66.6143 91.1694 65.7139 91.676 64.604 91.0216C63.4942 90.3883 62.5938 88.8263 62.5938 87.5387C62.5938 86.2511 63.4942 85.7444 64.604 86.3988C65.7139 87.0532 66.6143 88.6152 66.6143 89.8817Z" fill="url(#paint39_linear)"/>
<path d="M66.0693 90.2828C66.0693 91.5704 65.1689 92.0771 64.0591 91.4227C62.9492 90.7894 62.0488 89.2274 62.0488 87.9398C62.0488 86.6522 62.9492 86.1456 64.0591 86.7999C65.1689 87.4332 66.0693 88.9952 66.0693 90.2828Z" fill="url(#paint40_linear)"/>
<path d="M95.095 99.5492V107.866L70.3643 93.491V85.2375L95.095 99.5492Z" fill="url(#paint41_linear)"/>
<path d="M77.4213 89.375V97.3963L77.0234 97.1852V89.1428L77.4213 89.375Z" fill="url(#paint42_linear)"/>
<path d="M77.0228 89.1426V97.1639L76.7715 97.0373V88.9949L77.0228 89.1426Z" fill="url(#paint43_radial)"/>
<path d="M95.0943 101.681V107.233L78.6143 97.6284C78.6143 95.1798 81.2527 93.6389 83.3467 94.8632L95.0943 101.681Z" fill="url(#paint44_linear)"/>
<path d="M83.3467 94.8842L95.0943 101.681V102.42L83.3467 95.623C81.4412 94.5253 79.1377 95.6652 78.698 97.6916L78.6143 97.6494C78.6143 95.2008 81.2318 93.6599 83.3467 94.8842Z" fill="url(#paint45_linear)"/>
<path d="M95.0947 99.5492V107.866L114.611 96.6785V88.2983L95.0947 99.5492Z" fill="url(#paint46_linear)"/>
<path d="M114.612 88.2984L95.0959 99.5493L70.3652 85.2377L89.9236 73.9868L114.612 88.2984Z" fill="url(#paint47_linear)"/>
<path d="M91.7655 66.5567V96.7631L2.76855 44.5827V14.4607L91.7655 66.5567Z" fill="url(#paint48_linear)"/>
<path d="M89.6717 67.7809L4.88379 18.1545V43.3793L89.6717 93.0689V67.7809Z" fill="#E6E7E8"/>
<path d="M86.9707 66.5566L88.0806 67.2954V92.5836L86.9707 91.8447V66.5566Z" fill="url(#paint49_linear)"/>
<path d="M88.123 67.1898L88.5628 67.1687V92.4779H88.123V67.1898Z" fill="url(#paint50_linear)"/>
<path d="M83.3271 64.4246L84.4371 65.1634V90.4726L83.3271 89.7127V64.4246Z" fill="url(#paint51_linear)"/>
<path d="M84.498 65.0579H84.9168V90.346L84.498 90.3671V65.0579Z" fill="url(#paint52_linear)"/>
<path d="M79.7051 62.2927L80.8149 63.0315V88.3407L79.7051 87.5808V62.2927Z" fill="url(#paint53_linear)"/>
<path d="M80.8555 62.9258H81.2743V88.2138L80.8555 88.235V62.9258Z" fill="url(#paint54_linear)"/>
<path d="M76.0586 60.1606L77.1685 60.8994V86.2086L76.0586 85.4698V60.1606Z" fill="url(#paint55_linear)"/>
<path d="M77.2109 60.815L77.6298 60.7939V86.082L77.2109 86.1031V60.815Z" fill="url(#paint56_linear)"/>
<path d="M72.416 58.0288L73.5259 58.7676V84.0768L72.416 83.338V58.0288Z" fill="url(#paint57_linear)"/>
<path d="M73.5889 58.683L74.0077 58.6619V83.95L73.5889 83.9711V58.683Z" fill="url(#paint58_linear)"/>
<path d="M68.7715 55.8967L69.8813 56.6566V81.9447L68.7715 81.2059V55.8967Z" fill="url(#paint59_linear)"/>
<path d="M69.9443 56.5511L70.3632 56.53V81.8181L69.9443 81.8392V56.5511Z" fill="url(#paint60_linear)"/>
<path d="M65.1504 53.7859L66.2602 54.5247V79.8128L65.1504 79.074V53.7859Z" fill="url(#paint61_linear)"/>
<path d="M66.3018 54.4191L66.7206 54.3979V79.686L66.3018 79.7071V54.4191Z" fill="url(#paint62_linear)"/>
<path d="M61.5059 51.6541L62.6157 52.3928V77.681L61.5059 76.9422V51.6541Z" fill="url(#paint63_linear)"/>
<path d="M62.6582 52.2872L63.077 52.2661V77.5542L62.6582 77.5753V52.2872Z" fill="url(#paint64_linear)"/>
<path d="M57.8623 49.522L58.9721 50.2608V75.5489L57.8623 74.8101V49.522Z" fill="url(#paint65_linear)"/>
<path d="M59.0342 50.1551L59.4531 50.134V75.4221L59.0342 75.4432V50.1551Z" fill="url(#paint66_linear)"/>
<path d="M54.2188 47.3899L55.3285 48.1287V73.4168L54.2188 72.678V47.3899Z" fill="url(#paint67_linear)"/>
<path d="M55.3916 48.0231L55.8104 48.002V73.2901L55.3916 73.3111V48.0231Z" fill="url(#paint68_linear)"/>
<path d="M50.5967 45.2581L51.7066 45.9968V71.2849L50.5967 70.5461V45.2581Z" fill="url(#paint69_linear)"/>
<path d="M51.7471 45.8912L52.166 45.8701V71.1793H51.7471V45.8912Z" fill="url(#paint70_linear)"/>
<path d="M46.9541 43.126L48.064 43.8648V69.1529L46.9541 68.4141V43.126Z" fill="url(#paint71_linear)"/>
<path d="M48.1045 43.7594L48.5442 43.7383V69.0474H48.1045V43.7594Z" fill="url(#paint72_linear)"/>
<path d="M43.3096 40.9941L44.4195 41.7329V67.0211L43.3096 66.2822V40.9941Z" fill="url(#paint73_linear)"/>
<path d="M44.4824 41.6273L44.9012 41.6062V66.9154L44.4824 66.9365V41.6273Z" fill="url(#paint74_linear)"/>
<path d="M39.666 38.8621L40.7759 39.6009V64.9101L39.666 64.1502V38.8621Z" fill="url(#paint75_linear)"/>
<path d="M40.8379 39.4954H41.2567V64.7835L40.8379 64.8046V39.4954Z" fill="url(#paint76_linear)"/>
<path d="M36.042 36.7302L37.1518 37.469V62.7782L36.042 62.0183V36.7302Z" fill="url(#paint77_linear)"/>
<path d="M37.1943 37.3635H37.6132V62.6516L37.1943 62.6728V37.3635Z" fill="url(#paint78_linear)"/>
<path d="M32.3994 34.5981L33.5093 35.3369V60.6461L32.3994 59.9073V34.5981Z" fill="url(#paint79_linear)"/>
<path d="M33.5508 35.2525L33.9905 35.2314V60.5195L33.5508 60.5406V35.2525Z" fill="url(#paint80_linear)"/>
<path d="M28.7549 32.4661L29.8647 33.2049V58.5141L28.7549 57.7752V32.4661Z" fill="url(#paint81_linear)"/>
<path d="M29.9287 33.1205L30.3475 33.0994V58.3875L29.9287 58.4086V33.1205Z" fill="url(#paint82_linear)"/>
<path d="M25.1113 30.3552L26.2212 31.094V56.3821L25.1113 55.6434V30.3552Z" fill="url(#paint83_linear)"/>
<path d="M26.2842 30.9884L26.7031 30.9673V56.2554L26.2842 56.2765V30.9884Z" fill="url(#paint84_linear)"/>
<path d="M21.4902 28.2234L22.6 28.9622V54.2503L21.4902 53.5115V28.2234Z" fill="url(#paint85_linear)"/>
<path d="M22.6406 28.8566L23.0596 28.8354V54.1235L22.6406 54.1446V28.8566Z" fill="url(#paint86_linear)"/>
<path d="M17.8457 26.0913L18.9556 26.8301V52.1182L17.8457 51.3794V26.0913Z" fill="url(#paint87_linear)"/>
<path d="M18.9961 26.7247L19.4358 26.7036V51.9917L18.9961 52.0128V26.7247Z" fill="url(#paint88_linear)"/>
<path d="M14.2021 23.9595L15.312 24.6983V49.9864L14.2021 49.2476V23.9595Z" fill="url(#paint89_linear)"/>
<path d="M15.374 24.5926L15.7928 24.5715V49.8597L15.374 49.8808V24.5926Z" fill="url(#paint90_linear)"/>
<path d="M10.5811 21.8274L11.691 22.5662V47.8543L10.5811 47.1155V21.8274Z" fill="url(#paint91_linear)"/>
<path d="M11.7314 22.4608L12.1503 22.4397V47.7278L11.7314 47.7489V22.4608Z" fill="url(#paint92_linear)"/>
<path d="M6.93652 19.6956L8.04644 20.4343V45.7224L6.93652 44.9836V19.6956Z" fill="url(#paint93_linear)"/>
<path d="M8.08691 20.3287L8.50574 20.3076V45.6168H8.08691V20.3287Z" fill="url(#paint94_linear)"/>
<path d="M89.6717 67.7809V69.9972L5.61672 20.8142V43.8015L4.88379 43.3793V18.1545L89.6717 67.7809Z" fill="url(#paint95_linear)"/>
<path d="M91.7656 66.5565V96.7629L116.182 82.7679V52.4771L91.7656 66.5565Z" fill="url(#paint96_linear)"/>
<path d="M114.067 81.5224V56.1499L93.8809 67.7808V93.111L114.067 81.5224Z" fill="#E6E7E8"/>
<path d="M116.182 52.4771L91.7656 66.5565L2.76855 14.4605L27.206 0.42334L116.182 52.4771Z" fill="url(#paint97_linear)"/>
<path d="M95.9321 67.0208L94.8223 67.7595V93.0477L95.9321 92.3089V67.0208Z" fill="#414042"/>
<path d="M94.7595 67.6539L94.3408 67.6328V92.9209L94.7595 92.942V67.6539Z" fill="#BCBEC0"/>
<path d="M99.2192 65.0576L98.1094 65.7964V91.1055L99.2192 90.3457V65.0576Z" fill="#414042"/>
<path d="M98.0468 65.6909H97.6279V90.979L98.0468 91.0001V65.6909Z" fill="#BCBEC0"/>
<path d="M102.507 63.1157L101.397 63.8545V89.1426L102.507 88.4038V63.1157Z" fill="#414042"/>
<path d="M101.335 63.7489L100.916 63.7278V89.037H101.335V63.7489Z" fill="#BCBEC0"/>
<path d="M105.794 61.1736L104.685 61.9124V87.2005L105.794 86.4617V61.1736Z" fill="#414042"/>
<path d="M104.622 61.8068L104.203 61.7856V87.0737L104.622 87.0948V61.8068Z" fill="#BCBEC0"/>
<path d="M109.084 59.2107L107.974 59.9495V85.2587L109.084 84.5199V59.2107Z" fill="#414042"/>
<path d="M107.911 59.8651L107.492 59.844V85.1321L107.911 85.1532V59.8651Z" fill="#BCBEC0"/>
<path d="M112.371 57.2686L111.261 58.0074V83.2955L112.371 82.5567V57.2686Z" fill="#414042"/>
<path d="M111.198 57.9017L110.779 57.8806V83.1898H111.198V57.9017Z" fill="#BCBEC0"/>
<path d="M93.2314 68.2241V70.4616L113.69 58.3875V81.3747L114.423 80.9525V55.7278L93.2314 68.2241Z" fill="#D1D3D4"/>
<path d="M116.079 61.5327L132.14 70.9472C134.108 72.0659 135.532 73.9657 136.098 76.161L138.359 85.1321C139.029 87.8129 139.385 90.5782 139.385 93.3434V103.855L116.497 116.922V107.571C116.497 104.151 115.974 100.774 114.969 97.5229L112.058 88.214C111.43 86.2087 110.069 84.4989 108.247 83.4646L93.2324 74.6412L116.079 61.5327Z" fill="url(#paint98_linear)"/>
<path d="M116.475 107.549V116.943L104.225 109.85L103.283 104.404L93.1895 98.346V74.6411L108.246 83.4856C110.067 84.541 111.449 86.2508 112.078 88.2561L114.967 97.565C115.952 100.795 116.475 104.151 116.475 107.549Z" fill="url(#paint99_linear)"/>
<path d="M116.16 107.486C116.16 104.109 115.657 100.731 114.652 97.5229L111.763 88.214C111.134 86.1876 109.773 84.4778 107.93 83.4435L93.335 74.8734V74.4934L108.412 83.3379C110.234 84.3933 111.616 86.1031 112.244 88.1084L115.134 97.4173C116.139 100.647 116.642 104.003 116.642 107.381V116.774L116.16 116.5V107.486Z" fill="url(#paint100_radial)"/>
<path d="M110.675 88.6995L113.564 98.0084C113.774 98.6417 113.083 99.2116 112.496 98.8739L103.429 93.5334C102.822 93.1745 102.466 92.5413 102.466 91.8236V84.1822C102.466 83.6123 103.073 83.2535 103.576 83.549L109.209 86.863C109.879 87.2852 110.423 87.9185 110.675 88.6995Z" fill="url(#paint101_linear)"/>
<path d="M120.37 100.246V103.687C120.37 107.36 124.307 109.639 127.448 107.824L130.736 105.945C134.337 103.877 136.557 100.014 136.557 95.8344V90.8528L120.37 100.246Z" fill="url(#paint102_linear)"/>
<path d="M125.101 107.191C125.708 107.191 126.274 107.043 126.818 106.726L130.106 104.848C133.31 103.011 135.278 99.5704 135.278 95.8553V93.0901L121.625 101.006V103.708C121.625 105.84 123.426 107.191 125.101 107.191Z" fill="url(#paint103_linear)"/>
<path opacity="0.5" d="M134.147 100.52L123.426 106.747C123.635 106.874 123.866 106.959 124.096 107.043L133.582 101.555C133.792 101.196 133.98 100.858 134.147 100.52ZM135.069 97.8607L122.065 105.396C122.17 105.565 122.274 105.734 122.4 105.882L134.88 98.6417C134.964 98.3884 135.027 98.1351 135.069 97.8607ZM135.278 95.6232L121.625 103.539V103.687C121.625 103.856 121.646 104.024 121.667 104.193L135.257 96.3198C135.257 96.172 135.278 96.0031 135.278 95.8554V95.6232ZM121.625 101.407V102.082L135.278 94.1667V93.4912L121.625 101.407Z" fill="url(#paint104_linear)"/>
<path d="M133.979 100.837L123.613 106.853C123.55 106.811 123.488 106.79 123.425 106.748L134.146 100.521C134.104 100.626 134.042 100.732 133.979 100.837Z" fill="url(#paint105_radial)"/>
<path d="M135.005 98.114L122.168 105.565C122.126 105.523 122.084 105.46 122.063 105.418L135.067 97.8818C135.047 97.9452 135.026 98.0296 135.005 98.114Z" fill="url(#paint106_radial)"/>
<path d="M135.279 95.8344L121.646 103.75C121.646 103.729 121.646 103.708 121.646 103.687V103.539L135.3 95.6233V95.8344H135.279Z" fill="url(#paint107_radial)"/>
<path d="M135.278 93.4912V93.7023L121.625 101.618V101.407L135.278 93.4912Z" fill="url(#paint108_radial)"/>
<path d="M117.249 98.9793C117.479 98.9793 117.709 98.916 117.919 98.8104L136.493 88.1928C137.373 87.6862 137.833 86.6308 137.582 85.6387L135.258 76.4142C135.132 75.9498 134.964 75.4854 134.755 75.0422C134.608 74.7466 134.315 74.5566 134.001 74.5566C133.855 74.5566 133.729 74.5989 133.603 74.6622L113.375 86.3775C112.83 86.6941 112.6 87.3485 112.788 87.9606L115.95 98.0505C116.139 98.5993 116.662 98.9793 117.249 98.9793Z" fill="url(#paint109_linear)"/>
<path d="M137.582 85.6387L135.258 76.4142C135.132 75.9498 134.965 75.4854 134.755 75.0422C134.609 74.7466 134.316 74.5566 134.002 74.5566C133.855 74.5566 133.729 74.5989 133.604 74.6622L113.375 86.3775C112.852 86.6519 137.834 86.6308 137.582 85.6387Z" fill="url(#paint110_linear)"/>
<path d="M116.831 97.9239C117.061 97.9239 117.291 97.8606 117.501 97.734L136.347 86.9686C136.975 86.6097 137.394 85.9554 137.478 85.2588L137.583 85.6387C137.834 86.6308 137.394 87.6863 136.494 88.1929L117.92 98.8105C117.71 98.9371 117.48 98.9794 117.249 98.9794C116.663 98.9794 116.14 98.5994 115.951 98.0295L115.763 97.4173C116.035 97.7339 116.412 97.9239 116.831 97.9239Z" fill="url(#paint111_linear)"/>
<path d="M126.337 87.9185L131.593 86.7576C131.635 86.7154 131.718 86.6943 131.781 86.7154L134.881 86.0399C135.006 86.0188 135.111 86.0821 135.132 86.2088C135.153 86.3143 135.09 86.4409 134.964 86.4621L131.886 87.1375L130.881 90.6416C130.86 90.726 130.776 90.7893 130.671 90.7893C130.651 90.7893 130.63 90.7893 130.609 90.7893C130.504 90.7471 130.441 90.6415 130.462 90.5149L131.404 87.2431L126.421 88.3407C126.4 88.3407 126.4 88.3407 126.379 88.3407C126.274 88.3407 126.19 88.2774 126.169 88.1718C126.148 88.0663 126.232 87.9397 126.337 87.9185Z" fill="url(#paint112_linear)"/>
<path d="M118.045 92.6046L123.302 91.4436C123.343 91.4014 123.427 91.3803 123.49 91.4014L126.589 90.7259C126.715 90.7048 126.82 90.7681 126.841 90.8948C126.861 91.0003 126.799 91.127 126.673 91.1481L123.595 91.8236L122.59 95.3276C122.569 95.412 122.485 95.4753 122.38 95.4753C122.359 95.4753 122.338 95.4753 122.317 95.4753C122.213 95.4331 122.15 95.3276 122.171 95.2009L123.113 91.9291L118.129 93.0267C118.108 93.0267 118.108 93.0267 118.087 93.0267C117.983 93.0267 117.899 92.9634 117.878 92.8579C117.857 92.7312 117.92 92.6257 118.045 92.6046Z" fill="url(#paint113_linear)"/>
<path d="M96.5816 79.5593L96.6235 80.2137L99.4086 81.8602C99.8483 82.1135 100.1 82.5778 100.1 83.0845V90.3247C100.1 90.5147 99.9321 90.6413 99.7855 90.6413C99.7436 90.6413 99.6808 90.6202 99.6389 90.5991L97.1051 89.1215C96.7072 88.8893 96.4559 88.446 96.4559 87.9605V80.3192C96.4559 80.2348 96.5188 80.2137 96.5607 80.2137V79.5593H96.5816ZM96.5816 79.5593C96.2046 79.5593 95.8486 79.8759 95.8486 80.2981V87.9394C95.8486 88.636 96.2256 89.2904 96.812 89.6492L99.3458 91.1268C99.4923 91.2113 99.6599 91.2535 99.8065 91.2535C100.288 91.2535 100.749 90.8524 100.749 90.3036V83.0633C100.749 82.3245 100.372 81.6702 99.7436 81.2902L96.9585 79.6437C96.8328 79.6015 96.7072 79.5593 96.5816 79.5593Z" fill="white"/>
<path d="M100.705 93.0267L102.024 93.8077C102.318 93.9766 102.506 94.2932 102.506 94.6521V94.7154C102.506 95.0532 102.129 95.2854 101.836 95.0954L100.642 94.3988C100.349 94.2299 100.182 93.9133 100.182 93.5966V93.3433C100.182 93.0689 100.475 92.9 100.705 93.0267Z" fill="url(#paint114_linear)"/>
<path d="M100.642 94.3988L101.836 95.0954C102.129 95.2643 102.464 95.0743 102.506 94.7365C102.506 94.7577 102.506 94.7577 102.506 94.7788V95.011C102.506 95.3487 102.129 95.5809 101.836 95.391L100.642 94.6944C100.349 94.5255 100.182 94.2088 100.182 93.8922V93.5967C100.182 93.9133 100.37 94.23 100.642 94.3988Z" fill="#B086CC"/>
<path d="M103.136 97.6707L93.168 98.3251L103.24 104.32L103.136 97.6707Z" fill="url(#paint115_linear)"/>
<path d="M96.2051 102.8V107.36L99.6602 105.396L99.4298 100.858L96.2051 102.8Z" fill="url(#paint116_linear)"/>
<path d="M111.574 112.257C111.574 114.114 110.946 115.444 109.899 116.077C109.878 116.098 106.779 117.914 106.737 117.914C105.669 118.526 106.339 117.133 104.706 116.183C101.418 114.262 98.738 109.618 98.738 105.818C98.738 103.94 97.0208 103.919 98.0679 103.285C98.0888 103.264 101.397 101.428 101.418 101.407C102.486 100.816 103.952 100.921 105.586 101.871C108.915 103.813 111.574 108.457 111.574 112.257Z" fill="url(#paint117_linear)"/>
<path d="M108.287 114.157C108.287 117.956 105.627 119.497 102.319 117.576C99.01 115.655 96.3506 111.011 96.3506 107.212C96.3506 103.412 99.01 101.871 102.319 103.792C105.627 105.713 108.287 110.336 108.287 114.157Z" fill="url(#paint118_linear)"/>
<path d="M106.569 113.164C106.569 115.887 104.664 116.964 102.318 115.613C99.973 114.262 98.0674 110.948 98.0674 108.225C98.0674 105.502 99.973 104.425 102.318 105.776C104.664 107.127 106.569 110.441 106.569 113.164Z" fill="url(#paint119_linear)"/>
<path d="M106.57 113.164C106.57 114.03 106.382 114.726 106.026 115.254C105.293 115.782 104.246 115.761 103.052 115.085C100.854 113.819 99.0947 110.716 99.0947 108.183C99.0947 106.346 100.016 105.312 101.356 105.354C101.67 105.46 101.985 105.586 102.32 105.776C104.665 107.127 106.57 110.441 106.57 113.164Z" fill="url(#paint120_linear)"/>
<path d="M99.8893 105.249C99.1354 105.692 98.6538 106.642 98.6538 107.993C98.6538 110.716 100.559 114.009 102.905 115.381C103.805 115.908 104.643 116.056 105.334 115.908C104.559 116.373 103.491 116.309 102.318 115.613C99.973 114.241 98.0674 110.948 98.0674 108.225C98.0674 106.536 98.7794 105.481 99.8893 105.249Z" fill="url(#paint121_linear)"/>
<path d="M103.931 111.349C103.931 112.067 103.428 112.341 102.821 111.982C102.213 111.624 101.711 110.758 101.711 110.04C101.711 109.323 102.213 109.048 102.821 109.407C103.428 109.787 103.931 110.653 103.931 111.349Z" fill="url(#paint122_radial)"/>
<path d="M102.613 103.644C101.042 102.716 99.5973 102.61 98.5293 103.138C99.5135 102.863 100.749 103.074 102.089 103.834C105.377 105.755 108.057 110.399 108.057 114.199C108.057 116.183 107.324 117.555 106.173 118.125C107.618 117.724 108.56 116.246 108.56 113.988C108.56 110.209 105.9 105.565 102.613 103.644Z" fill="url(#paint123_radial)"/>
<path d="M102.36 107.001C102.36 107.359 102.611 107.782 102.926 107.972C103.24 108.14 103.47 108.014 103.47 107.655C103.47 107.296 103.219 106.874 102.926 106.684C102.611 106.515 102.36 106.642 102.36 107.001ZM102.36 113.565C102.36 113.924 102.611 114.346 102.926 114.536C103.24 114.705 103.47 114.579 103.47 114.22C103.47 113.861 103.219 113.439 102.926 113.249C102.611 113.059 102.36 113.207 102.36 113.565ZM101.313 106.895C101.104 106.515 100.748 106.304 100.538 106.431C100.329 106.557 100.329 106.958 100.538 107.338C100.748 107.718 101.104 107.929 101.313 107.803C101.523 107.676 101.523 107.275 101.313 106.895ZM104.538 114.304C104.747 114.684 105.103 114.895 105.313 114.769C105.522 114.642 105.522 114.241 105.313 113.861C105.103 113.481 104.747 113.27 104.538 113.397C104.308 113.523 104.308 113.945 104.538 114.304ZM99.5332 108.626C99.5332 108.985 99.7845 109.407 100.099 109.597C100.413 109.766 100.643 109.639 100.643 109.28C100.643 108.921 100.392 108.499 100.099 108.309C99.7845 108.14 99.5332 108.288 99.5332 108.626ZM105.208 111.94C105.208 112.299 105.459 112.721 105.773 112.911C106.088 113.08 106.318 112.953 106.318 112.594C106.318 112.236 106.067 111.813 105.773 111.623C105.438 111.433 105.208 111.581 105.208 111.94ZM100.517 111.982C100.727 112.362 101.083 112.573 101.292 112.447C101.502 112.32 101.502 111.919 101.292 111.539C101.083 111.159 100.727 110.948 100.517 111.075C100.308 111.201 100.308 111.602 100.517 111.982ZM104.538 109.681C104.747 110.061 105.103 110.272 105.313 110.146C105.522 110.019 105.522 109.618 105.313 109.238C105.103 108.858 104.747 108.647 104.538 108.774C104.308 108.9 104.308 109.301 104.538 109.681Z" fill="url(#paint124_linear)"/>
<path d="M104.642 111.349C104.642 111.856 104.475 112.214 104.182 112.404L103.491 112.827C103.197 112.995 103.386 112.615 102.925 112.362C102.025 111.834 101.292 110.547 101.292 109.513C101.292 108.985 100.81 108.985 101.103 108.816C101.103 108.816 101.836 108.394 101.857 108.394C102.15 108.225 102.548 108.267 103.009 108.52C103.909 109.027 104.642 110.315 104.642 111.349Z" fill="url(#paint125_linear)"/>
<path d="M103.91 111.792C103.91 112.848 103.177 113.27 102.277 112.742C101.376 112.215 100.644 110.927 100.644 109.893C100.644 108.837 101.376 108.415 102.277 108.943C103.177 109.449 103.91 110.737 103.91 111.792Z" fill="url(#paint126_linear)"/>
<path d="M109.775 117.302V110.695L105.503 103.264L99.4932 99.7604L103.137 97.6707L109.168 101.175L113.44 108.605V115.233L109.775 117.302Z" fill="url(#paint127_linear)"/>
<path d="M109.774 110.695L105.502 103.264L109.167 101.175L113.438 108.605L109.774 110.695Z" fill="url(#paint128_linear)"/>
<path d="M108.768 116.753V110.969L104.768 104.003L99.4701 100.921L96.2034 102.8V107.359L95.1982 106.768V102.209L99.4701 99.7393L105.501 103.264L109.773 110.695V117.344L108.768 116.753Z" fill="url(#paint129_linear)"/>
<path d="M109.67 110.547L105.398 103.138L99.4512 99.655L99.6816 99.5283L105.733 103.053L110.005 110.484V117.133L109.67 116.943V110.547Z" fill="url(#paint130_radial)"/>
<path d="M96.1006 106.958V102.652L99.3673 100.774L99.4511 100.837L96.4147 102.568V107.148L96.1006 106.958Z" fill="url(#paint131_radial)"/>
<path d="M141.079 101.639L118.17 115.338C117.06 115.972 115.678 115.972 114.568 115.338L110.275 112.911V116.837L114.589 119.286C115.72 119.94 117.081 119.919 118.212 119.286L141.058 106.051V101.639H141.079Z" fill="url(#paint132_linear)"/>
<path d="M140.681 102.399L118.17 115.338C117.06 115.972 115.678 115.972 114.568 115.338L110.275 112.911L111.448 112.235L114.547 114.009C115.678 114.663 117.06 114.663 118.191 114.009L139.341 101.723V100.161L140.723 101.006C141.225 101.322 141.204 102.082 140.681 102.399Z" fill="url(#paint133_linear)"/>
<path d="M139.363 101.449L139.342 101.47L139.321 100.161H139.363V101.449Z" fill="url(#paint134_radial)"/>
<path d="M110.528 112.784L114.59 115.085C115.7 115.718 117.082 115.718 118.192 115.085L140.703 102.146C140.891 102.04 141.017 101.85 141.08 101.66C141.101 101.956 140.975 102.23 140.682 102.399L118.171 115.339C117.061 115.972 115.679 115.972 114.569 115.339L110.276 112.911L110.528 112.784Z" fill="url(#paint135_radial)"/>
<path d="M110.13 98.8738C110.193 98.8738 110.277 98.8316 110.318 98.7683C110.381 98.6627 110.339 98.5361 110.256 98.4727L108.832 97.6073C108.078 97.1429 107.617 96.3197 107.617 95.412V89.7971C107.617 88.9317 108.036 88.1507 108.748 87.6652L110.151 86.7153C110.256 86.652 110.277 86.5253 110.214 86.4198C110.151 86.3142 110.025 86.2931 109.921 86.3564L108.518 87.3063C107.701 87.8551 107.198 88.7839 107.198 89.776V95.3909C107.198 96.4252 107.743 97.3962 108.622 97.945L110.046 98.8105C110.046 98.8738 110.088 98.8738 110.13 98.8738Z" fill="url(#paint136_linear)"/>
<path d="M106.465 95.7497L107.491 95.1587C107.931 94.9054 108.308 94.1877 108.308 93.5967V90.4937C108.308 89.8816 107.952 89.6072 107.491 89.8816L106.465 90.4726C106.025 90.7259 105.648 91.4436 105.648 92.0346V95.1376C105.648 95.7286 106.025 96.003 106.465 95.7497Z" fill="url(#paint137_linear)"/>
<path d="M106.465 90.4726L107.491 89.8815C107.742 89.7338 107.973 89.7549 108.119 89.9237C108.015 89.9237 107.889 89.9449 107.763 90.0082L106.737 90.5992C106.298 90.8525 105.921 91.5702 105.921 92.1612V95.2642C105.921 95.5175 105.983 95.7075 106.109 95.8341C105.837 95.813 105.648 95.5597 105.648 95.1165V92.0135C105.648 91.4436 106.025 90.7259 106.465 90.4726Z" fill="url(#paint138_radial)"/>
<path d="M93.125 67.6331L115.657 54.6091L124.159 59.7596C127.823 61.9127 130.085 65.8811 130.085 70.1661L130.043 70.145L107.574 83.0424L93.125 67.6331Z" fill="url(#paint139_linear)"/>
<path d="M107.595 83.0212L93.1045 74.4511V67.5908L101.648 72.6147C105.334 74.7677 107.595 78.7362 107.595 83.0212Z" fill="url(#paint140_linear)"/>
<path d="M101.502 72.657L93.377 67.8865V67.4221L101.921 72.4459C105.585 74.599 107.847 78.5674 107.847 82.8525L107.407 82.5992C107.26 78.5041 105.041 74.7468 101.502 72.657Z" fill="url(#paint141_radial)"/>
<path d="M121.604 109.618L117.333 112.046C116.935 112.278 116.453 111.982 116.453 111.518V109.639C116.453 109.048 116.788 108.478 117.312 108.204L118.652 107.486C119.196 107.191 119.845 107.254 120.348 107.613L121.667 108.584C122.002 108.879 121.981 109.407 121.604 109.618Z" fill="url(#paint142_linear)"/>
<path d="M139.362 98.1561V99.7181C139.362 99.9292 139.236 100.14 139.048 100.225L137.184 101.175C136.828 101.365 136.431 101.006 136.577 100.626L137.31 98.5994C137.415 98.3039 137.645 98.0717 137.917 97.9239L138.525 97.6284C138.922 97.4595 139.362 97.7339 139.362 98.1561Z" fill="url(#paint143_linear)"/>
<path d="M121.604 109.302L117.333 111.729C116.935 111.961 116.453 111.666 116.453 111.201V109.323C116.453 108.732 116.788 108.162 117.312 107.887L118.652 107.17C119.196 106.874 119.845 106.937 120.348 107.296L121.667 108.267C122.002 108.542 121.981 109.091 121.604 109.302Z" fill="url(#paint144_linear)"/>
<path d="M139.362 97.9029V99.465C139.362 99.6761 139.236 99.8872 139.048 99.9716L137.184 100.921C136.828 101.111 136.431 100.753 136.577 100.373L137.31 98.3462C137.415 98.0507 137.645 97.8185 137.917 97.6707L138.525 97.3752C138.922 97.2064 139.362 97.4808 139.362 97.9029Z" fill="url(#paint145_linear)"/>
<path d="M139.363 97.9029C139.363 97.9029 136.871 100.985 136.745 100.9C136.599 100.795 136.515 100.605 136.578 100.394L137.311 98.3673C137.415 98.0718 137.646 97.8396 137.918 97.6918L138.525 97.3963C138.923 97.2063 139.363 97.4807 139.363 97.9029Z" fill="url(#paint146_linear)"/>
<path d="M121.226 114.389L118.022 116.246L118.965 116.879C119.425 117.196 120.033 117.217 120.514 116.922L123.823 114.98L122.629 114.367C122.19 114.135 121.666 114.135 121.226 114.389Z" fill="url(#paint147_linear)"/>
<path d="M121.226 114.389L118.022 116.246L123.823 114.98L122.629 114.367C122.19 114.135 121.666 114.135 121.226 114.389Z" fill="url(#paint148_linear)"/>
<path d="M140.285 103.581L136.83 105.565C136.537 105.734 136.306 105.987 136.201 106.304L135.385 108.436L139.008 106.304C139.322 106.114 139.552 105.84 139.657 105.502L140.285 103.581Z" fill="url(#paint149_linear)"/>
<path d="M140.285 103.581L136.83 105.565C136.537 105.734 136.306 105.987 136.201 106.304L135.385 108.436L140.285 103.581Z" fill="url(#paint150_linear)"/>
<path d="M134.631 109.766L134.652 109.027C134.652 108.246 133.815 107.76 133.145 108.14L126.569 111.961C125.543 112.552 124.915 113.65 124.915 114.832V115.402L134.631 109.766Z" fill="url(#paint151_linear)"/>
<path d="M116.496 108.943C116.601 108.499 116.894 108.119 117.292 107.908L118.632 107.191C119.176 106.895 119.826 106.958 120.328 107.317L121.647 108.288C121.857 108.436 121.92 108.71 121.878 108.921H116.496V108.943Z" fill="url(#paint152_linear)"/>
<path d="M120.578 107.655L119.845 109.217C119.845 109.217 118.672 108.182 118.881 107.697C119.112 107.233 120.578 107.655 120.578 107.655Z" fill="url(#paint153_linear)"/>
<path d="M119.614 108.773C119.614 109.174 119.886 109.322 120.222 109.132C120.557 108.942 120.829 108.457 120.829 108.056C120.829 107.655 120.557 107.507 120.222 107.697C119.886 107.887 119.614 108.372 119.614 108.773Z" fill="url(#paint154_linear)"/>
<path d="M138.986 98.4939L138.253 100.056C138.253 100.056 137.08 99.0216 137.29 98.5361C137.52 98.0506 138.986 98.4939 138.986 98.4939Z" fill="url(#paint155_linear)"/>
<path d="M138.022 99.5915C138.022 99.9926 138.295 100.14 138.63 99.9504C138.965 99.7604 139.237 99.2749 139.237 98.8738C139.237 98.4728 138.965 98.325 138.63 98.515C138.295 98.7261 138.022 99.1905 138.022 99.5915Z" fill="url(#paint156_linear)"/>
<path d="M120.746 115.571L120.139 116.858C120.139 116.858 119.238 116.098 119.406 115.697C119.594 115.317 120.746 115.571 120.746 115.571Z" fill="url(#paint157_linear)"/>
<path d="M119.949 116.5C119.949 116.816 120.18 116.964 120.452 116.795C120.724 116.626 120.954 116.246 120.954 115.908C120.954 115.592 120.724 115.444 120.452 115.613C120.18 115.782 119.949 116.162 119.949 116.5Z" fill="url(#paint158_linear)"/>
<path d="M122.338 114.6L121.73 115.887C121.73 115.887 120.83 115.127 120.997 114.726C121.186 114.325 122.338 114.6 122.338 114.6Z" fill="url(#paint159_linear)"/>
<path d="M121.521 115.508C121.521 115.824 121.752 115.972 122.024 115.803C122.296 115.634 122.527 115.254 122.527 114.916C122.527 114.6 122.296 114.452 122.024 114.621C121.752 114.79 121.521 115.191 121.521 115.508Z" fill="url(#paint160_linear)"/>
<path d="M137.75 105.882L137.142 107.169C137.142 107.169 136.242 106.41 136.409 106.009C136.619 105.607 137.75 105.882 137.75 105.882Z" fill="url(#paint161_linear)"/>
<path d="M136.954 106.789C136.954 107.106 137.184 107.254 137.457 107.085C137.729 106.916 137.959 106.536 137.959 106.198C137.959 105.882 137.729 105.734 137.457 105.903C137.184 106.072 136.954 106.473 136.954 106.789Z" fill="url(#paint162_linear)"/>
<path d="M139.257 104.953L138.65 106.241C138.65 106.241 137.75 105.481 137.917 105.08C138.106 104.679 139.257 104.953 139.257 104.953Z" fill="url(#paint163_linear)"/>
<path d="M138.461 105.861C138.461 106.178 138.691 106.325 138.964 106.157C139.236 105.988 139.466 105.608 139.466 105.27C139.466 104.953 139.236 104.806 138.964 104.974C138.691 105.143 138.461 105.544 138.461 105.861Z" fill="url(#paint164_linear)"/>
<path d="M119.469 109.027L118.736 110.589C118.736 110.589 116.495 109.196 116.726 108.71C116.935 108.246 119.469 109.027 119.469 109.027Z" fill="url(#paint165_linear)"/>
<path d="M118.484 110.146C118.484 110.547 118.757 110.695 119.113 110.505C119.448 110.315 119.741 109.829 119.741 109.428C119.741 109.027 119.469 108.879 119.113 109.069C118.757 109.28 118.484 109.745 118.484 110.146Z" fill="url(#paint166_linear)"/>
<path d="M116.453 111.201V109.323C116.453 108.732 116.788 108.162 117.312 107.887L118.652 107.17C119.196 106.874 119.845 106.937 120.348 107.296L116.453 111.201Z" fill="url(#paint167_linear)"/>
<path d="M126.757 112.552V114.325L133.102 110.716V108.879L126.757 112.552Z" fill="url(#paint168_linear)"/>
<path d="M133.102 108.879V109.154L126.966 112.7V114.199L126.757 114.325V112.552L133.102 108.879Z" fill="url(#paint169_radial)"/>
<path d="M120.392 98.7893V100.562L136.537 91.359V89.5437L120.392 98.7893Z" fill="url(#paint170_radial)"/>
<path d="M121.226 114.389L118.022 116.246L118.965 116.879C119.425 117.196 122.608 114.367 122.608 114.367C122.19 114.135 121.666 114.135 121.226 114.389Z" fill="url(#paint171_linear)"/>
<path d="M140.285 103.581L136.829 105.565C136.536 105.734 136.306 105.987 136.201 106.304C136.201 106.304 139.531 105.84 139.635 105.502L140.285 103.581Z" fill="url(#paint172_linear)"/>
<path d="M139.363 97.9029V99.465C139.363 99.6761 137.332 98.3462 137.332 98.3462C137.437 98.0507 137.667 97.8185 137.939 97.6707L138.547 97.3752C138.924 97.2064 139.363 97.4808 139.363 97.9029Z" fill="url(#paint173_radial)"/>
<path opacity="0.5" d="M158.732 104.214C158.732 104.214 152.408 110.885 152.303 110.8C152.177 110.695 137.247 100.436 137.33 100.246L138.001 98.3883C138.105 98.1139 138.294 97.9028 138.545 97.7761L139.11 97.5018C139.445 97.354 158.732 103.834 158.732 104.214Z" fill="url(#paint174_linear)"/>
<path opacity="0.5" d="M147.34 108.415C147.34 108.415 144.388 111.539 144.325 111.497C144.262 111.455 137.289 106.642 137.31 106.557L137.624 105.692C137.666 105.565 137.77 105.46 137.875 105.396L138.126 105.27C138.315 105.206 147.34 108.246 147.34 108.415Z" fill="url(#paint175_linear)"/>
<path opacity="0.5" d="M129.521 118.632C129.521 118.632 126.568 121.756 126.505 121.713C126.443 121.671 119.469 116.858 119.49 116.774L119.804 115.909C119.846 115.782 119.951 115.676 120.056 115.613L120.307 115.486C120.495 115.423 129.521 118.442 129.521 118.632Z" fill="url(#paint176_linear)"/>
<path opacity="0.5" d="M143.969 116.119C143.969 116.119 136.912 123.613 136.766 123.507C136.598 123.381 117.835 111.539 117.919 111.307L118.736 109.048C118.862 108.71 119.092 108.457 119.406 108.309L120.076 107.993C120.495 107.782 143.969 115.655 143.969 116.119Z" fill="url(#paint177_linear)"/>
<defs>
<linearGradient id="paint0_linear" x1="139.259" y1="53.1662" x2="125.127" y2="59.6683" gradientUnits="userSpaceOnUse">
<stop stop-color="#014282"/>
<stop offset="0.2257" stop-color="#0E578E"/>
<stop offset="0.5946" stop-color="#0E578E"/>
<stop offset="1" stop-color="#1566A5"/>
</linearGradient>
<linearGradient id="paint1_linear" x1="136.974" y1="75.6404" x2="140.503" y2="79.6561" gradientUnits="userSpaceOnUse">
<stop stop-color="#A5A9AB"/>
<stop offset="1" stop-color="white"/>
</linearGradient>
<radialGradient id="paint2_radial" cx="0" cy="0" r="1" gradientUnits="userSpaceOnUse" gradientTransform="translate(137.67 77.5603) rotate(180) scale(1.39102 1.40224)">
<stop stop-color="white"/>
<stop offset="1"/>
</radialGradient>
<linearGradient id="paint3_linear" x1="54.1036" y1="78.4397" x2="39.0105" y2="69.8838" gradientUnits="userSpaceOnUse">
<stop stop-color="#C0C0C0"/>
<stop offset="1" stop-color="white"/>
</linearGradient>
<linearGradient id="paint4_linear" x1="62.1579" y1="78.4396" x2="58.3993" y2="78.4396" gradientUnits="userSpaceOnUse">
<stop stop-color="#C0C0C0"/>
<stop offset="1" stop-color="#FBFBFB"/>
</linearGradient>
<linearGradient id="paint5_linear" x1="33.5331" y1="35.2687" x2="54.2963" y2="74.5245" gradientUnits="userSpaceOnUse">
<stop offset="0.0152" stop-color="#744CA1"/>
<stop offset="0.5303" stop-color="#9F79C8"/>
<stop offset="0.6408" stop-color="#A580CB"/>
<stop offset="0.7962" stop-color="#B492D3"/>
<stop offset="0.9774" stop-color="#CDB0E1"/>
<stop offset="1" stop-color="#D1B4E3"/>
</linearGradient>
<linearGradient id="paint6_linear" x1="4.12674" y1="28.9617" x2="1.45096" y2="29.2227" gradientUnits="userSpaceOnUse">
<stop stop-color="#014282"/>
<stop offset="0.2257" stop-color="#0E578E"/>
<stop offset="0.5946" stop-color="#0E578E"/>
<stop offset="1" stop-color="#1566A5"/>
</linearGradient>
<linearGradient id="paint7_linear" x1="25.2383" y1="2.01028" x2="-4.71505" y2="35.377" gradientUnits="userSpaceOnUse">
<stop stop-color="#014282"/>
<stop offset="0.2257" stop-color="#0E578E"/>
<stop offset="0.5946" stop-color="#0E578E"/>
<stop offset="1" stop-color="#1566A5"/>
</linearGradient>
<linearGradient id="paint8_linear" x1="10.8897" y1="36.9703" x2="12.4077" y2="39.8405" gradientUnits="userSpaceOnUse">
<stop stop-color="#9F79C8"/>
<stop offset="0.1367" stop-color="#A580CB"/>
<stop offset="0.3288" stop-color="#B492D3"/>
<stop offset="0.5529" stop-color="#CDB0E1"/>
<stop offset="0.5808" stop-color="#D1B4E3"/>
<stop offset="0.7644" stop-color="#DBC4E9"/>
<stop offset="1" stop-color="#EBDEF3"/>
</linearGradient>
<linearGradient id="paint9_linear" x1="9.53894" y1="56.7898" x2="10.0843" y2="49.7543" gradientUnits="userSpaceOnUse">
<stop stop-color="#042642"/>
<stop offset="1" stop-color="#031D32"/>
</linearGradient>
<linearGradient id="paint10_linear" x1="20.2784" y1="62.7435" x2="16.4691" y2="54.1059" gradientUnits="userSpaceOnUse">
<stop stop-color="#014282"/>
<stop offset="0.5" stop-color="#1566A5"/>
<stop offset="1" stop-color="#1566A5"/>
</linearGradient>
<linearGradient id="paint11_linear" x1="13.8343" y1="52.4599" x2="14.3716" y2="65.991" gradientUnits="userSpaceOnUse">
<stop stop-color="#014282"/>
<stop offset="1" stop-color="#1566A5"/>
</linearGradient>
<radialGradient id="paint12_radial" cx="0" cy="0" r="1" gradientUnits="userSpaceOnUse" gradientTransform="translate(15.2404 58.8578) scale(6.4031 6.45458)">
<stop stop-color="white"/>
<stop offset="1"/>
</radialGradient>
<linearGradient id="paint13_linear" x1="11.7054" y1="54.7585" x2="16.3456" y2="64.0735" gradientUnits="userSpaceOnUse">
<stop stop-color="#A5A9AB"/>
<stop offset="1" stop-color="white"/>
</linearGradient>
<linearGradient id="paint14_linear" x1="11.4498" y1="60.6446" x2="27.904" y2="57.9968" gradientUnits="userSpaceOnUse">
<stop stop-color="#A3A7AA"/>
<stop offset="1" stop-color="#C0C0C0"/>
</linearGradient>
<linearGradient id="paint15_linear" x1="12.7589" y1="60.6456" x2="23.5348" y2="58.8059" gradientUnits="userSpaceOnUse">
<stop stop-color="#A3A7AA"/>
<stop offset="1" stop-color="#C0C0C0"/>
</linearGradient>
<linearGradient id="paint16_linear" x1="13.2438" y1="56.7906" x2="15.6725" y2="61.6731" gradientUnits="userSpaceOnUse">
<stop stop-color="#A5A9AB"/>
<stop offset="1" stop-color="white"/>
</linearGradient>
<linearGradient id="paint17_linear" x1="16.8587" y1="46.9309" x2="7.76379" y2="54.6911" gradientUnits="userSpaceOnUse">
<stop stop-color="#014282"/>
<stop offset="0.2257" stop-color="#0E578E"/>
<stop offset="0.5946" stop-color="#0E578E"/>
<stop offset="1" stop-color="#1566A5"/>
</linearGradient>
<linearGradient id="paint18_linear" x1="33.1641" y1="68.1559" x2="31.5299" y2="63.2925" gradientUnits="userSpaceOnUse">
<stop stop-color="#1566A5"/>
<stop offset="0.5" stop-color="#0E578E"/>
<stop offset="1" stop-color="#014282"/>
</linearGradient>
<linearGradient id="paint19_linear" x1="26.1825" y1="60.5785" x2="26.72" y2="74.1097" gradientUnits="userSpaceOnUse">
<stop stop-color="#014282"/>
<stop offset="1" stop-color="#1566A5"/>
</linearGradient>
<radialGradient id="paint20_radial" cx="0" cy="0" r="1" gradientUnits="userSpaceOnUse" gradientTransform="translate(27.9555 66.4086) scale(6.40318 6.4546)">
<stop stop-color="white"/>
<stop offset="1"/>
</radialGradient>
<linearGradient id="paint21_linear" x1="24.4164" y1="62.3157" x2="29.0564" y2="71.6307" gradientUnits="userSpaceOnUse">
<stop stop-color="#A5A9AB"/>
<stop offset="1" stop-color="white"/>
</linearGradient>
<linearGradient id="paint22_linear" x1="24.1608" y1="68.2015" x2="40.6149" y2="65.5537" gradientUnits="userSpaceOnUse">
<stop stop-color="#A3A7AA"/>
<stop offset="1" stop-color="#C0C0C0"/>
</linearGradient>
<linearGradient id="paint23_linear" x1="25.4688" y1="68.2025" x2="36.2446" y2="66.3628" gradientUnits="userSpaceOnUse">
<stop stop-color="#A3A7AA"/>
<stop offset="1" stop-color="#C0C0C0"/>
</linearGradient>
<linearGradient id="paint24_linear" x1="25.9538" y1="64.3473" x2="28.3824" y2="69.2297" gradientUnits="userSpaceOnUse">
<stop stop-color="#A5A9AB"/>
<stop offset="1" stop-color="white"/>
</linearGradient>
<linearGradient id="paint25_linear" x1="29.5687" y1="54.4878" x2="20.4738" y2="62.2481" gradientUnits="userSpaceOnUse">
<stop stop-color="#014282"/>
<stop offset="0.2257" stop-color="#0E578E"/>
<stop offset="0.5946" stop-color="#0E578E"/>
<stop offset="1" stop-color="#1566A5"/>
</linearGradient>
<linearGradient id="paint26_linear" x1="26.1841" y1="67.6147" x2="26.1841" y2="57.8723" gradientUnits="userSpaceOnUse">
<stop stop-color="#084473"/>
<stop offset="1" stop-color="#042C53"/>
</linearGradient>
<linearGradient id="paint27_linear" x1="42.7809" y1="69.0032" x2="30.2067" y2="66.2068" gradientUnits="userSpaceOnUse">
<stop/>
<stop offset="1" stop-color="#064376"/>
</linearGradient>
<linearGradient id="paint28_linear" x1="37.9971" y1="70.3208" x2="53.1068" y2="80.4923" gradientUnits="userSpaceOnUse">
<stop stop-color="#25054D"/>
<stop stop-color="#0E578E"/>
<stop offset="1" stop-color="#014282"/>
</linearGradient>
<linearGradient id="paint29_linear" x1="42.2055" y1="70.5528" x2="35.4045" y2="69.0404" gradientUnits="userSpaceOnUse">
<stop stop-color="#25054D"/>
<stop offset="1" stop-color="#45108A"/>
</linearGradient>
<linearGradient id="paint30_linear" x1="46.5873" y1="78.4397" x2="46.5873" y2="71.4035" gradientUnits="userSpaceOnUse">
<stop stop-color="#1566A5"/>
<stop offset="1" stop-color="#014282"/>
</linearGradient>
<linearGradient id="paint31_linear" x1="60.7753" y1="81.282" x2="51.5966" y2="79.2408" gradientUnits="userSpaceOnUse">
<stop stop-color="#25054D"/>
<stop offset="1" stop-color="#45108A"/>
</linearGradient>
<linearGradient id="paint32_linear" x1="29.5353" y1="37.2681" x2="49.6369" y2="75.2731" gradientUnits="userSpaceOnUse">
<stop stop-color="#360B6D"/>
<stop offset="1" stop-color="#360B6E"/>
</linearGradient>
<linearGradient id="paint33_linear" x1="70.7487" y1="88.7234" x2="64.7808" y2="80.6503" gradientUnits="userSpaceOnUse">
<stop stop-color="#1566A5"/>
<stop offset="0.5" stop-color="#0E578E"/>
<stop offset="1" stop-color="#014282"/>
</linearGradient>
<linearGradient id="paint34_linear" x1="64.3055" y1="82.2285" x2="64.2973" y2="95.7596" gradientUnits="userSpaceOnUse">
<stop stop-color="#014282"/>
<stop offset="1" stop-color="#1566A5"/>
</linearGradient>
<radialGradient id="paint35_radial" cx="0" cy="0" r="1" gradientUnits="userSpaceOnUse" gradientTransform="translate(65.4055 88.3695) scale(6.40314 6.45458)">
<stop stop-color="white"/>
<stop offset="1"/>
</radialGradient>
<linearGradient id="paint36_linear" x1="61.8783" y1="84.2688" x2="66.5184" y2="93.5838" gradientUnits="userSpaceOnUse">
<stop stop-color="#A5A9AB"/>
<stop offset="1" stop-color="white"/>
</linearGradient>
<linearGradient id="paint37_linear" x1="61.6227" y1="90.1546" x2="78.0769" y2="87.5068" gradientUnits="userSpaceOnUse">
<stop stop-color="#A3A7AA"/>
<stop offset="1" stop-color="#C0C0C0"/>
</linearGradient>
<linearGradient id="paint38_linear" x1="62.9307" y1="90.1766" x2="73.7066" y2="88.3369" gradientUnits="userSpaceOnUse">
<stop stop-color="#A3A7AA"/>
<stop offset="1" stop-color="#C0C0C0"/>
</linearGradient>
<linearGradient id="paint39_linear" x1="63.4157" y1="86.3007" x2="65.8443" y2="91.1831" gradientUnits="userSpaceOnUse">
<stop stop-color="#A5A9AB"/>
<stop offset="1" stop-color="white"/>
</linearGradient>
<linearGradient id="paint40_linear" x1="67.0305" y1="76.4622" x2="57.9357" y2="84.2223" gradientUnits="userSpaceOnUse">
<stop stop-color="#014282"/>
<stop offset="0.2257" stop-color="#0E578E"/>
<stop offset="0.5946" stop-color="#0E578E"/>
<stop offset="1" stop-color="#1566A5"/>
</linearGradient>
<linearGradient id="paint41_linear" x1="90.9261" y1="99.0247" x2="35.4586" y2="82.5481" gradientUnits="userSpaceOnUse">
<stop stop-color="#A3A7AA"/>
<stop offset="1" stop-color="white"/>
</linearGradient>
<linearGradient id="paint42_linear" x1="77.5164" y1="73.1708" x2="75.9656" y2="73.2532" gradientUnits="userSpaceOnUse">
<stop stop-color="#014282"/>
<stop offset="0.2257" stop-color="#0E578E"/>
<stop offset="0.5946" stop-color="#0E578E"/>
<stop offset="1" stop-color="#1566A5"/>
</linearGradient>
<radialGradient id="paint43_radial" cx="0" cy="0" r="1" gradientUnits="userSpaceOnUse" gradientTransform="translate(74.122 92.7925) rotate(180) scale(3.96627 3.99799)">
<stop stop-color="white"/>
<stop offset="1"/>
</radialGradient>
<linearGradient id="paint44_linear" x1="88.9931" y1="98.2762" x2="86.8305" y2="102.24" gradientUnits="userSpaceOnUse">
<stop offset="0.00101312" stop-color="#A3A7AA"/>
<stop offset="1" stop-color="white"/>
</linearGradient>
<linearGradient id="paint45_linear" x1="99.0343" y1="79.0408" x2="88.6474" y2="102.731" gradientUnits="userSpaceOnUse">
<stop stop-color="#014282"/>
<stop offset="0.2257" stop-color="#0E578E"/>
<stop offset="0.5946" stop-color="#0E578E"/>
<stop offset="1" stop-color="#1566A5"/>
</linearGradient>
<linearGradient id="paint46_linear" x1="99.0844" y1="89.0051" x2="106.793" y2="108.973" gradientUnits="userSpaceOnUse">
<stop stop-color="#A5A9AB"/>
<stop offset="1" stop-color="white"/>
</linearGradient>
<linearGradient id="paint47_linear" x1="78.4189" y1="90.0679" x2="168.861" y2="55.4582" gradientUnits="userSpaceOnUse">
<stop stop-color="#A3A7AA"/>
<stop offset="1" stop-color="#C0C0C0"/>
</linearGradient>
<linearGradient id="paint48_linear" x1="113.042" y1="-144.81" x2="-30.6591" y2="26.4857" gradientUnits="userSpaceOnUse">
<stop stop-color="#014282"/>
<stop offset="0.2257" stop-color="#0E578E"/>
<stop offset="0.5946" stop-color="#0E578E"/>
<stop offset="1" stop-color="#1566A5"/>
</linearGradient>
<linearGradient id="paint49_linear" x1="88.3459" y1="16.1896" x2="84.017" y2="16.3931" gradientUnits="userSpaceOnUse">
<stop stop-color="#014282"/>
<stop offset="0.2257" stop-color="#0E578E"/>
<stop offset="0.5946" stop-color="#0E578E"/>
<stop offset="1" stop-color="#1566A5"/>
</linearGradient>
<linearGradient id="paint50_linear" x1="88.668" y1="18.1905" x2="86.9494" y2="18.2234" gradientUnits="userSpaceOnUse">
<stop stop-color="#014282"/>
<stop offset="0.2257" stop-color="#0E578E"/>
<stop offset="0.5946" stop-color="#0E578E"/>
<stop offset="1" stop-color="#1566A5"/>
</linearGradient>
<linearGradient id="paint51_linear" x1="84.7024" y1="14.0166" x2="80.3733" y2="14.22" gradientUnits="userSpaceOnUse">
<stop stop-color="#014282"/>
<stop offset="0.2257" stop-color="#0E578E"/>
<stop offset="0.5946" stop-color="#0E578E"/>
<stop offset="1" stop-color="#1566A5"/>
</linearGradient>
<linearGradient id="paint52_linear" x1="85.0169" y1="16.0797" x2="83.3805" y2="16.1096" gradientUnits="userSpaceOnUse">
<stop stop-color="#014282"/>
<stop offset="0.2257" stop-color="#0E578E"/>
<stop offset="0.5946" stop-color="#0E578E"/>
<stop offset="1" stop-color="#1566A5"/>
</linearGradient>
<linearGradient id="paint53_linear" x1="81.0802" y1="11.8849" x2="76.7516" y2="12.0882" gradientUnits="userSpaceOnUse">
<stop stop-color="#014282"/>
<stop offset="0.2257" stop-color="#0E578E"/>
<stop offset="0.5946" stop-color="#0E578E"/>
<stop offset="1" stop-color="#1566A5"/>
</linearGradient>
<linearGradient id="paint54_linear" x1="81.3744" y1="13.9477" x2="79.7378" y2="13.9775" gradientUnits="userSpaceOnUse">
<stop stop-color="#014282"/>
<stop offset="0.2257" stop-color="#0E578E"/>
<stop offset="0.5946" stop-color="#0E578E"/>
<stop offset="1" stop-color="#1566A5"/>
</linearGradient>
<linearGradient id="paint55_linear" x1="77.4339" y1="9.75282" x2="73.1047" y2="9.95617" gradientUnits="userSpaceOnUse">
<stop stop-color="#014282"/>
<stop offset="0.2257" stop-color="#0E578E"/>
<stop offset="0.5946" stop-color="#0E578E"/>
<stop offset="1" stop-color="#1566A5"/>
</linearGradient>
<linearGradient id="paint56_linear" x1="77.7299" y1="11.816" x2="76.0932" y2="11.8458" gradientUnits="userSpaceOnUse">
<stop stop-color="#014282"/>
<stop offset="0.2257" stop-color="#0E578E"/>
<stop offset="0.5946" stop-color="#0E578E"/>
<stop offset="1" stop-color="#1566A5"/>
</linearGradient>
<linearGradient id="paint57_linear" x1="73.7912" y1="7.62092" x2="69.4623" y2="7.82425" gradientUnits="userSpaceOnUse">
<stop stop-color="#014282"/>
<stop offset="0.2257" stop-color="#0E578E"/>
<stop offset="0.5946" stop-color="#0E578E"/>
<stop offset="1" stop-color="#1566A5"/>
</linearGradient>
<linearGradient id="paint58_linear" x1="74.1078" y1="9.68369" x2="72.4712" y2="9.71354" gradientUnits="userSpaceOnUse">
<stop stop-color="#014282"/>
<stop offset="0.2257" stop-color="#0E578E"/>
<stop offset="0.5946" stop-color="#0E578E"/>
<stop offset="1" stop-color="#1566A5"/>
</linearGradient>
<linearGradient id="paint59_linear" x1="70.1467" y1="5.48891" x2="65.8178" y2="5.69223" gradientUnits="userSpaceOnUse">
<stop stop-color="#014282"/>
<stop offset="0.2257" stop-color="#0E578E"/>
<stop offset="0.5946" stop-color="#0E578E"/>
<stop offset="1" stop-color="#1566A5"/>
</linearGradient>
<linearGradient id="paint60_linear" x1="70.4633" y1="7.55204" x2="68.8266" y2="7.5819" gradientUnits="userSpaceOnUse">
<stop stop-color="#014282"/>
<stop offset="0.2257" stop-color="#0E578E"/>
<stop offset="0.5946" stop-color="#0E578E"/>
<stop offset="1" stop-color="#1566A5"/>
</linearGradient>
<linearGradient id="paint61_linear" x1="66.5256" y1="3.41885" x2="62.1967" y2="3.62234" gradientUnits="userSpaceOnUse">
<stop stop-color="#014282"/>
<stop offset="0.2257" stop-color="#0E578E"/>
<stop offset="0.5946" stop-color="#0E578E"/>
<stop offset="1" stop-color="#1566A5"/>
</linearGradient>
<linearGradient id="paint62_linear" x1="66.8207" y1="5.41983" x2="65.1841" y2="5.44969" gradientUnits="userSpaceOnUse">
<stop stop-color="#014282"/>
<stop offset="0.2257" stop-color="#0E578E"/>
<stop offset="0.5946" stop-color="#0E578E"/>
<stop offset="1" stop-color="#1566A5"/>
</linearGradient>
<linearGradient id="paint63_linear" x1="62.881" y1="1.28702" x2="58.5522" y2="1.49051" gradientUnits="userSpaceOnUse">
<stop stop-color="#014282"/>
<stop offset="0.2257" stop-color="#0E578E"/>
<stop offset="0.5946" stop-color="#0E578E"/>
<stop offset="1" stop-color="#1566A5"/>
</linearGradient>
<linearGradient id="paint64_linear" x1="63.1771" y1="3.288" x2="61.5407" y2="3.31785" gradientUnits="userSpaceOnUse">
<stop stop-color="#014282"/>
<stop offset="0.2257" stop-color="#0E578E"/>
<stop offset="0.5946" stop-color="#0E578E"/>
<stop offset="1" stop-color="#1566A5"/>
</linearGradient>
<linearGradient id="paint65_linear" x1="59.2374" y1="-0.845" x2="54.9088" y2="-0.641535" gradientUnits="userSpaceOnUse">
<stop stop-color="#014282"/>
<stop offset="0.2257" stop-color="#0E578E"/>
<stop offset="0.5946" stop-color="#0E578E"/>
<stop offset="1" stop-color="#1566A5"/>
</linearGradient>
<linearGradient id="paint66_linear" x1="59.5533" y1="1.15592" x2="57.9161" y2="1.18579" gradientUnits="userSpaceOnUse">
<stop stop-color="#014282"/>
<stop offset="0.2257" stop-color="#0E578E"/>
<stop offset="0.5946" stop-color="#0E578E"/>
<stop offset="1" stop-color="#1566A5"/>
</linearGradient>
<linearGradient id="paint67_linear" x1="55.5939" y1="-2.97708" x2="51.2652" y2="-2.77361" gradientUnits="userSpaceOnUse">
<stop stop-color="#014282"/>
<stop offset="0.2257" stop-color="#0E578E"/>
<stop offset="0.5946" stop-color="#0E578E"/>
<stop offset="1" stop-color="#1566A5"/>
</linearGradient>
<linearGradient id="paint68_linear" x1="55.9105" y1="-0.976161" x2="54.2741" y2="-0.946314" gradientUnits="userSpaceOnUse">
<stop stop-color="#014282"/>
<stop offset="0.2257" stop-color="#0E578E"/>
<stop offset="0.5946" stop-color="#0E578E"/>
<stop offset="1" stop-color="#1566A5"/>
</linearGradient>
<linearGradient id="paint69_linear" x1="51.972" y1="-5.10885" x2="47.6428" y2="-4.90534" gradientUnits="userSpaceOnUse">
<stop stop-color="#014282"/>
<stop offset="0.2257" stop-color="#0E578E"/>
<stop offset="0.5946" stop-color="#0E578E"/>
<stop offset="1" stop-color="#1566A5"/>
</linearGradient>
<linearGradient id="paint70_linear" x1="52.2661" y1="-3.10806" x2="50.6292" y2="-3.07819" gradientUnits="userSpaceOnUse">
<stop stop-color="#014282"/>
<stop offset="0.2257" stop-color="#0E578E"/>
<stop offset="0.5946" stop-color="#0E578E"/>
<stop offset="1" stop-color="#1566A5"/>
</linearGradient>
<linearGradient id="paint71_linear" x1="48.3293" y1="-7.24106" x2="44.0004" y2="-7.03757" gradientUnits="userSpaceOnUse">
<stop stop-color="#014282"/>
<stop offset="0.2257" stop-color="#0E578E"/>
<stop offset="0.5946" stop-color="#0E578E"/>
<stop offset="1" stop-color="#1566A5"/>
</linearGradient>
<linearGradient id="paint72_linear" x1="48.6494" y1="-5.23977" x2="46.9311" y2="-5.20686" gradientUnits="userSpaceOnUse">
<stop stop-color="#014282"/>
<stop offset="0.2257" stop-color="#0E578E"/>
<stop offset="0.5946" stop-color="#0E578E"/>
<stop offset="1" stop-color="#1566A5"/>
</linearGradient>
<linearGradient id="paint73_linear" x1="44.6848" y1="-9.37289" x2="40.3557" y2="-9.16938" gradientUnits="userSpaceOnUse">
<stop stop-color="#014282"/>
<stop offset="0.2257" stop-color="#0E578E"/>
<stop offset="0.5946" stop-color="#0E578E"/>
<stop offset="1" stop-color="#1566A5"/>
</linearGradient>
<linearGradient id="paint74_linear" x1="45.0014" y1="-7.41277" x2="43.3647" y2="-7.38293" gradientUnits="userSpaceOnUse">
<stop stop-color="#014282"/>
<stop offset="0.2257" stop-color="#0E578E"/>
<stop offset="0.5946" stop-color="#0E578E"/>
<stop offset="1" stop-color="#1566A5"/>
</linearGradient>
<linearGradient id="paint75_linear" x1="41.0413" y1="-11.5459" x2="36.7121" y2="-11.3425" gradientUnits="userSpaceOnUse">
<stop stop-color="#014282"/>
<stop offset="0.2257" stop-color="#0E578E"/>
<stop offset="0.5946" stop-color="#0E578E"/>
<stop offset="1" stop-color="#1566A5"/>
</linearGradient>
<linearGradient id="paint76_linear" x1="41.3568" y1="-9.48282" x2="39.7202" y2="-9.45296" gradientUnits="userSpaceOnUse">
<stop stop-color="#014282"/>
<stop offset="0.2257" stop-color="#0E578E"/>
<stop offset="0.5946" stop-color="#0E578E"/>
<stop offset="1" stop-color="#1566A5"/>
</linearGradient>
<linearGradient id="paint77_linear" x1="37.4172" y1="-13.6776" x2="33.0883" y2="-13.4743" gradientUnits="userSpaceOnUse">
<stop stop-color="#014282"/>
<stop offset="0.2257" stop-color="#0E578E"/>
<stop offset="0.5946" stop-color="#0E578E"/>
<stop offset="1" stop-color="#1566A5"/>
</linearGradient>
<linearGradient id="paint78_linear" x1="37.7133" y1="-11.6147" x2="36.0766" y2="-11.5848" gradientUnits="userSpaceOnUse">
<stop stop-color="#014282"/>
<stop offset="0.2257" stop-color="#0E578E"/>
<stop offset="0.5946" stop-color="#0E578E"/>
<stop offset="1" stop-color="#1566A5"/>
</linearGradient>
<linearGradient id="paint79_linear" x1="33.7746" y1="-15.8097" x2="29.4457" y2="-15.6064" gradientUnits="userSpaceOnUse">
<stop stop-color="#014282"/>
<stop offset="0.2257" stop-color="#0E578E"/>
<stop offset="0.5946" stop-color="#0E578E"/>
<stop offset="1" stop-color="#1566A5"/>
</linearGradient>
<linearGradient id="paint80_linear" x1="34.0956" y1="-13.7467" x2="32.3773" y2="-13.7138" gradientUnits="userSpaceOnUse">
<stop stop-color="#014282"/>
<stop offset="0.2257" stop-color="#0E578E"/>
<stop offset="0.5946" stop-color="#0E578E"/>
<stop offset="1" stop-color="#1566A5"/>
</linearGradient>
<linearGradient id="paint81_linear" x1="30.13" y1="-17.9418" x2="25.8014" y2="-17.7385" gradientUnits="userSpaceOnUse">
<stop stop-color="#014282"/>
<stop offset="0.2257" stop-color="#0E578E"/>
<stop offset="0.5946" stop-color="#0E578E"/>
<stop offset="1" stop-color="#1566A5"/>
</linearGradient>
<linearGradient id="paint82_linear" x1="30.4476" y1="-15.8788" x2="28.8112" y2="-15.849" gradientUnits="userSpaceOnUse">
<stop stop-color="#014282"/>
<stop offset="0.2257" stop-color="#0E578E"/>
<stop offset="0.5946" stop-color="#0E578E"/>
<stop offset="1" stop-color="#1566A5"/>
</linearGradient>
<linearGradient id="paint83_linear" x1="26.4865" y1="-20.0118" x2="22.1576" y2="-19.8083" gradientUnits="userSpaceOnUse">
<stop stop-color="#014282"/>
<stop offset="0.2257" stop-color="#0E578E"/>
<stop offset="0.5946" stop-color="#0E578E"/>
<stop offset="1" stop-color="#1566A5"/>
</linearGradient>
<linearGradient id="paint84_linear" x1="26.8032" y1="-18.0108" x2="25.1663" y2="-17.981" gradientUnits="userSpaceOnUse">
<stop stop-color="#014282"/>
<stop offset="0.2257" stop-color="#0E578E"/>
<stop offset="0.5946" stop-color="#0E578E"/>
<stop offset="1" stop-color="#1566A5"/>
</linearGradient>
<linearGradient id="paint85_linear" x1="22.8653" y1="-22.1436" x2="18.5367" y2="-21.9402" gradientUnits="userSpaceOnUse">
<stop stop-color="#014282"/>
<stop offset="0.2257" stop-color="#0E578E"/>
<stop offset="0.5946" stop-color="#0E578E"/>
<stop offset="1" stop-color="#1566A5"/>
</linearGradient>
<linearGradient id="paint86_linear" x1="23.1597" y1="-20.1427" x2="21.5226" y2="-20.1128" gradientUnits="userSpaceOnUse">
<stop stop-color="#014282"/>
<stop offset="0.2257" stop-color="#0E578E"/>
<stop offset="0.5946" stop-color="#0E578E"/>
<stop offset="1" stop-color="#1566A5"/>
</linearGradient>
<linearGradient id="paint87_linear" x1="19.221" y1="-24.2757" x2="14.8918" y2="-24.0722" gradientUnits="userSpaceOnUse">
<stop stop-color="#014282"/>
<stop offset="0.2257" stop-color="#0E578E"/>
<stop offset="0.5946" stop-color="#0E578E"/>
<stop offset="1" stop-color="#1566A5"/>
</linearGradient>
<linearGradient id="paint88_linear" x1="19.541" y1="-22.2745" x2="17.8227" y2="-22.2416" gradientUnits="userSpaceOnUse">
<stop stop-color="#014282"/>
<stop offset="0.2257" stop-color="#0E578E"/>
<stop offset="0.5946" stop-color="#0E578E"/>
<stop offset="1" stop-color="#1566A5"/>
</linearGradient>
<linearGradient id="paint89_linear" x1="15.5773" y1="-26.4076" x2="11.2485" y2="-26.2041" gradientUnits="userSpaceOnUse">
<stop stop-color="#014282"/>
<stop offset="0.2257" stop-color="#0E578E"/>
<stop offset="0.5946" stop-color="#0E578E"/>
<stop offset="1" stop-color="#1566A5"/>
</linearGradient>
<linearGradient id="paint90_linear" x1="15.8929" y1="-24.4066" x2="14.2565" y2="-24.3768" gradientUnits="userSpaceOnUse">
<stop stop-color="#014282"/>
<stop offset="0.2257" stop-color="#0E578E"/>
<stop offset="0.5946" stop-color="#0E578E"/>
<stop offset="1" stop-color="#1566A5"/>
</linearGradient>
<linearGradient id="paint91_linear" x1="11.9563" y1="-28.5396" x2="7.6272" y2="-28.3361" gradientUnits="userSpaceOnUse">
<stop stop-color="#014282"/>
<stop offset="0.2257" stop-color="#0E578E"/>
<stop offset="0.5946" stop-color="#0E578E"/>
<stop offset="1" stop-color="#1566A5"/>
</linearGradient>
<linearGradient id="paint92_linear" x1="12.2504" y1="-26.5385" x2="10.6138" y2="-26.5086" gradientUnits="userSpaceOnUse">
<stop stop-color="#014282"/>
<stop offset="0.2257" stop-color="#0E578E"/>
<stop offset="0.5946" stop-color="#0E578E"/>
<stop offset="1" stop-color="#1566A5"/>
</linearGradient>
<linearGradient id="paint93_linear" x1="8.3118" y1="-30.6714" x2="3.98267" y2="-30.4678" gradientUnits="userSpaceOnUse">
<stop stop-color="#014282"/>
<stop offset="0.2257" stop-color="#0E578E"/>
<stop offset="0.5946" stop-color="#0E578E"/>
<stop offset="1" stop-color="#1566A5"/>
</linearGradient>
<linearGradient id="paint94_linear" x1="8.60587" y1="-28.6705" x2="6.96922" y2="-28.6406" gradientUnits="userSpaceOnUse">
<stop stop-color="#014282"/>
<stop offset="0.2257" stop-color="#0E578E"/>
<stop offset="0.5946" stop-color="#0E578E"/>
<stop offset="1" stop-color="#1566A5"/>
</linearGradient>
<linearGradient id="paint95_linear" x1="22.2167" y1="20.0271" x2="35.7759" y2="77.6222" gradientUnits="userSpaceOnUse">
<stop stop-color="#A5A9AB"/>
<stop offset="1" stop-color="white"/>
</linearGradient>
<linearGradient id="paint96_linear" x1="122.02" y1="-33.2245" x2="52.3208" y2="9.13688" gradientUnits="userSpaceOnUse">
<stop stop-color="#014282"/>
<stop offset="0.2257" stop-color="#0E578E"/>
<stop offset="0.5946" stop-color="#0E578E"/>
<stop offset="1" stop-color="#1566A5"/>
</linearGradient>
<linearGradient id="paint97_linear" x1="143.296" y1="-127.557" x2="46.3683" y2="55.6823" gradientUnits="userSpaceOnUse">
<stop stop-color="#014282"/>
<stop offset="0.2257" stop-color="#0E578E"/>
<stop offset="0.5946" stop-color="#0E578E"/>
<stop offset="1" stop-color="#1566A5"/>
</linearGradient>
<linearGradient id="paint98_linear" x1="150.419" y1="-45.6555" x2="52.5667" y2="44.226" gradientUnits="userSpaceOnUse">
<stop stop-color="#014282"/>
<stop offset="0.2257" stop-color="#0E578E"/>
<stop offset="0.5946" stop-color="#0E578E"/>
<stop offset="1" stop-color="#1566A5"/>
</linearGradient>
<linearGradient id="paint99_linear" x1="122.042" y1="-7.22053" x2="55.5149" y2="33.1493" gradientUnits="userSpaceOnUse">
<stop stop-color="#014282"/>
<stop offset="0.2257" stop-color="#0E578E"/>
<stop offset="0.5946" stop-color="#0E578E"/>
<stop offset="1" stop-color="#1566A5"/>
</linearGradient>
<radialGradient id="paint100_radial" cx="0" cy="0" r="1" gradientUnits="userSpaceOnUse" gradientTransform="translate(105.981 92.8041) rotate(180) scale(12.1396 12.2371)">
<stop stop-color="white"/>
<stop offset="1"/>
</radialGradient>
<linearGradient id="paint101_linear" x1="112.034" y1="92.4273" x2="84.9193" y2="84.3727" gradientUnits="userSpaceOnUse">
<stop stop-color="#25054D"/>
<stop offset="1" stop-color="#45108A"/>
</linearGradient>
<linearGradient id="paint102_linear" x1="151.967" y1="104.5" x2="103.637" y2="93.7526" gradientUnits="userSpaceOnUse">
<stop stop-color="#0D3C60"/>
<stop offset="1" stop-color="#00457A"/>
</linearGradient>
<linearGradient id="paint103_linear" x1="133.192" y1="99.7368" x2="103.855" y2="103.645" gradientUnits="userSpaceOnUse">
<stop stop-color="#25054D"/>
<stop offset="1" stop-color="#45108A"/>
</linearGradient>
<linearGradient id="paint104_linear" x1="133.155" y1="99.7902" x2="103.936" y2="103.683" gradientUnits="userSpaceOnUse">
<stop stop-color="#9F79C8"/>
<stop offset="0.1367" stop-color="#A580CB"/>
<stop offset="0.3288" stop-color="#B492D3"/>
<stop offset="0.5529" stop-color="#CDB0E1"/>
<stop offset="0.5808" stop-color="#D1B4E3"/>
<stop offset="0.7644" stop-color="#DBC4E9"/>
<stop offset="1" stop-color="#EBDEF3"/>
</linearGradient>
<radialGradient id="paint105_radial" cx="0" cy="0" r="1" gradientUnits="userSpaceOnUse" gradientTransform="translate(128.79 103.679) rotate(180) scale(4.3931 4.4284)">
<stop stop-color="white"/>
<stop offset="1"/>
</radialGradient>
<radialGradient id="paint106_radial" cx="0" cy="0" r="1" gradientUnits="userSpaceOnUse" gradientTransform="translate(128.568 101.708) rotate(180) scale(5.33081 5.37361)">
<stop stop-color="white"/>
<stop offset="1"/>
</radialGradient>
<radialGradient id="paint107_radial" cx="0" cy="0" r="1" gradientUnits="userSpaceOnUse" gradientTransform="translate(128.449 99.6799) rotate(180) scale(5.60243 5.64738)">
<stop stop-color="white"/>
<stop offset="1"/>
</radialGradient>
<radialGradient id="paint108_radial" cx="0" cy="0" r="1" gradientUnits="userSpaceOnUse" gradientTransform="translate(128.449 97.5542) rotate(180) scale(5.60288 5.64782)">
<stop stop-color="white"/>
<stop offset="1"/>
</radialGradient>
<linearGradient id="paint109_linear" x1="127.084" y1="96.2873" x2="123.521" y2="78.7092" gradientUnits="userSpaceOnUse">
<stop stop-color="#25054D"/>
<stop offset="1" stop-color="#45108A"/>
</linearGradient>
<linearGradient id="paint110_linear" x1="122.522" y1="103.023" x2="127.38" y2="75.5274" gradientUnits="userSpaceOnUse">
<stop stop-color="#4916A1"/>
<stop offset="0.0337" stop-color="#451599"/>
<stop offset="0.2768" stop-color="#2D0D63"/>
<stop offset="0.5033" stop-color="#190838"/>
<stop offset="0.7065" stop-color="#0C0319"/>
<stop offset="0.8788" stop-color="#030107"/>
<stop offset="1"/>
</linearGradient>
<linearGradient id="paint111_linear" x1="127.332" y1="93.1048" x2="122.306" y2="81.2228" gradientUnits="userSpaceOnUse">
<stop stop-color="#25054D"/>
<stop offset="1" stop-color="#45108A"/>
</linearGradient>
<linearGradient id="paint112_linear" x1="129.821" y1="86.1397" x2="119.879" y2="73.8811" gradientUnits="userSpaceOnUse">
<stop stop-color="#25054D"/>
<stop offset="1" stop-color="#45108A"/>
</linearGradient>
<linearGradient id="paint113_linear" x1="122.518" y1="92.0646" x2="112.574" y2="79.806" gradientUnits="userSpaceOnUse">
<stop stop-color="#25054D"/>
<stop offset="1" stop-color="#45108A"/>
</linearGradient>
<linearGradient id="paint114_linear" x1="105.158" y1="93.4364" x2="99.3728" y2="94.3843" gradientUnits="userSpaceOnUse">
<stop stop-color="#9F79C8"/>
<stop offset="0.1367" stop-color="#A580CB"/>
<stop offset="0.3288" stop-color="#B492D3"/>
<stop offset="0.5529" stop-color="#CDB0E1"/>
<stop offset="0.5808" stop-color="#D1B4E3"/>
<stop offset="0.7644" stop-color="#DBC4E9"/>
<stop offset="1" stop-color="#EBDEF3"/>
</linearGradient>
<linearGradient id="paint115_linear" x1="107.216" y1="102.819" x2="97.1022" y2="98.3211" gradientUnits="userSpaceOnUse">
<stop stop-color="#A7ABAE"/>
<stop offset="1" stop-color="white"/>
</linearGradient>
<linearGradient id="paint116_linear" x1="96.9114" y1="101.093" x2="100.533" y2="106.092" gradientUnits="userSpaceOnUse">
<stop stop-color="#A5A9AB"/>
<stop offset="1" stop-color="white"/>
</linearGradient>
<linearGradient id="paint117_linear" x1="110.271" y1="115.929" x2="99.7166" y2="101.898" gradientUnits="userSpaceOnUse">
<stop stop-color="#25054D"/>
<stop offset="0.5" stop-color="#45108A"/>
<stop offset="1" stop-color="#25054D"/>
</linearGradient>
<linearGradient id="paint118_linear" x1="102.428" y1="104.42" x2="102.428" y2="117.951" gradientUnits="userSpaceOnUse">
<stop stop-color="#014282"/>
<stop offset="1" stop-color="#1566A5"/>
</linearGradient>
<linearGradient id="paint119_linear" x1="99.6149" y1="112.115" x2="118.972" y2="108.807" gradientUnits="userSpaceOnUse">
<stop stop-color="#A3A7AA"/>
<stop offset="1" stop-color="#C0C0C0"/>
</linearGradient>
<linearGradient id="paint120_linear" x1="100.623" y1="105.724" x2="105.601" y2="115.133" gradientUnits="userSpaceOnUse">
<stop stop-color="#A5A9AB"/>
<stop offset="1" stop-color="white"/>
</linearGradient>
<linearGradient id="paint121_linear" x1="99.39" y1="112.142" x2="116.059" y2="109.698" gradientUnits="userSpaceOnUse">
<stop stop-color="#A3A7AA"/>
<stop offset="1" stop-color="#C0C0C0"/>
</linearGradient>
<radialGradient id="paint122_radial" cx="0" cy="0" r="1" gradientUnits="userSpaceOnUse" gradientTransform="translate(102.823 110.706) rotate(180) scale(1.2794 1.28975)">
<stop stop-color="#EEEBF2"/>
<stop offset="0.5808" stop-color="#D4D1D8"/>
<stop offset="0.9392" stop-color="#A5A6B9"/>
<stop offset="1" stop-color="#9D9EB3"/>
</radialGradient>
<radialGradient id="paint123_radial" cx="0" cy="0" r="1" gradientUnits="userSpaceOnUse" gradientTransform="translate(103.544 110.481) scale(6.44029 6.49197)">
<stop stop-color="white"/>
<stop offset="1"/>
</radialGradient>
<linearGradient id="paint124_linear" x1="106.308" y1="110.605" x2="99.5334" y2="110.605" gradientUnits="userSpaceOnUse">
<stop stop-color="#25054D"/>
<stop offset="1" stop-color="#45108A"/>
</linearGradient>
<linearGradient id="paint125_linear" x1="101.752" y1="108.458" x2="103.858" y2="112.802" gradientUnits="userSpaceOnUse">
<stop stop-color="#A5A9AB"/>
<stop offset="1" stop-color="white"/>
</linearGradient>
<linearGradient id="paint126_linear" x1="104.691" y1="100.483" x2="97.2523" y2="106.78" gradientUnits="userSpaceOnUse">
<stop stop-color="#014282"/>
<stop offset="0.2257" stop-color="#0E578E"/>
<stop offset="0.5946" stop-color="#0E578E"/>
<stop offset="1" stop-color="#1566A5"/>
</linearGradient>
<linearGradient id="paint127_linear" x1="107.799" y1="102.255" x2="102.402" y2="98.5064" gradientUnits="userSpaceOnUse">
<stop stop-color="#A8ACAF"/>
<stop offset="1" stop-color="white"/>
</linearGradient>
<linearGradient id="paint128_linear" x1="107.798" y1="102.254" x2="112.146" y2="109.802" gradientUnits="userSpaceOnUse">
<stop stop-color="#AAAEB1"/>
<stop offset="1" stop-color="white"/>
</linearGradient>
<linearGradient id="paint129_linear" x1="113.257" y1="65.6711" x2="82.174" y2="94.0387" gradientUnits="userSpaceOnUse">
<stop stop-color="#014282"/>
<stop offset="0.2257" stop-color="#0E578E"/>
<stop offset="0.5946" stop-color="#0E578E"/>
<stop offset="1" stop-color="#1566A5"/>
</linearGradient>
<radialGradient id="paint130_radial" cx="0" cy="0" r="1" gradientUnits="userSpaceOnUse" gradientTransform="translate(104.805 107.931) rotate(180) scale(4.17116 4.20462)">
<stop stop-color="white"/>
<stop offset="1"/>
</radialGradient>
<radialGradient id="paint131_radial" cx="0" cy="0" r="1" gradientUnits="userSpaceOnUse" gradientTransform="translate(97.7773 103.965) rotate(180) scale(2.09237 2.10916)">
<stop stop-color="white"/>
<stop offset="1"/>
</radialGradient>
<linearGradient id="paint132_linear" x1="110.242" y1="110.715" x2="140.698" y2="110.715" gradientUnits="userSpaceOnUse">
<stop stop-color="#ABAFB2"/>
<stop offset="0.166667" stop-color="#A4A8AB"/>
<stop offset="0.223958" stop-color="white"/>
<stop offset="0.276042" stop-color="#C6C6C6"/>
<stop offset="1" stop-color="#A7AAAD"/>
</linearGradient>
<linearGradient id="paint133_linear" x1="126.053" y1="107.667" x2="126.824" y2="109.373" gradientUnits="userSpaceOnUse">
<stop stop-color="#A7ABAE"/>
<stop offset="1" stop-color="white"/>
</linearGradient>
<radialGradient id="paint134_radial" cx="0" cy="0" r="1" gradientUnits="userSpaceOnUse" gradientTransform="translate(139.346 100.812) rotate(180) scale(0.465366 0.466072)">
<stop stop-color="#9F19AB"/>
<stop offset="0.00767374" stop-color="#9C19A8"/>
<stop offset="0.1274" stop-color="#73127C"/>
<stop offset="0.2525" stop-color="#500C56"/>
<stop offset="0.3815" stop-color="#330836"/>
<stop offset="0.5157" stop-color="#1C041E"/>
<stop offset="0.6572" stop-color="#0C020D"/>
<stop offset="0.8111" stop-color="#030003"/>
<stop offset="1"/>
</radialGradient>
<radialGradient id="paint135_radial" cx="0" cy="0" r="1" gradientUnits="userSpaceOnUse" gradientTransform="translate(125.682 108.736) rotate(180) scale(11.9687 12.0648)">
<stop stop-color="#9F19AB"/>
<stop offset="0.00767374" stop-color="#9C19A8"/>
<stop offset="0.1274" stop-color="#73127C"/>
<stop offset="0.2525" stop-color="#500C56"/>
<stop offset="0.3815" stop-color="#330836"/>
<stop offset="0.5157" stop-color="#1C041E"/>
<stop offset="0.6572" stop-color="#0C020D"/>
<stop offset="0.8111" stop-color="#030003"/>
<stop offset="1"/>
</radialGradient>
<linearGradient id="paint136_linear" x1="111.102" y1="62.0283" x2="99.6624" y2="65.1932" gradientUnits="userSpaceOnUse">
<stop stop-color="#014282"/>
<stop offset="0.2257" stop-color="#0E578E"/>
<stop offset="0.5946" stop-color="#0E578E"/>
<stop offset="1" stop-color="#1566A5"/>
</linearGradient>
<linearGradient id="paint137_linear" x1="106.192" y1="89.9944" x2="109.721" y2="94.0101" gradientUnits="userSpaceOnUse">
<stop stop-color="#A5A9AB"/>
<stop offset="1" stop-color="white"/>
</linearGradient>
<radialGradient id="paint138_radial" cx="0" cy="0" r="1" gradientUnits="userSpaceOnUse" gradientTransform="translate(106.899 91.9174) rotate(180) scale(1.39105 1.40224)">
<stop stop-color="white"/>
<stop offset="1"/>
</radialGradient>
<linearGradient id="paint139_linear" x1="107.267" y1="59.6562" x2="117.463" y2="77.2928" gradientUnits="userSpaceOnUse">
<stop offset="0.0101" stop-color="#A3A7AA"/>
<stop offset="0.5707" stop-color="white"/>
<stop offset="1" stop-color="#A3A7AA"/>
</linearGradient>
<linearGradient id="paint140_linear" x1="107.26" y1="81.1459" x2="93.7915" y2="74.1979" gradientUnits="userSpaceOnUse">
<stop stop-color="#A3A7AA"/>
<stop offset="1" stop-color="white"/>
</linearGradient>
<radialGradient id="paint141_radial" cx="0" cy="0" r="1" gradientUnits="userSpaceOnUse" gradientTransform="translate(100.625 75.1432) rotate(180) scale(7.44974 7.50959)">
<stop stop-color="white"/>
<stop offset="1"/>
</radialGradient>
<linearGradient id="paint142_linear" x1="116.42" y1="109.156" x2="120.857" y2="110.483" gradientUnits="userSpaceOnUse">
<stop stop-color="#9F79C8"/>
<stop offset="0.1367" stop-color="#A580CB"/>
<stop offset="0.3288" stop-color="#B492D3"/>
<stop offset="0.5529" stop-color="#CDB0E1"/>
<stop offset="0.5808" stop-color="#D1B4E3"/>
<stop offset="0.7644" stop-color="#DBC4E9"/>
<stop offset="1" stop-color="#EBDEF3"/>
</linearGradient>
<linearGradient id="paint143_linear" x1="139.767" y1="97.0855" x2="136.638" y2="101.671" gradientUnits="userSpaceOnUse">
<stop stop-color="#9F79C8"/>
<stop offset="0.1367" stop-color="#A580CB"/>
<stop offset="0.3288" stop-color="#B492D3"/>
<stop offset="0.5529" stop-color="#CDB0E1"/>
<stop offset="0.5808" stop-color="#D1B4E3"/>
<stop offset="0.7644" stop-color="#DBC4E9"/>
<stop offset="1" stop-color="#EBDEF3"/>
</linearGradient>
<linearGradient id="paint144_linear" x1="116.42" y1="108.837" x2="120.857" y2="110.164" gradientUnits="userSpaceOnUse">
<stop stop-color="#F7AA90"/>
<stop offset="0.4291" stop-color="#FACDBD"/>
<stop offset="1" stop-color="white"/>
</linearGradient>
<linearGradient id="paint145_linear" x1="139.767" y1="96.8376" x2="136.638" y2="101.422" gradientUnits="userSpaceOnUse">
<stop stop-color="#F7AA90"/>
<stop offset="0.4291" stop-color="#FACDBD"/>
<stop offset="1" stop-color="white"/>
</linearGradient>
<linearGradient id="paint146_linear" x1="140.034" y1="90.432" x2="133.773" y2="95.8615" gradientUnits="userSpaceOnUse">
<stop stop-color="#014282"/>
<stop offset="0.2257" stop-color="#0E578E"/>
<stop offset="0.5946" stop-color="#0E578E"/>
<stop offset="1" stop-color="#1566A5"/>
</linearGradient>
<linearGradient id="paint147_linear" x1="117.52" y1="114.908" x2="123.221" y2="116.165" gradientUnits="userSpaceOnUse">
<stop stop-color="#F7AA90"/>
<stop offset="0.4291" stop-color="#FACDBD"/>
<stop offset="1" stop-color="white"/>
</linearGradient>
<linearGradient id="paint148_linear" x1="125.21" y1="110.228" x2="123.096" y2="116.821" gradientUnits="userSpaceOnUse">
<stop stop-color="#014282"/>
<stop offset="0.2257" stop-color="#0E578E"/>
<stop offset="0.5946" stop-color="#0E578E"/>
<stop offset="1" stop-color="#1566A5"/>
</linearGradient>
<linearGradient id="paint149_linear" x1="140.607" y1="102.741" x2="135.852" y2="108.304" gradientUnits="userSpaceOnUse">
<stop stop-color="#F7AA90"/>
<stop offset="0.4291" stop-color="#FACDBD"/>
<stop offset="1" stop-color="white"/>
</linearGradient>
<linearGradient id="paint150_linear" x1="141.456" y1="94.1858" x2="132.897" y2="103.709" gradientUnits="userSpaceOnUse">
<stop stop-color="#014282"/>
<stop offset="0.2257" stop-color="#0E578E"/>
<stop offset="0.5946" stop-color="#0E578E"/>
<stop offset="1" stop-color="#1566A5"/>
</linearGradient>
<linearGradient id="paint151_linear" x1="129.814" y1="109.832" x2="130.359" y2="112.536" gradientUnits="userSpaceOnUse">
<stop stop-color="#A9ACAF"/>
<stop offset="1" stop-color="white"/>
</linearGradient>
<linearGradient id="paint152_linear" x1="122.066" y1="109.176" x2="115.287" y2="107.163" gradientUnits="userSpaceOnUse">
<stop stop-color="#7C1DC9"/>
<stop offset="0.0188" stop-color="#8023CB"/>
<stop offset="0.2255" stop-color="#A665DA"/>
<stop offset="0.4221" stop-color="#C69CE7"/>
<stop offset="0.6032" stop-color="#DEC7F2"/>
<stop offset="0.7655" stop-color="#F0E6F9"/>
<stop offset="0.9033" stop-color="#FBF8FD"/>
<stop offset="1" stop-color="white"/>
</linearGradient>
<linearGradient id="paint153_linear" x1="118.856" y1="108.348" x2="120.576" y2="108.348" gradientUnits="userSpaceOnUse">
<stop offset="0.0354" stop-color="#FFA98C"/>
<stop offset="0.3169" stop-color="#FFB892"/>
<stop offset="0.8601" stop-color="#FEE1A3"/>
<stop offset="1" stop-color="#FEECA8"/>
</linearGradient>
<linearGradient id="paint154_linear" x1="120.837" y1="108.408" x2="119.608" y2="108.408" gradientUnits="userSpaceOnUse">
<stop offset="0.0354" stop-color="#FFA98C"/>
<stop offset="0.3169" stop-color="#FFB892"/>
<stop offset="0.8601" stop-color="#FEE1A3"/>
<stop offset="1" stop-color="#FEECA8"/>
</linearGradient>
<linearGradient id="paint155_linear" x1="137.267" y1="99.1755" x2="138.987" y2="99.1755" gradientUnits="userSpaceOnUse">
<stop offset="0.0354" stop-color="#FFA98C"/>
<stop offset="0.3169" stop-color="#FFB892"/>
<stop offset="0.8601" stop-color="#FEE1A3"/>
<stop offset="1" stop-color="#FEECA8"/>
</linearGradient>
<linearGradient id="paint156_linear" x1="139.248" y1="99.2358" x2="138.019" y2="99.2358" gradientUnits="userSpaceOnUse">
<stop offset="0.0354" stop-color="#FFA98C"/>
<stop offset="0.3169" stop-color="#FFB892"/>
<stop offset="0.8601" stop-color="#FEE1A3"/>
<stop offset="1" stop-color="#FEECA8"/>
</linearGradient>
<linearGradient id="paint157_linear" x1="119.392" y1="116.179" x2="120.746" y2="116.179" gradientUnits="userSpaceOnUse">
<stop offset="0.0354" stop-color="#FFA98C"/>
<stop offset="0.3169" stop-color="#FFB892"/>
<stop offset="0.8601" stop-color="#FEE1A3"/>
<stop offset="1" stop-color="#FEECA8"/>
</linearGradient>
<linearGradient id="paint158_linear" x1="120.961" y1="116.198" x2="119.947" y2="116.198" gradientUnits="userSpaceOnUse">
<stop offset="0.0354" stop-color="#FFA98C"/>
<stop offset="0.3169" stop-color="#FFB892"/>
<stop offset="0.8601" stop-color="#FEE1A3"/>
<stop offset="1" stop-color="#FEECA8"/>
</linearGradient>
<linearGradient id="paint159_linear" x1="120.975" y1="115.195" x2="122.329" y2="115.195" gradientUnits="userSpaceOnUse">
<stop offset="0.0354" stop-color="#FFA98C"/>
<stop offset="0.3169" stop-color="#FFB892"/>
<stop offset="0.8601" stop-color="#FEE1A3"/>
<stop offset="1" stop-color="#FEECA8"/>
</linearGradient>
<linearGradient id="paint160_linear" x1="122.546" y1="115.214" x2="121.532" y2="115.214" gradientUnits="userSpaceOnUse">
<stop offset="0.0354" stop-color="#FFA98C"/>
<stop offset="0.3169" stop-color="#FFB892"/>
<stop offset="0.8601" stop-color="#FEE1A3"/>
<stop offset="1" stop-color="#FEECA8"/>
</linearGradient>
<linearGradient id="paint161_linear" x1="136.404" y1="106.475" x2="137.759" y2="106.475" gradientUnits="userSpaceOnUse">
<stop offset="0.0354" stop-color="#FFA98C"/>
<stop offset="0.3169" stop-color="#FFB892"/>
<stop offset="0.8601" stop-color="#FEE1A3"/>
<stop offset="1" stop-color="#FEECA8"/>
</linearGradient>
<linearGradient id="paint162_linear" x1="137.975" y1="106.494" x2="136.96" y2="106.494" gradientUnits="userSpaceOnUse">
<stop offset="0.0354" stop-color="#FFA98C"/>
<stop offset="0.3169" stop-color="#FFB892"/>
<stop offset="0.8601" stop-color="#FEE1A3"/>
<stop offset="1" stop-color="#FEECA8"/>
</linearGradient>
<linearGradient id="paint163_linear" x1="137.908" y1="105.544" x2="139.262" y2="105.544" gradientUnits="userSpaceOnUse">
<stop offset="0.0354" stop-color="#FFA98C"/>
<stop offset="0.3169" stop-color="#FFB892"/>
<stop offset="0.8601" stop-color="#FEE1A3"/>
<stop offset="1" stop-color="#FEECA8"/>
</linearGradient>
<linearGradient id="paint164_linear" x1="139.477" y1="105.563" x2="138.463" y2="105.563" gradientUnits="userSpaceOnUse">
<stop offset="0.0354" stop-color="#FFA98C"/>
<stop offset="0.3169" stop-color="#FFB892"/>
<stop offset="0.8601" stop-color="#FEE1A3"/>
<stop offset="1" stop-color="#FEECA8"/>
</linearGradient>
<linearGradient id="paint165_linear" x1="116.692" y1="109.587" x2="119.464" y2="109.587" gradientUnits="userSpaceOnUse">
<stop offset="0.0354" stop-color="#FFA98C"/>
<stop offset="0.3169" stop-color="#FFB892"/>
<stop offset="0.8601" stop-color="#FEE1A3"/>
<stop offset="1" stop-color="#FEECA8"/>
</linearGradient>
<linearGradient id="paint166_linear" x1="119.728" y1="109.789" x2="118.488" y2="109.789" gradientUnits="userSpaceOnUse">
<stop offset="0.0354" stop-color="#FFA98C"/>
<stop offset="0.3169" stop-color="#FFB892"/>
<stop offset="0.8601" stop-color="#FEE1A3"/>
<stop offset="1" stop-color="#FEECA8"/>
</linearGradient>
<linearGradient id="paint167_linear" x1="121.279" y1="98.818" x2="113.8" y2="106.429" gradientUnits="userSpaceOnUse">
<stop stop-color="#014282"/>
<stop offset="0.2257" stop-color="#0E578E"/>
<stop offset="0.5946" stop-color="#0E578E"/>
<stop offset="1" stop-color="#1566A5"/>
</linearGradient>
<linearGradient id="paint168_linear" x1="133.034" y1="109.291" x2="127.09" y2="114.115" gradientUnits="userSpaceOnUse">
<stop stop-color="#DBDBDB"/>
<stop offset="1" stop-color="white"/>
</linearGradient>
<radialGradient id="paint169_radial" cx="0" cy="0" r="1" gradientUnits="userSpaceOnUse" gradientTransform="translate(126.971 110.719) rotate(180) scale(2.94716 2.97081)">
<stop stop-color="white"/>
<stop offset="1"/>
</radialGradient>
<radialGradient id="paint170_radial" cx="0" cy="0" r="1" gradientUnits="userSpaceOnUse" gradientTransform="translate(128.46 95.0566) rotate(180) scale(6.89404 6.94936)">
<stop stop-color="white"/>
<stop offset="1"/>
</radialGradient>
<linearGradient id="paint171_linear" x1="123.705" y1="108.955" x2="119.707" y2="116.417" gradientUnits="userSpaceOnUse">
<stop stop-color="#014282"/>
<stop offset="0.2257" stop-color="#0E578E"/>
<stop offset="0.5946" stop-color="#0E578E"/>
<stop offset="1" stop-color="#1566A5"/>
</linearGradient>
<linearGradient id="paint172_linear" x1="141.261" y1="98.3114" x2="136.984" y2="105.381" gradientUnits="userSpaceOnUse">
<stop stop-color="#014282"/>
<stop offset="0.2257" stop-color="#0E578E"/>
<stop offset="0.5946" stop-color="#0E578E"/>
<stop offset="1" stop-color="#1566A5"/>
</linearGradient>
<radialGradient id="paint173_radial" cx="0" cy="0" r="1" gradientUnits="userSpaceOnUse" gradientTransform="translate(137.691 99.8325) rotate(180) scale(2.70066 2.72241)">
<stop stop-color="white"/>
<stop offset="1"/>
</radialGradient>
<linearGradient id="paint174_linear" x1="138.939" y1="99.5482" x2="150.989" y2="106.058" gradientUnits="userSpaceOnUse">
<stop stop-color="#FDD65B"/>
<stop offset="1" stop-color="white" stop-opacity="0"/>
</linearGradient>
<linearGradient id="paint175_linear" x1="138.402" y1="106.043" x2="145.949" y2="110.321" gradientUnits="userSpaceOnUse">
<stop stop-color="#FDD65B"/>
<stop offset="1" stop-color="white" stop-opacity="0"/>
</linearGradient>
<linearGradient id="paint176_linear" x1="120.684" y1="116.327" x2="127.153" y2="120.071" gradientUnits="userSpaceOnUse">
<stop stop-color="#FDD65B"/>
<stop offset="1" stop-color="white" stop-opacity="0"/>
</linearGradient>
<linearGradient id="paint177_linear" x1="119.61" y1="109.291" x2="139.013" y2="119.984" gradientUnits="userSpaceOnUse">
<stop stop-color="#DBCD4C"/>
<stop offset="1" stop-color="white" stop-opacity="0"/>
</linearGradient>
</defs>
</svg>
